<svg width="61" height="44" viewBox="0 0 61 44" fill="none" xmlns="http://www.w3.org/2000/svg">
<rect x="0.518555" y="12.0122" width="32.1482" height="30.5926" fill="#F4412D"/>
<path d="M24.5073 33.0033C24.8811 32.654 25.4683 32.6728 25.8185 33.0455C26.1689 33.4181 26.15 34.0034 25.7763 34.3528L24.3771 35.6606C24.198 35.8279 23.9701 35.9107 23.7427 35.9107C23.4952 35.9107 23.2484 35.8127 23.0658 35.6185C22.7155 35.2458 22.7344 34.6605 23.108 34.3112L24.5073 33.0033Z" fill="white"/>
<path d="M24.8141 37.1515L27.4237 34.7123C27.7975 34.3629 28.3844 34.3817 28.7349 34.7545C29.0853 35.1271 29.0664 35.7123 28.6927 36.0617L26.0831 38.501C25.904 38.6682 25.6761 38.7511 25.4488 38.7511C25.2013 38.7511 24.9545 38.653 24.7718 38.4588C24.4215 38.0862 24.4404 37.5008 24.8141 37.1515Z" fill="white"/>
<path d="M32.8777 11.1421H26.6478V9.53562C26.6478 4.27907 22.3708 0 17.1121 0C11.8556 0 7.57653 4.27701 7.57653 9.53562V11.14H1.34662C0.604225 11.14 0 11.7442 0 12.4866V42.2071C0 42.9495 0.604225 43.5537 1.34662 43.5537H32.8756C33.618 43.5537 34.2222 42.9495 34.2222 42.2071V12.4887C34.2243 11.7463 33.6201 11.1421 32.8777 11.1421ZM9.75125 17.2276V12.7983H24.4689V17.2276C24.4689 18.4938 26.6436 18.4938 26.6436 17.2276V12.7983H32.564V41.8996H1.65826V12.7983H7.57653V17.2276C7.57653 18.5305 9.75125 18.5334 9.75125 17.2276ZM17.1121 1.65826C21.921 1.65826 24.471 5.76385 24.471 9.53562V11.14H9.75331V9.53562C9.75331 5.76385 12.3033 1.65826 17.1121 1.65826Z" fill="black"/>
<rect x="13.4817" y="12.0122" width="32.1482" height="30.5926" fill="#F4412D"/>
<path d="M37.4702 33.0033C37.844 32.654 38.4311 32.6728 38.7814 33.0455C39.1318 33.4181 39.1129 34.0034 38.7392 34.3528L37.34 35.6606C37.1609 35.8279 36.933 35.9107 36.7056 35.9107C36.4581 35.9107 36.2113 35.8127 36.0287 35.6185C35.6784 35.2458 35.6973 34.6605 36.0709 34.3112L37.4702 33.0033Z" fill="white"/>
<path d="M37.7769 37.1515L40.3866 34.7123C40.7604 34.3629 41.3473 34.3817 41.6978 34.7545C42.0482 35.1271 42.0293 35.7123 41.6556 36.0617L39.046 38.501C38.8669 38.6682 38.639 38.7511 38.4116 38.7511C38.1641 38.7511 37.9174 38.653 37.7347 38.4588C37.3844 38.0862 37.4033 37.5008 37.7769 37.1515Z" fill="white"/>
<path d="M45.8406 11.1421H39.6107V9.53562C39.6107 4.27907 35.3337 0 30.075 0C24.8185 0 20.5394 4.27701 20.5394 9.53562V11.14H14.3095C13.5671 11.14 12.9629 11.7442 12.9629 12.4866V42.2071C12.9629 42.9495 13.5671 43.5537 14.3095 43.5537H45.8385C46.5809 43.5537 47.1851 42.9495 47.1851 42.2071V12.4887C47.1872 11.7463 46.583 11.1421 45.8406 11.1421ZM22.7141 17.2276V12.7983H37.4318V17.2276C37.4318 18.4938 39.6065 18.4938 39.6065 17.2276V12.7983H45.5269V41.8996H14.6212V12.7983H20.5394V17.2276C20.5394 18.5305 22.7141 18.5334 22.7141 17.2276ZM30.075 1.65826C34.8838 1.65826 37.4339 5.76385 37.4339 9.53562V11.14H22.7162V9.53562C22.7162 5.76385 25.2662 1.65826 30.075 1.65826Z" fill="black"/>
<rect x="26.4443" y="12.0122" width="32.1482" height="30.5926" fill="#F4412D"/>
<path d="M50.4331 33.0033C50.8069 32.654 51.394 32.6728 51.7443 33.0455C52.0947 33.4181 52.0758 34.0034 51.7021 34.3528L50.3028 35.6606C50.1238 35.8279 49.8959 35.9107 49.6685 35.9107C49.421 35.9107 49.1742 35.8127 48.9916 35.6185C48.6412 35.2458 48.6602 34.6605 49.0338 34.3112L50.4331 33.0033Z" fill="white"/>
<path d="M50.7398 37.1515L53.3495 34.7123C53.7232 34.3629 54.3102 34.3817 54.6607 34.7545C55.0111 35.1271 54.9922 35.7123 54.6185 36.0617L52.0089 38.501C51.8298 38.6682 51.6019 38.7511 51.3745 38.7511C51.127 38.7511 50.8803 38.653 50.6976 38.4588C50.3473 38.0862 50.3662 37.5008 50.7398 37.1515Z" fill="white"/>
<path d="M58.8035 11.1421H52.5736V9.53562C52.5736 4.27907 48.2965 0 43.0379 0C37.7814 0 33.5023 4.27701 33.5023 9.53562V11.14H27.2724C26.53 11.14 25.9258 11.7442 25.9258 12.4866V42.2071C25.9258 42.9495 26.53 43.5537 27.2724 43.5537H58.8014C59.5438 43.5537 60.148 42.9495 60.148 42.2071V12.4887C60.1501 11.7463 59.5459 11.1421 58.8035 11.1421ZM35.677 17.2276V12.7983H50.3947V17.2276C50.3947 18.4938 52.5694 18.4938 52.5694 17.2276V12.7983H58.4898V41.8996H27.584V12.7983H33.5023V17.2276C33.5023 18.5305 35.677 18.5334 35.677 17.2276ZM43.0379 1.65826C47.8467 1.65826 50.3968 5.76385 50.3968 9.53562V11.14H35.6791V9.53562C35.6791 5.76385 38.2291 1.65826 43.0379 1.65826Z" fill="black"/>
</svg>
