<svg xmlns="http://www.w3.org/2000/svg" width="70" height="48" fill="none" viewBox="0 0 70 48"><path fill="#F4412D" d="M10.1362 25.3408H45.6132V41.6715H10.1362V25.3408Z"/><path fill="#fff" d="M3.94161 20.2723V42.2343H9.85445L10.136 25.3405H46.1762V42.2343H52.3706V20.2723H55.1862V13.2332L49.2734 1.12598H6.75725L1.12598 13.2332V20.2723H3.94161Z"/><path fill="#101010" fill-rule="evenodd" d="M54.1044 18.8997H52.4609H3.8869H2.20834V14.5288H11.9218C11.9218 14.5288 11.9243 14.5291 11.9256 14.5291C11.9277 14.5291 11.93 14.5288 11.9322 14.5288H22.7432C22.7445 14.5288 22.7459 14.529 22.7474 14.529C22.7474 14.529 22.7497 14.5288 22.7509 14.5288H33.6258C33.627 14.5288 33.6293 14.529 33.6293 14.529C33.6307 14.529 33.6322 14.5288 33.6335 14.5288H44.4445C44.4466 14.5288 44.4489 14.5291 44.4511 14.5291C44.4523 14.5291 44.4536 14.5288 44.4548 14.5288H54.1044V18.8997ZM51.3568 41.5371H47.3193V24.8976C47.3193 24.2896 46.8248 23.7968 46.2151 23.7968H10.133C9.52314 23.7968 9.02881 24.2896 9.02881 24.8976V41.5371H4.99107V21.1014H51.3568V41.5371ZM11.2372 41.537H45.1109V25.9985H11.2372V41.537ZM7.34119 2.2017H14.0663L11.0975 12.3271H2.80647L7.34119 2.2017ZM34.5776 12.3271L33.0103 2.2017H40.0098L42.9784 12.3271H34.5776ZM25.6009 2.2017H30.7758L32.3431 12.3271H24.0335L25.6009 2.2017ZM13.3982 12.3271L16.367 2.2017H23.3665L21.7991 12.3271H13.3982ZM53.4923 12.3271H45.2793L42.3104 2.2017H48.8669L53.4923 12.3271ZM56.3111 13.3947C56.3105 13.3794 56.3099 13.3641 56.3088 13.3488C56.3065 13.319 56.3031 13.2897 56.2986 13.2605C56.2967 13.2486 56.2954 13.2367 56.2932 13.2248C56.2772 13.1395 56.2513 13.0577 56.2169 12.9806C56.2156 12.9777 56.2147 12.9746 56.2135 12.9717L50.5822 0.644548C50.4029 0.251985 50.01 0 49.5773 0H40.8581C40.8567 0 40.855 0 40.8534 0H15.5239C15.5221 0.000110091 15.5202 0 15.5185 0H6.62503C6.18943 0 5.79447 0.255397 5.61681 0.652034L0.0959525 12.9791C0.0950691 12.981 0.0945171 12.983 0.0938545 12.985C0.0761878 13.0248 0.0605086 13.0659 0.0478106 13.1082C0.0471481 13.1104 0.0467064 13.1126 0.0460439 13.1147C0.0347814 13.1521 0.025948 13.1904 0.0188813 13.2294C0.0164522 13.2419 0.0150167 13.2545 0.0130292 13.267C0.00894379 13.2955 0.00574169 13.3243 0.00375418 13.3534C0.00265001 13.3686 0.00187709 13.3837 0.00143542 13.3989C0.00121459 13.4087 0 13.4182 0 13.428V20.0006C0 20.6086 0.494448 21.1014 1.10417 21.1014H2.78273V42.6379C2.78273 43.2459 3.27718 43.7388 3.8869 43.7388H10.133H46.2151H52.4609C53.0708 43.7388 53.5651 43.2459 53.5651 42.6379V21.1014H55.2086C55.8183 21.1014 56.3127 20.6086 56.3127 20.0006V13.428C56.3127 13.4167 56.3113 13.4058 56.3111 13.3947Z" clip-rule="evenodd"/><path fill="#fff" d="M35.1107 31.5892C35.5557 31.1734 36.2545 31.1957 36.6714 31.6394C37.0885 32.0829 37.066 32.7795 36.6212 33.1954L34.9557 34.7521C34.7426 34.9512 34.4713 35.0498 34.2006 35.0498C33.906 35.0498 33.6122 34.9331 33.3949 34.7019C32.9779 34.2584 33.0004 33.5617 33.4452 33.1459L35.1107 31.5892Z"/><path fill="#fff" d="M18.9908 28.2763C19.4358 27.8604 20.1346 27.8829 20.5515 28.3265C20.9686 28.7701 20.946 29.4667 20.5013 29.8826L17.395 32.7858C17.1819 32.985 16.9106 33.0836 16.64 33.0836C16.3454 33.0836 16.0516 32.9668 15.8343 32.7356C15.4172 32.2921 15.4398 31.5955 15.8845 31.1796L18.9908 28.2763Z"/><path fill="#fff" d="M20.163 32.3446L21.8285 30.7879C22.2734 30.372 22.9722 30.3945 23.3893 30.8381C23.8063 31.2816 23.7838 31.9782 23.339 32.3942L21.6735 33.9509C21.4604 34.15 21.1891 34.2486 20.9185 34.2486C20.6239 34.2486 20.3301 34.1318 20.1128 33.9007C19.6957 33.4571 19.7182 32.7604 20.163 32.3446Z"/><path fill="#fff" d="M35.4758 36.5267L38.5821 33.6233C39.0269 33.2074 39.7255 33.2299 40.1428 33.6735C40.5599 34.1171 40.5373 34.8137 40.0926 35.2296L36.9863 38.133C36.7732 38.332 36.5019 38.4306 36.2313 38.4306C35.9367 38.4306 35.643 38.3139 35.4256 38.0828C35.0085 37.6392 35.0311 36.9425 35.4758 36.5267Z"/><path fill="#fff" d="M68 27.7734C68 37.3176 60.2629 45.0547 50.7188 45.0547C41.1746 45.0547 33.4375 37.3176 33.4375 27.7734C33.4375 18.2293 41.1746 10.4922 50.7188 10.4922C60.2629 10.4922 68 18.2293 68 27.7734Z"/><path fill="#000" fill-rule="evenodd" d="M70 27.7734C70 38.4222 61.3675 47.0547 50.7188 47.0547C40.07 47.0547 31.4375 38.4222 31.4375 27.7734C31.4375 17.1247 40.07 8.49219 50.7188 8.49219C61.3675 8.49219 70 17.1247 70 27.7734ZM50.7188 45.0547C60.2629 45.0547 68 37.3176 68 27.7734C68 18.2293 60.2629 10.4922 50.7188 10.4922C41.1746 10.4922 33.4375 18.2293 33.4375 27.7734C33.4375 37.3176 41.1746 45.0547 50.7188 45.0547Z" clip-rule="evenodd"/><path fill="#fff" d="M51.5329 29.5935C54.4033 29.5935 55.8438 28.2746 55.8317 25.8826C55.8438 23.605 54.4636 22.0813 51.5329 22.0813H48.0712C47.5189 22.0813 47.0712 22.529 47.0712 23.0813V27.0719C47.0712 27.5564 46.6784 27.9493 46.1938 27.9493H46.1385C45.6845 27.9493 45.3164 28.3173 45.3164 28.7714C45.3164 29.2254 45.6845 29.5935 46.1385 29.5935H46.2933C46.7229 29.5935 47.0712 29.9418 47.0712 30.3715C47.0712 30.8011 46.7229 31.1494 46.2933 31.1494H46.0722C45.6548 31.1494 45.3164 31.4878 45.3164 31.9053C45.3164 32.3227 45.6548 32.6611 46.0722 32.6611H46.2819C46.7178 32.6611 47.0712 33.0145 47.0712 33.4504C47.0712 33.8863 47.4246 34.2397 47.8605 34.2397H48.5123C48.9483 34.2397 49.3017 33.8863 49.3017 33.4504C49.3017 33.0145 49.6551 32.6611 50.091 32.6611H51.2414C51.6588 32.6611 51.9972 32.3227 51.9972 31.9053C51.9972 31.4878 51.6588 31.1494 51.2414 31.1494H50.0796C49.65 31.1494 49.3017 30.8011 49.3017 30.3715C49.3017 29.9418 49.65 29.5935 50.0796 29.5935H51.5329ZM50.3017 27.9493C49.7494 27.9493 49.3017 27.5016 49.3017 26.9493V24.7556C49.3017 24.2033 49.7494 23.7556 50.3017 23.7556H51.5329C52.9138 23.7556 53.5892 24.8522 53.5832 25.9127C53.5892 26.9973 52.9259 27.9493 51.4605 27.9493H50.3017Z"/><path fill="#000" fill-rule="evenodd" d="M52.959 24.3069C53.3798 24.7241 53.5865 25.324 53.5832 25.9127C53.5863 26.4666 53.4148 26.9858 53.0511 27.3614C52.7144 27.7091 52.213 27.9336 51.5329 27.9485C51.509 27.949 51.4849 27.9493 51.4605 27.9493H50.3017C50.2254 27.9493 50.151 27.9407 50.0796 27.9245C49.8843 27.8803 49.7108 27.7788 49.5774 27.6388C49.4065 27.4594 49.3017 27.2166 49.3017 26.9493V24.7556C49.3017 24.4958 49.4008 24.2591 49.5632 24.0813C49.7461 23.8812 50.0092 23.7556 50.3017 23.7556H51.5329C52.1471 23.7556 52.6218 23.9726 52.959 24.3069ZM48.0712 22.0813C47.5189 22.0813 47.0712 22.529 47.0712 23.0813V27.0719C47.0712 27.2933 46.9892 27.4957 46.8538 27.6501C46.8192 27.6895 46.7812 27.7258 46.7401 27.7585C46.6146 27.8585 46.4611 27.9248 46.2933 27.9437C46.2606 27.9474 46.2274 27.9493 46.1938 27.9493H46.1385C45.6845 27.9493 45.3164 28.3173 45.3164 28.7714C45.3164 28.9369 45.3653 29.0911 45.4495 29.2201C45.4873 29.2779 45.5321 29.3306 45.5827 29.3771C45.7138 29.4975 45.8841 29.5758 46.0722 29.5908C46.0941 29.5926 46.1162 29.5935 46.1385 29.5935H46.2933C46.4759 29.5935 46.6438 29.6564 46.7765 29.7617C46.8158 29.7929 46.852 29.8278 46.8845 29.8658C47.0009 30.0018 47.0712 30.1784 47.0712 30.3715C47.0712 30.5079 47.0361 30.6362 46.9744 30.7477C46.938 30.8134 46.8924 30.8733 46.8393 30.9256C46.6988 31.064 46.506 31.1494 46.2933 31.1494H46.0722C45.8747 31.1494 45.6949 31.2252 45.5602 31.3493C45.5107 31.3949 45.4674 31.4469 45.4315 31.5042C45.3586 31.6204 45.3164 31.7579 45.3164 31.9053C45.3164 32.3227 45.6548 32.6611 46.0722 32.6611H46.2819C46.2857 32.6611 46.2895 32.6611 46.2933 32.6612C46.5045 32.6641 46.6956 32.7501 46.8356 32.8878C46.8889 32.9403 46.9347 33.0003 46.9715 33.066C47.035 33.1798 47.0712 33.3109 47.0712 33.4504C47.0712 33.8863 47.4246 34.2397 47.8605 34.2397H48.5123C48.9483 34.2397 49.3017 33.8863 49.3017 33.4504C49.3017 33.3109 49.3379 33.1798 49.4014 33.066C49.5346 32.8275 49.788 32.6653 50.0796 32.6612C50.0834 32.6611 50.0872 32.6611 50.091 32.6611H51.2414C51.6588 32.6611 51.9972 32.3227 51.9972 31.9053C51.9972 31.7913 51.972 31.6833 51.9269 31.5864C51.8475 31.4162 51.7067 31.2804 51.5329 31.2077C51.4432 31.1702 51.3447 31.1494 51.2414 31.1494H50.0796C49.7865 31.1494 49.5311 30.9872 49.3985 30.7477C49.3368 30.6362 49.3017 30.5079 49.3017 30.3715C49.3017 30.1676 49.3801 29.982 49.5084 29.8433C49.6505 29.6897 49.8539 29.5935 50.0796 29.5935H51.5329C51.9231 29.5935 52.2869 29.5691 52.6242 29.521C53.2262 29.4351 53.7439 29.2735 54.1769 29.0397C55.2858 28.4411 55.8392 27.3691 55.8317 25.8826C55.8395 24.4105 55.2657 23.2534 54.0676 22.619C53.412 22.2719 52.5694 22.0813 51.5329 22.0813H48.0712ZM57.8317 25.8828C57.8378 24.3374 57.3626 22.8023 56.1539 21.6689C54.9605 20.5499 53.3273 20.0813 51.5329 20.0813H48.0712C46.4144 20.0813 45.0712 21.4244 45.0712 23.0813V26.1581C44.0418 26.5789 43.3164 27.5904 43.3164 28.7714C43.3164 29.3555 43.4939 29.8983 43.7979 30.3485C43.4941 30.7915 43.3164 31.3276 43.3164 31.9053C43.3164 33.1579 44.1522 34.2154 45.2965 34.5504C45.7233 35.5439 46.7107 36.2397 47.8605 36.2397H48.5123C49.619 36.2397 50.5752 35.5952 51.0259 34.6611H51.2414C52.7634 34.6611 53.9972 33.4273 53.9972 31.9053C53.9972 31.6919 53.973 31.4841 53.9271 31.2847C54.7234 31.0556 55.4565 30.6869 56.0814 30.1392C57.3431 29.0335 57.8377 27.4888 57.8317 25.8828ZM51.5832 25.9126L51.5832 25.9013C51.5835 25.8475 51.5747 25.7983 51.5624 25.7612C51.5618 25.7595 51.5612 25.7579 51.5607 25.7563C51.5526 25.7559 51.5434 25.7556 51.5329 25.7556H51.3017V25.9493H51.4605C51.511 25.9493 51.5514 25.9465 51.583 25.9429C51.5832 25.9368 51.5833 25.9305 51.5832 25.9238L51.5832 25.9126Z" clip-rule="evenodd"/><path fill="#101010" fill-rule="evenodd" d="M39.9493 25.3193C41.1172 20.3987 45.5401 16.7383 50.818 16.7383C55.8045 16.7383 60.0304 20.0065 61.4654 24.5203L63.3714 23.9143C61.6801 18.5944 56.7007 14.7383 50.818 14.7383C44.5268 14.7383 39.266 19.1493 37.9594 25.0473L37.5781 24.3803L35.8418 25.373L37.5588 28.3762L38.1492 29.4089L39.0651 28.6498L41.7889 26.3923L40.5126 24.8524L39.9493 25.3193Z" clip-rule="evenodd"/><path fill="#101010" fill-rule="evenodd" d="M61.5089 30.7554C60.341 35.676 55.9181 39.3364 50.6403 39.3364C45.4611 39.3364 41.1029 35.8108 39.8395 31.027L37.9058 31.5378C39.3953 37.1774 44.5308 41.3364 50.6403 41.3364C56.9314 41.3364 62.1923 36.9254 63.4989 31.0274L63.8802 31.6944L65.6165 30.7017L63.8994 27.6985L63.309 26.6658L62.3932 27.4249L59.6694 29.6824L60.9456 31.2223L61.5089 30.7554Z" clip-rule="evenodd"/></svg>