<svg xmlns="http://www.w3.org/2000/svg" width="89" height="79" fill="none" viewBox="0 0 89 79"><path fill="#fff" d="M46.6282 43.9135C55.3634 43.9135 59.7469 39.9 59.7102 32.6206C59.7469 25.6896 55.5469 21.0527 46.6282 21.0527H34.0507C33.4984 21.0527 33.0507 21.5004 33.0507 22.0527V37.9099C33.0507 38.4622 32.603 38.9099 32.0507 38.9099H28.7105C28.1582 38.9099 27.7105 39.3576 27.7105 39.9099V42.9135C27.7105 43.4658 28.1582 43.9135 28.7105 43.9135H32.0507C32.603 43.9135 33.0507 44.3612 33.0507 44.9135V47.6485C33.0507 48.2008 32.603 48.6485 32.0507 48.6485H28.7105C28.1582 48.6485 27.7105 49.0962 27.7105 49.6485V52.2487C27.7105 52.801 28.1582 53.2487 28.7105 53.2487H32.0507C32.603 53.2487 33.0507 53.6964 33.0507 54.2487V57.0527C33.0507 57.605 33.4984 58.0527 34.0507 58.0527H38.8383C39.3905 58.0527 39.8383 57.605 39.8383 57.0527V54.2487C39.8383 53.6964 40.286 53.2487 40.8383 53.2487H47.0412C47.5935 53.2487 48.0412 52.801 48.0412 52.2487V49.6485C48.0412 49.0962 47.5935 48.6485 47.0412 48.6485H40.8383C40.286 48.6485 39.8383 48.2008 39.8383 47.6485V44.9135C39.8383 44.3612 40.286 43.9135 40.8383 43.9135H46.6282ZM40.8383 38.9099C40.286 38.9099 39.8383 38.4622 39.8383 37.9099V27.148C39.8383 26.5957 40.286 26.148 40.8383 26.148H46.6282C50.8306 26.148 52.886 29.4852 52.8676 32.7123C52.886 36.0128 50.8673 38.9099 46.408 38.9099H40.8383Z"/><path fill="#000" fill-rule="evenodd" d="M52.8676 32.7123C52.886 29.4852 50.8306 26.148 46.6282 26.148H40.8383C40.286 26.148 39.8383 26.5957 39.8383 27.148V37.9099C39.8383 38.4622 40.286 38.9099 40.8383 38.9099H46.408C50.8673 38.9099 52.886 36.0128 52.8676 32.7123ZM49.3676 32.7121L49.3677 32.6924C49.3728 31.7853 49.0788 30.9822 48.6477 30.4676C48.2842 30.0336 47.7068 29.648 46.6282 29.648H43.3383V35.4099H46.408C47.842 35.4099 48.4697 34.9702 48.7568 34.6622C49.0869 34.3081 49.373 33.6846 49.3677 32.7318L49.3676 32.7121ZM50.7575 47.1101C51.252 47.8327 51.5412 48.7068 51.5412 49.6485V52.2487C51.5412 54.734 49.5265 56.7487 47.0412 56.7487H43.3383V57.0527C43.3383 59.538 41.3235 61.5527 38.8383 61.5527H34.0507C31.5654 61.5527 29.5507 59.538 29.5507 57.0527V56.7487H28.7105C26.2252 56.7487 24.2105 54.734 24.2105 52.2487V49.6485C24.2105 48.3085 24.7961 47.1054 25.7255 46.281C24.7961 45.4566 24.2105 44.2534 24.2105 42.9135V39.9099C24.2105 37.4246 26.2252 35.4099 28.7105 35.4099H29.5507V22.0527C29.5507 19.5675 31.5654 17.5527 34.0507 17.5527H46.6282C51.6634 17.5527 55.9152 18.8655 58.9215 21.6844C61.9552 24.529 63.2287 28.4447 63.2103 32.6211C63.2285 36.9776 61.9015 40.8808 58.7655 43.6291C56.6143 45.5143 53.877 46.6202 50.7575 47.1101ZM59.7102 32.6206C59.7469 39.9 55.3634 43.9135 46.6282 43.9135H40.8383C40.286 43.9135 39.8383 44.3612 39.8383 44.9135V47.6485C39.8383 48.2008 40.286 48.6485 40.8383 48.6485H47.0412C47.5935 48.6485 48.0412 49.0962 48.0412 49.6485V52.2487C48.0412 52.801 47.5935 53.2487 47.0412 53.2487H40.8383C40.286 53.2487 39.8383 53.6964 39.8383 54.2487V57.0527C39.8383 57.605 39.3905 58.0527 38.8383 58.0527H34.0507C33.4984 58.0527 33.0507 57.605 33.0507 57.0527V54.2487C33.0507 53.6964 32.603 53.2487 32.0507 53.2487H28.7105C28.1582 53.2487 27.7105 52.801 27.7105 52.2487V49.6485C27.7105 49.0962 28.1582 48.6485 28.7105 48.6485H32.0507C32.603 48.6485 33.0507 48.2008 33.0507 47.6485V44.9135C33.0507 44.3612 32.603 43.9135 32.0507 43.9135H28.7105C28.1582 43.9135 27.7105 43.4658 27.7105 42.9135V39.9099C27.7105 39.3576 28.1582 38.9099 28.7105 38.9099H32.0507C32.603 38.9099 33.0507 38.4622 33.0507 37.9099V22.0527C33.0507 21.5004 33.4984 21.0527 34.0507 21.0527H46.6282C55.5469 21.0527 59.7469 25.6896 59.7102 32.6206Z" clip-rule="evenodd"/><path fill="#101010" fill-rule="evenodd" d="M9.46559 34.1708C11.7265 16.8637 26.5289 3.5 44.4526 3.5C60.2069 3.5 73.554 13.8258 78.0867 28.0832L81.4222 27.0228C76.441 11.3547 61.7751 0 44.4526 0C24.7088 0 8.41068 14.7522 5.97947 33.8354L3.03848 28.6912L0 30.4283L5.22512 39.5677L6.25833 41.3749L7.86109 40.0465L16.1501 33.1764L13.9167 30.4817L9.46559 34.1708Z" clip-rule="evenodd"/><path fill="#101010" fill-rule="evenodd" d="M78.8983 44.1851C76.6375 61.4922 61.835 74.856 43.9113 74.856C27.5489 74.856 13.7836 63.7174 9.79249 48.6062L6.40853 49.5C10.7952 66.1089 25.9208 78.356 43.9113 78.356C63.655 78.356 79.9532 63.6037 82.3844 44.5207L85.3254 49.6648L88.3639 47.9277L83.1387 38.7882L82.1055 36.981L80.5028 38.3094L72.2137 45.1795L74.4472 47.8743L78.8983 44.1851Z" clip-rule="evenodd"/></svg>