<svg xmlns="http://www.w3.org/2000/svg" width="199" height="78" fill="none" viewBox="0 0 199 78"><path fill="#F4412D" d="M0.921295 21.7876H58.0417V76.1441H0.921295V21.7876Z"/><path fill="#fff" d="M43.544 59.0836C44.2082 58.463 45.2514 58.4963 45.8738 59.1586C46.4963 59.8206 46.4627 60.8605 45.7988 61.4813L43.3126 63.8051C42.9945 64.1022 42.5895 64.2494 42.1855 64.2494C41.7458 64.2494 41.3072 64.0753 40.9828 63.7302C40.3603 63.0681 40.3939 62.0281 41.0578 61.4074L43.544 59.0836Z"/><path fill="#fff" d="M44.089 66.4541L48.7258 62.1201C49.3899 61.4993 50.4327 61.5328 51.0556 62.195C51.6782 62.8571 51.6445 63.897 50.9806 64.5178L46.3438 68.8518C46.0257 69.1489 45.6207 69.2961 45.2167 69.2961C44.777 69.2961 44.3386 69.1219 44.014 68.7768C43.3915 68.1148 43.4251 67.0747 44.089 66.4541Z"/><path fill="#000" d="M58.4166 20.2414H47.3474V17.3871C47.3474 8.04732 39.748 0.444336 30.4046 0.444336C21.0648 0.444336 13.4619 8.04366 13.4619 17.3871V20.2377H2.39265C1.07358 20.2377 0 21.3113 0 22.6304V75.4372C0 76.7563 1.07358 77.8299 2.39265 77.8299H58.4129C59.732 77.8299 60.8055 76.7563 60.8055 75.4372V22.6341C60.8092 21.315 59.7356 20.2414 58.4166 20.2414ZM17.3259 31.0541V23.1841H43.476V31.0541C43.476 33.3038 47.34 33.3038 47.34 31.0541V23.1841H57.8592V74.8908H2.94637V23.1841H13.4619V31.0541C13.4619 33.3691 17.3259 33.3742 17.3259 31.0541ZM30.4046 3.39071C38.9488 3.39071 43.4797 10.6855 43.4797 17.3871V20.2377H17.3295V17.3871C17.3295 10.6855 21.8604 3.39071 30.4046 3.39071Z"/><path fill="#F4412D" d="M23.9537 21.7876H81.0741V76.1441H23.9537V21.7876Z"/><path fill="#fff" d="M66.5764 59.0836C67.2406 58.463 68.2838 58.4963 68.9062 59.1586C69.5287 59.8206 69.4951 60.8605 68.8312 61.4813L66.345 63.8051C66.0269 64.1022 65.6219 64.2494 65.2179 64.2494C64.7782 64.2494 64.3396 64.0753 64.0152 63.7302C63.3927 63.0681 63.4263 62.0281 64.0902 61.4074L66.5764 59.0836Z"/><path fill="#fff" d="M67.1214 66.4541L71.7582 62.1201C72.4223 61.4993 73.4652 61.5328 74.088 62.195C74.7106 62.8571 74.6769 63.897 74.013 64.5178L69.3762 68.8518C69.0581 69.1489 68.6531 69.2961 68.2492 69.2961C67.8094 69.2961 67.371 69.1219 67.0464 68.7768C66.4239 68.1148 66.4575 67.0747 67.1214 66.4541Z"/><path fill="#000" d="M81.449 20.2414H70.3798V17.3871C70.3798 8.04732 62.7804 0.444336 53.437 0.444336C44.0973 0.444336 36.4943 8.04366 36.4943 17.3871V20.2377H25.4251C24.106 20.2377 23.0324 21.3113 23.0324 22.6304V75.4372C23.0324 76.7563 24.106 77.8299 25.4251 77.8299H81.4453C82.7644 77.8299 83.838 76.7563 83.838 75.4372V22.6341C83.8416 21.315 82.768 20.2414 81.449 20.2414ZM40.3583 31.0541V23.1841H66.5084V31.0541C66.5084 33.3038 70.3724 33.3038 70.3724 31.0541V23.1841H80.8916V74.8908H25.9788V23.1841H36.4943V31.0541C36.4943 33.3691 40.3583 33.3742 40.3583 31.0541ZM53.437 3.39071C61.9812 3.39071 66.5121 10.6855 66.5121 17.3871V20.2377H40.3619V17.3871C40.3619 10.6855 44.8928 3.39071 53.437 3.39071Z"/><path fill="#F4412D" d="M46.9861 21.7876H104.106V76.1441H46.9861V21.7876Z"/><path fill="#fff" d="M89.6088 59.0836C90.2731 58.463 91.3162 58.4963 91.9386 59.1586C92.5611 59.8206 92.5275 60.8605 91.8636 61.4813L89.3774 63.8051C89.0593 64.1022 88.6543 64.2494 88.2503 64.2494C87.8106 64.2494 87.372 64.0753 87.0476 63.7302C86.4251 63.0681 86.4587 62.0281 87.1226 61.4074L89.6088 59.0836Z"/><path fill="#fff" d="M90.1538 66.4541L94.7907 62.1201C95.4547 61.4993 96.4976 61.5328 97.1204 62.195C97.743 62.8571 97.7093 63.897 97.0454 64.5178L92.4086 68.8518C92.0905 69.1489 91.6855 69.2961 91.2816 69.2961C90.8418 69.2961 90.4034 69.1219 90.0788 68.7768C89.4563 68.1148 89.4899 67.0747 90.1538 66.4541Z"/><path fill="#000" d="M104.481 20.2414H93.4122V17.3871C93.4122 8.04732 85.8129 0.444336 76.4694 0.444336C67.1297 0.444336 59.5267 8.04366 59.5267 17.3871V20.2377H48.4575C47.1384 20.2377 46.0648 21.3113 46.0648 22.6304V75.4372C46.0648 76.7563 47.1384 77.8299 48.4575 77.8299H104.478C105.797 77.8299 106.87 76.7563 106.87 75.4372V22.6341C106.874 21.315 105.8 20.2414 104.481 20.2414ZM63.3907 31.0541V23.1841H89.5408V31.0541C89.5408 33.3038 93.4048 33.3038 93.4048 31.0541V23.1841H103.924V74.8908H49.0112V23.1841H59.5267V31.0541C59.5267 33.3691 63.3907 33.3742 63.3907 31.0541ZM76.4694 3.39071C85.0136 3.39071 89.5445 10.6855 89.5445 17.3871V20.2377H63.3943V17.3871C63.3943 10.6855 67.9252 3.39071 76.4694 3.39071Z"/><path fill="#F4412D" d="M70.0185 21.7876H127.139V76.1441H70.0185V21.7876Z"/><path fill="#fff" d="M112.641 59.0836C113.305 58.463 114.349 58.4963 114.971 59.1586C115.594 59.8206 115.56 60.8605 114.896 61.4813L112.41 63.8051C112.092 64.1022 111.687 64.2494 111.283 64.2494C110.843 64.2494 110.404 64.0753 110.08 63.7302C109.458 63.0681 109.491 62.0281 110.155 61.4074L112.641 59.0836Z"/><path fill="#fff" d="M113.186 66.4541L117.823 62.1201C118.487 61.4993 119.53 61.5328 120.153 62.195C120.775 62.8571 120.742 63.897 120.078 64.5178L115.441 68.8518C115.123 69.1489 114.718 69.2961 114.314 69.2961C113.874 69.2961 113.436 69.1219 113.111 68.7768C112.489 68.1148 112.522 67.0747 113.186 66.4541Z"/><path fill="#000" d="M127.514 20.2414H116.445V17.3871C116.445 8.04732 108.845 0.444336 99.5018 0.444336C90.1621 0.444336 82.5591 8.04366 82.5591 17.3871V20.2377H71.4899C70.1708 20.2377 69.0972 21.3113 69.0972 22.6304V75.4372C69.0972 76.7563 70.1708 77.8299 71.4899 77.8299H127.51C128.829 77.8299 129.903 76.7563 129.903 75.4372V22.6341C129.906 21.315 128.833 20.2414 127.514 20.2414ZM86.4231 31.0541V23.1841H112.573V31.0541C112.573 33.3038 116.437 33.3038 116.437 31.0541V23.1841H126.956V74.8908H72.0436V23.1841H82.5591V31.0541C82.5591 33.3691 86.4231 33.3742 86.4231 31.0541ZM99.5018 3.39071C108.046 3.39071 112.577 10.6855 112.577 17.3871V20.2377H86.4267V17.3871C86.4267 10.6855 90.9576 3.39071 99.5018 3.39071Z"/><path fill="#F4412D" d="M93.0509 21.7876H150.171V76.1441H93.0509V21.7876Z"/><path fill="#fff" d="M135.674 59.0836C136.338 58.463 137.381 58.4963 138.003 59.1586C138.626 59.8206 138.592 60.8605 137.928 61.4813L135.442 63.8051C135.124 64.1022 134.719 64.2494 134.315 64.2494C133.875 64.2494 133.437 64.0753 133.112 63.7302C132.49 63.0681 132.524 62.0281 133.187 61.4074L135.674 59.0836Z"/><path fill="#fff" d="M136.219 66.4541L140.855 62.1201C141.52 61.4993 142.562 61.5328 143.185 62.195C143.808 62.8571 143.774 63.897 143.11 64.5178L138.473 68.8518C138.155 69.1489 137.75 69.2961 137.346 69.2961C136.907 69.2961 136.468 69.1219 136.144 68.7768C135.521 68.1148 135.555 67.0747 136.219 66.4541Z"/><path fill="#000" d="M150.546 20.2414H139.477V17.3871C139.477 8.04732 131.878 0.444336 122.534 0.444336C113.194 0.444336 105.591 8.04366 105.591 17.3871V20.2377H94.5223C93.2032 20.2377 92.1296 21.3113 92.1296 22.6304V75.4372C92.1296 76.7563 93.2032 77.8299 94.5223 77.8299H150.543C151.862 77.8299 152.935 76.7563 152.935 75.4372V22.6341C152.939 21.315 151.865 20.2414 150.546 20.2414ZM109.455 31.0541V23.1841H135.606V31.0541C135.606 33.3038 139.47 33.3038 139.47 31.0541V23.1841H149.989V74.8908H95.076V23.1841H105.591V31.0541C105.591 33.3691 109.455 33.3742 109.455 31.0541ZM122.534 3.39071C131.078 3.39071 135.609 10.6855 135.609 17.3871V20.2377H109.459V17.3871C109.459 10.6855 113.99 3.39071 122.534 3.39071Z"/><path fill="#F4412D" d="M116.083 21.7876H173.204V76.1441H116.083V21.7876Z"/><path fill="#fff" d="M158.706 59.0836C159.37 58.463 160.413 58.4963 161.036 59.1586C161.658 59.8206 161.625 60.8605 160.961 61.4813L158.475 63.8051C158.157 64.1022 157.752 64.2494 157.348 64.2494C156.908 64.2494 156.469 64.0753 156.145 63.7302C155.522 63.0681 155.556 62.0281 156.22 61.4074L158.706 59.0836Z"/><path fill="#fff" d="M159.251 66.4541L163.888 62.1201C164.552 61.4993 165.595 61.5328 166.218 62.195C166.84 62.8571 166.807 63.897 166.143 64.5178L161.506 68.8518C161.188 69.1489 160.783 69.2961 160.379 69.2961C159.939 69.2961 159.501 69.1219 159.176 68.7768C158.554 68.1148 158.587 67.0747 159.251 66.4541Z"/><path fill="#000" d="M173.579 20.2414H162.509V17.3871C162.509 8.04732 154.91 0.444336 145.567 0.444336C136.227 0.444336 128.624 8.04366 128.624 17.3871V20.2377H117.555C116.236 20.2377 115.162 21.3113 115.162 22.6304V75.4372C115.162 76.7563 116.236 77.8299 117.555 77.8299H173.575C174.894 77.8299 175.968 76.7563 175.968 75.4372V22.6341C175.971 21.315 174.898 20.2414 173.579 20.2414ZM132.488 31.0541V23.1841H158.638V31.0541C158.638 33.3038 162.502 33.3038 162.502 31.0541V23.1841H173.021V74.8908H118.108V23.1841H128.624V31.0541C128.624 33.3691 132.488 33.3742 132.488 31.0541ZM145.567 3.39071C154.111 3.39071 158.642 10.6855 158.642 17.3871V20.2377H132.492V17.3871C132.492 10.6855 137.022 3.39071 145.567 3.39071Z"/><path fill="#F4412D" d="M139.116 21.7876H196.236V76.1441H139.116V21.7876Z"/><path fill="#fff" d="M180.03 54.608C180.921 53.7761 182.319 53.8208 183.153 54.7084C183.987 55.5958 183.942 56.9895 183.052 57.8217L179.72 60.9363C179.294 61.3345 178.751 61.5318 178.21 61.5318C177.62 61.5318 177.032 61.2984 176.597 60.8358C175.763 59.9484 175.808 58.5544 176.698 57.7226L180.03 54.608Z"/><path fill="#fff" d="M180.761 64.4867L186.976 58.6778C187.866 57.8457 189.264 57.8906 190.098 58.7782C190.933 59.6656 190.888 61.0594 189.998 61.8915L183.783 67.7004C183.357 68.0987 182.814 68.296 182.272 68.296C181.683 68.296 181.095 68.0625 180.66 67.6C179.826 66.7126 179.871 65.3186 180.761 64.4867Z"/><path fill="#000" d="M196.611 20.2414H185.542V17.3871C185.542 8.04732 177.942 0.444336 168.599 0.444336C159.259 0.444336 151.656 8.04366 151.656 17.3871V20.2377H140.587C139.268 20.2377 138.194 21.3113 138.194 22.6304V75.4372C138.194 76.7563 139.268 77.8299 140.587 77.8299H196.607C197.926 77.8299 199 76.7563 199 75.4372V22.6341C199.004 21.315 197.93 20.2414 196.611 20.2414ZM155.52 31.0541V23.1841H181.67V31.0541C181.67 33.3038 185.534 33.3038 185.534 31.0541V23.1841H196.054V74.8908H141.141V23.1841H151.656V31.0541C151.656 33.3691 155.52 33.3742 155.52 31.0541ZM168.599 3.39071C177.143 3.39071 181.674 10.6855 181.674 17.3871V20.2377H155.524V17.3871C155.524 10.6855 160.055 3.39071 168.599 3.39071Z"/></svg>