<svg width="84" height="75" viewBox="0 0 84 75" fill="none" xmlns="http://www.w3.org/2000/svg">
<path d="M26.4192 35.6372V71.6372H1.91919V35.6372H26.4192Z" fill="#E84434"/>
<path d="M83.9192 35.8923C83.7905 36.4291 83.6191 36.9548 83.4064 37.4642C82.9357 38.3888 82.3726 39.2713 81.8851 40.1875C81.7187 40.434 81.6526 40.7346 81.7001 41.0281C82.9441 44.1465 82.2381 46.9119 80.3216 49.526C80.1879 49.6562 80.0975 49.8246 80.0629 50.0081C80.0283 50.1917 80.0512 50.3814 80.1283 50.5514C81.2967 53.4009 80.6495 56.0234 79.0356 58.4862C78.8258 58.7348 78.6801 59.0311 78.6113 59.349C78.5424 59.667 78.5525 59.997 78.6406 60.3101C79.4139 63.4958 78.9432 66.5218 76.5392 69.0434C75.4093 70.2134 73.9382 70.9961 72.3365 71.2792C70.9158 71.5614 69.4727 71.7162 68.0245 71.7415C57.3664 71.7415 46.7083 71.7415 36.0838 71.7415C34.1539 71.7003 32.2793 71.0891 30.696 69.9848C30.4731 69.809 30.2157 69.6822 29.9405 69.6126C29.6653 69.5431 29.3785 69.5324 29.0989 69.5813C29.0989 70.1109 29.0401 70.6152 28.9728 71.1195C28.8944 71.9045 28.5424 72.6369 27.9784 73.1885C27.4145 73.7401 26.6745 74.0759 25.888 74.1371C25.6445 74.1504 25.4003 74.1504 25.1568 74.1371H3.89943C3.40916 74.1774 2.91583 74.1167 2.44994 73.9588C1.98405 73.8009 1.55549 73.5491 1.19075 73.2191C0.826004 72.889 0.532833 72.4876 0.329351 72.0397C0.125869 71.5919 0.0164005 71.107 0.00771017 70.6152C0.00771017 59.5312 0.00771017 48.4501 0.00771017 37.3717C-0.0261852 36.844 0.0519367 36.3151 0.236945 35.8198C0.421953 35.3244 0.709662 34.8738 1.08118 34.4975C1.45269 34.1212 1.8996 33.8278 2.39256 33.6365C2.88552 33.4452 3.41337 33.3604 3.94145 33.3875C11.9378 33.3875 19.937 33.3875 27.939 33.3875C28.5055 33.4584 29.067 33.5651 29.6201 33.7069C29.9028 33.7821 30.2037 33.746 30.4606 33.6061C31.3392 32.7542 32.1565 31.8413 32.9066 30.8743C36.1698 26.3225 39.0862 21.5319 41.6314 16.543C42.0806 15.7229 42.2985 14.7961 42.2618 13.8617C42.1526 11.0963 42.1526 8.32252 42.0517 5.55713C41.9906 4.67172 42.1876 3.78758 42.6187 3.01182C43.0499 2.23606 43.6967 1.60195 44.4809 1.1863C45.9802 0.325508 47.697 -0.0818433 49.4232 0.0136415C51.1493 0.109126 52.8108 0.703346 54.206 1.72425C54.8808 2.33526 55.3947 3.10319 55.7021 3.9601C56.736 6.48173 57.7194 9.0622 58.5936 11.6595C59.4853 14.4846 59.6072 17.4964 58.9466 20.3843C58.5095 22.5949 58.1901 24.8308 57.8119 27.0498C57.6858 27.8063 57.711 27.8904 58.4843 27.8904H76.6485C78.1157 27.8201 79.5729 28.1669 80.8512 28.8906C81.5588 29.3397 82.1705 29.9244 82.6509 30.6111C83.1313 31.2979 83.471 32.0729 83.6502 32.8916C83.7174 33.1522 83.8015 33.4043 83.8772 33.6565V35.9344L83.9192 35.8923ZM53.4831 31.3534C54.1387 27.4617 54.8027 23.654 55.4079 19.8464C55.7006 18.4996 55.8276 17.1221 55.7862 15.7445C55.45 12.0713 53.9706 8.72598 52.5081 5.38902C52.3703 4.96914 52.1247 4.59283 51.7957 4.29779C51.4667 4.00275 51.066 3.79934 50.6337 3.70793C49.2372 3.28728 47.7325 3.4197 46.4309 4.07777C46.1351 4.20179 45.8866 4.41711 45.7218 4.69232C45.557 4.96753 45.4844 5.28821 45.5147 5.60756C45.6268 8.66714 45.6828 11.7267 45.6828 14.7863C45.6886 15.5164 45.5663 16.2418 45.3214 16.9297C44.9938 17.8075 44.5829 18.6519 44.0942 19.4513C41.5726 23.5784 39.051 27.7223 36.4621 31.7989C35.339 33.7859 33.7992 35.5064 31.9484 36.8422C30.7548 37.6155 29.5528 38.4056 28.3929 39.2209C28.2671 39.3114 28.1612 39.4267 28.0817 39.5597C28.0022 39.6927 27.9507 39.8406 27.9306 39.9942C27.9306 48.3072 27.9306 56.6201 27.9306 64.9247C27.9306 65.4206 28.1407 65.4711 28.5694 65.5215C29.3797 65.6062 30.1795 65.7723 30.9565 66.0174C31.4899 66.2505 31.9901 66.5529 32.4443 66.9168C33.7071 67.7759 35.2039 68.2249 36.7311 68.2028C47.2799 68.2028 57.8203 68.2028 68.3691 68.2028C68.9956 68.2074 69.6218 68.1709 70.2435 68.0936C71.0125 68.0145 71.756 67.7737 72.4253 67.3869C73.0946 67.0001 73.6744 66.4761 74.1268 65.8493C75.2532 64.3027 75.3961 62.4451 74.3454 61.1255C73.759 60.5597 73.1071 60.0659 72.4037 59.6545C72.5281 59.4167 72.7138 59.2164 72.9417 59.0745C73.8684 58.8447 74.7183 58.3749 75.4059 57.7124C76.0935 57.0499 76.5945 56.2181 76.8586 55.3005C77.122 54.6198 77.1596 53.8724 76.9659 53.1686C76.7722 52.4649 76.3574 51.842 75.7827 51.392C75.1826 50.9994 74.5532 50.6538 73.8999 50.3581C74.0937 50.0656 74.349 49.8189 74.648 49.6352C75.9702 49.3243 77.1174 48.5062 77.842 47.3574C79.4643 44.8946 78.8591 42.3141 76.161 41.3559C76.0589 41.3176 75.9666 41.257 75.891 41.1784C75.8154 41.0999 75.7583 41.0054 75.7239 40.902C75.7134 40.8196 75.7195 40.7359 75.7418 40.6559C75.7642 40.5758 75.8023 40.5011 75.854 40.4361C75.9057 40.3711 75.97 40.317 76.0429 40.2772C76.1158 40.2374 76.196 40.2127 76.2786 40.2043C77.3316 39.9589 78.2826 39.393 79.0007 38.5847C79.7187 37.7763 80.1685 36.7652 80.288 35.6906C80.4812 34.9324 80.4038 34.1306 80.0694 33.4233C79.7349 32.716 79.1642 32.1475 78.4556 31.8157C77.7126 31.5195 76.9188 31.371 76.1189 31.3786C68.8566 31.3786 61.5943 31.3786 54.332 31.3786H53.4915L53.4831 31.3534ZM24.7953 36.9514C24.5264 36.9514 24.3246 36.9094 24.1313 36.9094C17.4966 36.9094 10.8619 36.9094 4.22724 36.9094C4.12734 36.881 4.02166 36.88 3.92123 36.9064C3.8208 36.9329 3.72931 36.9858 3.6563 37.0596C3.5833 37.1335 3.53147 37.2256 3.50623 37.3263C3.48098 37.4271 3.48324 37.5327 3.51278 37.6323C3.51278 48.3968 3.51278 59.1642 3.51278 69.9344C3.48209 70.0431 3.4808 70.158 3.50903 70.2674C3.53726 70.3769 3.594 70.4768 3.67346 70.5571C3.75293 70.6375 3.85228 70.6953 3.96138 70.7247C4.07048 70.7541 4.18542 70.754 4.29448 70.7245C10.8423 70.7245 17.3817 70.7245 23.9296 70.7245C24.7701 70.7245 24.7701 70.7245 24.7701 69.8419C24.7701 59.1446 24.7701 48.4445 24.7701 37.7415V36.9851L24.7953 36.9514Z" fill="black"/>
</svg>
