<svg xmlns="http://www.w3.org/2000/svg" width="118" height="66" fill="none" viewBox="0 0 118 66"><path fill="#F4412D" d="M9 4H109V59.5859H9V4Z"/><path fill="#fff" d="M23.5982 10.4825C24.3192 9.80865 25.4514 9.84504 26.127 10.5639C26.8027 11.2825 26.7662 12.4112 26.0456 13.085L21.0127 17.7891C20.6674 18.1117 20.2278 18.2716 19.7893 18.2716C19.312 18.2716 18.8359 18.0823 18.4839 17.7078C17.8081 16.9891 17.8446 15.8604 18.5653 15.1866L23.5982 10.4825Z"/><path fill="#fff" d="M25.4975 17.0742L28.1961 14.5519C28.9169 13.878 30.0492 13.9144 30.7249 14.6332C31.4006 15.3519 31.3641 16.4806 30.6435 17.1544L27.9449 19.6767C27.5996 19.9994 27.16 20.1592 26.7216 20.1592C26.2442 20.1592 25.7682 19.9699 25.4161 19.5954C24.7404 18.8767 24.7769 17.7479 25.4975 17.0742Z"/><path fill="#fff" d="M89.2638 40.4825C89.9848 39.8088 91.1171 39.845 91.7926 40.5638C92.4684 41.2824 92.4319 42.4111 91.7112 43.085L89.0127 45.6072C88.6674 45.9297 88.2278 46.0895 87.7893 46.0895C87.312 46.0895 86.8359 45.9005 86.4839 45.5259C85.8081 44.8073 85.8446 43.6784 86.5653 43.0047L89.2638 40.4825Z"/><path fill="#fff" d="M89.8554 48.4825L94.8883 43.7783C95.6091 43.1044 96.7411 43.1408 97.4172 43.8596C98.0929 44.5783 98.0564 45.707 97.3357 46.3808L92.3028 51.085C91.9575 51.4075 91.518 51.5673 91.0795 51.5673C90.6022 51.5673 90.1263 51.3783 89.774 51.0037C89.0983 50.2851 89.1348 49.1562 89.8554 48.4825Z"/><path fill="#101010" d="M46.9902 34.6371L48.7621 35.8305C48.8579 36.8329 49.0016 37.9309 49.4326 38.8379C49.5283 39.1243 50.0072 39.6494 50.1988 39.8881C50.4861 40.27 50.7256 40.5087 51.0129 40.8428L51.9228 41.7498C52.2102 42.0362 52.5454 42.3704 52.8327 42.6091C53.5511 43.1819 53.9342 43.5161 54.7962 44.1844C56.1371 45.1869 57.7175 46.0461 59.25 46.9531C60.6388 47.8124 60.2078 47.8124 61.5487 47.0008C63.8474 45.6165 64.8531 45.0436 67.0081 43.4683C67.7264 42.9432 69.211 41.5589 69.8815 40.8905C70.3125 40.4609 71.1745 39.4585 71.4618 38.9334C72.1323 37.7877 72.1802 37.6445 72.1802 36.0214V25.2329C71.0308 24.7078 69.9294 24.1827 68.7321 23.7053C64.7094 22.2732 60.1599 21.6049 55.9935 22.6552L56.5203 20.6979C57.2386 20.6025 58.1964 20.4115 58.9147 20.4115C59.2021 20.4115 59.25 20.3638 59.5373 20.3638C61.7402 20.316 61.7881 20.3638 63.9432 20.6502L66.1461 21.0798C66.8644 21.2708 67.5828 21.414 68.2532 21.6527C69.8336 22.13 70.6477 22.4165 72.1802 23.0848L74 23.8963V36.642C74 37.7877 73.7127 38.2173 73.3295 39.1243C73.2338 39.4107 72.6591 40.1745 72.4675 40.4132C72.3239 40.6041 72.1323 40.7951 71.9886 40.986C71.7971 41.2247 71.7013 41.3202 71.4618 41.5111C71.2703 41.7021 71.1745 41.8453 70.983 42.084C69.6899 43.3251 69.0674 43.8502 67.5828 45.0436C67.2476 45.2823 66.0982 46.1416 65.763 46.3803C65.5714 46.5235 65.332 46.6667 65.1404 46.7622C63.9432 47.5259 62.4107 48.4329 61.1656 49.149C60.3035 49.6741 60.7824 49.7218 58.4837 48.3852C57.6696 47.9078 56.616 47.2873 55.8498 46.7622C54.8441 46.0938 54.461 45.8552 53.3595 45.0436C52.4496 44.3276 51.5876 43.6115 50.7256 42.8955C50.2467 42.4659 48.81 40.8905 48.4269 40.4132C48.2353 40.1745 48.1395 40.0313 47.9959 39.7926C46.7986 37.9786 46.9902 36.8807 46.9902 34.6371Z"/><path fill="#000" fill-rule="evenodd" d="M46.4902 33.6978L49.2374 35.5481L49.2598 35.7833C49.3558 36.7878 49.4951 37.8048 49.8842 38.6236L49.8972 38.6509L49.9067 38.6796C49.9067 38.6796 49.9079 38.6829 49.911 38.6898C49.9143 38.6971 49.9191 38.707 49.9258 38.7196C49.9395 38.7452 49.9585 38.7769 49.9834 38.8147C50.0336 38.8909 50.0985 38.9782 50.172 39.0712C50.245 39.1634 50.3218 39.2556 50.3945 39.3423C50.4075 39.3576 50.4204 39.373 50.4333 39.3884C50.4903 39.4561 50.5459 39.5221 50.5888 39.5755L50.5936 39.5816L50.5983 39.5878C50.7814 39.8311 50.9331 40.0003 51.1065 40.1936C51.1904 40.2872 51.2793 40.3864 51.3794 40.5025L52.2758 41.396C52.5667 41.686 52.883 42.0007 53.1485 42.2217C53.4296 42.4459 53.6559 42.6306 53.8766 42.8107C54.2308 43.0997 54.5705 43.377 55.0991 43.7869C56.1306 44.5576 57.3031 45.2395 58.5129 45.943C58.8414 46.134 59.1727 46.3267 59.5046 46.5232L59.5131 46.5282C59.6917 46.6387 59.8406 46.7352 59.9655 46.8166C59.9838 46.8285 60.0015 46.8401 60.0185 46.8512C60.12 46.9174 60.1993 46.9691 60.2684 47.0116C60.3574 47.0663 60.4055 47.0896 60.4275 47.0991C60.4483 47.0904 60.4905 47.0705 60.5641 47.0268C60.6342 46.9853 60.7159 46.9332 60.8241 46.8643L60.8532 46.8457C60.9732 46.7692 61.1171 46.6779 61.2898 46.5734L61.2907 46.5729C61.5215 46.4339 61.7391 46.3032 61.9459 46.1789C63.801 45.0645 64.7927 44.4687 66.713 43.065C67.3977 42.5645 68.8588 41.2043 69.5285 40.5368C69.7294 40.3365 70.0417 39.9913 70.3399 39.6299C70.6441 39.2612 70.9043 38.9109 71.0232 38.6937L71.0267 38.6874L71.0303 38.6812C71.3719 38.0974 71.512 37.8361 71.5875 37.5351C71.6654 37.2243 71.6802 36.8477 71.6802 36.0218V25.5542C71.5537 25.496 71.4279 25.4381 71.3026 25.3804C70.3903 24.9603 69.5044 24.5522 68.5556 24.1736C64.5916 22.7638 60.1514 22.1231 56.1157 23.1403L55.2891 23.3487L56.124 20.2466L56.4544 20.2026C56.6274 20.1797 56.8259 20.1488 57.0385 20.1158C57.6392 20.0225 58.3519 19.9119 58.9147 19.9119C59.023 19.9119 59.0797 19.9038 59.1544 19.8931L59.1555 19.893C59.2469 19.88 59.3564 19.8645 59.5317 19.8641C61.5329 19.8208 61.805 19.8576 63.3936 20.0723C63.5792 20.0973 63.7827 20.1248 64.009 20.1549L64.024 20.1569L66.2583 20.5926L66.2745 20.597C66.4753 20.6503 66.6849 20.7018 66.8986 20.7542C67.4 20.8773 67.9239 21.006 68.4093 21.1778C69.998 21.6579 70.8306 21.9511 72.3801 22.6268L72.3838 22.6285L74.5 23.5722V36.6423C74.5 37.7145 74.2567 38.2622 73.9588 38.9329C73.9059 39.0519 73.8514 39.1747 73.7962 39.305C73.7516 39.4283 73.6763 39.5618 73.6085 39.6732C73.5306 39.8014 73.4372 39.9407 73.3441 40.0737C73.1609 40.3354 72.966 40.5909 72.8622 40.7205C72.7802 40.8289 72.6879 40.934 72.6095 41.0234L72.6039 41.0298C72.5174 41.1283 72.4466 41.2093 72.3882 41.287L72.3835 41.2932L72.3786 41.2993C72.1701 41.5591 72.049 41.6813 71.7964 41.8842C71.691 41.9911 71.6273 42.0729 71.5292 42.1989C71.486 42.2544 71.4361 42.3186 71.3729 42.3973L71.3526 42.4226L71.3292 42.445C70.0224 43.6993 69.388 44.2343 67.896 45.4337L67.8847 45.4428L67.8728 45.4513C67.7099 45.5673 67.3438 45.838 66.9702 46.1143L66.9631 46.1195C66.6 46.3881 66.2309 46.6611 66.0576 46.7846C65.8485 46.9404 65.5969 47.0917 65.3878 47.1978C64.1863 47.9634 62.66 48.8666 61.4204 49.5795C61.3338 49.6325 61.2624 49.6798 61.1943 49.725L61.1732 49.7389C61.1036 49.785 61.0193 49.8409 60.9339 49.8846C60.8416 49.9318 60.7273 49.9763 60.5895 49.9888C60.4511 50.0014 60.3242 49.9786 60.2088 49.9411C60.0058 49.8751 59.7706 49.7375 59.4939 49.5712C59.4194 49.5265 59.3389 49.4777 59.2511 49.4245C58.9883 49.2653 58.6601 49.0665 58.2324 48.8178L58.2308 48.8169C57.4214 48.3423 56.3534 47.7135 55.5701 47.177C55.4184 47.0762 55.2807 46.985 55.1523 46.9C54.433 46.424 54.0064 46.1416 53.063 45.4465L53.0566 45.4418L53.0503 45.4369C52.1352 44.7168 51.269 43.9972 50.4084 43.2824L50.3988 43.2744L50.3917 43.268C49.8862 42.8145 48.4308 41.2172 48.0369 40.7265C47.8316 40.4707 47.7234 40.3093 47.5728 40.0597C46.9399 39.0984 46.6603 38.3013 46.5483 37.4408C46.4676 36.821 46.4754 36.1596 46.4842 35.4103C46.4872 35.1628 46.4902 34.9057 46.4902 34.6374V33.6978ZM47.9959 39.7929C48.1396 40.0316 48.2353 40.1748 48.4269 40.4135C48.81 40.8909 50.2467 42.4662 50.7256 42.8958C51.5876 43.6119 52.4496 44.3279 53.3595 45.044C54.2926 45.7315 54.7102 46.0078 55.4275 46.4826C55.5569 46.5682 55.6961 46.6603 55.8498 46.7625C56.616 47.2876 57.6696 47.9082 58.4837 48.3855C59.9622 49.2452 60.2917 49.5323 60.5679 49.4879C60.7211 49.4633 60.858 49.3367 61.1656 49.1493C62.4107 48.4333 63.9432 47.5263 65.1404 46.7625C65.332 46.667 65.5714 46.5238 65.763 46.3806C65.9306 46.2613 66.3017 45.9868 66.6728 45.7123C67.044 45.4378 67.4152 45.1633 67.5828 45.044C69.0674 43.8506 69.6899 43.3255 70.983 42.0843C71.0343 42.0204 71.0787 41.9633 71.12 41.9103C71.2327 41.7655 71.3216 41.6513 71.4619 41.5115C71.7013 41.3205 71.7971 41.225 71.9886 40.9864C72.0605 40.8909 72.1443 40.7954 72.2281 40.6999C72.3119 40.6045 72.3957 40.509 72.4675 40.4135C72.6591 40.1748 73.2338 39.4111 73.3296 39.1246C73.3911 38.979 73.4501 38.8457 73.5059 38.7197C73.7975 38.0612 74 37.604 74 36.6423V23.8967L72.1802 23.0851C70.6477 22.4168 69.8336 22.1304 68.2532 21.653C67.7893 21.4879 67.3025 21.3684 66.8085 21.2472C66.5887 21.1933 66.3674 21.139 66.1461 21.0802L63.9432 20.6506C63.7133 20.62 63.5074 20.5922 63.3202 20.5669C61.7534 20.355 61.5052 20.3215 59.5373 20.3641C59.3936 20.3641 59.3098 20.3761 59.226 20.388C59.1422 20.3999 59.0584 20.4119 58.9147 20.4119C58.3939 20.4119 57.7471 20.5123 57.1571 20.6038C56.9333 20.6386 56.7177 20.672 56.5203 20.6983L55.9935 22.6555C56.1769 22.6093 56.3611 22.5664 56.5459 22.5267C60.5595 21.6656 64.8865 22.3366 68.7321 23.7057C69.6975 24.0906 70.6006 24.5066 71.5168 24.9285C71.7368 25.0299 71.9576 25.1316 72.1802 25.2333V36.0218C72.1802 37.6448 72.1323 37.788 71.4619 38.9337C71.1745 39.4588 70.3125 40.4613 69.8815 40.8909C69.211 41.5592 67.7265 42.9436 67.0081 43.4687C65.0692 44.886 64.0607 45.4918 62.2038 46.6073C61.9968 46.7317 61.7792 46.8623 61.5487 47.0012C60.8875 47.4014 60.6571 47.6042 60.4269 47.604C60.1903 47.6038 59.9539 47.389 59.25 46.9534C58.9264 46.762 58.6008 46.5726 58.2757 46.3836C57.0609 45.6773 55.854 44.9756 54.7962 44.1847C54.2627 43.7711 53.9126 43.4855 53.553 43.192C53.3315 43.0113 53.1065 42.8277 52.8327 42.6094C52.5454 42.3707 52.2102 42.0366 51.9228 41.7502L51.0129 40.8432C50.9213 40.7366 50.8346 40.6398 50.7496 40.5449C50.568 40.3422 50.3945 40.1485 50.1988 39.8884C50.16 39.8401 50.1095 39.7801 50.0527 39.7127C49.8291 39.447 49.509 39.0667 49.4326 38.8382C49.0016 37.9312 48.8579 36.8333 48.7621 35.8308L46.9902 34.6374C46.9902 34.847 46.9885 35.0466 46.9865 35.2377C46.9857 35.3083 46.9849 35.3777 46.9841 35.4461C46.9639 37.1736 46.9518 38.211 47.9959 39.7929Z" clip-rule="evenodd"/><path fill="#fff" d="M48.7582 35.0513L47.9226 34.4708C47.087 33.8902 47.087 33.8903 47.087 33.8903C46.2514 33.3544 46.0315 33.2651 45.2838 32.5952C45.1079 32.4613 45.02 32.3273 44.888 32.1487C44.1404 31.2109 43.8765 31.0323 44.0524 30.0499C44.0964 29.8712 44.1844 29.648 44.2283 29.4693C44.4482 29.1121 44.4922 28.7102 44.6681 28.3083L45.2399 26.9686C45.2838 26.8793 45.3278 26.8347 45.3718 26.7007C45.4598 26.5221 45.5477 26.3881 45.6357 26.2095C46.2074 25.0038 46.1194 25.3164 46.7791 24.2893C47.131 23.7534 48.9781 21.476 49.5058 20.8955C49.6378 20.7168 49.7257 20.6275 49.8576 20.4936C49.9456 20.4043 49.9896 20.4042 50.0336 20.3149L50.5613 19.6898C51.3529 18.7073 51.4849 18.5734 52.1885 17.457C52.5843 16.8318 53.6398 15.1349 54.1236 14.733C54.4315 14.465 54.6953 14.2864 55.0911 14.1971C55.443 14.1078 56.0147 14.0632 56.4105 14.0185C56.9383 13.9738 57.2461 14.0185 57.7739 14.0631C59.0932 14.1971 60.1927 14.2864 61.2042 15.1795C61.732 15.6707 62.0398 16.6532 62.0398 17.4123C62.0398 17.7696 62.1717 18.4841 61.9519 18.7073C61.5121 19.0199 59.665 19.2432 59.4451 19.2879C59.0492 19.3325 56.9822 19.6451 56.8063 19.5558C56.5864 19.4665 56.5864 19.4218 56.4985 19.2432L55.9267 17.8589C55.8828 17.7249 55.7508 17.3677 55.6189 17.457C55.487 17.5909 55.4869 17.7249 55.5309 17.9035C55.5749 18.3054 55.7948 18.8413 55.8828 19.1539C56.1466 20.1363 55.9267 20.8955 55.8828 20.9848L54.9592 24.3786C54.7833 24.8698 54.2995 26.4328 54.0796 27.0133C54.0356 27.1472 53.9037 27.3705 53.8158 27.5045C53.288 28.3976 52.3644 29.7819 52.5404 30.943C52.7163 32.0147 53.5079 32.5506 54.2995 32.8632C54.6514 33.0418 55.6629 33.2204 56.0587 33.2651C56.0587 33.2651 54.3435 32.6845 53.5959 32.0147C52.0126 30.5411 54.9152 26.8793 54.9152 26.8793C55.311 26.3434 56.4105 26.2988 56.7184 26.3434C58.8733 26.7007 59.9288 28.7549 59.9728 28.9335C59.9728 28.9335 61.8199 26.7007 66.4817 26.7007C67.889 26.7007 69.7361 27.5938 70 27.7278V35.7658C70 36.7036 69.7801 37.1501 69.3843 37.7753C68.5927 39.0703 67.3173 40.3653 66.2178 41.2584C65.9979 41.4371 65.866 41.571 65.5141 41.8836C65.0744 42.1962 64.4587 42.7767 64.0189 43L61.9958 38.5791C60.6765 38.981 61.0283 38.9363 59.7969 39.115C58.7414 39.2489 57.51 39.2043 56.4545 38.9363C56.0587 38.847 55.5749 38.7131 55.1351 38.5791C51.4849 37.4181 48.7582 35.0513 48.7582 35.0513Z"/><path fill="#101010" d="M6.86984 59.5882V5.5359C6.86984 2.48314 9.35975 0 12.4208 0H105.581C108.642 0 111.132 2.48314 111.132 5.5359V59.5882H107.185V4.12903H10.8178V59.5882H6.86984ZM67.7627 61.0552C67.6135 61.7851 66.9691 62.3333 66.1956 62.3333H51.8058C51.0323 62.3333 50.3879 61.7851 50.2387 61.0552H0V62.3834C0 64.3813 1.6231 66 3.62507 66H114.375C116.378 66 118 64.3813 118 62.3834V61.0552H67.7627Z"/></svg>