<svg width="132" height="77" viewBox="0 0 132 77" fill="none" xmlns="http://www.w3.org/2000/svg">
<path d="M16.4233 41.0586H73.9051V67.5184H16.4233V41.0586Z" fill="#F4412D"/>
<path d="M6.38687 32.8466V68.4305H15.9672L16.4234 41.0583H74.8175V68.4305H84.854V32.8466H89.4161V21.4415L79.8358 1.82471H10.9489L1.82483 21.4415V32.8466H6.38687Z" fill="white"/>
<path fill-rule="evenodd" clip-rule="evenodd" d="M87.6628 30.6223H85H6.29777H3.57807V23.5403H19.3164C19.3164 23.5403 19.3203 23.5409 19.3225 23.5409C19.3259 23.5409 19.3296 23.5403 19.3332 23.5403H36.8497C36.8518 23.5403 36.8542 23.5407 36.8565 23.5407C36.8565 23.5407 36.8602 23.5403 36.8622 23.5403H54.4823C54.4842 23.5403 54.488 23.5407 54.488 23.5407C54.4903 23.5407 54.4926 23.5403 54.4948 23.5403H72.0114C72.0148 23.5403 72.0184 23.5409 72.022 23.5409C72.0239 23.5409 72.0261 23.5403 72.0281 23.5403H87.6628V30.6223ZM83.211 67.3006H76.6692V40.3404C76.6692 39.3553 75.868 38.5568 74.8801 38.5568H16.418C15.4299 38.5568 14.629 39.3553 14.629 40.3404V67.3006H8.0868V34.1897H83.211V67.3006ZM18.207 67.3004H73.0911V42.1241H18.207V67.3004ZM11.8946 3.56731H22.7909L17.9807 19.973H4.54719L11.8946 3.56731ZM56.0244 19.973L53.485 3.56731H64.8259L69.6359 19.973H56.0244ZM41.4799 3.56731H49.8646L52.4039 19.973H38.9404L41.4799 3.56731ZM21.7085 19.973L26.5187 3.56731H37.8596L35.3201 19.973H21.7085ZM86.6711 19.973H73.3639L68.5536 3.56731H79.1767L86.6711 19.973ZM91.2382 21.7028C91.2373 21.678 91.2362 21.6532 91.2344 21.6284C91.2309 21.5801 91.2253 21.5327 91.218 21.4854C91.2149 21.4661 91.2128 21.4469 91.2092 21.4276C91.1833 21.2894 91.1414 21.1568 91.0856 21.0318C91.0834 21.0272 91.082 21.0222 91.08 21.0174L81.956 1.04433C81.6654 0.408279 81.0289 0 80.3278 0H66.2004C66.1981 0 66.1954 0 66.1929 0H25.1526C25.1497 0.000178376 25.1467 0 25.1438 0H10.7342C10.0284 0 9.38851 0.413808 9.10065 1.05646L0.155467 21.0295C0.154036 21.0325 0.153142 21.0357 0.152068 21.0389C0.123444 21.1035 0.0980392 21.17 0.0774653 21.2385C0.0763919 21.2421 0.0756763 21.2457 0.0746028 21.2491C0.0563547 21.3097 0.0420424 21.3718 0.0305925 21.4349C0.0266566 21.4552 0.0243309 21.4756 0.0211106 21.4959C0.0144912 21.5421 0.00930299 21.5887 0.00608273 21.6359C0.00429369 21.6605 0.00304136 21.685 0.00232575 21.7096C0.00196794 21.7255 0 21.7408 0 21.7567V32.406C0 33.3911 0.801131 34.1897 1.78904 34.1897H4.50873V69.0842C4.50873 70.0693 5.30986 70.8679 6.29777 70.8679H16.418H74.8801H85C85.9881 70.8679 86.789 70.0693 86.789 69.0842V34.1897H89.4518C90.4397 34.1897 91.2409 33.3911 91.2409 32.406V21.7567C91.2409 21.7385 91.2385 21.7208 91.2382 21.7028Z" fill="#101010"/>
<path d="M56.8884 51.1827C57.6093 50.509 58.7416 50.5452 59.4172 51.2641C60.0929 51.9827 60.0564 53.1114 59.3358 53.7853L56.6372 56.3075C56.2919 56.63 55.8523 56.7898 55.4138 56.7898C54.9365 56.7898 54.4605 56.6008 54.1084 56.2262C53.4327 55.5075 53.4691 54.3787 54.1898 53.705L56.8884 51.1827Z" fill="white"/>
<path d="M30.77 45.815C31.491 45.1412 32.6233 45.1776 33.2988 45.8964C33.9745 46.615 33.938 47.7437 33.2174 48.4176L28.1845 53.1216C27.8392 53.4443 27.3996 53.6041 26.9611 53.6041C26.4838 53.6041 26.0078 53.4148 25.6557 53.0403C24.98 52.3216 25.0165 51.1929 25.7371 50.5191L30.77 45.815Z" fill="white"/>
<path d="M32.6693 52.4067L35.3679 49.8844C36.0887 49.2106 37.221 49.247 37.8967 49.9658C38.5724 50.6844 38.5359 51.8131 37.8153 52.487L35.1167 55.0092C34.7714 55.3319 34.3319 55.4917 33.8934 55.4917C33.4161 55.4917 32.94 55.3025 32.5879 54.9279C31.9122 54.2093 31.9487 53.0804 32.6693 52.4067Z" fill="white"/>
<path d="M57.4799 59.1828L62.5129 54.4786C63.2337 53.8047 64.3656 53.8411 65.0417 54.5599C65.7174 55.2785 65.6809 56.4072 64.9603 57.0811L59.9273 61.7853C59.5821 62.1078 59.1425 62.2676 58.704 62.2676C58.2267 62.2676 57.7508 62.0785 57.3985 61.704C56.7228 60.9853 56.7593 59.8565 57.4799 59.1828Z" fill="white"/>
<path d="M128 45C128 60.464 115.464 73 100 73C84.536 73 72 60.464 72 45C72 29.536 84.536 17 100 17C115.464 17 128 29.536 128 45Z" fill="white"/>
<path fill-rule="evenodd" clip-rule="evenodd" d="M131.5 45C131.5 62.397 117.397 76.5 100 76.5C82.603 76.5 68.5 62.397 68.5 45C68.5 27.603 82.603 13.5 100 13.5C117.397 13.5 131.5 27.603 131.5 45ZM100 73C115.464 73 128 60.464 128 45C128 29.536 115.464 17 100 17C84.536 17 72 29.536 72 45C72 60.464 84.536 73 100 73Z" fill="black"/>
<path d="M101.319 47.949C105.97 47.949 108.304 45.8121 108.285 41.9364C108.304 38.2461 106.068 35.7773 101.319 35.7773H95.0904C94.5381 35.7773 94.0904 36.2251 94.0904 36.7773V44.2849C94.0904 44.8372 93.6426 45.2849 93.0904 45.2849H92.2471C91.6948 45.2849 91.2471 45.7327 91.2471 46.2849V46.949C91.2471 47.5013 91.6948 47.949 92.2471 47.949H93.0904C93.6426 47.949 94.0904 48.3967 94.0904 48.949V49.47C94.0904 50.0223 93.6426 50.47 93.0904 50.47H92.2471C91.6948 50.47 91.2471 50.9177 91.2471 51.47V51.9193C91.2471 52.4716 91.6948 52.9193 92.2471 52.9193H93.0904C93.6426 52.9193 94.0904 53.367 94.0904 53.9193V54.4771C94.0904 55.0293 94.5381 55.4771 95.0904 55.4771H96.7042C97.2565 55.4771 97.7042 55.0293 97.7042 54.4771V53.9193C97.7042 53.367 98.1519 52.9193 98.7042 52.9193H101.072C101.624 52.9193 102.072 52.4716 102.072 51.9193V51.47C102.072 50.9177 101.624 50.47 101.072 50.47H98.7042C98.1519 50.47 97.7042 50.0223 97.7042 49.47V48.949C97.7042 48.3967 98.1519 47.949 98.7042 47.949H101.319ZM98.7042 45.2849C98.1519 45.2849 97.7042 44.8372 97.7042 44.2849V39.4902C97.7042 38.9379 98.1519 38.4902 98.7042 38.4902H101.319C103.557 38.4902 104.651 40.267 104.641 41.9852C104.651 43.7425 103.576 45.2849 101.202 45.2849H98.7042Z" fill="white"/>
<path fill-rule="evenodd" clip-rule="evenodd" d="M103.096 38.9623C104.137 39.6044 104.648 40.8086 104.641 41.9852C104.648 43.1088 104.21 44.1446 103.274 44.7455C102.77 45.0688 102.121 45.2662 101.319 45.2837C101.281 45.2845 101.242 45.2849 101.202 45.2849H98.7042C98.4365 45.2849 98.1933 45.1797 98.0138 45.0083C97.8231 44.8262 97.7042 44.5695 97.7042 44.2849V39.4902C97.7042 39.2111 97.8185 38.9587 98.0029 38.7773C98.1834 38.5998 98.431 38.4902 98.7042 38.4902H101.319C102.025 38.4902 102.616 38.6667 103.096 38.9623ZM95.0904 35.7773C94.5381 35.7773 94.0904 36.2251 94.0904 36.7773V44.2849C94.0904 44.5695 93.9715 44.8262 93.7808 45.0083C93.6536 45.1297 93.4945 45.218 93.3173 45.2591C93.2444 45.276 93.1684 45.2849 93.0904 45.2849H92.2471C91.6948 45.2849 91.2471 45.7327 91.2471 46.2849V46.949C91.2471 47.1745 91.3218 47.3826 91.4477 47.5499C91.5575 47.6957 91.7063 47.8105 91.8785 47.8788C91.9926 47.9241 92.1169 47.949 92.2471 47.949H93.0904C93.1684 47.949 93.2444 47.9579 93.3173 47.9748C93.4945 48.0159 93.6536 48.1042 93.7808 48.2256C93.9715 48.4077 94.0904 48.6644 94.0904 48.949V49.47C94.0904 49.6682 94.0327 49.8529 93.9333 50.0082C93.8323 50.1661 93.6881 50.2937 93.5175 50.3745C93.3879 50.4357 93.2432 50.47 93.0904 50.47H92.2471C92.1169 50.47 91.9926 50.4949 91.8785 50.5401C91.7063 50.6085 91.5575 50.7233 91.4477 50.8691C91.3218 51.0364 91.2471 51.2445 91.2471 51.47V51.9193C91.2471 52.4716 91.6948 52.9193 92.2471 52.9193H93.0904C93.2432 52.9193 93.3879 52.9535 93.5175 53.0148C93.6881 53.0955 93.8323 53.2232 93.9333 53.381C94.0327 53.5364 94.0904 53.7211 94.0904 53.9193V54.4771C94.0904 55.0293 94.5381 55.4771 95.0904 55.4771H96.7042C97.2565 55.4771 97.7042 55.0293 97.7042 54.4771V53.9193C97.7042 53.7211 97.7619 53.5364 97.8613 53.381C98.039 53.1033 98.3501 52.9193 98.7042 52.9193H101.072C101.624 52.9193 102.072 52.4716 102.072 51.9193V51.47C102.072 51.2748 102.016 51.0926 101.919 50.9387C101.784 50.7246 101.571 50.565 101.319 50.5009C101.24 50.4807 101.157 50.47 101.072 50.47H98.7042C98.3501 50.47 98.039 50.2859 97.8613 50.0082C97.7619 49.8529 97.7042 49.6682 97.7042 49.47V48.949C97.7042 48.6644 97.8231 48.4077 98.0138 48.2256C98.1933 48.0542 98.4365 47.949 98.7042 47.949H101.319C101.847 47.949 102.344 47.9215 102.812 47.8672C103.403 47.7984 103.947 47.6866 104.444 47.5329C107.014 46.7367 108.299 44.8167 108.285 41.9364C108.3 39.106 106.988 36.9942 104.233 36.1637C103.396 35.9114 102.426 35.7773 101.319 35.7773H95.0904ZM111.285 41.9367C111.294 39.4818 110.541 37.0648 108.642 35.2846C106.767 33.5261 104.187 32.7773 101.319 32.7773H95.0904C92.8812 32.7773 91.0904 34.5682 91.0904 36.7773V42.4547C89.4452 42.9509 88.2471 44.478 88.2471 46.2849V46.949C88.2471 47.7878 88.5053 48.5664 88.9466 49.2095C88.5053 49.8526 88.2471 50.6311 88.2471 51.47V51.9193C88.2471 53.8086 89.557 55.392 91.3181 55.8108C91.8674 57.3642 93.3489 58.4771 95.0904 58.4771H96.7042C98.4049 58.4771 99.8577 57.4157 100.436 55.9193H101.072C103.281 55.9193 105.072 54.1284 105.072 51.9193V51.47C105.072 51.1381 105.031 50.8157 104.955 50.5074C106.286 50.1487 107.503 49.5527 108.531 48.6523C110.509 46.9181 111.294 44.4895 111.285 41.9367ZM101.641 41.985L101.641 41.9681C101.642 41.8554 101.624 41.7495 101.595 41.6636C101.567 41.5786 101.536 41.5346 101.523 41.5199C101.522 41.5179 101.52 41.5163 101.519 41.5153C101.515 41.5133 101.502 41.5089 101.48 41.5042C101.452 41.4981 101.4 41.4902 101.319 41.4902H100.704V42.2849H101.202C101.431 42.2849 101.56 42.2535 101.616 42.2352C101.628 42.1941 101.642 42.1201 101.641 42.0019L101.641 41.985Z" fill="black"/>
<path fill-rule="evenodd" clip-rule="evenodd" d="M82.3555 41.3416C84.1327 33.1422 91.4295 27 100.161 27C108.294 27 115.187 32.3307 117.527 39.6926L120.386 38.7837C117.661 30.2126 109.639 24 100.161 24C89.9164 24 81.3674 31.2601 79.3786 40.916L78.6044 39.5618L76 41.0508L78.782 45.9168L79.6676 47.4659L81.0414 46.3272L85.4547 42.6694L83.5403 40.3596L82.3555 41.3416Z" fill="#101010"/>
<path fill-rule="evenodd" clip-rule="evenodd" d="M117.678 49.5133C115.901 57.7127 108.604 63.855 99.8728 63.855C91.4254 63.855 84.3172 58.1045 82.2565 50.3021L79.356 51.0682C81.7558 60.1544 90.0299 66.855 99.8728 66.855C110.117 66.855 118.666 59.5949 120.655 49.9391L121.429 51.2932L124.034 49.8042L121.252 44.9381L120.366 43.3891L118.992 44.5277L114.579 48.1856L116.493 50.4953L117.678 49.5133Z" fill="#101010"/>
</svg>
