<svg width="110" height="118" viewBox="0 0 110 118" fill="none" xmlns="http://www.w3.org/2000/svg">
<path d="M18.2992 97.456C16.2922 95.4456 12.811 95.4456 10.804 97.456L10.0935 98.1677C8.01546 100.249 8.01546 103.612 10.0935 105.675L20.6259 116.226C22.6473 118.286 26.0084 118.342 28.1211 116.226L28.8316 115.514C30.9096 113.432 30.9096 110.07 28.8316 108.006L18.2992 97.456Z" fill="white"/>
<path fill-rule="evenodd" clip-rule="evenodd" d="M13.2809 99.9288L12.5705 100.64C12.5705 100.64 12.5705 100.64 12.5705 100.64C11.8506 101.362 11.8659 102.503 12.5598 103.192L12.5652 103.197L23.1138 113.764L23.1246 113.775C23.7855 114.449 24.9105 114.488 25.6442 113.753L26.3546 113.041C27.0745 112.32 27.0592 111.179 26.3653 110.49L26.3599 110.484L15.8222 99.9288C15.1825 99.288 13.9206 99.2881 13.2809 99.9288ZM28.1211 116.226L28.8316 115.514C30.9096 113.432 30.9096 110.07 28.8316 108.006L18.2992 97.456C16.2922 95.4456 12.811 95.4456 10.804 97.456L10.0935 98.1677C8.01546 100.249 8.01546 103.612 10.0935 105.675L20.6259 116.226C22.6473 118.286 26.0084 118.342 28.1211 116.226Z" fill="black"/>
<path d="M48.5643 44.9904C46.5395 42.9622 43.0228 42.9622 40.998 44.9904L40.2698 45.7198C38.1917 47.8191 38.1917 51.1994 40.2698 53.2988L74.247 87.3331C76.3318 89.4214 79.7277 89.4221 81.8132 87.3331L82.5414 86.6036C84.6195 84.5043 84.6195 81.124 82.5414 79.0246L48.5643 44.9904Z" fill="white"/>
<path fill-rule="evenodd" clip-rule="evenodd" d="M46.0873 47.4632C45.4298 46.8046 44.1324 46.8046 43.4749 47.4632L42.7533 48.186C42.0305 48.9204 42.0305 50.0982 42.7533 50.8326C42.7546 50.8339 42.7559 50.8352 42.7572 50.8366L76.7239 84.8603C77.4417 85.5793 78.6184 85.5794 79.3363 84.8603L80.054 84.1414C80.0552 84.1401 80.0565 84.1388 80.0578 84.1375C80.7808 83.403 80.7807 82.2249 80.0575 81.4905C80.0563 81.4893 80.0552 81.4881 80.054 81.4869L46.0873 47.4632ZM82.5414 79.0246C84.6195 81.124 84.6195 84.5043 82.5414 86.6036L81.8132 87.3331C79.7277 89.4221 76.3318 89.4214 74.247 87.3331L40.2698 53.2988C38.1917 51.1994 38.1917 47.8191 40.2698 45.7198L40.998 44.9904C43.0228 42.9622 46.5395 42.9622 48.5643 44.9904L82.5414 79.0246Z" fill="black"/>
<path d="M38.3191 56.3799L20.3625 94.5417C20.5589 94.673 31.6092 105.652 32.2625 106.568L37.6981 104.002L43.4018 109.715C45.1361 111.452 47.9587 111.473 49.7136 109.715L58.4242 100.99C60.1639 99.2471 60.1639 96.4099 58.4242 94.6673L58.1176 94.3602L70.4313 88.5461L38.3191 56.3799ZM55.9127 98.474L47.2021 107.199C46.8569 107.545 46.2551 107.542 45.9134 107.199L41.112 102.39L54.703 95.9726L55.9127 97.1831C56.2683 97.5393 56.2683 98.1179 55.9127 98.474Z" fill="white"/>
<path fill-rule="evenodd" clip-rule="evenodd" d="M70.4313 88.5461L38.3191 56.3799L20.3625 94.5417C20.5589 94.673 31.6092 105.652 32.2625 106.568L37.6981 104.002L43.4018 109.715C45.1361 111.452 47.9587 111.473 49.7136 109.715L58.4242 100.99C59.3833 100.029 59.8136 98.7356 59.7152 97.4764C59.6351 96.4515 59.2048 95.4492 58.4242 94.6673L58.1176 94.3602L70.4313 88.5461ZM52.1303 93.3167L64.4439 87.5026L39.3638 62.3803L24.5907 93.7764C24.6183 93.8037 24.6461 93.8312 24.6741 93.859C25.7538 94.9269 27.1794 96.3457 28.619 97.7888C30.0573 99.2306 31.5168 100.704 32.6615 101.878C32.8063 102.027 32.9468 102.171 33.0821 102.311L38.4331 99.784L52.1303 93.3167ZM55.9127 98.474C56.2683 98.1179 56.2683 97.5393 55.9127 97.1831L54.703 95.9726L41.112 102.39L45.9134 107.199C46.2551 107.542 46.8569 107.545 47.2021 107.199L55.9127 98.474Z" fill="black"/>
<path d="M76.7077 52.6086L74.196 50.0928L68.2744 56.0243L70.7861 58.5402L76.7077 52.6086Z" fill="black"/>
<path d="M83.4591 61.0542L82.0993 57.7671L69.754 62.8912L71.1138 66.1783L83.4591 61.0542Z" fill="black"/>
<path d="M60.6486 55.6951L63.9301 57.0571L69.045 44.6927L65.7635 43.3306L60.6486 55.6951Z" fill="black"/>
<path d="M60.6982 32.2374V43.3212L72.2252 35.2796H74.8539C88.6898 35.2796 99.9504 27.3626 99.9504 17.6309C99.9504 7.89922 88.6898 0 74.8539 0C61.0001 0 49.7395 7.89922 49.7395 17.6309C49.7395 23.5731 53.8246 28.9638 60.6982 32.2374Z" fill="#F4412D"/>
<path fill-rule="evenodd" clip-rule="evenodd" d="M84 13H66V16H84V13ZM84 19H66V22H84V19Z" fill="white"/>
<path fill-rule="evenodd" clip-rule="evenodd" d="M64.1982 30.0276V36.612L71.125 31.7796H74.8539C81.1359 31.7796 86.6879 29.9767 90.5774 27.2416C94.4788 24.4982 96.4504 21.0448 96.4504 17.6309C96.4504 14.218 94.4799 10.7694 90.5793 8.03042C86.6901 5.29944 81.1376 3.5 74.8539 3.5C68.5604 3.5 63.0033 5.29989 59.1122 8.03088C55.2098 10.7698 53.2395 14.2183 53.2395 17.6309C53.2395 21.8015 56.1147 26.1778 62.2031 29.0774L64.1982 30.0276ZM60.6982 43.3212V32.2374C53.8246 28.9638 49.7395 23.5731 49.7395 17.6309C49.7395 7.89922 61.0001 0 74.8539 0C88.6898 0 99.9504 7.89922 99.9504 17.6309C99.9504 27.3626 88.6898 35.2796 74.8539 35.2796H72.2252L60.6982 43.3212Z" fill="#101010"/>
<path d="M47.697 31.9881C47.8036 32.504 47.6615 33.0556 47.324 33.4648L39.438 42.9296C39.0499 43.4002 38.3949 43.6875 37.6264 43.5167C36.9692 43.3388 36.4541 42.8051 36.3298 42.129L33.3637 26.8287C33.2394 26.1526 33.5058 25.4766 34.0564 25.0674C34.607 24.6582 35.3352 24.6048 35.9391 24.9251L46.7912 30.7605C47.2707 31.0096 47.6082 31.4544 47.697 31.9881Z" fill="#101010"/>
<path d="M33.5058 19.1255L29.6633 3.79639L18.0331 16.3225C17.6914 16.6908 17.2163 16.8906 16.7323 16.8906C16.5346 16.8906 16.3367 16.8577 16.1442 16.7899L0 11.1197L3.88013 26.5977C4.09326 27.4161 4.82147 27.9499 5.60296 27.9499C5.74505 27.9499 5.9049 27.9321 6.04699 27.8965L32.227 21.296C33.1683 21.0469 33.7545 20.0862 33.5058 19.1255Z" fill="#101010"/>
<path d="M26.7219 1.73975L1.86792 8.00611L16.2224 13.0476L26.7219 1.73975Z" fill="black"/>
<path d="M13.3401 52.9463C14.5612 53.7073 15.9629 54.1335 17.4365 54.1335C21.7411 54.1335 25.2278 50.6419 25.2278 46.3274C25.2278 42.0152 21.7436 38.5229 17.4365 38.5229C13.1307 38.5229 9.64343 42.013 9.64343 46.3274C9.64343 47.8038 10.0683 49.2079 10.8281 50.431L7.09026 54.1753C6.39651 54.8703 6.39651 55.9961 7.09026 56.691C7.78403 57.3859 8.90794 57.3861 9.60169 56.691L13.3401 52.9463ZM17.4365 42.0812C19.7776 42.0812 21.6756 43.9796 21.6756 46.3274C21.6756 51.8874 13.1957 51.9102 13.1957 46.3274C13.1957 43.9802 15.0928 42.0812 17.4365 42.0812Z" fill="#F4412D"/>
<path d="M94.6604 54.1071L98.518 46.6361L100.527 47.6751L101.633 45.5329L99.6247 44.4923L99.8987 43.9605C100.446 42.9041 101.25 42.6892 102.16 43.1613C102.412 43.2917 102.7 43.4985 103.019 43.7748L104.174 41.5368C103.831 41.1511 103.328 40.788 102.674 40.4493C100.291 39.2119 98.3191 40.0095 97.08 42.4056L96.768 43.0119L94.9675 42.0789L93.8608 44.2229L95.6613 45.1559L91.8037 52.6267L94.6604 54.1071Z" fill="#101010"/>
<path d="M104.335 70.8704L100.116 75.0965L101.758 76.7417L103.867 74.6286L106.233 76.9984C105.792 77.7429 105.274 78.4137 104.682 79.007C102.522 81.1704 100.21 81.0193 97.7484 78.5537C95.3373 76.1384 95.1668 73.8939 97.2371 71.8201C98.3835 70.6717 99.6085 70.1134 101.261 69.8434L100.325 67.3975C98.4649 67.5127 96.6204 68.6934 95.3066 70.0092C92.0408 73.2804 91.9515 77.5481 95.3519 80.9542C98.878 84.4863 103.076 84.2694 106.415 80.9249C107.712 79.6254 108.989 77.8666 109.594 76.1384L104.335 70.8704Z" fill="#101010"/>
</svg>
