<svg width="97" height="126" fill="none" xmlns="http://www.w3.org/2000/svg"><path d="M5.373 93.348h7.911l2.004 2.418-1.53 8.517-2.847 2.418H3l2.373-13.353zm6.17 2.734H7.8l-1.424 7.938h3.745l.896-.736 1.16-6.414-.632-.788zm-5.263 27.07L6.688 126l1.64-.512L6.875 115H5.019L0 125.488l1.465.512 1.364-2.848H6.28zm-1.058-5.018l.334-1.024h.058l-.015 1.024.479 3.436H3.583l1.639-3.436zm9.418 5.982H12l-.625-.783 1.016-5.967.885-.784h2.48l.624.784-.218 1.25h1.668l.32-1.868L16.77 115h-3.96l-1.987 1.748-1.218 7.203 1.392 1.748h4.134l1.958-1.733-.942-1.176-1.509 1.326zm8.803 0h-2.64l-.624-.783 1.015-5.967.885-.784h2.48l.624.784-.217 1.25h1.668l.319-1.868L25.575 115h-3.96l-1.987 1.748-1.219 7.203 1.393 1.748h4.134l1.958-1.733-.943-1.176-1.508 1.326zm3.908 1.583h6.57l.262-1.583H29.28l.551-3.209h4.294l.261-1.582h-4.294l.465-2.743h4.902l.276-1.582h-6.57l-1.814 10.699zm14.385-9.117l1.509.528.696-1.492-1.653-.618h-3.583l-1.973 1.733-.319 1.899.29 1.009 4.337 2.471.102.226-.174 1.01-.87.768h-2.525l-1.494-.572-.754 1.522 1.726.633h3.525l1.958-1.733.348-2.095-.362-1.039-4.308-2.457-.044-.211.13-.813.871-.769h2.567zm8.039 0l1.509.528.696-1.492-1.654-.618h-3.583l-1.972 1.733-.32 1.899.29 1.009 4.338 2.471.101.226-.174 1.01-.87.768h-2.524l-1.494-.572-.754 1.522 1.726.633h3.525l1.958-1.733.348-2.095-.363-1.039-4.308-2.457-.043-.211.13-.813.87-.769h2.568zM55.67 115l-2.132 1.733-1.218 7.233 1.538 1.733h4.105l2.117-1.733 1.219-7.233L59.776 115H55.67zm3.86 2.381l-1.016 5.937-.958.798h-2.77l-.696-.783 1.015-5.952.957-.799h2.77l.697.799zm8.938-.799l.58.708-.333 1.989-.827.709h-3.293l.58-3.406h3.293zm-1.073 5.154l-.29-.272.043-.045.305.151h.957l1.857-1.628.566-3.315L69.527 115h-5.744l-1.813 10.699h1.668l.696-4.129h.726l3.133 4.43 1.407-1.145-2.205-3.119zm8.122 3.963l.261-1.583h-1.465l1.277-7.534h1.465L77.33 115h-4.598l-.275 1.582h1.465l-1.277 7.534H71.18l-.26 1.583h4.597zm1.893 0h6.57l.262-1.583h-4.903l.551-3.209h4.294l.26-1.582h-4.293l.464-2.743h4.903l.276-1.582h-6.571l-1.813 10.699zm14.385-9.117l1.509.528.696-1.492-1.654-.618h-3.582l-1.973 1.733-.32 1.899.29 1.009 4.338 2.471.102.226-.175 1.01-.87.768h-2.524l-1.494-.572-.754 1.522 1.726.633h3.525l1.958-1.733.348-2.095-.362-1.039-4.309-2.457-.043-.211.13-.813.87-.769h2.568zM25.889 93.348l2.215 2.366-1.53 8.674-3.058 2.366h-5.643l-2.216-2.366 1.53-8.674 3.059-2.366h5.643zM24.2 96.082h-3.27l-1.002.788-1.107 6.361.738.789h3.27l1.002-.789 1.16-6.36-.79-.79z" fill="#000"/><path d="M39.548 101.549l-.474 2.734h-1.371l-.422 2.471h-2.954l.422-2.471h-6.962l.475-2.681 8.966-8.254h2.426l-1.477 8.201h1.371zm-7.33-.21l-.739.42.053.053.686-.263h3.006l.58-3.26.37-.683-.054-.052-.527.683-3.375 3.102z" fill="#E84434"/><path d="M48.514 92.98l2.162 13.248-2.953.946-.475-2.996h-4.272l-1.476 2.996-2.584-.946 6.803-13.248h2.795zm-2.057 5.468v-1.42h-.105l-.475 1.42-1.635 3.154h2.69l-.475-3.154zm5.063 6.203l.95-.789h1.529l.738.789-.263 1.629-.95.789H51.89l-.685-.789.316-1.629zm13.765-2.419l1.635 1.998-3.006 2.524H58.27l-2.004-2.419 1.53-8.569 2.847-2.418h5.485l2.004 2.418-.422 2.471h-2.9l.263-1.42-.633-.735h-2.953l-.897.736-1.16 6.413.633.736h3.059l2.162-1.735zm13.027-8.884l2.215 2.366-1.53 8.674-3.058 2.366h-5.644l-2.215-2.366 1.53-8.674 3.059-2.366h5.643zm-1.688 2.734h-3.27l-1.002.788-1.16 6.361.738.789h3.27l1.002-.789 1.16-6.36-.738-.79zm11.972 3.732l.105.736h.053l.37-.736 5.115-6.413h2.69l-2.374 13.405h-2.953l1.266-7.15.422-1.261h-.053l-.738 1.261-3.376 4.311H87.12l-1.898-4.31-.264-1.262h-.106v1.261l-1.265 7.15h-2.954l2.374-13.405h2.69l2.9 6.413zm-65.87-53.46l3.863 2.601c.208 2.186.521 4.58 1.461 6.557.209.624 1.253 1.769 1.67 2.29.627.832 1.149 1.352 1.775 2.08l1.984 1.978c.626.624 1.357 1.353 1.984 1.873 1.566 1.249 2.4 1.977 4.28 3.434 2.923 2.186 6.369 4.059 9.71 6.036 3.027 1.874 2.088 1.874 5.01.104 5.012-3.018 7.205-4.266 11.903-7.7 1.566-1.145 4.802-4.163 6.264-5.62.94-.937 2.819-3.122 3.445-4.267 1.462-2.498 1.566-2.81 1.566-6.348v-23.52c-2.506-1.145-4.907-2.29-7.517-3.33-8.77-3.122-18.688-4.579-27.77-2.29l1.148-4.266c1.566-.208 3.654-.625 5.22-.625.626 0 .73-.104 1.357-.104 4.803-.104 4.907 0 9.605.625l4.803.936c1.566.417 3.132.729 4.593 1.249 3.445 1.04 5.22 1.665 8.561 3.122l3.967 1.77v27.785c0 2.498-.626 3.435-1.461 5.412-.209.624-1.462 2.29-1.88 2.81-.313.416-.73.833-1.043 1.249a6.02 6.02 0 0 1-1.149 1.145c-.418.416-.626.728-1.044 1.248-2.819 2.706-4.176 3.85-7.413 6.453-.73.52-3.236 2.393-3.967 2.913a9.55 9.55 0 0 1-1.357.833c-2.61 1.665-5.95 3.642-8.665 5.203-1.88 1.145-.836 1.25-5.847-1.665-1.775-1.04-4.072-2.393-5.742-3.538-2.192-1.457-3.028-1.977-5.429-3.746-1.984-1.561-3.863-3.123-5.742-4.683-1.044-.937-4.176-4.371-5.011-5.412a10.5 10.5 0 0 1-.94-1.353c-2.61-3.955-2.192-6.348-2.192-11.24z" fill="#000"/><path d="M26.693 49.06l-1.984-1.354-1.983-1.352c-1.984-1.25-2.506-1.457-4.28-3.018-.419-.313-.627-.625-.94-1.041-1.775-2.186-2.402-2.602-1.984-4.891.104-.417.313-.937.417-1.353.523-.833.627-1.77 1.044-2.706l1.358-3.122c.104-.208.208-.312.313-.624.209-.417.418-.729.626-1.145 1.357-2.81 1.149-2.082 2.715-4.475.835-1.249 5.22-6.556 6.473-7.91.313-.416.522-.624.835-.936.209-.208.313-.208.418-.416l1.252-1.457c1.88-2.29 2.193-2.602 3.863-5.204.94-1.457 3.446-5.411 4.594-6.348.73-.624 1.357-1.04 2.297-1.249.835-.208 2.192-.312 3.132-.416 1.253-.104 1.983 0 3.236.104 3.132.312 5.742.52 8.144 2.602 1.253 1.145 1.983 3.434 1.983 5.203 0 .833.313 2.498-.209 3.018-1.044.729-5.428 1.25-5.95 1.353-.94.104-5.847.833-6.265.625-.522-.209-.522-.313-.73-.729L43.71 8.993c-.104-.312-.417-1.145-.73-.937-.314.313-.314.625-.21 1.041.105.937.627 2.186.836 2.914.626 2.29.104 4.059 0 4.267l-2.192 7.909c-.418 1.145-1.567 4.787-2.089 6.14-.104.312-.417.833-.626 1.145-1.253 2.081-3.445 5.307-3.027 8.013.417 2.498 2.296 3.746 4.175 4.475.836.416 3.237.832 4.177.937 0 0-4.072-1.353-5.847-2.914-3.758-3.435 3.132-11.968 3.132-11.968.94-1.249 3.55-1.353 4.28-1.249 5.116.833 7.622 5.62 7.726 6.036 0 0 4.385-5.203 15.452-5.203 3.34 0 7.726 2.08 8.352 2.393v18.732c0 2.186-.522 3.227-1.462 4.684-1.879 3.017-4.906 6.035-7.516 8.117-.523.416-.836.728-1.67 1.457-1.045.728-2.507 2.081-3.55 2.602L58.117 57.28c-3.132.936-2.297.832-5.22 1.249-2.506.312-5.43.208-7.935-.417-.94-.208-2.088-.52-3.132-.832-8.665-2.706-15.138-8.222-15.138-8.222z" fill="#E84434"/></svg>