<svg width="94" height="108" fill="none" xmlns="http://www.w3.org/2000/svg"><path d="M2.373 93.348h7.911l2.004 2.418-1.53 8.517-2.847 2.418H0l2.373-13.353zm6.17 2.734H4.8l-1.424 7.938H7.12l.896-.736 1.16-6.414-.632-.788zm14.346-2.734l2.215 2.366-1.53 8.674-3.058 2.366h-5.643l-2.216-2.366 1.53-8.674 3.059-2.366h5.643zM21.2 96.082h-3.27l-1.002.788-1.107 6.361.738.789h3.27l1.002-.789 1.16-6.36-.79-.79z" fill="#000"/><path d="M36.548 101.549l-.474 2.734h-1.371l-.422 2.471h-2.954l.422-2.471h-6.961l.474-2.681 8.966-8.254h2.426l-1.477 8.201h1.371zm-7.33-.21l-.739.42.053.053.686-.263h3.006l.58-3.26.369-.683-.053-.052-.527.683-3.375 3.102z" fill="#E84434"/><path d="M45.514 92.98l2.162 13.248-2.953.946-.475-2.996h-4.272l-1.476 2.996-2.585-.946L42.72 92.98h2.795zm-2.057 5.468v-1.42h-.105l-.475 1.42-1.635 3.154h2.69l-.475-3.154zm5.063 6.203l.95-.789h1.529l.738.789-.263 1.629-.95.789H48.89l-.685-.789.316-1.629zm13.765-2.419l1.635 1.998-3.006 2.524H55.27l-2.004-2.419 1.53-8.569 2.847-2.418h5.485l2.004 2.418-.422 2.471h-2.9l.263-1.42-.633-.735h-2.953l-.897.736-1.16 6.413.633.736h3.059l2.162-1.735zm13.027-8.884l2.215 2.366-1.53 8.674-3.058 2.366h-5.644l-2.215-2.366 1.53-8.674 3.059-2.366h5.643zm-1.688 2.734h-3.27l-1.002.788-1.16 6.361.738.789h3.27l1.002-.789 1.16-6.36-.738-.79zm11.972 3.732l.105.736h.053l.37-.736 5.115-6.413h2.69l-2.374 13.405h-2.953l1.266-7.15.422-1.261h-.053l-.738 1.261-3.376 4.311H84.12l-1.898-4.31-.264-1.262h-.106v1.261l-1.265 7.15h-2.954l2.373-13.405h2.69l2.9 6.413zm-65.87-53.46l3.862 2.601c.21 2.186.522 4.58 1.462 6.557.209.624 1.253 1.769 1.67 2.29.627.832 1.149 1.352 1.775 2.08l1.984 1.978c.626.624 1.357 1.353 1.984 1.873 1.566 1.249 2.4 1.977 4.28 3.434 2.923 2.186 6.369 4.059 9.71 6.036 3.027 1.874 2.088 1.874 5.01.104 5.012-3.018 7.205-4.266 11.903-7.7 1.566-1.145 4.802-4.163 6.264-5.62.94-.937 2.819-3.122 3.445-4.267 1.462-2.498 1.566-2.81 1.566-6.348v-23.52c-2.506-1.145-4.907-2.29-7.517-3.33-8.77-3.122-18.688-4.579-27.77-2.29l1.148-4.266c1.566-.208 3.654-.625 5.22-.625.626 0 .73-.104 1.357-.104 4.802-.104 4.907 0 9.605.625l4.802.936c1.567.417 3.133.729 4.594 1.249 3.445 1.04 5.22 1.665 8.561 3.122l3.967 1.77v27.785c0 2.498-.626 3.435-1.461 5.412-.209.624-1.462 2.29-1.88 2.81-.313.416-.73.833-1.043 1.249a6.02 6.02 0 01-1.149 1.145c-.418.416-.626.728-1.044 1.248-2.819 2.706-4.176 3.85-7.413 6.453-.73.52-3.236 2.393-3.967 2.913-.417.313-.94.625-1.357.833-2.61 1.665-5.95 3.642-8.665 5.203-1.88 1.145-.836 1.25-5.847-1.665-1.775-1.04-4.072-2.393-5.742-3.538-2.193-1.457-3.028-1.977-5.429-3.746-1.984-1.561-3.863-3.123-5.742-4.683-1.044-.937-4.176-4.371-5.011-5.412a10.5 10.5 0 01-.94-1.353c-2.61-3.955-2.192-6.348-2.192-11.24z" fill="#000"/><path d="M23.693 49.06l-1.984-1.354-1.983-1.352c-1.984-1.25-2.506-1.457-4.28-3.018-.418-.313-.627-.625-.94-1.041-1.775-2.186-2.402-2.602-1.984-4.891.104-.417.313-.937.417-1.353.522-.833.627-1.77 1.044-2.706l1.358-3.122c.104-.208.209-.312.313-.624.209-.417.418-.729.626-1.145 1.357-2.81 1.149-2.082 2.715-4.475.835-1.249 5.22-6.556 6.473-7.91.313-.416.522-.624.835-.936.209-.208.313-.208.418-.416l1.252-1.457c1.88-2.29 2.193-2.602 3.863-5.204.94-1.457 3.446-5.411 4.594-6.348.73-.624 1.357-1.04 2.297-1.249.835-.208 2.192-.312 3.132-.416 1.253-.104 1.983 0 3.236.104 3.132.312 5.742.52 8.144 2.602 1.253 1.145 1.983 3.434 1.983 5.203 0 .833.313 2.498-.209 3.018-1.044.729-5.428 1.25-5.95 1.353-.94.104-5.847.833-6.265.625-.522-.209-.522-.313-.73-.729L40.71 8.993c-.104-.312-.417-1.145-.73-.937-.314.313-.314.625-.21 1.041.105.937.627 2.186.836 2.914.626 2.29.104 4.059 0 4.267l-2.193 7.909c-.417 1.145-1.566 4.787-2.087 6.14-.105.312-.418.833-.627 1.145-1.253 2.081-3.445 5.307-3.028 8.013.418 2.498 2.297 3.746 4.176 4.475.836.416 3.237.832 4.177.937 0 0-4.072-1.353-5.847-2.914-3.758-3.435 3.132-11.968 3.132-11.968.94-1.249 3.55-1.353 4.28-1.249 5.116.833 7.622 5.62 7.726 6.036 0 0 4.385-5.203 15.452-5.203 3.34 0 7.726 2.08 8.352 2.393v18.732c0 2.186-.522 3.227-1.462 4.684-1.879 3.017-4.906 6.035-7.516 8.117-.523.416-.836.728-1.67 1.457-1.045.728-2.507 2.081-3.55 2.602L55.117 57.28c-3.132.936-2.297.832-5.22 1.249-2.506.312-5.43.208-7.935-.417-.94-.208-2.088-.52-3.132-.832-8.665-2.706-15.138-8.222-15.138-8.222z" fill="#E84434"/></svg>