<svg width="64" height="32" fill="none" xmlns="http://www.w3.org/2000/svg"><path fill-rule="evenodd" clip-rule="evenodd" d="M33.067 0v32H64V0H33.067zM0 0v32h30.933V0H0z" fill="#0055A6"/><path fill-rule="evenodd" clip-rule="evenodd" d="M62.4 1.6v28.8H34.667V1.6H62.4zM16.76 22.649c-.341-.427-.514-.988-.514-1.667 0-.696.165-1.256.49-1.666.354-.448.876-.675 1.55-.675h.052v-1.162h-.051c-1.054 0-1.866.34-2.416 1.007-.5.606-.754 1.448-.754 2.505 0 1.022.275 1.862.818 2.497.571.668 1.367 1.007 2.367 1.007h.052v-1.161h-.052c-.659 0-1.178-.23-1.543-.685zm-4.012 0c-.341-.427-.514-.988-.514-1.667 0-.696.165-1.256.49-1.666.354-.448.875-.675 1.55-.675h.052v-1.162h-.052c-1.053 0-1.866.34-2.415 1.007-.5.606-.755 1.448-.755 2.505 0 1.022.276 1.862.819 2.497.571.668 1.367 1.007 2.367 1.007h.052v-1.161h-.052c-.659 0-1.178-.23-1.542-.685zm3.687-11.313v3.234h1.197V7.876h-1.198v2.331h-.651c-.269 0-.47-.063-.596-.187a.47.47 0 0 1-.136-.36V7.877h-1.198v1.911c0 .44.169.813.503 1.108.33.293.734.441 1.203.441h.876zm11.459 5.984l-.085.09-2.393 2.57v-2.34H24.37v6.656h1.046v-2.734l1.518-1.653.152 4.387h1.066l-.258-6.975zm-7.836-2.75h1.197V8.99h1.01V7.876h-3.2V8.99h.993v5.581zm2.758 2.84l-2.393 2.57v-2.34h-1.046v6.656h1.046v-2.734l1.518-1.653.151 4.387h1.067L22.9 17.32l-.085.092zm2.155-8.421h.433c.309 0 .521.095.65.291.103.163.177.478.224.91h-1.336l.029-1.201zm-.05 2.314h1.494l.336 3.268h1.207l-.553-4.895c0-.641-.192-1.126-.572-1.43-.302-.245-.717-.37-1.232-.37h-1.774l-.22 6.694h1.198l.115-3.267zM4.044 8.989h1.483v5.582h1.198V7.876h-3.88v6.694h1.199V8.99zm.56 12.284c-.086.17-.186.256-.298.256-.108 0-.2-.074-.278-.226-.084-.162-.126-.398-.126-.704V18.64h.044c.248 0 .436.141.578.43.145.297.218.773.218 1.414 0 .341-.047.607-.138.789zm-.655-3.624H2.84v6.642h1.063v-1.93c.206.186.43.297.677.297.354 0 .648-.193.876-.572.255-.426.383-1.057.383-1.877 0-.57-.103-1.082-.307-1.518-.321-.691-.854-1.042-1.582-1.042zm7.125-4.716c-.156.433-.375.644-.67.644-.283 0-.496-.213-.653-.653-.163-.459-.245-1.041-.245-1.731 0-.708.08-1.29.241-1.731.153-.422.368-.627.657-.627.324 0 .555.208.706.634.14.393.21.967.21 1.705 0 .713-.083 1.305-.246 1.759zm.925.757c.355-.631.535-1.478.535-2.516 0-1.026-.186-1.867-.553-2.498-.376-.645-.907-.971-1.58-.971-.637 0-1.145.329-1.508.977-.355.632-.535 1.474-.535 2.5 0 1.063.172 1.921.512 2.551.348.646.863.973 1.531.973.68 0 1.217-.341 1.598-1.016zM9 22.69c-.14.438-.346.66-.611.66-.256 0-.456-.225-.597-.669-.146-.462-.221-1.048-.221-1.743 0-.712.073-1.298.217-1.742.137-.426.34-.642.6-.642.296 0 .507.213.644.65.126.397.19.973.19 1.716 0 .718-.074 1.313-.221 1.77zm.792-4.253c-.333-.636-.805-.96-1.402-.96-.567 0-1.017.326-1.34.967-.316.63-.477 1.465-.477 2.485 0 1.057.154 1.91.457 2.537.308.637.766.96 1.36.96.602 0 1.08-.338 1.418-1.006.316-.626.477-1.467.477-2.5 0-1.02-.166-1.856-.493-2.483z" fill="#fff"/><path fill-rule="evenodd" clip-rule="evenodd" d="M42.367 10.484c.23.522.606 1.056 1.633 1.777.229.162.482.498.29.97-.194.473-.557 1.144-.34 1.404.218.262.99.399 1.62.137 0 0 .133.41.363.671 0 0-.108.224-.471.113 0 0 .133.335-.049.696 0 0-.423-.074-.604-.473 0 0-.17.311-.508.422 0 0-.278-.148-.217-.72 0 0-.206.51-.834.596 0 0-.363-.472.108-1.107 0 0-.339.312-.954.163 0 0-.098-.323.458-.772 0 0-.629-.024-.87-.571 0 0 .266-.336.919-.26 0 0-.605-.138-.738-.884 0 0 .436-.286 1.125.174 0 0-.121-.236-.411-.472-.291-.236-.641-.895-.52-1.864zm2.529 7.498a1.826 1.826 0 0 1-.21-.37c.108.905.147 1.515.621 2.1 0 0 .287-.392.102-1.345a.895.895 0 0 1-.256-.122s.109.387.041.777c0 0-.171-.13-.298-1.04zm-.821-.094a2.813 2.813 0 0 1-.223-.34c-.04.525-.175 1.908.276 2.34 0 0 .308-.232.417-2.248-.065.113-.18.232-.235.298 0 0 .075.64-.148 1.091 0 0-.224-.175-.087-1.141zm-1.073 1.056c.378-.466.492-1.862.492-1.862a2.409 2.409 0 0 0 .22-.175c0 .051.002.104.006.157-.054.84-.119 1.706-.374 2.137-.25.423-.709.642-.709.642-.431-.788.09-1.847.526-2.582a1.77 1.77 0 0 0 .163-.076c-.154.567-.444 1.24-.324 1.76zm-1.069-2.424a.637.637 0 0 0 .025.203c.005.014.011.035.021.056-.361.365-.629.712-1.163 1.477a1.904 1.904 0 0 1-1.384.795c.081-.618.245-1.109.699-1.635.454-.529 1.033-1.01 1.46-1.33.11.053.253.085.434.063l.042-.006a.64.64 0 0 0-.111.226c-.323.19-1.26.679-1.64 1.466 0 0 .594-.19 1.617-1.315zm-.672-.77l.036-.066a.565.565 0 0 1 .037-.06c-.348.14-1.59.621-1.991.835-.402.215-.983.701-1.299 1.689 0 0 .838.078 1.53-.51.69-.59 1.496-1.411 1.84-1.673a.775.775 0 0 1-.08-.09s-.936.852-1.925 1.22c0 0 .212-.395.603-.682.476-.348.833-.465 1.249-.664zm-.71-.582c.013-.034.028-.067.042-.098-.41.086-1.434.212-1.892.356-.456.144-1.284.489-1.775 1.45 0 0 .721.23 2.08-.428 1.36-.658 1.785-.794 2.046-.864a.956.956 0 0 1-.43-.136c-.543.247-1.268.542-1.988.561 0 0 .356-.258.728-.42a8.99 8.99 0 0 1 1.19-.421zm.035-.693c.133.064.235.097.409.115a1.05 1.05 0 0 0-.265.25c-.48.142-1.296.298-2.643.398-1.348.1-2.066-.155-2.066-.155.47-.295 1.218-.595 1.724-.695.506-.1 1.835-.09 2.418-.171.007.005.078.066.191.137-.49.045-1.534.096-2.073.376 0 0 .995.137 2.305-.255zm-.101-.797c.068-.041.15-.082.25-.12-.682-.213-1.62-.552-3.027-.647-1.034-.07-1.781-.01-2.167.094 0 0 .941.682 2.017.923s1.95.088 2.59.093c.045-.076.1-.147.163-.21-.746.005-1.99-.194-2.434-.346 0 0 1.085-.232 2.608.213zm-.004-.824c.004.02.083.415.529.634-.957-.431-2.845-.68-3.858-1.113-1.371-.586-1.62-1.317-1.62-1.317 1.185-.032 2.144.266 2.884.499.865.273 2.183.778 2.644.99a1.005 1.005 0 0 0-.522.168 14.198 14.198 0 0 0-1.529-.53c-.461-.133-.803-.159-1.09-.188 0 0 .405.277 1.074.497.663.217.95.254 1.488.36zm-.072-1.076c.038.07.152.237.196.303-1.515-.26-3.18-1.439-3.695-2.168-.515-.73-.368-1.821-.368-1.821.5.104 1.585 1.066 1.865 1.355.282.289 1.131 1.139 1.718 1.614l.185.547a62.827 62.827 0 0 0-1.474-1.17c-.287-.222-.716-.536-1.142-.686 0 0 .392.526.71.782.327.27.677.515 1.043.73.273.152.411.24.962.514z" fill="#0055A6"/><path fill-rule="evenodd" clip-rule="evenodd" d="M44.68 16.137c.046-.04.085-.082.119-.12.07.091.303.393.418.691.088.256.18.604.227.804.046.198.184.61.267.754 0 0-.369.047-.642-.28-.268-.323-.36-.646-.401-.979-.03-.29-.026-.581.012-.87zm-.582.05a.47.47 0 0 0 .142.136l.05.026.051-.017a.976.976 0 0 0 .128-.053c.053.154.076.228.089.358.017.173.051.446-.012.67-.078.271-.236.437-.323.542 0 0-.24-.273-.31-.499a1.32 1.32 0 0 1-.01-.79 1.12 1.12 0 0 1 .195-.373zm-.831.026c.208-.026.406-.107.574-.233.032.09.08.21.044.38a.926.926 0 0 1-.316.497c-.25.204-.583.397-.95.338 0 0-.085-.284.648-.982zm-.279-.474c.03.252.148.41.157.423-.086.106-.397.655-1.045.562 0 0-.175-.373.256-.67.293-.201.432-.242.632-.315zm.057-.469a1.36 1.36 0 0 1-.673-.004l-.074-.018-.022-.075c-.333.28-.728.326-.864.577 0 0 .166.317.597.264a1.429 1.429 0 0 0 .987-.558c.01-.046.028-.128.049-.186zm-.747-.392c.061-.093.104-.239.233-.385a2.249 2.249 0 0 0-.878.011c-.398.078-.804.174-1.007.796 0 0 .255.224.72.127.392-.083.736-.257.932-.55zm-.169-.676a1.025 1.025 0 0 1-.258-.356l-.034-.077c-.344-.144-.704-.22-1.056-.084-.35.135-.444.292-.533.426 0 0 .39.335.838.348.449.015.863-.118 1.043-.257zm.104-.727c.06-.024.127-.045.202-.06a1.253 1.253 0 0 1-.376-.665c-.16.039-.537.039-.702-.026a.872.872 0 0 0-.745.104s.086.457.66.614c.54.147.742.109.961.033zm-.207-.894l.076-.05a.797.797 0 0 1 .359-.104c-.185-.143-.625-.522-.939-.704-.34-.197-.906-.457-1.193-.496 0 0 .27.729.584 1.022.325.305.554.418 1.113.332zm.581-.335c-.137-.184-.245-.437-.325-.737-.066-.244-.214-.849-.302-1.005-.089-.157-.407-.706-1.028-.876 0 0-.166.714.147 1.28.269.487.822 1.001 1.509 1.338zm3.448 3.322a.911.911 0 0 0 .276.195s.198.389-.042.859c-.202.395-.383.801-.54 1.216 0 0-.13-.019-.273-.755-.097-.5-.22-.623-.347-.794.139.073.252.095.26.097l.098.017.044-.089c.092-.183.128-.389.103-.592a.455.455 0 0 0 .387-.17l.012-.015.022.031z" fill="#0055A6"/><path fill-rule="evenodd" clip-rule="evenodd" d="M40.776 9.928a3.91 3.91 0 0 0-.001.225l.012.175c-.366-.481-.805-1.062-1.225-1.597-.287-.367-.53-.589-.8-.767.228.68.634 1.221.923 1.491.288.27.705.727 1.111 1.006l.04.137c.031.127.078.256.146.378.095.171.22.34.367.503a8.994 8.994 0 0 0-.39-.183l-.126-.054c-1.118-.61-2.228-1.873-2.677-2.754-.449-.879-.262-1.9-.143-2.446.507.442 1.239 1.314 1.558 1.788.39.582.893 1.407 1.204 2.077v.021zm15.686 3.75a1.538 1.538 0 0 0-.25-.12c.681-.213 1.619-.552 3.027-.647 1.034-.07 1.78-.01 2.166.094 0 0-.94.682-2.017.923-1.076.241-1.95.088-2.59.093a1.101 1.101 0 0 0-.163-.21c.746.005 1.99-.194 2.434-.346 0 0-1.084-.232-2.607.213zm.003-.824a.957.957 0 0 1-.529.634c.958-.431 2.845-.68 3.858-1.113 1.372-.586 1.621-1.317 1.621-1.317-1.185-.032-2.145.266-2.884.499-.866.273-2.184.778-2.645.99a1 1 0 0 1 .522.168c.645-.255.944-.361 1.53-.53.46-.133.803-.159 1.09-.188 0 0-.406.277-1.075.497-.663.217-.949.254-1.488.36zm.072-1.076c-.038.07-.151.237-.195.303 1.515-.26 3.18-1.439 3.695-2.168.515-.73.368-1.821.368-1.821-.5.104-1.585 1.066-1.866 1.355-.28.289-1.13 1.139-1.717 1.614l-.185.548a60.683 60.683 0 0 1 1.474-1.17c.287-.222.715-.537 1.143-.687 0 0-.393.526-.71.782a7.99 7.99 0 0 1-1.045.73c-.27.153-.411.24-.962.514zm-.367-1.85c.002.068.004.145.002.225l-.014.175c.367-.481.807-1.062 1.226-1.597.288-.367.53-.589.8-.767-.228.68-.634 1.221-.923 1.491-.288.27-.704.727-1.11 1.006l-.04.137a1.554 1.554 0 0 1-.147.378c-.103.181-.226.35-.367.503.118-.059.255-.124.39-.183l.126-.054c1.118-.61 2.228-1.873 2.677-2.754.448-.879.263-1.9.143-2.446-.508.442-1.238 1.314-1.558 1.788-.392.582-.892 1.407-1.203 2.077v.021h-.002zm-13.964 6.945c-.461.474-1.433 1.537-1.342 2.692 0 0 .903-.29 1.275-.972.371-.68.601-1.107.758-1.26-.1.014-.2.013-.3-.002l-.08-.014c-.23.429-.684 1.132-1.092 1.376 0 0-.104-.568 1.097-1.722a.982.982 0 0 1 .075-.16c-.11.04-.235.064-.376.06l-.015.002zm12.374-6.39c-.23.523-.607 1.057-1.633 1.778-.229.162-.482.498-.29.97.195.473.557 1.144.339 1.404-.218.262-.99.399-1.62.137 0 0-.132.41-.362.671 0 0 .108.224.471.113 0 0-.133.335.049.696 0 0 .423-.074.604-.473 0 0 .169.311.508.422 0 0 .277-.148.217-.72 0 0 .206.51.834.596 0 0 .363-.472-.108-1.107 0 0 .338.312.954.163 0 0 .097-.323-.459-.772 0 0 .628-.024.871-.571 0 0-.267-.336-.919-.26 0 0 .604-.138.737-.884 0 0-.434-.286-1.123.174 0 0 .12-.236.41-.472s.64-.895.52-1.864zm-2.53 7.499c.092-.124.16-.25.21-.37-.107.905-.146 1.515-.621 2.1 0 0-.287-.392-.101-1.345a.896.896 0 0 0 .255-.122s-.108.387-.04.777c-.001 0 .17-.13.297-1.04zm.821-.094a2.71 2.71 0 0 0 .224-.34c.04.525.174 1.908-.276 2.34 0 0-.31-.232-.417-2.248.065.113.18.233.234.298 0 0-.075.64.149 1.091 0 0 .224-.175.086-1.141zm1.074 1.057c-.38-.467-.492-1.863-.492-1.863a1.974 1.974 0 0 1-.22-.175 1.4 1.4 0 0 1-.008.157c.056.84.12 1.706.375 2.137.25.423.71.642.71.642.43-.788-.091-1.847-.525-2.582a1.408 1.408 0 0 1-.164-.076c.153.567.443 1.24.324 1.76zm1.068-2.424a.616.616 0 0 1-.026.202.354.354 0 0 1-.02.056c.36.365.63.712 1.164 1.477a1.902 1.902 0 0 0 1.383.795c-.082-.618-.245-1.109-.699-1.635-.454-.529-1.034-1.01-1.46-1.33a.77.77 0 0 1-.476.058.67.67 0 0 1 .112.225c.322.19 1.26.679 1.64 1.466 0 0-.594-.19-1.618-1.314zm.672-.772l-.035-.065a.55.55 0 0 0-.037-.06c.347.14 1.589.621 1.99.835.402.215.983.701 1.3 1.689 0 0-.838.078-1.53-.51-.692-.59-1.497-1.411-1.84-1.673a.796.796 0 0 0 .08-.09s.935.852 1.923 1.22c0 0-.21-.395-.602-.682-.476-.348-.832-.465-1.249-.664zm.71-.581a1.929 1.929 0 0 0-.042-.098c.41.086 1.434.212 1.892.356.457.144 1.284.489 1.775 1.45 0 0-.72.23-2.08-.428s-1.785-.794-2.045-.864a.957.957 0 0 0 .43-.136c.543.247 1.267.542 1.987.561 0 0-.355-.258-.728-.42a8.922 8.922 0 0 0-1.189-.421zm-.034-.693a1.102 1.102 0 0 1-.41.115c.096.063.186.143.266.25.48.142 1.296.298 2.643.398 1.347.1 2.066-.155 2.066-.155-.47-.295-1.218-.595-1.724-.695-.506-.1-1.836-.09-2.419-.171-.06.05-.124.096-.191.137.49.045 1.534.096 2.073.376 0 0-.994.137-2.304-.255z" fill="#0055A6"/><path fill-rule="evenodd" clip-rule="evenodd" d="M52.266 16.137a1.242 1.242 0 0 1-.119-.12c-.07.091-.303.393-.417.691a8.88 8.88 0 0 0-.228.804c-.046.198-.184.61-.268.754 0 0 .37.047.642-.28.268-.323.36-.646.401-.979.03-.29.027-.581-.011-.87zm.58.05a.475.475 0 0 1-.14.136l-.049.026-.053-.017a.923.923 0 0 1-.127-.053 1.383 1.383 0 0 0-.088.358c-.018.173-.052.446.012.67.077.271.234.437.322.542 0 0 .242-.273.31-.499a1.3 1.3 0 0 0 .01-.79 1.112 1.112 0 0 0-.196-.373zm.833.026a1.209 1.209 0 0 1-.575-.233c-.031.09-.078.21-.042.38a.92.92 0 0 0 .316.497c.248.204.582.397.95.338 0 0 .084-.284-.649-.982zm.279-.474c-.03.252-.148.41-.157.423.086.106.397.655 1.045.562 0 0 .175-.373-.256-.67-.294-.201-.431-.242-.632-.315zm-.057-.469c.173.045.397.063.673-.004l.073-.018.023-.075c.332.28.727.326.863.577 0 0-.166.317-.596.264a1.431 1.431 0 0 1-.987-.558 1.354 1.354 0 0 0-.049-.186zm.748-.392c-.063-.093-.105-.239-.234-.385.29-.054.59-.05.878.011.398.078.804.174 1.007.796 0 0-.255.224-.72.127-.393-.083-.736-.257-.931-.55zm.168-.676c.1-.089.19-.205.258-.356l.033-.077c.346-.144.705-.22 1.056-.084.352.135.444.292.534.426 0 0-.39.335-.838.348-.45.015-.863-.118-1.043-.257zm-.105-.727a1.157 1.157 0 0 0-.2-.06c.152-.139.302-.349.375-.665.16.039.537.039.702-.026a.87.87 0 0 1 .745.104s-.084.457-.66.614c-.541.147-.741.109-.962.033zm.208-.894l-.076-.05a.808.808 0 0 0-.36-.104c.187-.143.627-.522.94-.704.34-.197.906-.457 1.194-.496 0 0-.27.729-.585 1.022-.325.305-.554.418-1.113.332zm-.582-.335c.138-.184.247-.437.327-.737.065-.244.213-.849.302-1.005.089-.157.406-.706 1.028-.876 0 0 .165.714-.148 1.28-.27.487-.822 1.001-1.509 1.338zm-3.446 3.322a.935.935 0 0 1-.276.195s-.198.389.041.859c.24.47.444.95.54 1.216 0 0 .13-.019.273-.755.097-.5.22-.623.348-.794a1.02 1.02 0 0 1-.262.097l-.096.017-.045-.089a1.038 1.038 0 0 1-.103-.592.458.458 0 0 1-.388-.17l-.01-.015-.022.031z" fill="#0055A6"/><path fill-rule="evenodd" clip-rule="evenodd" d="M54.74 16.872c.462.475 1.434 1.538 1.342 2.693 0 0-.903-.29-1.275-.972-.37-.68-.601-1.107-.758-1.26.1.014.2.013.3-.002l.08-.014c.23.429.683 1.131 1.093 1.376 0 0 .103-.568-1.098-1.722a1.055 1.055 0 0 0-.075-.16c.11.04.235.064.376.06l.016.002zM47.768 7.67c0-.084.317-.154.705-.154.39 0 .705.07.705.154 0 .086-.316.154-.705.154-.388 0-.705-.068-.705-.154zm-2.393.835c0-.047.203-.084.456-.084.25 0 .453.037.453.084 0 .046-.203.084-.453.084-.252 0-.456-.038-.456-.084zm3.237-.494a.14.14 0 0 1-.14.142.14.14 0 0 1-.138-.142.14.14 0 0 1 .139-.143.14.14 0 0 1 .139.143zm-.894-.49c-.235-.577-.391-1-.385-1.142.004-.087.103-.15.197-.18.093-.03.176-.035.238.013.122.097.236.873.278 1.196a.986.986 0 0 0-.328.112zm.428-.126c.06-.006.121-.01.182-.012a8.241 8.241 0 0 0-.202-1.025c-.06-.202-.139-.348-.267-.385 0 0 .1.282.154.574.055.292.098.571.133.848zm-.742 1.03c.258-.063.523-.348.523-.348-.417.063-.523.348-.523.348zm.387-.026c-.36.216-.765.182-.765.182.078-.146.151-.282.377-.448.226-.166.594-.208.739-.187a.961.961 0 0 1-.351.453zm-1.346.61v-.03c-.355.047-.774.027-.774.027.023.136.078.239.171.302.023-.295.603-.298.603-.298zm-1.177-.391s.448.172.897.149c.448-.024 1.274-.033 1.542-.166 0 0-.045.172-.258.273 0 0 .114 0 .223.1 0 0-.064.142-.255.218 0 0 .342.365.707.339 0 0-.168.215-.543.132-.373-.083-.493-.298-.558-.381 0 0 .048.205.025.289 0 0-.164-.01-.292-.177 0 0 .093.166.112.306 0 0-.103.013-.287-.1 0 0 .038.102.046.222 0 0-.433-.143-.643-.345 0 0-.003.139.007.22 0 0-.672-.07-.723-1.08zm-.103.07c.016.219.071.435.145.587 0 0-.265-.205-.33-.377-.064-.174-.08-.293.185-.21zm-.53.829a.111.111 0 0 0 .11-.112.112.112 0 0 0-.11-.113.112.112 0 0 0-.11.113c0 .062.05.112.11.112zm.647-.133c.177.083.334.279.334.279-.268.063-.388.143-.388.143a.744.744 0 0 0-.935.003c-.278-.163-.332-.557-.193-.766.139-.21.452-.173.6-.137.094.306.422.405.582.478zm.392.349s.188.255.323.368c0 0-.69-.007-.864.608 0 0-.24-.376-.065-.621.188-.265.361-.298.606-.355z" fill="#0055A6"/><path fill-rule="evenodd" clip-rule="evenodd" d="M46.432 9.884s.223.067.297.087c0 0 .004-.133-.003-.196.068.016.151.04.223.046 0 0 .222.51.396.717 0 0 .01.113-.087.285 0 0-.125-.302-.352-.543-.128-.138-.21-.206-.474-.396zm-.587-.109c.072.02.427.135.6.262.216.16.364.342.341.656 0 0-.173-.248-.366-.36a2.177 2.177 0 0 1-.575-.558zm.005-2.31c.066 0 .193.032.193.14 0 .11-.165.372-.21.49h-.003c-.045-.118-.21-.38-.21-.49 0-.108.127-.14.193-.14h.037zm-.145.848c-.031-.154-.09-.551-.182-.64-.087-.083-.216-.091-.28-.087a.123.123 0 0 0-.105.162c.027.09.313.53.35.586.066-.011.053-.008.218-.02zm.253 0c.033-.154.09-.551.183-.64.087-.083.216-.091.28-.087a.122.122 0 0 1 .105.162c-.026.09-.313.53-.35.586-.067-.011-.053-.008-.218-.02zm.185-1.383h-.223v-.254h-.18v.254h-.224v.16h.224v.298h.18v-.299h.223v-.16zM43.44 8.564c0-.049.004-.098.01-.146.017-.104.019-.21.005-.316-.16.063-.268.103-.49.47 0 0 .353-.224.475-.008zm.308.581c.005-.091.062-.378.136-.581.09-.248.039-.61-.07-.829-.105-.21-.162-.41-.144-.63 0 0-.21.073-.329.148-.02.255.125.509.194.654.08.17.064.393.046.53-.03.23.016.477.167.708zm.024-1.943a.3.3 0 0 1 .007-.14s.328-.33.605-.386a.368.368 0 0 1 .333.088s-.097-.011-.244.111c-.147.123-.33.272-.469.31-.137.036-.167.025-.232.017zm.971-.413c.124.127.229.261.227.377-.003.121-.14.423-.21.54-.072.116-.177.266-.165.45a.465.465 0 0 0 .142.263s-.402-.098-.451-.353c-.044-.229.051-.39.116-.516.06-.118.245-.396.292-.511.043-.105.065-.193.05-.25zm2.351 2.878c.08.291.217.566.352.782.12.196.198.516.186.625 0 0 .183-.413.089-.704-.072-.225-.267-.56-.627-.703zm.453.096s.275.004.404.091c.167.113.324.359.384.654 0 0-.278-.05-.416-.19-.137-.143-.307-.355-.372-.555zm-1.428.512c-.09.014-.177.033-.264.059 0 0 .236.07.352.17.1.085.187.216.228.437.056.308.233.64.286.74l.021-.004c-.033-.212.097-.652.129-.715 0 0-.186-.12-.271-.246-.063-.092-.174-.245-.481-.44zm1.222.662c.069.162.25.45.166.749-.086.3-.275.429-.393.682 0 0-.093-.458-.072-.811.02-.354.145-.49.3-.62zm.53.012s.274.547.324.762a.546.546 0 0 1-.09.482c-.093.129-.251.267-.396.537 0 0-.17-.229-.19-.35-.02-.12.012-.408.049-.528.036-.12.18-.508.303-.903zm.14 1.746c-.06.067-.38.463-.424.58-.043.115-.117.333-.017.484.1.152.328.395.528.498 0 0-.217-.348-.195-.633.014-.182.15-.345.177-.457a.812.812 0 0 0-.068-.472zm-.627-.219c.05.07.135.24.147.408.01.163-.014.295-.101.535a7.09 7.09 0 0 1-.359.79s-.15-.221-.233-.419c0 0 .235-.33.335-.565.117-.276.166-.532.212-.749zm-.11-.128s-.1.778-.545 1.357c-.301.392-.547.527-.709.527-.245 0-.49-.21-.573-.45-.083-.24-.057-.611.101-.744 0 0 .147.468.46.485.355.02.81-.387 1.267-1.175z" fill="#0055A6"/><path fill-rule="evenodd" clip-rule="evenodd" d="M46.91 12.023c.038.14.05.353 0 .555-.037.152-.128.353-.301.465-.15.096-.506.12-.641-.225 0 0 .647.05.942-.795zm1.061 3.14c.09.233.407.53.405.712-.006.485-.211.782-.26.942 0 0-.377-.309-.445-.662-.034-.181.006-.725.3-.992zm-.422.341c.044-.125.183-.467.344-.587 0 0 .206-.622-.455-1.003 0 0-.271.37-.343.719-.072.347.288.558.454.872zm-.825-1.567c-.106.13-.256.313-.372.37 0 0-.039.278-.017.462.033.274.205.554.278.758 0 0 .288-.387.322-.616.033-.228.027-.416.038-.524 0 0-.16-.268-.25-.45zm-.76 1.33c-.082-.128-.347-.599-.35-.94 0 0 .325.178.598.047 0 0 .036.445-.017.595-.043.122-.1.195-.231.298zm.074.095c.054-.047.183-.17.236-.235 0 0 .215.407.253.526 0 0-.108.028-.227-.06a1.734 1.734 0 0 1-.262-.23zm1-.239c-.026.103-.375.602-.435.663 0 0 .027.18.156.44.13.26.31.442.406.534 0 0 .215-.387.279-.557.073-.194.064-.386.033-.457-.073-.168-.326-.411-.439-.623zm.526 1.306c.076.16.309.423.345.632a.76.76 0 0 1-.04.41c-.043.112-.183.332-.276.5 0 0-.319-.31-.39-.53a.797.797 0 0 1 .044-.55c.077-.148.244-.31.317-.462zm-.904-.045c.083.185.28.37.325.533.053.191.07.314-.02.536-.08.197-.177.311-.21.43 0 0-.259-.343-.301-.487a.988.988 0 0 1-.005-.53c.054-.15.148-.346.21-.482zm1.275 1.312s-.446.554-.435.847c.014.366.25.609.283.834 0 0 .233-.272.322-.454.1-.206.176-.38.15-.612-.027-.232-.088-.382-.32-.615zm-.82-.054c.07.105.27.467.212.683-.056.215-.275.519-.348.649 0 0-.177-.373-.216-.544-.04-.17-.004-.447.352-.788zm4.456-9.138c0-.047-.204-.084-.455-.084-.25 0-.454.037-.454.084 0 .046.203.084.454.084s.455-.038.455-.084zM48.477 7.07c.03-.209.266-.654.266-.849a.274.274 0 0 0-.27-.277.274.274 0 0 0-.27.277c0 .196.236.64.265.85h.01zm.752.45c.236-.577.391-1 .385-1.142-.005-.087-.103-.15-.197-.18-.094-.03-.177-.035-.238.013-.122.097-.236.873-.278 1.196.119.024.19.039.328.112zm-.428-.126a2.272 2.272 0 0 0-.182-.012c.036-.308.14-.823.201-1.025.061-.202.14-.349.268-.385 0 0-.1.282-.155.574-.052.281-.096.564-.132.848zm.22.683s.263.284.522.348c0-.001-.107-.286-.522-.348zm-.217-.132c.145-.02.514.02.74.187.226.167.3.302.377.448 0 0-.405.034-.766-.182a.979.979 0 0 1-.35-.453zm2.3 1.362c.094-.063.149-.166.17-.302 0 0-.418.02-.773-.027v.03s.581.004.604.3zm-.148.388c.01-.08.007-.219.007-.219-.21.202-.642.345-.642.345a.81.81 0 0 1 .045-.222c-.184.112-.288.1-.288.1.02-.14.114-.306.114-.306a.439.439 0 0 1-.294.177c-.022-.084.026-.29.026-.29-.064.084-.184.3-.558.382-.375.083-.543-.132-.543-.132.366.026.707-.34.707-.34a.483.483 0 0 1-.255-.218c.11-.1.223-.1.223-.1a.465.465 0 0 1-.259-.272c.269.133 1.094.142 1.543.166.448.023.897-.15.897-.15-.052 1.01-.723 1.08-.723 1.08zm.826-1.008c-.016.219-.07.435-.145.587 0 0 .264-.205.329-.377.065-.174.08-.293-.184-.21zm.639.717a.11.11 0 0 0-.068-.104.111.111 0 0 0-.042-.01.112.112 0 0 0-.11.114c0 .062.05.112.11.112a.11.11 0 0 0 .11-.112zm-.175-.498c.15-.036.462-.073.6.136.14.21.085.604-.192.767 0 0-.424-.375-.936-.004 0 0-.12-.08-.388-.143 0 0 .159-.195.336-.278.158-.074.487-.173.58-.478zm-.973.826s-.188.255-.323.368c0 0 .691-.007.865.608 0 0 .238-.376.064-.621-.188-.265-.361-.298-.606-.355z" fill="#0055A6"/><path fill-rule="evenodd" clip-rule="evenodd" d="M50.514 9.884s-.223.067-.297.087c0 0-.004-.133.003-.196-.067.016-.152.04-.223.046 0 0-.222.51-.396.717 0 0-.01.113.087.285 0 0 .125-.302.351-.543.128-.138.21-.206.475-.396zm.587-.109c-.072.02-.428.135-.6.262-.216.16-.365.342-.343.656 0 0 .175-.248.368-.36.153-.09.43-.339.575-.558zm-.004-2.31c-.067 0-.194.032-.194.14 0 .11.166.372.21.49h.004c.044-.118.21-.38.21-.49 0-.108-.128-.14-.194-.14h-.036zm.143.848c.032-.154.09-.551.182-.64a.386.386 0 0 1 .28-.087.123.123 0 0 1 .106.162c-.027.09-.313.53-.35.586-.067-.011-.053-.008-.218-.02zm-.253 0c-.031-.154-.09-.551-.182-.64a.386.386 0 0 0-.28-.087.124.124 0 0 0-.105.162c.027.09.312.53.35.586.066-.011.053-.008.217-.02zm-.183-1.383h.222v-.254h.18v.254h.224v.16h-.224v.298h-.18v-.299h-.222v-.16zm-2.677-1.5h.222v-.255h.18v.255h.224v.16h-.223v.297h-.18V5.59h-.223v-.16zm5.378 3.134c0-.049-.004-.098-.011-.146a1.171 1.171 0 0 1-.005-.316c.16.063.268.103.49.47 0 0-.352-.224-.474-.008zm-.309.581a2.795 2.795 0 0 0-.135-.581c-.09-.248-.038-.61.07-.829.104-.21.162-.41.143-.63 0 0 .21.073.329.148.02.255-.125.509-.193.654-.082.17-.065.393-.047.53.031.23-.016.477-.167.708zm-.023-1.943a.286.286 0 0 0-.008-.14s-.328-.33-.604-.386a.37.37 0 0 0-.333.088s.097-.011.244.111c.147.123.33.272.468.31.137.036.168.025.233.017zm-.972-.413c-.124.127-.228.261-.226.377.003.121.138.423.21.54.072.116.177.266.164.45a.468.468 0 0 1-.14.263s.401-.098.45-.353c.044-.229-.05-.39-.115-.516-.061-.118-.246-.396-.293-.511-.042-.105-.065-.193-.05-.25zm-2.35 2.878c-.08.276-.198.539-.351.782-.122.196-.2.516-.187.625 0 0-.182-.413-.088-.704.072-.225.265-.56.627-.703zm-.453.096s-.276.004-.405.091c-.166.113-.324.359-.384.654 0 0 .279-.05.416-.19.138-.143.309-.355.373-.555zm1.429.512c.052.005.193.038.262.059 0 0-.234.07-.351.17-.1.085-.186.216-.227.437-.057.308-.234.64-.287.74l-.021-.004c.033-.212-.097-.652-.13-.715 0 0 .187-.12.273-.246.062-.092.174-.245.48-.44zm-1.223.662c-.068.162-.25.45-.166.749.085.3.276.429.392.682 0 0 .094-.458.074-.811-.02-.354-.146-.49-.3-.62zm-1.127.838c.011-.174.407-.597.388-.826-.021-.228-.317-.39-.39-.424h-.003c-.074.033-.369.196-.39.424-.02.23.376.652.388.826h.007zm.597-.826s-.274.547-.323.762a.546.546 0 0 0 .09.482c.093.13.25.267.396.537 0 0 .169-.229.19-.35a1.68 1.68 0 0 0-.05-.528c-.035-.12-.182-.507-.303-.903zm-.598 2.116c.126-.111.237-.276.272-.374.034-.098.045-.242-.038-.351-.1-.131-.226-.278-.234-.396h-.007c-.01.119-.133.265-.233.396a.377.377 0 0 0-.037.35c.034.099.146.264.272.375h.005zm.458-.37c.06.067.38.463.423.58.044.115.117.333.017.484-.1.152-.326.395-.526.498 0 0 .216-.348.194-.633-.014-.182-.152-.345-.178-.457a.811.811 0 0 1 .07-.472zm.627-.219a.904.904 0 0 0-.147.408c-.01.163.015.295.102.535.11.302.278.64.358.79 0 0 .15-.221.233-.419 0 0-.235-.33-.335-.565-.117-.276-.166-.532-.21-.749zm.11-.128s.1.778.546 1.357c.301.392.546.528.708.528.245 0 .49-.21.573-.45.082-.24.056-.612-.102-.745 0 0-.146.468-.46.485-.354.02-.81-.387-1.266-1.175z" fill="#0055A6"/><path fill-rule="evenodd" clip-rule="evenodd" d="M50.037 12.023a1.195 1.195 0 0 0 0 .555c.037.152.128.353.3.465.152.096.506.12.641-.225 0 0-.647.05-.941-.795zM48.75 14.09c.082-.13.16-.37.116-.541-.055-.211-.167-.297-.233-.428-.056.052-.09.092-.156.133h-.004c-.067-.04-.102-.081-.158-.133-.066.131-.178.217-.233.428-.043.17.034.411.117.541.105.165.183.2.275.244.092-.044.17-.079.276-.244zm-.276 1.557c.045-.205.464-.604.425-.821-.057-.325-.261-.256-.422-.394h-.003c-.162.137-.367.068-.425.394-.038.216.378.615.423.82h.002zm.503-.484c-.09.233-.408.53-.406.712.006.485.211.782.26.942 0 0 .378-.309.444-.662.034-.181-.005-.725-.298-.992zm.42.341c-.044-.125-.183-.467-.343-.587 0 0-.206-.621.454-1.003 0 0 .272.37.345.719.072.347-.288.558-.455.872zm.827-1.567c.105.13.255.313.371.37 0 0 .039.278.017.462-.034.274-.205.554-.277.758 0 0-.29-.387-.323-.615-.033-.229-.027-.417-.038-.525 0 0 .16-.268.25-.45zm.76 1.33c.081-.128.347-.599.35-.94 0 0-.326.178-.598.047 0 0-.036.445.017.595.042.122.099.195.231.298zm-.075.095a2.73 2.73 0 0 1-.236-.235s-.216.407-.253.526c0 0 .108.028.227-.06.118-.09.145-.112.262-.23zm-1-.239c.026.103.376.602.434.663 0 0-.026.18-.156.44-.103.2-.24.381-.405.534 0 0-.215-.387-.28-.557-.072-.194-.063-.386-.032-.457.073-.168.325-.411.439-.623zm-1.113 2.417a.575.575 0 0 0-.007-.418c-.063-.13-.289-.45-.316-.543-.028.093-.251.412-.315.543a.57.57 0 0 0-.006.418c.083.236.285.398.318.535h.007c.033-.137.234-.299.319-.535zm.588-1.111c-.077.16-.31.423-.345.632a.754.754 0 0 0 .04.41c.042.113.183.332.275.5 0 0 .32-.31.39-.53a.8.8 0 0 0-.044-.55c-.077-.148-.243-.31-.316-.462zm.904-.045c-.084.185-.28.37-.326.533-.053.191-.07.314.02.536.079.197.176.311.21.43 0 0 .258-.343.302-.487a.994.994 0 0 0 .004-.53c-.055-.15-.147-.346-.21-.482zm-1.814 4.336c.016-.168.356-.69.372-1.244.008-.277-.233-.71-.369-.875h-.007c-.137.165-.375.598-.368.875.017.554.354 1.075.372 1.244zm.538-3.024s.446.554.435.847c-.013.366-.25.609-.283.834 0 0-.233-.272-.322-.454-.1-.206-.176-.38-.148-.612.026-.232.085-.382.318-.615zm.82-.054c-.07.105-.269.467-.212.683.056.215.276.519.349.649 0 0 .176-.373.216-.544.04-.17.002-.447-.353-.788z" fill="#0055A6"/><path fill-rule="evenodd" clip-rule="evenodd" d="M48.778 21.608c.028-.43.265-.688.306-.912a.955.955 0 0 0-.156-.765 7.02 7.02 0 0 1-.445 1.181l-.01.022-.01-.021a6.972 6.972 0 0 1-.445-1.182.96.96 0 0 0-.156.765c.042.224.28.482.305.912.027.43-.445.595-.445.595.16.058.341.085.629-.195a.602.602 0 0 0 .122-.166c.03.058.07.114.123.166.287.28.468.254.627.195 0 0-.471-.165-.445-.595zm-1.484-2.862c.05.16.197.457.216.548.035.171-.013.378-.315.597 0 0-.196-.14-.274-.326-.072-.174-.03-.296.046-.385.075-.09.252-.299.327-.434zm.636.637c0 .086-.062.573-.196.815-.19.34-.468.592-.71.592-.226 0-.273-.138-.385-.194 0 0 .057-.295.31-.372.311-.096.788-.48.981-.841z" fill="#0055A6"/><path fill-rule="evenodd" clip-rule="evenodd" d="M47.118 20.004c-.052-.041-.098-.07-.16-.145 0 0-.241.092-.438.228-.198.137-.391.369-.496.491 0 0 .296.08.483-.009 0 0 .07-.29.28-.42.046-.029.194-.073.331-.145zm-.247-.25c-.045-.073-.14-.208-.119-.42 0 0-.415.27-.54.374-.126.104-.385.38-.443.47 0 0 .314-.07.556-.152.265-.092.449-.214.546-.272zm-.705.464c-.223.08-.727.166-.938.23-.211.064-.364.176-.566.403 0 0 .31.088.475.143 0 0 .264-.186.552-.3.187-.073.279-.276.477-.476zm-.467 1.528c.048-.055.109-.118.062-.247-.033-.094-.216-.197-.326-.253-.18-.088-.682-.226-.845-.275 0 0-.081.098-.125.202-.019.04.006.08.077.094.14.024.476-.04.557.015.089.058.058.138.058.217 0 0 .153-.096.249-.075.134.032.215.096.293.322zm-.447-.717c.037.013.232.075.422.198 0 0 .085-.033.126-.113.04-.077.212-.338.37-.372 0 0-.135-.014-.211-.038 0 0-.164.043-.279.091a2.55 2.55 0 0 0-.428.234zm1.293-.329c-.03.015-.08.04-.198.044 0 0-.442.315-.493.628-.044.27.093.397.16.431.066.034.374.165.574-.259 0 0-.342.115-.434-.054-.093-.169.057-.415.15-.486.122-.093.342-.157.474-.132 0 0-.106-.105-.233-.172z" fill="#0055A6"/><path fill-rule="evenodd" clip-rule="evenodd" d="M43.658 24.3c.054-.231.113-.474.215-.698.2-.433.689-1.589 1.707-1.792.097-.019-.11-.263-.201-.251-.091.012-.273.132-.353.187 0 0 0-.246-.003-.29-.003-.044-.04-.06-.08-.059-.038 0-.286-.002-.363.091-.233.276-.625 1.02-.846 1.574-.223.553-.375.722-.61.637-.234-.084-.374-.36-.783-.277a.793.793 0 0 0-.421.271c.033.068.077.15.269.15.19 0 .554.082.758.229.204.145.418.194.711.227zm4.068-3.582c.023.178.107.346.2.52 0 0-.31 1.472-1.433 1.587 0 0 .023-.305.355-.539.333-.232.83-.592.793-1.14 0 0-.088.019-.248.224-.16.206-.51.798-1.05.802 0 0 .079-.278.319-.438.24-.159.545-.364.683-.61.137-.247.284-.36.38-.406zm-.53 5.361l.683.982.517-.946-.183-.338c-.135.25-.28.519-.362.665l-.46-.665-.194.302z" fill="#0055A6"/><path fill-rule="evenodd" clip-rule="evenodd" d="M47.022 25.247c-.665-.957-1.487-2.144-1.57-2.264l.258-.19-.814-.32.015.91.275-.203 1.644 2.369.192-.302zm-5.613-5.38c.202-.225.543-.032.886.295.344.324.561.657.36.882-.186.208-.542.031-.886-.294-.344-.325-.56-.658-.36-.883z" fill="#0055A6"/><path fill-rule="evenodd" clip-rule="evenodd" d="M41.965 23.867a.929.929 0 0 1-.319-.723c0-.532.42-.965.938-.965.517 0 .938.433.938.965 0 .073-.014.19-.014.19.044-.083.197-.451.23-.518a1.204 1.204 0 0 0-1.153-.902c-.472 0-.88.283-1.075.692.074-.486.308-.924.476-1.086.2-.194.539-.255.539-.255-.222.036-.516-.105-.844-.414-.312-.295-.473-.552-.482-.767.02.304.01.474-.073.72-.114.337-.424.957-.313 1.657.06.384.332.956.785 1.424.096.105.133.26.144.342 0 0 .67 0 .828.014 0 0 .159-.014.156-.117-.003-.102-.091-.128-.17-.128-.079 0-.413.008-.591-.129zm3.695.234c-.429.16-.858.244-1.265.308a3.74 3.74 0 0 1-.771.044.238.238 0 0 1-.02.14s.05.059.05.125c.252.011.514-.005.782-.047.444-.07.912-.163 1.382-.346l-.157-.224zm.706-.034c.57-.32 1.127-.814 1.628-1.604l.091-.155c-.137.063-.314.02-.314.02l-.041.068c-.468.71-.986 1.16-1.516 1.452l.152.22zm-3.76.252a2.222 2.222 0 0 0-.48.018c-.163.026-.35.06-.37.154-.019.088.041.183.124.317.052.082.173.035.241.01.069-.027.454-.24.516-.31s.087-.168-.032-.19zm.393.262a.285.285 0 0 0-.247-.026c-.104.04-.484.271-.51.379-.025.107.027.162.086.186.058.024.13.047.183.052a.289.289 0 0 0 .236-.11c.049-.06.226-.282.252-.332.025-.05.04-.122 0-.15zm.046.242a5.17 5.17 0 0 0-.227.287c-.018.032.01.08.058.076.047-.005.308-.033.46-.14.149-.104.25-.307.146-.381-.103-.076-.262-.042-.437.159zm.084-.586c-.05-.012-.247-.064-.29.004-.054.083-.015.173.138.25.153.075.443.135.5.054.058-.083-.021-.221-.348-.308zm6.522-5.491c-.05.16-.195.457-.214.548-.035.171.012.378.315.597 0 0 .195-.14.274-.326.072-.174.03-.296-.046-.385-.076-.09-.253-.299-.329-.434zm-.636.637c0 .086.063.573.197.815.19.34.467.592.71.592.226 0 .273-.138.385-.194 0 0-.057-.295-.311-.372-.31-.096-.787-.48-.981-.841zm.812.62c.053-.04.098-.07.16-.144 0 0 .24.092.438.228.197.137.39.369.496.491 0 0-.296.08-.484-.009 0 0-.069-.29-.279-.42-.046-.029-.194-.073-.33-.145zm.247-.249c.046-.073.14-.208.12-.42 0 0 .415.27.54.374.125.104.385.38.443.47 0 0-.316-.07-.556-.152-.267-.092-.45-.214-.547-.272zm.704.464c.223.08.727.166.939.23.21.064.364.176.566.403 0 0-.31.088-.475.143 0 0-.264-.186-.552-.3-.188-.073-.279-.276-.478-.476zm.468 1.528c-.048-.055-.108-.118-.062-.247.033-.094.216-.197.327-.253.18-.088.682-.226.844-.275 0 0 .082.098.125.202.019.04-.006.08-.077.094-.14.024-.476-.04-.557.015-.088.058-.057.138-.057.217 0 0-.154-.096-.25-.075-.135.032-.216.096-.293.322zm.447-.717c-.036.013-.231.075-.423.198 0 0-.084-.033-.125-.113-.04-.077-.212-.338-.368-.372 0 0 .132-.014.21-.038 0 0 .163.043.278.091.115.048.26.122.428.234zM50.4 20.7c.03.015.08.04.197.044 0 0 .442.315.494.628.045.27-.093.397-.16.431-.067.034-.374.165-.575-.259 0 0 .341.115.435-.054.092-.169-.057-.415-.15-.486-.122-.093-.342-.157-.476-.132 0 0 .108-.105.235-.172z" fill="#0055A6"/><path fill-rule="evenodd" clip-rule="evenodd" d="M53.287 24.3a3.64 3.64 0 0 0-.216-.698c-.198-.433-.687-1.589-1.705-1.792-.097-.019.11-.263.2-.251.093.012.274.132.354.187 0 0 0-.246.002-.29.003-.044.04-.06.08-.059.039 0 .286-.002.364.091.232.276.624 1.02.846 1.574.223.553.375.722.608.637.235-.084.375-.36.785-.277.14.029.297.127.42.271-.033.068-.077.15-.268.15s-.555.082-.759.229c-.204.145-.417.194-.711.227zm-4.068-3.582c-.021.178-.107.346-.2.52 0 0 .311 1.472 1.433 1.587 0 0-.023-.305-.355-.539-.332-.232-.829-.592-.794-1.14 0 0 .089.019.25.224.159.206.508.798 1.05.802 0 0-.08-.278-.32-.438-.239-.159-.545-.364-.683-.61-.138-.247-.283-.36-.381-.406zm-.744 1.427c.065.196.49.811.676.987.186.176.638.64.88.874 0 0-.69-.176-1.076-.537 0 0-.277.166-.477.166h-.011c-.2 0-.477-.166-.477-.166-.387.361-1.076.537-1.076.537.242-.233.694-.698.88-.874.186-.175.61-.79.676-.987h.005z" fill="#0055A6"/><path fill-rule="evenodd" clip-rule="evenodd" d="M48.478 23.779a.946.946 0 0 0 .377-.099c-.08.176-.234.45-.38.564h-.003c-.145-.114-.3-.388-.38-.564.08.036.224.099.376.099h.01z" fill="#0055A6"/><path fill-rule="evenodd" clip-rule="evenodd" d="M49.066 27.061l2.694-3.88.275.203.016-.91-.815.32.257.19c-.13.19-2.145 3.093-2.399 3.458l-1.22-2.273-.15.236-1.085 1.686-.272-.186-.004.898.824-.337-.276-.188.935-1.453 1.22 2.236z" fill="#0055A6"/><path fill-rule="evenodd" clip-rule="evenodd" d="M49.558 25.537a122.62 122.62 0 0 1-.458-.711c-.068.13-.208.386-.361.668l-.192-.354.524-.97.15.235.54.839-.203.293zm.554.252l.195.302.271-.187.005.899-.824-.337.275-.188-.124-.196.202-.293zm5.424-5.922c-.202-.225-.542-.032-.886.295-.345.324-.56.657-.36.882.186.208.542.031.886-.294.344-.325.56-.658.36-.883z" fill="#0055A6"/><path fill-rule="evenodd" clip-rule="evenodd" d="M54.981 23.867a.925.925 0 0 0 .319-.723c0-.532-.42-.965-.938-.965-.517 0-.938.433-.938.965 0 .073.014.19.014.19-.042-.083-.197-.451-.228-.518.14-.52.602-.902 1.151-.902.473 0 .882.283 1.076.692-.074-.486-.31-.924-.477-1.086-.199-.194-.54-.255-.54-.255.223.036.517-.105.845-.414.312-.295.473-.552.482-.767-.02.304-.01.474.073.72.114.337.424.957.313 1.657-.06.384-.331.956-.784 1.424a.652.652 0 0 0-.145.342s-.668 0-.827.014c0 0-.159-.014-.156-.117.003-.102.091-.128.17-.128.08 0 .412.008.59-.129zm-4.402.2c-.57-.322-1.126-.815-1.628-1.604l-.09-.155c.137.063.314.02.314.02l.042.068c.467.71.985 1.158 1.515 1.45l-.153.22zm.704.033c.43.162.86.246 1.267.31.264.042.524.056.772.043a.242.242 0 0 0 .02.14s-.05.06-.05.126a3.96 3.96 0 0 1-.782-.047 6.634 6.634 0 0 1-1.383-.346l.156-.226zm3.058.219c.078-.013.328-.006.478.018.164.026.352.06.371.154.02.088-.04.183-.124.317-.052.082-.173.035-.242.01-.067-.027-.452-.24-.515-.31-.062-.07-.088-.168.032-.19zm-.395.262a.289.289 0 0 1 .248-.026c.102.04.483.271.509.379.025.107-.026.162-.085.186a.748.748 0 0 1-.183.052.289.289 0 0 1-.236-.11 4.743 4.743 0 0 1-.253-.332c-.025-.05-.039-.122 0-.15zm-.046.242c.055.063.21.256.227.287.017.032-.009.08-.056.076-.05-.005-.31-.033-.46-.14-.15-.104-.251-.307-.147-.381.102-.076.263-.042.436.159zm-.084-.586c.05-.012.247-.064.29.004.054.083.016.173-.138.25-.153.075-.442.135-.5.054-.056-.083.024-.221.348-.308z" fill="#0055A6"/></svg>