<svg width="109" height="29" fill="none" xmlns="http://www.w3.org/2000/svg"><path fill-rule="evenodd" clip-rule="evenodd" d="M0 0v27.067L27.129 0H0z" fill="#92CFAE"/><path fill-rule="evenodd" clip-rule="evenodd" d="M1.938 29h27.129V1.933L1.937 29z" fill="#2A8288"/><path fill-rule="evenodd" clip-rule="evenodd" d="M44.305 13.871c3.155 0 4.831-1.54 4.831-4.42v-.163c0-3.082-1.756-4.299-4.83-4.299H41.03v8.882h3.274zM34.603 0h9.862c6.947 0 10.9 3.123 10.9 9.248v.162c0 6.124-4.192 9.045-10.7 9.045H41.03V29h-6.428V0zm33.559 24.011c3.094 0 4.662-1.379 4.662-4.015v-.162c0-2.596-1.567-4.016-4.819-4.016h-3.604v8.193h3.76zM68.397 29H58.133V0h18.255v5.11H64.44l-.039 6.084h4.192c6.463 0 10.302 2.88 10.302 8.68v.163c0 5.677-3.564 8.963-10.498 8.963zM83.567.04h6.75v12.475L100.731 0h7.166l-11.79 13.73L108.48 29h-7.874l-10.29-13.002V29h-6.75V.04z" fill="#000"/></svg>