<svg width="33" height="31" viewBox="0 0 33 31" fill="none" xmlns="http://www.w3.org/2000/svg">
<path d="M7.28137 4.47318H13.4683C14.0394 4.47318 14.5153 4.9491 14.5153 5.52021C14.5153 6.09131 14.0394 6.66241 13.4683 6.66241H7.6621L9.85133 19.3219H27.9363L30.1255 6.66241H24.3193C23.7482 6.66241 23.2723 6.09131 23.2723 5.52021C23.2723 4.9491 23.7482 4.47318 24.3193 4.47318H31.4581C32.1244 4.47318 32.6003 5.04429 32.5051 5.80576L29.8399 20.5593C29.7448 21.1304 29.2688 21.5111 28.6977 21.5111L8.99468 21.4159C8.42357 21.4159 8.04284 21.0352 7.85247 20.5593L4.7114 2.28396H1.1896C0.618497 2.28396 0.142578 1.80804 0.142578 1.14175C0.142578 0.570646 0.618497 0.0947266 1.1896 0.0947266H5.56806C6.13916 0.0947266 6.5199 0.475462 6.61508 0.951381L7.28137 4.47318ZM17.7516 1.90322C17.7516 1.33212 18.3227 0.761014 18.8938 0.761014C19.4649 0.761014 19.9408 1.33212 19.9408 1.90322V11.2312L21.3686 9.80348C21.8445 9.42274 22.5108 9.42274 22.8915 9.80348C23.3674 10.2794 23.3674 10.9457 22.8915 11.3264L19.6553 14.6579C19.4649 14.8482 19.1794 14.9434 18.8938 14.9434C18.6082 14.9434 18.3227 14.8482 18.1323 14.6579L14.8961 11.3264C14.4202 10.9457 14.4202 10.2794 14.8961 9.80348C15.2768 9.42274 15.9431 9.42274 16.419 9.80348L17.7516 11.2312V1.90322ZM12.5165 23.6051C14.325 23.6051 15.8479 25.1281 15.8479 26.9366C15.8479 28.6499 14.325 30.1728 12.5165 30.1728C10.8032 30.1728 9.28023 28.7451 9.28023 26.9366C9.28023 25.9847 9.66096 25.2233 10.2321 24.557C10.8032 23.9859 11.6598 23.6051 12.5165 23.6051ZM12.5165 25.7944C12.2309 25.7944 11.9454 25.8896 11.755 26.1751C11.5646 26.3655 11.4695 26.5558 11.4695 26.9366C11.4695 27.5077 11.9454 27.9836 12.5165 27.9836C13.1828 27.9836 13.6587 27.5077 13.6587 26.9366C13.6587 26.2703 13.1828 25.7944 12.5165 25.7944ZM25.1759 23.7003C26.9844 23.7003 28.5074 25.1281 28.5074 26.9366C28.5074 28.7451 26.9844 30.1728 25.1759 30.1728C23.4626 30.1728 21.9397 28.7451 21.9397 26.9366C21.9397 25.9847 22.3204 25.2233 22.8915 24.6522C23.4626 23.9859 24.3193 23.7003 25.1759 23.7003ZM25.1759 25.7944C24.8904 25.7944 24.6048 25.9847 24.4145 26.1751C24.2241 26.3655 24.1289 26.651 24.1289 26.9366C24.1289 27.5077 24.6048 27.9836 25.1759 27.9836C25.8422 27.9836 26.3181 27.5077 26.3181 26.9366C26.3181 26.3655 25.8422 25.7944 25.1759 25.7944Z" fill="white"/>
</svg>
