<svg xmlns="http://www.w3.org/2000/svg" width="22" height="21" fill="none" viewBox="0 0 22 21"><path fill="#fff" d="M4.81034 2.95034H8.97929C9.36412 2.95034 9.68481 3.27103 9.68481 3.65586C9.68481 4.04068 9.36412 4.42551 8.97929 4.42551H5.06689L6.54206 12.9558H18.7282L20.2034 4.42551H16.291C15.9062 4.42551 15.5855 4.04068 15.5855 3.65586C15.5855 3.27103 15.9062 2.95034 16.291 2.95034H21.1013C21.5503 2.95034 21.871 3.33517 21.8069 3.84827L20.011 13.7896C19.9469 14.1745 19.6262 14.431 19.2413 14.431L5.96482 14.3669C5.57999 14.3669 5.32344 14.1103 5.19516 13.7896L3.07862 1.47517H0.705516C0.320689 1.47517 0 1.15448 0 0.705516C0 0.320689 0.320689 0 0.705516 0H3.65586C4.04068 0 4.29723 0.256551 4.36137 0.57724L4.81034 2.95034ZM8.33792 15.842C9.55653 15.842 10.5827 16.8682 10.5827 18.0869C10.5827 19.2413 9.55653 20.2675 8.33792 20.2675C7.18344 20.2675 6.15723 19.3055 6.15723 18.0869C6.15723 17.4455 6.41378 16.9324 6.79861 16.4834C7.18344 16.0986 7.76068 15.842 8.33792 15.842ZM8.33792 17.3172C8.1455 17.3172 7.95309 17.3813 7.82481 17.5738C7.69654 17.702 7.6324 17.8303 7.6324 18.0869C7.6324 18.4717 7.95309 18.7924 8.33792 18.7924C8.78688 18.7924 9.10757 18.4717 9.10757 18.0869C9.10757 17.6379 8.78688 17.3172 8.33792 17.3172ZM16.8682 15.9062C18.0869 15.9062 19.1131 16.8682 19.1131 18.0869C19.1131 19.3055 18.0869 20.2675 16.8682 20.2675C15.7138 20.2675 14.6876 19.3055 14.6876 18.0869C14.6876 17.4455 14.9441 16.9324 15.3289 16.5476C15.7138 16.0986 16.291 15.9062 16.8682 15.9062ZM16.8682 17.3172C16.6758 17.3172 16.4834 17.4455 16.3551 17.5738C16.2269 17.702 16.1627 17.8944 16.1627 18.0869C16.1627 18.4717 16.4834 18.7924 16.8682 18.7924C17.3172 18.7924 17.6379 18.4717 17.6379 18.0869C17.6379 17.702 17.3172 17.3172 16.8682 17.3172Z"/><path stroke="#fff" stroke-linecap="round" stroke-width="1.5" d="M9 7.71429L11.5 10L15 6"/></svg>