<svg width="68" height="69" viewBox="0 0 68 69" fill="none" xmlns="http://www.w3.org/2000/svg">
<path d="M12 35.4697V1.46973H47L52 6.46973L56 10.4697V35.4697L34 46.4697L12 35.4697Z" fill="#E84434"/>
<path d="M46.6267 0.305664H12.2257C11.3573 0.305664 10.6509 1.00981 10.6509 1.88042V24.1498L1.02012 29.495C1.01262 29.4995 1.01112 29.504 1.00437 29.5085C0.992371 29.516 0.978123 29.519 0.966125 29.5257C0.495947 29.8099 0.20874 30.3214 0.20874 30.8703V66.7726C0.20874 66.7726 0.287478 68.3488 1.7835 68.3488H60.3579C64.5715 68.3488 67.9999 65.1048 67.9999 61.1207V30.8703C67.9999 30.3214 67.7127 29.8099 67.2426 29.5257C67.2306 29.5182 67.2163 29.5152 67.2043 29.5085C67.1968 29.504 67.1968 29.4995 67.1886 29.495L57.5585 24.149V10.8536C57.5585 10.1944 57.0741 9.71673 57.0741 9.71673L47.717 0.743598C47.3541 0.39565 46.6267 0.305664 46.6267 0.305664ZM44.0741 44.2677L64.8512 33.4641V61.1207C64.8512 61.8308 64.6487 62.4975 64.2963 63.0801L44.0741 44.2677ZM3.35751 33.4656L23.8287 44.1095L3.35751 63.1589V33.4656ZM63.0994 30.8253L63.0979 30.8268L57.5585 33.7063V27.7515L63.0994 30.8253ZM52.0664 9.2788H49.6307C48.8426 9.2788 48.2015 8.6384 48.2015 7.85252V5.57211L49.3248 6.65045L52.0664 9.2788ZM45.0512 3.45444V7.85252C45.0512 10.3744 47.1044 12.4283 49.6307 12.4283H54.4083V25.0302C54.4068 25.0931 54.4023 25.1561 54.4083 25.2176V35.3456L34.1043 45.904L13.8004 35.3456V3.45444H45.0512ZM10.6517 27.7507V33.7071L5.12274 30.832L5.11075 30.8245L10.6517 27.7507ZM5.78864 65.1986L26.7945 45.652L33.3777 49.0745C33.8329 49.31 34.3751 49.31 34.8295 49.0745L41.1083 45.8095L61.7362 65.0006C61.3012 65.1281 60.8385 65.1986 60.3579 65.1986H5.78864Z" fill="black"/>
<path d="M23.7147 18.9884H35.7818C36.6517 18.9884 37.3581 18.2842 37.3581 17.4136C37.3581 16.543 36.6524 15.8389 35.7818 15.8389H23.7147C22.8463 15.8389 22.1399 16.543 22.1399 17.4136C22.1399 18.2842 22.8463 18.9884 23.7147 18.9884Z" fill="white"/>
<path d="M40.8653 18.9884H43.3977C44.2675 18.9884 44.9739 18.2842 44.9739 17.4136C44.9739 16.543 44.2683 15.8389 43.3977 15.8389H40.8653C39.9954 15.8389 39.2905 16.543 39.2905 17.4136C39.2905 18.2842 39.9954 18.9884 40.8653 18.9884Z" fill="white"/>
<path d="M23.7147 25.1193H27.3598C28.2282 25.1193 28.9346 24.4151 28.9346 23.5445C28.9346 22.6739 28.229 21.9697 27.3598 21.9697H23.7147C22.8463 21.9697 22.1399 22.6739 22.1399 23.5445C22.1399 24.4151 22.8463 25.1193 23.7147 25.1193Z" fill="white"/>
<path d="M31.9409 23.5445C31.9409 24.4144 32.6451 25.1193 33.5157 25.1193H46.6267C47.4966 25.1193 48.2014 24.4151 48.2014 23.5445C48.2014 22.6739 47.4973 21.9697 46.6267 21.9697H33.5157C32.6458 21.9697 31.9409 22.6746 31.9409 23.5445Z" fill="white"/>
<path d="M37.0085 28.6357H24.0438C23.1739 28.6357 22.469 29.3414 22.469 30.2105C22.469 31.0804 23.1731 31.7868 24.0438 31.7868H37.0085C37.8769 31.7868 38.5833 31.0811 38.5833 30.2105C38.5833 29.3414 37.8769 28.6357 37.0085 28.6357Z" fill="white"/>
<path d="M45.4584 28.6357H42.1304C41.2606 28.6357 40.5557 29.3414 40.5557 30.2105C40.5557 31.0804 41.2598 31.7868 42.1304 31.7868H45.4584C46.3283 31.7868 47.0347 31.0811 47.0347 30.2105C47.0339 29.3414 46.3283 28.6357 45.4584 28.6357Z" fill="white"/>
</svg>
