<svg xmlns="http://www.w3.org/2000/svg" width="84" height="76" fill="none" viewBox="0 0 84 76"><path fill="#E84434" d="M26.5 36.5V72.5H2V36.5H26.5Z"/><path fill="#000" d="M84 36.7551C83.8713 37.2919 83.6999 37.8175 83.4873 38.3269C83.0165 39.2515 82.4534 40.1341 81.9659 41.0503C81.7995 41.2967 81.7334 41.5973 81.781 41.8908C83.025 45.0092 82.3189 47.7746 80.4025 50.3887C80.2687 50.519 80.1783 50.6874 80.1437 50.8709C80.1091 51.0544 80.132 51.2441 80.2091 51.4142C81.3775 54.2636 80.7303 56.8861 79.1164 59.3489C78.9066 59.5975 78.761 59.8938 78.6921 60.2118C78.6232 60.5297 78.6333 60.8597 78.7214 61.1729C79.4947 64.3585 79.024 67.3845 76.62 69.9061C75.4901 71.0762 74.019 71.8588 72.4173 72.142C70.9966 72.4242 69.5535 72.5789 68.1053 72.6043C57.4472 72.6043 46.7891 72.6043 36.1646 72.6043C34.2347 72.563 32.3601 71.9518 30.7768 70.8475C30.5539 70.6717 30.2965 70.5449 30.0213 70.4754C29.7461 70.4058 29.4593 70.3952 29.1797 70.4441C29.1797 70.9736 29.1209 71.4779 29.0537 71.9823C28.9752 72.7672 28.6232 73.4996 28.0592 74.0512C27.4953 74.6029 26.7554 74.9386 25.9689 74.9998C25.7253 75.0132 25.4812 75.0132 25.2376 74.9998H3.98024C3.48997 75.0401 2.99664 74.9794 2.53075 74.8215C2.06486 74.6636 1.6363 74.4119 1.27156 74.0818C0.906815 73.7517 0.613644 73.3503 0.410162 72.9025C0.20668 72.4546 0.097211 71.9698 0.0885207 71.4779C0.0885207 60.394 0.0885207 49.3128 0.0885207 38.2344C0.0546254 37.7067 0.132747 37.1779 0.317755 36.6825C0.502764 36.1871 0.790473 35.7365 1.16199 35.3602C1.5335 34.984 1.98041 34.6906 2.47337 34.4992C2.96633 34.3079 3.49418 34.2231 4.02226 34.2503C12.0186 34.2503 20.0178 34.2503 28.0198 34.2503C28.5863 34.3211 29.1478 34.4278 29.7009 34.5697C29.9836 34.6449 30.2845 34.6088 30.5414 34.4688C31.42 33.6169 32.2374 32.704 32.9874 31.737C36.2506 27.1852 39.1671 22.3947 41.7122 17.4058C42.1614 16.5856 42.3793 15.6588 42.3426 14.7244C42.2334 11.959 42.2334 9.18525 42.1325 6.41986C42.0714 5.53445 42.2684 4.65031 42.6995 3.87455C43.1307 3.09879 43.7775 2.46468 44.5617 2.04904C46.061 1.18824 47.7778 0.780889 49.504 0.876373C51.2302 0.971858 52.8916 1.56608 54.2868 2.58698C54.9617 3.19799 55.4755 3.96592 55.7829 4.82283C56.8168 7.34446 57.8002 9.92493 58.6744 12.5222C59.5661 15.3473 59.688 18.3591 59.0274 21.2471C58.5904 23.4577 58.2709 25.6935 57.8927 27.9126C57.7666 28.6691 57.7918 28.7531 58.5651 28.7531H76.7293C78.1965 28.6828 79.6537 29.0296 80.932 29.7534C81.6396 30.2024 82.2513 30.7872 82.7317 31.4739C83.2121 32.1606 83.5518 32.9357 83.731 33.7543C83.7983 34.0149 83.8823 34.2671 83.958 34.5192V36.7971L84 36.7551ZM53.5639 32.2161C54.2195 28.3244 54.8836 24.5168 55.4887 20.7091C55.7814 19.3623 55.9084 17.9848 55.867 16.6073C55.5308 12.9341 54.0514 9.58871 52.5889 6.25175C52.4511 5.83187 52.2055 5.45556 51.8765 5.16052C51.5475 4.86548 51.1468 4.66207 50.7145 4.57067C49.318 4.15002 47.8133 4.28243 46.5117 4.94051C46.2159 5.06452 45.9674 5.27984 45.8026 5.55505C45.6378 5.83026 45.5652 6.15094 45.5956 6.47029C45.7076 9.52987 45.7637 12.5895 45.7637 15.649C45.7694 16.3791 45.6471 17.1046 45.4022 17.7924C45.0746 18.6702 44.6637 19.5146 44.175 20.314C41.6534 24.4411 39.1318 28.585 36.5429 32.6616C35.4198 34.6487 33.88 36.3691 32.0292 37.7049C30.8356 38.4782 29.6336 39.2683 28.4737 40.0836C28.3479 40.1741 28.242 40.2894 28.1625 40.4224C28.083 40.5554 28.0316 40.7033 28.0114 40.8569C28.0114 49.1699 28.0114 57.4829 28.0114 65.7875C28.0114 66.2834 28.2215 66.3338 28.6502 66.3842C29.4606 66.4689 30.2603 66.635 31.0373 66.8802C31.5707 67.1132 32.0709 67.4156 32.5251 67.7795C33.7879 68.6386 35.2847 69.0876 36.8119 69.0656C47.3607 69.0656 57.9011 69.0656 68.4499 69.0656C69.0764 69.0701 69.7026 69.0336 70.3243 68.9563C71.0933 68.8773 71.8368 68.6364 72.5061 68.2496C73.1754 67.8628 73.7552 67.3388 74.2076 66.712C75.334 65.1654 75.4769 63.3078 74.4262 61.9882C73.8398 61.4224 73.188 60.9286 72.4845 60.5172C72.6089 60.2794 72.7946 60.0792 73.0225 59.9373C73.9492 59.7074 74.7991 59.2376 75.4867 58.5751C76.1743 57.9126 76.6753 57.0808 76.9394 56.1632C77.2028 55.4825 77.2404 54.7351 77.0467 54.0314C76.853 53.3276 76.4382 52.7048 75.8635 52.2547C75.2635 51.8622 74.634 51.5165 73.9807 51.2208C74.1745 50.9283 74.4298 50.6817 74.7288 50.498C76.051 50.187 77.1982 49.369 77.9229 48.2201C79.5451 45.7573 78.9399 43.1768 76.2418 42.2186C76.1397 42.1803 76.0475 42.1197 75.9718 42.0412C75.8962 41.9626 75.8391 41.8682 75.8047 41.7647C75.7942 41.6823 75.8003 41.5986 75.8226 41.5186C75.845 41.4386 75.8831 41.3638 75.9348 41.2988C75.9865 41.2338 76.0508 41.1798 76.1237 41.14C76.1966 41.1002 76.2768 41.0754 76.3594 41.0671C77.4124 40.8216 78.3634 40.2558 79.0815 39.4474C79.7995 38.639 80.2493 37.6279 80.3688 36.5533C80.562 35.7952 80.4847 34.9933 80.1502 34.286C79.8157 33.5787 79.245 33.0102 78.5365 32.6784C77.7934 32.3822 76.9996 32.2338 76.1997 32.2414C68.9374 32.2414 61.6752 32.2414 54.4129 32.2414H53.5723L53.5639 32.2161ZM24.8762 37.8142C24.6072 37.8142 24.4054 37.7721 24.2121 37.7721C17.5774 37.7721 10.9427 37.7721 4.30805 37.7721C4.20815 37.7438 4.10247 37.7427 4.00204 37.7692C3.90161 37.7956 3.81012 37.8485 3.73711 37.9224C3.66411 37.9962 3.61228 38.0883 3.58704 38.189C3.56179 38.2898 3.56405 38.3954 3.59359 38.495C3.59359 49.2596 3.59359 60.0269 3.59359 70.7971C3.5629 70.9058 3.56161 71.0208 3.58984 71.1302C3.61807 71.2396 3.67481 71.3395 3.75427 71.4199C3.83374 71.5002 3.93309 71.558 4.04219 71.5874C4.15129 71.6168 4.26623 71.6167 4.37529 71.5872C10.9231 71.5872 17.4626 71.5872 24.0104 71.5872C24.8509 71.5872 24.8509 71.5872 24.8509 70.7046C24.8509 60.0073 24.8509 49.3072 24.8509 38.6043V37.8478L24.8762 37.8142Z"/></svg>