<svg xmlns="http://www.w3.org/2000/svg" width="86" height="87" fill="none" viewBox="0 0 86 87"><path fill="#E84434" d="M83 9.46973V35.4697H76V9.46973H83Z"/><path fill="#E84434" d="M9 9.46973V35.4697H2V9.46973H9Z"/><path fill="#000" d="M79.3333 6.71139C78.625 6.71139 77.7396 6.88973 77.0312 7.24639V6.17639C77.0312 3.14473 74.375 0.469727 71.3646 0.469727C68.3542 0.469727 65.5208 3.14473 65.5208 6.17639V15.0931H60.0312C59.3229 12.9531 57.375 11.5264 55.0729 11.5264C54.3646 11.5264 53.8333 11.7047 53.3021 11.8831C53.125 9.20806 51 6.88973 48.1667 6.88973C46.9271 6.88973 45.6875 7.42473 44.8021 8.13806C43.9167 7.24639 42.6771 6.88973 41.4375 6.88973C40.1979 6.88973 38.9583 7.42473 38.0729 8.13806C37.1875 7.24639 35.9479 6.88973 34.7083 6.88973C33.4688 6.88973 32.2292 7.42473 31.3438 8.13806C30.4583 7.24639 29.2187 6.88973 27.9792 6.88973C25.1458 6.88973 22.8437 9.20806 22.8437 12.0614V15.0931H19.4792V6.17639C19.4792 3.14473 16.8229 0.469727 13.8125 0.469727C10.8021 0.469727 7.96875 3.14473 7.96875 6.17639V7.06806C7.26042 6.88973 6.55208 6.71139 5.84375 6.71139C2.65625 6.71139 0 9.38639 0 12.4181V31.6781C0 34.8881 2.65625 37.5631 5.66667 37.5631C6.375 37.5631 7.26042 37.3847 7.96875 37.0281V37.9197C7.96875 41.1297 10.625 43.8047 13.8125 43.8047C17 43.8047 19.4792 41.1297 19.4792 37.9197V29.0031H22.4896V32.5697C22.4896 34.8881 23.5521 37.0281 25.1458 38.6331C26.2083 39.7031 26.7396 41.1297 26.5625 42.7347L22.4896 84.1081C22.3125 84.9997 23.0208 85.8914 24.0833 86.0697H24.2604C25.1458 86.0697 25.8542 85.3564 26.0312 84.4647L30.1042 43.0914C30.4583 40.4164 29.5729 37.7414 27.4479 35.9581C26.5625 35.0664 26.0312 33.9964 26.0312 32.5697V29.0031H45.8646C43.9167 30.4297 41.6146 33.1047 41.0833 37.5631C40.9062 38.4547 41.6146 39.5247 42.5 39.5247C43.3854 39.7031 44.4479 38.9897 44.4479 38.0981C44.9792 33.8181 47.4583 31.8564 49.4062 30.9647C50.6458 30.4297 51.7083 29.3597 52.4167 28.1114C52.5938 28.1114 53.3021 25.7931 53.125 25.2581V18.4814V16.8764C53.125 15.8064 54.0104 15.0931 54.8958 15.0931C55.9583 15.0931 56.6667 15.9847 56.6667 16.8764V27.2197V32.5697C56.6667 33.8181 56.1354 35.0664 55.25 35.9581C53.125 37.7414 52.2396 40.4164 52.5938 43.0914L56.6667 84.4647C56.8437 85.3564 57.5521 86.0697 58.4375 86.0697H58.6146C59.5 85.8914 60.3854 85.1781 60.2083 84.1081L56.1354 42.5564C55.9583 41.1297 56.4896 39.5247 57.5521 38.6331C59.3229 37.2064 60.2083 34.8881 60.2083 32.5697V29.0031H65.5208V37.9197C65.5208 41.1297 68.1771 43.8047 71.3646 43.8047C74.5521 43.8047 77.2083 41.1297 77.2083 37.9197V37.0281C77.9167 37.3847 78.625 37.5631 79.5104 37.5631C82.6979 37.5631 85.3542 34.8881 85.3542 31.6781V12.4181C85 9.38639 82.3437 6.71139 79.3333 6.71139ZM7.96875 31.6781C7.96875 32.9264 6.90625 33.9964 5.66667 33.9964C4.42708 33.9964 3.36458 32.9264 3.36458 31.6781V12.4181C3.36458 11.1697 4.42708 10.0997 5.66667 10.0997C6.90625 10.0997 7.96875 11.1697 7.96875 12.4181V31.6781ZM15.9375 16.5197C15.9375 16.6981 15.9375 16.6981 15.9375 16.8764V27.2197C15.9375 27.3981 15.9375 27.3981 15.9375 27.5764V37.9197C15.9375 39.1681 14.875 40.2381 13.8125 40.2381C12.5729 40.2381 11.5104 39.1681 11.5104 37.9197V6.17639C11.5104 5.10639 12.5729 4.03639 13.8125 4.03639C14.875 4.03639 15.9375 5.10639 15.9375 6.17639V16.5197ZM39.6667 12.0614C39.6667 11.1697 40.375 10.4564 41.2604 10.4564C42.1458 10.4564 42.8542 11.1697 42.8542 12.0614V18.4814C42.8542 18.6597 42.8542 18.8381 42.6771 19.1947C42.5 19.7297 41.7917 20.2647 41.2604 20.2647C40.9062 20.2647 40.375 20.0864 40.1979 19.7297C39.8438 19.3731 39.6667 19.0164 39.6667 18.6597V12.0614ZM32.7604 12.0614C32.7604 11.1697 33.4687 10.4564 34.3542 10.4564C35.2396 10.4564 35.9479 11.1697 35.9479 12.0614V18.4814C35.9479 19.3731 35.2396 20.0864 34.3542 20.0864C33.4687 20.0864 32.7604 19.3731 32.7604 18.4814V12.0614ZM26.0312 12.0614C26.0312 11.1697 26.7396 10.4564 27.625 10.4564C28.5104 10.4564 29.2187 11.1697 29.2187 12.0614V18.4814C29.2187 18.6597 29.2187 18.8381 29.0417 19.1947C28.8646 19.7297 28.1562 20.2647 27.625 20.2647C26.7396 20.2647 26.0312 19.5514 26.0312 18.6597V16.8764V12.0614ZM49.5833 25.4364H19.4792V18.6597H22.4896C22.4896 21.5131 24.7917 23.8314 27.625 23.8314C29.5729 23.8314 30.6354 22.7614 30.8125 22.7614L30.9896 22.5831L31.1667 22.7614C31.3438 22.9397 34 25.2581 37.5417 22.7614C37.5417 22.7614 37.7187 22.7614 37.7187 22.5831C37.7187 22.5831 37.8958 22.7614 38.0729 22.7614C38.25 22.7614 40.7292 25.2581 44.2708 22.7614L44.4479 22.5831C44.4479 22.5831 44.4479 22.5831 44.625 22.5831C45.5104 23.2964 46.5729 23.8314 47.9896 23.8314C48.1667 23.8314 48.1667 23.8314 48.3437 23.8314C48.6979 23.8314 49.0521 23.6531 49.5833 23.6531H49.7604V25.4364H49.5833ZM49.5833 16.8764V18.4814C49.5833 19.3731 48.875 20.0864 47.9896 20.0864C47.4583 20.0864 47.1042 19.9081 46.9271 19.5514C46.9271 19.5514 46.9271 19.5514 46.9271 19.3731C46.75 19.0164 46.5729 18.6597 46.5729 18.3031V12.0614C46.5729 11.1697 47.2812 10.4564 48.1667 10.4564C48.875 10.4564 49.5833 11.1697 49.5833 12.0614V16.8764ZM65.5208 25.4364H60.3854V18.6597H65.5208V25.4364ZM73.4896 37.9197C73.4896 39.1681 72.4271 40.2381 71.1875 40.2381C69.9479 40.2381 68.8854 39.1681 68.8854 37.9197V6.17639C69.0625 5.10639 70.125 4.03639 71.3646 4.03639C72.6042 4.03639 73.6667 5.10639 73.6667 6.17639V37.9197H73.4896ZM81.4583 31.6781C81.4583 32.9264 80.3958 33.9964 79.1562 33.9964C77.9167 33.9964 76.8542 32.9264 76.8542 31.6781V12.4181C76.8542 11.1697 77.9167 10.0997 79.1562 10.0997C80.3958 10.0997 81.4583 11.1697 81.4583 12.4181V31.6781Z"/></svg>