<svg width="91" height="62" viewBox="0 0 91 62" fill="none" xmlns="http://www.w3.org/2000/svg">
<path d="M63 35.4697V59.4697H27V35.4697H63Z" fill="#E84434"/>
<path d="M60.04 61.9553H30.4208C27.2893 61.9553 24.7412 59.4167 24.7412 56.2971V19.95C24.7412 19.6017 24.8388 19.259 25.0237 18.962L30.257 10.5452C30.6003 9.99168 31.2067 9.65625 31.8591 9.65625H58.6026C59.2551 9.65625 59.8615 9.99168 60.2047 10.5452L65.438 18.962C65.623 19.259 65.7206 19.6017 65.7206 19.95V56.2971C65.7206 59.4167 63.1725 61.9553 60.04 61.9553ZM28.5104 20.4834V56.2971C28.5104 57.3473 29.3672 58.2015 30.4208 58.2015H60.04C61.0937 58.2015 61.9513 57.3473 61.9513 56.2971V20.4834L57.5527 13.4101H32.9091L28.5104 20.4834Z" fill="black"/>
<path d="M63.8359 13.4102H26.6258C25.5851 13.4102 24.7412 12.5707 24.7412 11.5333V4.22357C24.7412 2.15419 26.4317 0.469727 28.5104 0.469727H61.9513C64.0301 0.469727 65.7206 2.15419 65.7206 4.22357V11.5333C65.7206 12.5707 64.8767 13.4102 63.8359 13.4102ZM28.5104 9.65638H61.9513V4.22357H28.5104V9.65638Z" fill="black"/>
<path d="M73.3951 37.6816H17.2376C16.1969 37.6816 15.353 36.8421 15.353 35.8047C15.353 34.7672 16.1969 33.9277 17.2376 33.9277H73.3951C74.4359 33.9277 75.2797 34.7672 75.2797 35.8047C75.2797 36.8421 74.4359 37.6816 73.3951 37.6816Z" fill="black"/>
<path d="M86.6925 49.0096H80.9862C79.9454 49.0096 79.1016 48.1701 79.1016 47.1327V24.4795C79.1016 23.442 79.9454 22.6025 80.9862 22.6025H86.6925C88.7713 22.6025 90.4617 24.287 90.4617 26.3564V45.2558C90.4617 47.3251 88.7713 49.0096 86.6925 49.0096ZM82.8708 45.2558H86.6925V26.3564H82.8708V45.2558Z" fill="black"/>
<path d="M80.9858 45.2299H73.3949C72.3541 45.2299 71.5103 44.3904 71.5103 43.353V28.2588C71.5103 27.2213 72.3541 26.3818 73.3949 26.3818H80.9858C82.0266 26.3818 82.8704 27.2213 82.8704 28.2588V43.353C82.8704 44.3904 82.0266 45.2299 80.9858 45.2299ZM75.2795 41.476H79.1012V30.1357H75.2795V41.476Z" fill="black"/>
<path d="M9.47461 49.0096H3.76923C1.69045 49.0096 0 47.3251 0 45.2558V26.3564C0 24.287 1.69045 22.6025 3.76923 22.6025H9.47461C10.5154 22.6025 11.3592 23.442 11.3592 24.4795V47.1327C11.3592 48.1701 10.5154 49.0096 9.47461 49.0096ZM3.76923 26.3564V45.2558H7.58999V26.3564H3.76923Z" fill="black"/>
<path d="M17.0654 45.2299H9.47446C8.43369 45.2299 7.58984 44.3904 7.58984 43.353V28.2588C7.58984 27.2213 8.43369 26.3818 9.47446 26.3818H17.0654C18.1061 26.3818 18.95 27.2213 18.95 28.2588V43.353C18.95 44.3904 18.1061 45.2299 17.0654 45.2299ZM11.3591 41.476H15.1808V30.1357H11.3591V41.476Z" fill="black"/>
</svg>
