<svg xmlns="http://www.w3.org/2000/svg" width="111" height="81" fill="none" viewBox="0 0 111 81"><path fill="#E84434" d="M65.3198 1.86279H101.748V13.1681H65.3198V1.86279Z"/><path fill="#E84434" d="M60 67H108V78H60V67Z"/><path fill="#E84434" d="M60 24L69 20H84H99L108 24V35H60V24Z"/><path fill="#101010" d="M64.8951 19.2719C64.8663 19.2875 64.8485 19.304 64.8198 19.3197C64.6883 19.3912 64.5625 19.4638 64.4336 19.5391C64.3767 19.5725 64.3236 19.6075 64.2673 19.6416C64.168 19.7013 64.0699 19.761 63.9722 19.8229C63.909 19.8631 63.8478 19.9049 63.7855 19.946C63.6964 20.0043 63.6077 20.0627 63.5201 20.1228C63.4549 20.1676 63.3913 20.2138 63.327 20.2595C63.2438 20.3187 63.1609 20.3778 63.0792 20.4383C63.0142 20.4867 62.9503 20.5362 62.8861 20.5856C62.807 20.6463 62.7281 20.7072 62.6503 20.7691C62.5863 20.8203 62.5235 20.8723 62.4604 20.9244C62.3843 20.9874 62.3087 21.0506 62.2338 21.115C62.1715 21.1687 62.1101 21.2231 62.0487 21.2778C61.9754 21.3431 61.9028 21.4089 61.8308 21.4754C61.7703 21.531 61.7102 21.5876 61.6506 21.6451C61.5802 21.7124 61.5105 21.7805 61.4414 21.8494C61.3826 21.9077 61.3244 21.9665 61.2666 22.0255C61.1987 22.0956 61.1314 22.1663 61.0648 22.2377C61.0086 22.2975 60.9526 22.3574 60.8977 22.4183C60.8315 22.4914 60.7665 22.5654 60.7018 22.6398C60.6485 22.7008 60.5951 22.7617 60.5428 22.8233C60.4782 22.8998 60.415 22.9777 60.3519 23.0556C60.3022 23.117 60.2518 23.1782 60.2029 23.2404C60.139 23.3218 60.077 23.4047 60.0147 23.4873C59.9691 23.548 59.9228 23.608 59.878 23.6692C59.813 23.7585 59.75 23.8492 59.6871 23.9398C59.6475 23.9963 59.6071 24.052 59.5683 24.1092C59.4926 24.2208 59.4196 24.3342 59.3477 24.448C59.3237 24.4853 59.2986 24.522 59.275 24.5596C59.1802 24.7108 59.0881 24.8637 58.9986 25.0182C58.9706 25.0668 58.9443 25.1163 58.9168 25.165C58.8561 25.2726 58.7953 25.38 58.7373 25.4891C58.7033 25.5518 58.6725 25.6157 58.6399 25.6789C58.5902 25.7753 58.5403 25.8715 58.4926 25.9689C58.4587 26.0378 58.4271 26.1076 58.3947 26.1769C58.3507 26.2703 58.3068 26.3636 58.2647 26.4578C58.2324 26.5304 58.2019 26.6036 58.1707 26.6766C58.1311 26.7692 58.0918 26.8618 58.0541 26.955C58.0239 27.0299 57.9952 27.1051 57.9662 27.1807C57.9304 27.2738 57.8949 27.3668 57.861 27.4606C57.8332 27.5373 57.8065 27.6143 57.78 27.6914C57.7478 27.7851 57.7164 27.879 57.6857 27.9731C57.6606 28.0509 57.6361 28.1294 57.6122 28.2086C57.5835 28.303 57.5557 28.3978 57.5287 28.493C57.5061 28.5724 57.4843 28.6518 57.4634 28.7313C57.4379 28.8274 57.4135 28.9237 57.3901 29.0202C57.3706 29.1 57.3517 29.1799 57.3332 29.2601C57.3112 29.3578 57.2906 29.4559 57.2705 29.5541C57.2535 29.634 57.2375 29.7137 57.2224 29.794C57.2036 29.894 57.1865 29.995 57.1697 30.0959C57.1566 30.1748 57.1428 30.2533 57.131 30.3325C57.1154 30.4363 57.1019 30.5407 57.0885 30.6451C57.0787 30.7222 57.0678 30.7989 57.0592 30.8763C57.0468 30.9855 57.0373 31.0951 57.0273 31.2049C57.0207 31.2779 57.0129 31.3508 57.0074 31.424C56.9983 31.5456 56.9922 31.6679 56.986 31.791C56.983 31.8527 57.0146 31.9142 57.0122 31.9759C57.0052 32.1602 57.0376 32.345 57.0376 32.5303V72.6653C57.031 74.8662 57.913 76.9797 59.4899 78.5423C61.0669 80.1048 63.21 80.9887 65.4492 81H102.592C104.832 80.9876 106.974 80.1026 108.55 78.5391C110.127 76.9756 111.007 74.8615 111 72.6604V32.5305C111.026 29.5349 110.149 26.5986 108.48 24.0919C107.05 21.9181 105.047 20.1657 102.685 19.0204V15.5612C103.129 15.5451 103.552 15.3642 103.866 15.0548C104.181 14.7454 104.365 14.3305 104.381 13.8933V3.94251C104.369 3.05297 104 2.20408 103.356 1.57972C102.711 0.955352 101.842 0.605772 100.937 0.606691H67.0998C66.1947 0.605772 65.3256 0.955352 64.6809 1.57972C64.0361 2.20408 63.6675 3.05297 63.655 3.94251V13.8938C63.6715 14.331 63.8555 14.7459 64.1703 15.0552C64.485 15.3646 64.9071 15.5455 65.3519 15.5617V19.0279C65.1822 19.1062 65.0523 19.1872 64.8951 19.2719ZM99.2907 15.6179V18.4383H68.7458V15.6179H99.2907ZM60.4308 36.3H107.606V64.4877H60.4308V36.3ZM102.587 77.6642H65.4538C64.7896 77.6601 64.1328 77.5274 63.5208 77.2737C62.9088 77.02 62.3538 76.6502 61.8873 76.1855C61.4208 75.7208 61.0521 75.1703 60.8021 74.5654C60.5522 73.9606 60.4261 73.3132 60.4308 72.6604V67.8235H107.606V72.6556C107.611 73.3084 107.485 73.9559 107.236 74.561C106.987 75.1661 106.619 75.717 106.153 76.1821C105.686 76.6473 105.132 77.0176 104.52 77.2719C103.908 77.5262 103.251 77.6595 102.587 77.6642ZM107.606 32.5305V32.9642H60.4308V32.5305C60.4308 32.3832 60.3969 32.2363 60.4032 32.0897C60.405 32.0396 60.391 31.9896 60.3937 31.9396C60.3984 31.8435 60.3937 31.7474 60.4011 31.6517C60.4057 31.593 60.4079 31.5349 60.4132 31.4762C60.4212 31.3895 60.4261 31.3028 60.4361 31.2164C60.4432 31.1542 60.4514 31.0923 60.4595 31.0302C60.4702 30.9483 60.4797 30.8663 60.4921 30.7849C60.5019 30.7208 60.5135 30.6574 60.5243 30.5937C60.5377 30.5147 60.5503 30.4354 60.5654 30.3567C60.5778 30.2923 60.592 30.2286 60.6053 30.1644C60.6214 30.0874 60.6368 30.01 60.6547 29.9332C60.6694 29.8687 60.686 29.8046 60.702 29.7404C60.7208 29.6649 60.739 29.5891 60.7592 29.5141C60.7762 29.4497 60.7957 29.386 60.814 29.3219C60.8354 29.2479 60.8561 29.1738 60.8788 29.1003C60.8987 29.0361 60.9202 28.9727 60.9411 28.909C60.9649 28.8364 60.9883 28.7637 61.0134 28.6921C61.0356 28.6286 61.0595 28.5656 61.0828 28.5023C61.1089 28.4313 61.1349 28.3601 61.1625 28.2895C61.1872 28.2263 61.2135 28.1638 61.2391 28.101C61.2676 28.0318 61.2959 27.9623 61.3256 27.8936C61.3528 27.8308 61.3815 27.7686 61.4105 27.7064C61.441 27.6387 61.4716 27.5711 61.5035 27.5041C61.533 27.442 61.5639 27.3808 61.5946 27.3193C61.6275 27.2526 61.6604 27.1869 61.6945 27.1213C61.7263 27.0604 61.7592 27.0004 61.7921 26.9402C61.8274 26.8751 61.8627 26.8102 61.8992 26.7459C61.9331 26.6861 61.9683 26.6273 62.003 26.5682C62.0405 26.5047 62.0782 26.4415 62.1167 26.3788C62.153 26.32 62.1902 26.262 62.2274 26.204C62.2669 26.1422 62.3066 26.0805 62.3473 26.0205C62.3859 25.9629 62.4251 25.9061 62.4644 25.8494C62.506 25.7893 62.5478 25.7294 62.5905 25.6701C62.6311 25.6139 62.6725 25.5581 62.7141 25.5033C62.7577 25.4449 62.8018 25.3868 62.8462 25.3291C62.8888 25.2744 62.9321 25.2202 62.9756 25.1662C63.0214 25.1095 63.0675 25.0531 63.114 24.9971C63.1586 24.9439 63.2038 24.8911 63.2498 24.8386C63.2976 24.7836 63.3455 24.7289 63.3942 24.6748C63.4429 24.6208 63.4879 24.5719 63.5354 24.5209C63.5829 24.4698 63.635 24.415 63.6856 24.3626C63.7361 24.3102 63.7828 24.2625 63.8322 24.2138C63.8815 24.1651 63.9357 24.1116 63.9881 24.061C64.0406 24.0105 64.0891 23.9648 64.1408 23.9174C64.1926 23.87 64.2479 23.8192 64.302 23.7706C64.3562 23.7221 64.4069 23.6777 64.46 23.632C64.5131 23.5863 64.5705 23.538 64.6263 23.4916C64.6822 23.4452 64.7348 23.4024 64.7896 23.3582C64.8444 23.314 64.9038 23.2681 64.9615 23.2247C65.0192 23.1814 65.0731 23.1393 65.1298 23.0975C65.1865 23.0556 65.2471 23.0119 65.3063 22.9697C65.3655 22.9275 65.4217 22.888 65.4801 22.8481C65.5384 22.8083 65.6007 22.7671 65.6615 22.727C65.7222 22.687 65.7803 22.6496 65.84 22.6119C65.8997 22.5742 65.9642 22.5351 66.0266 22.4972C66.0891 22.4593 66.1478 22.4241 66.2092 22.3888C66.2707 22.3534 66.3368 22.3164 66.401 22.2809C66.4651 22.2453 66.5252 22.2123 66.5877 22.179C66.6501 22.1456 66.7185 22.1114 66.7845 22.0789C66.8478 22.047 66.9113 22.0148 66.9754 21.9841C67.0395 21.9535 67.1096 21.9213 67.177 21.8906C67.2444 21.8599 67.3066 21.8312 67.3721 21.8027C67.3928 21.7938 67.4137 21.786 67.4343 21.7768H100.573C104.813 23.5561 107.606 27.8385 107.606 32.5305ZM67.0998 3.94251H100.988V12.2821H67.0998L67.0979 3.94251H67.0998Z"/><path fill="#101010" d="M71.0357 52.5634L70.2456 57.1332H81.6702L82.2041 54.0368H74.5379L80.6452 50.9191L83.1651 48.5487L83.8484 44.7049L81.6275 41.9716H75.9045L72.4878 42.9752L72.8936 45.9221L75.7551 45.068H79.6202L80.3249 45.9221L80.0473 47.5024L78.9796 48.5274L71.0357 52.5634Z"/><path fill="#101010" d="M94.2836 51.2394L95.9279 41.9716H93.1945L83.0938 51.3248L82.5813 54.3358H90.4398L89.9486 57.1332H93.2586L93.7497 54.3358H95.3086L95.8424 51.2394H94.2836ZM91.4007 47.481L91.9773 46.7336L92.0413 46.7763L91.6356 47.5237L90.9736 51.2394H87.5996L86.8095 51.517L86.7668 51.4529L87.5996 51.0045L91.4007 47.481Z"/><path fill="#101010" d="M12.1182 35.5961L42.22 31.9306L42.5866 34.9407L12.4847 38.6063L12.1182 35.5961Z"/><path fill="#E84434" d="M22.6152 46.5372L43.6865 43.9713L44.0531 46.9815L22.9818 49.5474L22.6152 46.5372Z"/><path fill="#101010" d="M0 61.5104L45.1528 56.0121L45.5194 59.0223L0.366558 64.5206L0 61.5104Z"/></svg>