<svg xmlns="http://www.w3.org/2000/svg" width="64" height="63" fill="none" viewBox="0 0 64 63"><path fill="#E84434" d="M62 15V28H2V15H62Z"/><path fill="#000" fill-rule="evenodd" d="M58.7813 28.9608V62.1821H5.51738V28.9608H0V12.1344H15.4911C14.0056 8.89857 14.4301 5.01556 16.9765 2.42688C20.1596 -0.808961 25.4648 -0.808961 28.6479 2.42688L31.4066 5.23128L33.9531 2.42688C37.1362 -0.808961 42.4414 -0.808961 45.6245 2.42688C48.1709 5.01556 48.8076 8.89857 47.1099 12.1344H63.2376V28.9608H58.7813ZM29.2845 12.1344H42.8658C44.7756 10.1929 45.2 7.17279 43.078 5.01556C41.3803 3.07405 38.1972 3.07405 36.2874 5.01556L29.2845 12.1344ZM19.7352 12.1344H24.616C24.616 12.1344 28.6479 8.03568 28.8601 7.60423L26.3136 5.01556C24.4038 3.07405 21.4329 3.07405 19.523 5.01556C17.401 7.17279 17.8254 10.1929 19.7352 12.1344ZM3.39531 25.5092H30.3456V15.8017H3.39531V25.5092ZM30.3456 28.9608H8.91268V41.0413H30.3456V28.9608ZM8.91268 44.4928V58.5148H30.3456V44.4928H8.91268ZM33.9531 58.5148H55.386V44.4928H33.9531V58.5148ZM55.386 41.0413V28.9608H33.9531V41.0413H55.386ZM59.8423 25.5092V15.8017H33.9531V25.5092H59.8423Z" clip-rule="evenodd"/></svg>