<svg xmlns="http://www.w3.org/2000/svg" width="98" height="91" fill="none" viewBox="0 0 98 91"><path fill="#E84434" d="M81.8462 59.8333H96.9231V81.3718H81.8462V59.8333Z"/><path fill="#101010" d="M83.6266 59.1333L72.8466 55.05C71.0499 54.3966 69.0899 54.8866 67.6199 56.1933L52.1032 71.71L25.1532 57.1733C23.6832 56.3566 21.8866 56.3566 20.2532 57.3366C18.7832 58.1533 17.8032 59.7866 17.8032 61.5833V64.0333C17.8032 65.83 18.7832 67.4633 20.2532 68.28L56.8399 89.5133C57.6566 90.0033 58.4732 90.1666 59.2899 90.1666C59.7799 90.1666 60.2699 90.0033 60.9232 89.84L83.6266 82H97.9999V59.1333H83.6266ZM59.9432 86.5733C59.4532 86.7366 58.9632 86.7366 58.6366 86.41L22.0499 65.1766C21.5599 64.85 21.2332 64.36 21.2332 63.7066V61.2566C21.2332 60.44 21.7232 59.95 22.0499 59.7866C22.2132 59.6233 22.5399 59.6233 22.8666 59.6233C23.0299 59.6233 23.3566 59.6233 23.6832 59.7866L58.9632 78.8966L71.2132 70.0766L69.2532 67.4633L58.6366 74.9766L55.0432 73.0166L69.7432 58.3166C70.2332 57.8266 70.8866 57.6633 71.5399 57.99L81.5032 61.7466V79.06L59.9432 86.5733ZM94.7332 78.7333H84.9332V62.4H94.7332V78.7333Z"/><path fill="#101010" d="M91.4669 65.6667H88.2002V72.2H91.4669V65.6667Z"/><path fill="#E84434" d="M15.4002 22.0333L14.7002 2.43335H46.2002L67.9002 19.9333H85.4002H54.6002L56.0002 24.8333L51.1002 28.3333L39.2002 19.9333H28.0002V33.2333L15.4002 22.0333Z"/><path fill="#101010" d="M51.6133 29.8967C50.47 29.8967 49.49 29.5701 48.51 28.7534L35.28 18.3001H26.1333V15.0334H36.5866L50.7966 26.3034C51.1233 26.6301 51.6133 26.6301 52.1033 26.6301C52.5933 26.6301 52.92 26.3034 53.2466 25.9767L53.9 24.8334C54.39 24.1801 54.2266 23.2001 53.5733 22.5467L39.69 11.4401L41.65 8.82672L55.5333 19.9334C57.6566 21.5667 57.9833 24.5067 56.35 26.6301L55.5333 27.9367C54.7166 29.0801 53.5733 29.7334 52.2666 29.8967C52.1033 29.8967 51.94 29.8967 51.6133 29.8967Z"/><path fill="#101010" d="M9.79987 6.8667H6.5332V13.4H9.79987V6.8667Z"/><path fill="#101010" d="M57.1666 42.7999C53.5733 42.7999 50.6333 39.8599 50.6333 36.2666C50.6333 32.6733 53.5733 29.7333 57.1666 29.7333C60.76 29.7333 63.7 32.6733 63.7 36.2666C63.7 39.8599 60.76 42.7999 57.1666 42.7999ZM57.1666 32.9999C55.37 32.9999 53.9 34.4699 53.9 36.2666C53.9 38.0633 55.37 39.5333 57.1666 39.5333C58.9633 39.5333 60.4333 38.0633 60.4333 36.2666C60.4333 34.4699 58.9633 32.9999 57.1666 32.9999Z"/><path fill="#101010" d="M78.3998 47.7H35.9332V46.0666C35.9332 45.0866 35.2798 44.4333 34.2998 44.4333H32.6665V28.1H34.2998C35.2798 28.1 35.9332 27.4466 35.9332 26.4666V24.8333H40.8332V28.1H38.8732C38.3832 29.57 37.2398 30.55 35.9332 31.04V41.33C37.4032 41.82 38.3832 42.9633 38.8732 44.27H75.2965C75.7865 42.8 76.9298 41.82 78.2365 41.33V31.04C76.7665 30.55 75.7865 29.4066 75.2965 28.1H60.4332V24.8333H78.3998V26.4666C78.3998 27.4466 79.0532 28.1 80.0332 28.1H81.6665V44.4333H80.0332C79.0532 44.4333 78.3998 45.0866 78.3998 46.0666V47.7Z"/><path fill="#101010" d="M69.2533 19.9333L47.6933 1.47665C46.8767 0.823313 45.7333 0.333313 44.59 0.333313H0V24.8333H14.0467L24.1733 33.49C24.99 34.3066 26.1333 34.6333 27.44 34.6333H27.7667V52.6H86.5667V19.9333H69.2533ZM13.0667 21.5666H3.26667V3.59998H13.0667V21.5666ZM83.3 49.3333H31.0333V23.2H34.3V19.9333H27.7667V31.3666H27.2767C26.95 31.3666 26.46 31.2033 26.1333 31.04L16.3333 22.3833V3.59998H44.59C44.9167 3.59998 45.4067 3.76331 45.7333 3.92665L64.19 19.9333H60.4333V23.2H83.3V49.3333Z"/></svg>