<svg xmlns="http://www.w3.org/2000/svg" width="23" height="21" fill="none" viewBox="0 0 23 21"><rect width="2.823" height="16.939" x=".117" y="3.701" fill="#F4412D" rx="1"/><rect width="2.823" height="11.293" x="5.058" y="9.347" fill="#F4412D" rx="1"/><rect width="2.823" height="13.41" x="9.998" y="7.23" fill="#F4412D" rx="1"/><rect width="2.823" height="7.764" x="14.938" y="12.876" fill="#F4412D" rx="1"/><path fill="#F4412D" fill-rule="evenodd" d="M18.7616 0.877944C18.2094 0.877944 17.7616 1.32566 17.7616 1.87794V3.7011H15.9385C15.3862 3.7011 14.9385 4.14882 14.9385 4.7011V4.81848C14.9385 5.37076 15.3862 5.81848 15.9385 5.81848H17.7616V7.64164C17.7616 8.19392 18.2094 8.64164 18.7616 8.64164H18.879C19.4313 8.64164 19.879 8.19392 19.879 7.64164V5.81847H21.7022C22.2545 5.81847 22.7022 5.37076 22.7022 4.81847V4.7011C22.7022 4.14882 22.2545 3.7011 21.7022 3.7011H19.879V1.87794C19.879 1.32566 19.4313 0.877944 18.879 0.877944H18.7616Z" clip-rule="evenodd"/></svg>