<svg xmlns="http://www.w3.org/2000/svg" width="48" height="35" fill="none" viewBox="0 0 48 35"><rect width="15.585" height="4.837" x="27.944" y=".537" fill="#E84434"/><rect width="20.535" height="4.706" x="25.669" y="28.404" fill="#E84434"/><path fill="#fff" d="M25.6685 14.7163H46.2035V27.7002H25.6685V14.7163Z"/><path fill="#E84434" d="M25.6685 10.0079L29.5188 8.29669H35.936H42.3532L46.2035 10.0079V14.7139H25.6685V10.0079Z"/><path fill="#101010" d="M27.7631 7.98524C27.7507 7.99188 27.7431 7.99894 27.7309 8.00565C27.6746 8.03626 27.6208 8.0673 27.5656 8.09955C27.5413 8.11382 27.5186 8.12881 27.4945 8.14337C27.452 8.16891 27.4101 8.19446 27.3682 8.22093C27.3412 8.23813 27.315 8.25604 27.2884 8.27359C27.2503 8.29856 27.2123 8.32354 27.1748 8.34923C27.147 8.36842 27.1197 8.38819 27.0922 8.40774C27.0566 8.43307 27.0211 8.45833 26.9862 8.48423C26.9584 8.50492 26.9311 8.52612 26.9036 8.54724C26.8698 8.57321 26.836 8.59926 26.8027 8.62573C26.7753 8.64764 26.7485 8.6699 26.7215 8.69216C26.6889 8.71913 26.6566 8.74618 26.6246 8.77372C26.5979 8.7967 26.5716 8.81996 26.5453 8.84336C26.514 8.87129 26.4829 8.89947 26.4521 8.92792C26.4262 8.9517 26.4005 8.97589 26.375 9.00049C26.3449 9.02931 26.3151 9.05845 26.2855 9.0879C26.2604 9.11287 26.2355 9.13799 26.2107 9.16325C26.1817 9.19322 26.1529 9.22347 26.1244 9.25401C26.1004 9.27963 26.0764 9.30525 26.0529 9.33129C26.0246 9.36255 25.9968 9.39423 25.9691 9.42605C25.9463 9.45217 25.9235 9.47821 25.9011 9.50454C25.8735 9.53729 25.8465 9.57062 25.8194 9.60394C25.7982 9.6302 25.7766 9.65639 25.7557 9.683C25.7283 9.71782 25.7018 9.75329 25.6752 9.78861C25.6557 9.81458 25.6358 9.84027 25.6167 9.86646C25.5889 9.90463 25.5619 9.94345 25.535 9.9822C25.5181 10.0064 25.5008 10.0302 25.4842 10.0547C25.4518 10.1024 25.4206 10.151 25.3898 10.1996C25.3796 10.2156 25.3688 10.2313 25.3587 10.2474C25.3182 10.312 25.2788 10.3775 25.2405 10.4436C25.2285 10.4643 25.2173 10.4855 25.2055 10.5064C25.1795 10.5524 25.1535 10.5983 25.1287 10.645C25.1142 10.6718 25.101 10.6992 25.087 10.7262C25.0657 10.7675 25.0444 10.8086 25.024 10.8503C25.0095 10.8798 24.996 10.9096 24.9821 10.9393C24.9633 10.9792 24.9445 11.0191 24.9265 11.0594C24.9127 11.0905 24.8996 11.1218 24.8863 11.1531C24.8694 11.1927 24.8525 11.2323 24.8364 11.2722C24.8235 11.3042 24.8112 11.3364 24.7988 11.3687C24.7835 11.4085 24.7683 11.4483 24.7538 11.4884C24.7419 11.5213 24.7305 11.5542 24.7192 11.5872C24.7054 11.6273 24.6919 11.6675 24.6788 11.7077C24.6681 11.741 24.6576 11.7746 24.6474 11.8085C24.6351 11.8489 24.6232 11.8894 24.6116 11.9301C24.602 11.9641 24.5927 11.9981 24.5837 12.0321C24.5728 12.0732 24.5624 12.1144 24.5523 12.1557C24.544 12.1898 24.5359 12.224 24.528 12.2583C24.5186 12.3001 24.5098 12.3421 24.5012 12.3841C24.4939 12.4183 24.4871 12.4524 24.4806 12.4867C24.4726 12.5295 24.4652 12.5727 24.458 12.6159C24.4524 12.6496 24.4466 12.6832 24.4415 12.7171C24.4348 12.7615 24.4291 12.8062 24.4233 12.8508C24.4191 12.8838 24.4145 12.9166 24.4108 12.9497C24.4055 12.9965 24.4014 13.0433 24.3971 13.0903C24.3943 13.1215 24.391 13.1527 24.3886 13.1841C24.3847 13.2361 24.3821 13.2884 24.3795 13.341C24.3782 13.3674 24.3917 13.3938 24.3907 13.4202C24.3877 13.499 24.4016 13.5781 24.4016 13.6574V30.8276C24.3987 31.7692 24.776 32.6734 25.4507 33.3419C26.1253 34.0103 27.0422 34.3885 28.0001 34.3933H43.8904C44.8484 34.388 45.7651 34.0094 46.4394 33.3405C47.1137 32.6716 47.4905 31.7672 47.4872 30.8255V13.6574C47.4985 12.3758 47.1235 11.1197 46.4094 10.0473C45.7973 9.11732 44.9405 8.36759 43.9299 7.87764V6.39773C44.1202 6.39083 44.3008 6.31344 44.4355 6.18109C44.5701 6.04873 44.6488 5.87122 44.6559 5.68417V1.42711C44.6505 1.04655 44.4928 0.683386 44.217 0.416274C43.9412 0.149163 43.5694 -0.000392315 43.1821 7.7293e-07H28.7063C28.3191 -0.000392315 27.9473 0.149163 27.6714 0.416274C27.3956 0.683386 27.2379 1.04655 27.2326 1.42711V5.68439C27.2396 5.87143 27.3183 6.04893 27.453 6.18128C27.5876 6.31363 27.7682 6.39103 27.9585 6.39794V7.88085C27.8859 7.91432 27.8303 7.94899 27.7631 7.98524ZM42.4779 6.42199V7.62861H29.4105V6.42199H42.4779ZM25.8532 15.2701H46.0352V27.3291H25.8532V15.2701ZM43.8883 32.9662H28.0021C27.7179 32.9645 27.4369 32.9077 27.1751 32.7991C26.9133 32.6906 26.6759 32.5324 26.4763 32.3336C26.2767 32.1348 26.119 31.8993 26.0121 31.6405C25.9051 31.3818 25.8512 31.1048 25.8532 30.8255V28.7562H46.0352V30.8235C46.0375 31.1028 45.9838 31.3798 45.8771 31.6386C45.7705 31.8975 45.6129 32.1332 45.4135 32.3322C45.2142 32.5312 44.9768 32.6896 44.7151 32.7984C44.4534 32.9072 44.1724 32.9642 43.8883 32.9662ZM46.0352 13.6574V13.843H25.8532V13.6574C25.8532 13.5944 25.8387 13.5316 25.8414 13.4688C25.8422 13.4474 25.8361 13.426 25.8373 13.4046C25.8393 13.3635 25.8373 13.3224 25.8405 13.2815C25.8425 13.2563 25.8434 13.2315 25.8457 13.2064C25.8491 13.1693 25.8512 13.1322 25.8555 13.0952C25.8585 13.0686 25.862 13.0421 25.8655 13.0156C25.87 12.9806 25.8741 12.9454 25.8794 12.9106C25.8836 12.8832 25.8886 12.8561 25.8932 12.8288C25.8989 12.795 25.9043 12.7611 25.9108 12.7275C25.9161 12.6999 25.9222 12.6727 25.9278 12.6452C25.9347 12.6122 25.9413 12.5791 25.949 12.5463C25.9553 12.5187 25.9624 12.4913 25.9692 12.4638C25.9773 12.4315 25.985 12.3991 25.9937 12.367C26.0009 12.3394 26.0093 12.3122 26.0171 12.2848C26.0263 12.2531 26.0351 12.2214 26.0449 12.1899C26.0534 12.1625 26.0626 12.1353 26.0715 12.1081C26.0817 12.077 26.0917 12.0459 26.1024 12.0153C26.1119 11.9881 26.1222 11.9612 26.1321 11.9341C26.1433 11.9037 26.1544 11.8733 26.1662 11.8431C26.1768 11.816 26.188 11.7893 26.199 11.7624C26.2112 11.7328 26.2233 11.7031 26.236 11.6737C26.2476 11.6468 26.2599 11.6202 26.2723 11.5936C26.2854 11.5646 26.2984 11.5357 26.3121 11.5071C26.3247 11.4805 26.3379 11.4543 26.3511 11.428C26.3652 11.3995 26.3792 11.3713 26.3938 11.3433C26.4074 11.3173 26.4215 11.2916 26.4356 11.2658C26.4507 11.238 26.4658 11.2102 26.4814 11.1827C26.4959 11.1571 26.5109 11.1319 26.5258 11.1067C26.5419 11.0795 26.558 11.0525 26.5745 11.0256C26.59 11.0005 26.6059 10.9757 26.6218 10.9508C26.6387 10.9244 26.6557 10.898 26.6731 10.8724C26.6896 10.8477 26.7064 10.8234 26.7232 10.7991C26.741 10.7735 26.7589 10.7478 26.7771 10.7224C26.7945 10.6984 26.8122 10.6746 26.83 10.6511C26.8487 10.6261 26.8675 10.6013 26.8866 10.5766C26.9048 10.5532 26.9233 10.53 26.9419 10.5069C26.9615 10.4826 26.9812 10.4585 27.0011 10.4345C27.0202 10.4118 27.0395 10.3892 27.0592 10.3667C27.0797 10.3432 27.1001 10.3198 27.121 10.2967C27.1418 10.2735 27.161 10.2526 27.1814 10.2308C27.2017 10.209 27.224 10.1855 27.2456 10.1631C27.2673 10.1407 27.2872 10.1203 27.3083 10.0994C27.3295 10.0786 27.3526 10.0557 27.3751 10.0341C27.3975 10.0125 27.4183 9.9929 27.4404 9.97263C27.4625 9.95237 27.4862 9.93061 27.5094 9.90984C27.5325 9.88908 27.5542 9.8701 27.577 9.85054C27.5997 9.83099 27.6242 9.8103 27.6481 9.79046C27.672 9.77063 27.6945 9.75229 27.7179 9.73338C27.7414 9.71447 27.7668 9.69485 27.7915 9.67629C27.8162 9.65774 27.8392 9.63976 27.8635 9.62185C27.8877 9.60394 27.9137 9.58525 27.939 9.56719C27.9643 9.54914 27.9884 9.53223 28.0133 9.51517C28.0383 9.49812 28.065 9.4805 28.0909 9.46337C28.1169 9.44625 28.1418 9.43026 28.1673 9.41413C28.1929 9.39801 28.2205 9.38124 28.2472 9.36504C28.2739 9.34884 28.299 9.33379 28.3253 9.31866C28.3516 9.30353 28.3799 9.28769 28.4073 9.27249C28.4348 9.2573 28.4605 9.24317 28.4872 9.2289C28.5139 9.21463 28.5431 9.2 28.5714 9.18608C28.5985 9.17245 28.6256 9.15868 28.6531 9.14555C28.6805 9.13242 28.7105 9.11865 28.7393 9.10552C28.7681 9.09239 28.7948 9.08012 28.8228 9.06792C28.8316 9.06414 28.8406 9.06078 28.8494 9.05686H43.0263C44.8403 9.81808 46.0352 11.6501 46.0352 13.6574ZM28.7063 1.42711H43.2039V4.99488H28.7063L28.7055 1.42711H28.7063Z"/><path fill="#101010" d="M30.3898 22.2277L30.0518 24.1828H34.9394L35.1678 22.8581H31.888L34.5009 21.5243L35.5789 20.5102L35.8712 18.8658L34.9211 17.6964H32.4727L31.011 18.1258L31.1846 19.3865L32.4088 19.0211H34.0623L34.3638 19.3865L34.2451 20.0626L33.7883 20.5011L30.3898 22.2277Z"/><path fill="#101010" d="M40.3355 21.6613L41.039 17.6964H39.8696L35.5484 21.6979L35.3291 22.986H38.6911L38.481 24.1828H39.897L40.1071 22.986H40.774L41.0024 21.6613H40.3355ZM39.1022 20.0534L39.3489 19.7337L39.3763 19.7519L39.2027 20.0717L38.9195 21.6613H37.476L37.138 21.7801L37.1197 21.7527L37.476 21.5608L39.1022 20.0534Z"/><rect width="12.973" height="1.297" x="5.185" y="14.969" fill="#101010" transform="rotate(-6.94286 5.18457 14.9689)"/><rect width="9.081" height="1.297" x="9.675" y="19.65" fill="#fff" transform="rotate(-6.94286 9.6748 19.6497)"/><rect width="19.46" height="1.297" y="26.055" fill="#101010" transform="rotate(-6.94286 0 26.0554)"/></svg>