<svg width="22" height="19" viewBox="0 0 22 19" fill="none" xmlns="http://www.w3.org/2000/svg">
<path fill-rule="evenodd" clip-rule="evenodd" d="M21.0998 6.32139C21.0957 3.2857 18.5508 0.899994 15.4999 0.899994C13.6719 0.899994 12.0265 1.75933 10.9998 3.0989C9.97253 1.75927 8.32684 0.899994 6.50027 0.899994C3.45288 0.899994 0.904602 3.28231 0.900442 6.31896C0.882223 7.82079 1.58579 9.29908 2.47389 10.5872C3.37883 11.8998 4.57027 13.1504 5.7299 14.2213C6.89462 15.2968 8.05677 16.2179 8.92519 16.8687C9.3603 17.1948 9.72388 17.4547 9.98004 17.634C10.1082 17.7236 10.2096 17.7933 10.2798 17.841C10.3149 17.8649 10.3422 17.8833 10.3611 17.896L10.3832 17.9108L10.3914 17.9162L11.0001 18.3196L11.6082 17.9167L11.6107 17.915L11.6169 17.9108L11.639 17.896C11.658 17.8833 11.6853 17.8649 11.7204 17.841C11.7906 17.7933 11.8919 17.7237 12.02 17.6341C12.2761 17.4549 12.6396 17.1951 13.0747 16.8691C13.9429 16.2185 15.1048 15.2977 16.2694 14.2224C17.4289 13.1519 18.6202 11.9015 19.5253 10.5892C20.4135 9.30121 21.1174 7.82311 21.0998 6.32139ZM11.0001 15.661C10.7906 15.5116 10.5347 15.3257 10.2446 15.1082C9.41548 14.4869 8.31566 13.6145 7.22243 12.605C6.12411 11.5908 5.06161 10.4647 4.28514 9.33847C3.49335 8.19003 3.08891 7.17034 3.10033 6.34156L3.10044 6.33398V6.32641C3.10044 4.58304 4.58197 3.09999 6.50027 3.09999C8.41597 3.09999 9.90011 4.59158 9.90011 6.33082H12.1001C12.1001 4.59122 13.5823 3.09999 15.4999 3.09999C17.4194 3.09999 18.8998 4.58417 18.8998 6.32862V6.33592L18.8999 6.34323C18.9109 7.17222 18.5061 8.19195 17.7142 9.3402C16.9376 10.4663 15.8752 11.5921 14.777 12.6061C13.6839 13.6153 12.5843 14.4874 11.7554 15.1085C11.4654 15.3259 11.2096 15.5117 11.0001 15.661Z" fill="#1A1A1A"/>
</svg>
