<svg width="31" height="27" viewBox="0 0 31 27" xmlns="http://www.w3.org/2000/svg">
    <path d="M21.6674 0C19.1434 0 16.8131 1.03419 15.2018 2.79186C13.5596 1.03695 11.2396 0.0040897 8.7695 0.0040897C3.95748 0.0040897 0 3.90765 0 8.77825C0 11.129 0.916733 13.3343 2.57739 14.9839L14.1666 26.5824C14.4453 26.8615 14.8103 27.0008 15.1757 27.0008C15.5393 27.0008 15.9029 26.8624 16.1811 26.5861L27.8567 14.9843C29.5225 13.319 30.4374 11.1108 30.4337 8.76712C30.426 3.93123 26.4934 0 21.6674 0ZM25.8427 12.9639L15.1794 23.5598L4.59185 12.9639C3.47082 11.8498 2.8532 10.3633 2.8532 8.77835C2.8532 5.50411 5.51742 2.85738 8.7695 2.85738C10.9345 2.85738 12.9285 4.02995 13.9739 5.91725C14.228 6.37652 14.684 6.65794 15.2389 6.65281C15.7637 6.64634 16.2425 6.35236 16.4858 5.88748C17.4499 4.04432 19.4838 2.8532 21.6674 2.8532C24.9165 2.8532 27.5756 5.50934 27.5805 8.77178C27.5832 10.3517 26.9646 11.8414 25.8427 12.9639Z" var:fill="currentColor"/>
</svg>
