<svg xmlns="http://www.w3.org/2000/svg" width="19" height="20" fill="none" viewBox="0 0 19 20"><path fill="#DD3F30" fill-rule="evenodd" d="M9.50089 0.469727C6.92082 0.469727 6.59703 0.481008 5.58368 0.527123C4.57232 0.573436 3.88198 0.733552 3.27793 0.968482C2.6531 1.21113 2.12307 1.53572 1.59503 2.06396C1.06658 2.59201 0.741997 3.12204 0.498557 3.74667C0.263034 4.35091 0.10272 5.04145 0.0571985 6.05242C0.0118751 7.06576 0 7.38976 0 9.96983C0 12.5499 0.0114793 12.8727 0.0573964 13.886C0.103907 14.8974 0.264024 15.5878 0.498755 16.1918C0.741601 16.8166 1.06619 17.3467 1.59443 17.8747C2.12228 18.4031 2.65231 18.7285 3.27674 18.9712C3.88119 19.2061 4.57172 19.3662 5.58289 19.4125C6.59624 19.4586 6.91983 19.4699 9.4997 19.4699C12.08 19.4699 12.4028 19.4586 13.4161 19.4125C14.4275 19.3662 15.1186 19.2061 15.7231 18.9712C16.3477 18.7285 16.8769 18.4031 17.4048 17.8747C17.9332 17.3467 18.2578 16.8166 18.5012 16.192C18.7348 15.5877 18.8951 14.8972 18.9426 13.8862C18.9881 12.8729 19 12.5499 19 9.96983C19 7.38976 18.9881 7.06596 18.9426 6.05262C18.8951 5.04125 18.7348 4.35091 18.5012 3.74687C18.2578 3.12204 17.9332 2.59201 17.4048 2.06396C16.8763 1.53552 16.3479 1.21093 15.7225 0.968482C15.1168 0.733552 14.4261 0.573436 13.4147 0.527123C12.4014 0.481008 12.0788 0.469727 9.49792 0.469727H9.50089ZM8.64865 2.18073C8.90159 2.18033 9.18382 2.18073 9.50089 2.18073C12.0374 2.18073 12.3381 2.18983 13.3397 2.23535C14.266 2.27771 14.7687 2.43248 15.1036 2.56251C15.5469 2.7347 15.863 2.94054 16.1953 3.27304C16.5278 3.60555 16.7336 3.92221 16.9062 4.36555C17.0362 4.70004 17.1912 5.20275 17.2334 6.12901C17.2789 7.13048 17.2888 7.43132 17.2888 9.96665C17.2888 12.502 17.2789 12.8028 17.2334 13.8043C17.191 14.7306 17.0362 15.2333 16.9062 15.5678C16.734 16.0111 16.5278 16.3268 16.1953 16.6591C15.8628 16.9916 15.5471 17.1974 15.1036 17.3696C14.7691 17.5002 14.266 17.6546 13.3397 17.697C12.3383 17.7425 12.0374 17.7524 9.50089 17.7524C6.96416 17.7524 6.66352 17.7425 5.66206 17.697C4.7358 17.6542 4.23308 17.4994 3.89801 17.3694C3.45467 17.1972 3.138 16.9914 2.80549 16.6589C2.47299 16.3264 2.26715 16.0105 2.09457 15.567C1.96454 15.2325 1.80957 14.7298 1.76741 13.8035C1.72189 12.802 1.71278 12.5012 1.71278 9.96428C1.71278 7.42736 1.72189 7.1281 1.76741 6.12663C1.80976 5.20037 1.96454 4.69766 2.09457 4.36278C2.26676 3.91944 2.47299 3.60277 2.80549 3.27027C3.138 2.93777 3.45467 2.73193 3.89801 2.55935C4.23288 2.42872 4.7358 2.27434 5.66206 2.23179C6.53844 2.19221 6.87807 2.18033 8.64865 2.17835V2.18073ZM14.572 3.75909C13.9426 3.75909 13.4319 4.26912 13.4319 4.8987C13.4319 5.52808 13.9426 6.03871 14.572 6.03871C15.2013 6.03871 15.712 5.52808 15.712 4.8987C15.712 4.26932 15.2013 3.75869 14.572 3.75869V3.75909ZM9.5009 5.09028C6.80663 5.09028 4.6222 7.27471 4.6222 9.96898C4.6222 12.6632 6.80663 14.8467 9.5009 14.8467C12.1952 14.8467 14.3788 12.6632 14.3788 9.96898C14.3788 7.27471 12.195 5.09028 9.5007 5.09028H9.5009ZM9.50091 6.80282C11.2497 6.80282 12.6676 8.22051 12.6676 9.96952C12.6676 11.7183 11.2497 13.1362 9.50091 13.1362C7.7519 13.1362 6.33421 11.7183 6.33421 9.96952C6.33421 8.22051 7.7519 6.80282 9.50091 6.80282Z" clip-rule="evenodd"/></svg>