<svg width="24" height="25" viewBox="0 0 24 25" fill="none" xmlns="http://www.w3.org/2000/svg">
<path fill-rule="evenodd" clip-rule="evenodd" d="M16.7948 9.64739C16.7948 13.5948 13.5948 16.7948 9.64739 16.7948C5.7 16.7948 2.5 13.5948 2.5 9.64739C2.5 5.7 5.7 2.5 9.64739 2.5C13.5948 2.5 16.7948 5.7 16.7948 9.64739ZM14.8572 17.7685C13.3546 18.7345 11.5664 19.2948 9.64739 19.2948C4.31928 19.2948 0 14.9755 0 9.64739C0 4.31928 4.31928 0 9.64739 0C14.9755 0 19.2948 4.31928 19.2948 9.64739C19.2948 11.9671 18.4761 14.0956 17.1119 15.7596L23.4246 22.0724L21.2928 24.2042L14.8572 17.7685Z" fill="currentColor"/>
</svg>
