<svg xmlns="http://www.w3.org/2000/svg" width="24" height="15" fill="none" viewBox="0 0 24 15"><path fill="#E30E17" fill-rule="evenodd" d="M8.92538 7.29322C8.92538 4.97487 9.97277 2.91059 11.6035 1.57475C10.401 0.589808 8.88196 0 7.22872 0C3.33352 0 0.175781 3.26522 0.175781 7.29322C0.175781 11.3212 3.33352 14.5864 7.22872 14.5864C8.88196 14.5864 10.401 13.9967 11.6035 13.0117C9.97277 11.6759 8.92538 9.61158 8.92538 7.29322Z" clip-rule="evenodd"/><path fill="#EA600A" fill-rule="evenodd" d="M8.92578 7.29324C8.92578 9.61159 9.97317 11.6759 11.6039 13.0117C13.2347 11.6759 14.2821 9.61159 14.2821 7.29324C14.2821 4.97489 13.2347 2.91061 11.6039 1.57477C9.97317 2.91061 8.92578 4.97489 8.92578 7.29324Z" clip-rule="evenodd"/><path fill="#F59F00" fill-rule="evenodd" d="M15.9783 0C14.3251 0 12.8061 0.589808 11.6035 1.57475C13.2343 2.91059 14.2817 4.97487 14.2817 7.29322C14.2817 9.61158 13.2343 11.6758 11.6035 13.0117C12.8061 13.9967 14.3251 14.5864 15.9783 14.5864C19.8736 14.5864 23.0313 11.3211 23.0313 7.29322C23.0313 3.26522 19.8736 0 15.9783 0Z" clip-rule="evenodd"/></svg>