<svg xmlns="http://www.w3.org/2000/svg" width="34" height="11" fill="none" viewBox="0 0 34 11"><path fill="#4DB45E" fill-rule="evenodd" d="M9.22702 0.857117V0.861172C9.22295 0.861172 7.9419 0.857117 7.60029 2.07764C7.28714 3.19679 6.40464 6.28662 6.38024 6.37178H6.13623C6.13623 6.37178 5.23339 3.21301 4.91618 2.07359C4.57456 0.853062 3.28945 0.857117 3.28945 0.857117H0.361328V10.1428H3.28945V4.62817H3.41145H3.53346L5.24153 10.1428H7.27494L8.98301 4.63223H9.22702V10.1428H12.1551V0.857117H9.22702Z" clip-rule="evenodd"/><path fill="#4DB45E" fill-rule="evenodd" d="M19.9229 0.857117C19.9229 0.857117 19.0648 0.93416 18.6622 1.83029L16.5881 6.37178H16.3441V0.857117H13.416V10.1428H16.1815C16.1815 10.1428 17.0802 10.0617 17.4828 9.16966L19.5163 4.62817H19.7603V10.1428H22.6884V0.857117H19.9229Z" clip-rule="evenodd"/><path fill="#4DB45E" fill-rule="evenodd" d="M23.9902 5.07422V10.1428H26.9184V7.18277H30.0905C31.4732 7.18277 32.6445 6.30285 33.0796 5.07422H23.9902Z" clip-rule="evenodd"/><path fill="url(#paint0_linear)" fill-rule="evenodd" d="M30.0891 0.857117H23.5781C23.9035 2.62505 25.2333 4.04427 26.9536 4.50652C27.344 4.61195 27.7548 4.66872 28.1777 4.66872H33.1962C33.2409 4.45787 33.2612 4.24296 33.2612 4.01994C33.2612 2.27228 31.8419 0.857117 30.0891 0.857117Z" clip-rule="evenodd"/><defs><linearGradient id="paint0_linear" x1="23.579" x2="33.261" y1="4.669" y2="4.669" gradientUnits="userSpaceOnUse"><stop offset=".3" stop-color="#00B4E6"/><stop offset="1" stop-color="#088CCB"/></linearGradient></defs></svg>