<svg width="20" height="31" viewBox="0 0 20 31" fill="none" xmlns="http://www.w3.org/2000/svg">
<g opacity="0.3">
<path d="M9.6977 30.4708H9.65769C4.3306 30.4708 0 26.1377 0 20.8106V11.0083C0 6.79389 3.42834 3.36426 7.64406 3.36426H11.7178C15.9361 3.36426 19.3618 6.79389 19.3618 11.0083V20.8106C19.358 26.1377 15.0248 30.4708 9.6977 30.4708ZM7.64018 4.65505C4.13698 4.65505 1.28692 7.50511 1.28692 11.0083V20.8106C1.28692 25.4264 5.04182 29.18 9.6564 29.18H9.69641C14.3084 29.18 18.0633 25.4251 18.0633 20.8106V11.0083C18.0633 7.50511 15.2132 4.65505 11.71 4.65505H7.64018Z" fill="black"/>
<path d="M7.74094 12.3992H1.287C0.932029 12.3992 0.641602 12.1101 0.641602 11.7538C0.641602 11.3975 0.932029 11.1084 1.287 11.1084H7.74094C8.09591 11.1084 8.38634 11.3975 8.38634 11.7538C8.38634 12.1101 8.09591 12.3992 7.74094 12.3992Z" fill="black"/>
<path d="M18.0671 12.3992H11.6132C11.2582 12.3992 10.9678 12.1101 10.9678 11.7538C10.9678 11.3975 11.2582 11.1084 11.6132 11.1084H18.0671C18.4221 11.1084 18.7125 11.3975 18.7125 11.7538C18.7125 12.1101 18.4221 12.3992 18.0671 12.3992Z" fill="black"/>
<path d="M9.67713 9.17195C9.32217 9.17195 9.03174 8.88281 9.03174 8.52655V4.65418C9.03174 4.29793 9.32217 4.00879 9.67713 4.00879C10.0321 4.00879 10.3225 4.29793 10.3225 4.65418V8.52655C10.3225 8.88281 10.0321 9.17195 9.67713 9.17195Z" fill="black"/>
<path d="M10.9677 14.9813H8.38612C8.03115 14.9813 7.74072 14.6922 7.74072 14.3359V9.17274C7.74072 8.81648 8.03115 8.52734 8.38612 8.52734H10.9677C11.3227 8.52734 11.6131 8.81648 11.6131 9.17274V14.3359C11.6131 14.6922 11.3227 14.9813 10.9677 14.9813ZM9.03151 13.6905H10.3223V9.81813H9.03151V13.6905Z" fill="black"/>
<path d="M9.67709 4.1314C9.32212 4.1314 9.03169 3.84226 9.03169 3.486C9.03169 3.07553 8.6664 2.87159 7.89192 2.5334C7.19231 2.22877 6.23584 1.81056 6.23584 0.78309C6.23584 0.426832 6.52627 0.137695 6.88123 0.137695C7.2362 0.137695 7.52663 0.426832 7.52663 0.78309C7.52663 0.966382 8.01455 1.17936 8.40953 1.34975C9.1711 1.68277 10.3225 2.18489 10.3225 3.486C10.3225 3.84226 10.0321 4.1314 9.67709 4.1314Z" fill="black"/>
</g>
</svg>
