<svg xmlns="http://www.w3.org/2000/svg" width="18" height="18" fill="none" viewBox="0 0 18 18"><path fill="currentColor" fill-rule="evenodd" d="M8.73586 0.799988C5.75437 0.799988 3.44304 3.18673 3.44304 6.09281C3.44304 7.61742 4.08764 9.01402 5.13814 9.98218C2.1373 11.3665 0 14.3703 0 17.9283H2.19325C2.19325 14.3819 5.11497 11.4574 8.73586 11.4574C12.2836 11.4574 15.2068 14.3805 15.2068 17.9283H17.4C17.4 14.3703 15.2627 11.3665 12.2619 9.98218C13.3124 9.01402 13.957 7.61742 13.957 6.09281C13.957 3.1886 11.6475 0.799988 8.73586 0.799988ZM5.63629 6.09281C5.63629 4.40718 6.98417 2.99324 8.73586 2.99324C10.413 2.99324 11.7637 4.40427 11.7637 6.09281C11.7637 7.77561 10.4187 9.12066 8.73586 9.12066C6.97845 9.12066 5.63629 7.77274 5.63629 6.09281Z" clip-rule="evenodd"/></svg>