<svg xmlns="http://www.w3.org/2000/svg" width="31" height="27" viewBox="0 0 31 27"><path fill="currentColor" stroke="currentColor" stroke-width="3" d="M14.1065 3.81673L15.213 4.99927L16.3074 3.80551C17.6287 2.36432 19.5549 1.5 21.6674 1.5C25.6637 1.5 28.9273 4.75892 28.9337 8.7695C28.9367 10.7119 28.182 12.5375 26.7977 13.9221C26.7972 13.9226 26.7967 13.9231 26.7962 13.9235L15.1759 25.4703L3.63848 13.9236L3.63848 13.9236L3.63448 13.9196C2.2583 12.5527 1.5 10.7308 1.5 8.77825C1.5 4.74155 4.78042 1.50409 8.7695 1.50409C10.8195 1.50409 12.7446 2.36126 14.1065 3.81673ZM15.2282 25.5227L15.2277 25.5222C15.2279 25.5223 15.228 25.5225 15.2282 25.5227Z"/></svg>