<svg xmlns="http://www.w3.org/2000/svg" width="14" height="14" fill="none" viewBox="0 0 14 14"><circle cx="7" cy="7" r="7" fill="#E9E9E9"/><path fill="silver" d="M6.15326 8.75527H7.4663C7.4663 7.96639 7.68803 7.71342 8.32896 7.33396C8.96642 6.95783 9.33366 6.45522 9.33366 5.73292C9.33366 4.56792 8.35667 3.88889 6.98127 3.88889C5.72366 3.88889 4.69817 4.52132 4.66699 5.85275H6.0805C6.10129 5.31019 6.52049 5.0206 6.97434 5.0206C7.44205 5.0206 7.81968 5.32017 7.81968 5.78285C7.81968 6.20225 7.52173 6.4885 7.06442 6.75812C6.41309 7.14756 6.08743 7.61024 6.15326 8.75527ZM6.83923 10.8889C7.30693 10.8889 7.6811 10.5527 7.67763 10.13C7.6811 9.71057 7.30693 9.37105 6.83923 9.37105C6.37499 9.37105 6.00082 9.71057 5.99736 10.13C6.00082 10.5527 6.37499 10.8889 6.83923 10.8889Z"/></svg>