<svg xmlns="http://www.w3.org/2000/svg" width="151" height="25" fill="none" viewBox="0 0 151 25"><path fill="currentColor" fill-rule="evenodd" d="M58.9817 3.60059L60.6422 5.26151H71.3218L72.9824 3.60059H58.9817ZM77.3424 11.6172V22.8094H71.4826V24.47H79.003V9.95665L77.3424 11.6172ZM58.1343 24.47H67.4737L65.8132 22.8094H59.7951V16.791L58.1343 15.1304V24.47Z" clip-rule="evenodd"/><path fill="currentColor" fill-rule="evenodd" d="M79.003 0.469727L69.822 9.44836V16.9588L79.003 7.97988V0.469727ZM58.1343 13.0399L69.822 24.4696V16.9591L58.1343 5.52973V13.0399Z" clip-rule="evenodd"/><path fill="currentColor" fill-rule="evenodd" d="M85.351 10.5685L85.434 11.5904C85.769 11.1764 86.132 10.8811 86.523 10.7043C86.914 10.5275 87.36 10.4391 87.863 10.4391C88.347 10.4391 88.751 10.506 89.077 10.6396C89.403 10.7733 89.714 11.0169 90.012 11.3705L89.133 12.1078C88.937 11.8836 88.719 11.7176 88.477 11.6098C88.235 11.502 87.984 11.4481 87.723 11.4481C87.202 11.4481 86.779 11.543 86.453 11.7327C86.128 11.9224 85.816 12.2113 85.518 12.5994V17.0363H84.2202V10.5685H85.351ZM92.371 10.5685V17.0363H91.073V10.5685H92.371ZM91.729 7.77441C92.017 7.77441 92.24 7.85418 92.398 8.01372C92.557 8.17326 92.636 8.36513 92.636 8.58935C92.636 8.80494 92.557 8.99466 92.398 9.15852C92.24 9.32237 92.017 9.40429 91.729 9.40429C91.44 9.40429 91.217 9.32237 91.059 9.15852C90.901 8.99466 90.821 8.80494 90.821 8.58935C90.821 8.36513 90.901 8.17326 91.059 8.01372C91.217 7.85418 91.44 7.77441 91.729 7.77441ZM95.036 10.5685L97.465 16.0144H97.52L100.032 10.5685H101.372L98.19 17.0363H96.683L93.627 10.5685H95.036ZM103.619 14.0999C103.647 14.4535 103.735 14.7618 103.884 15.0248C104.033 15.2878 104.229 15.5034 104.47 15.6716C104.712 15.8397 104.989 15.9648 105.301 16.0467C105.613 16.1286 105.936 16.1696 106.271 16.1696C106.764 16.1696 107.199 16.1329 107.576 16.0596C107.953 15.9863 108.322 15.8548 108.685 15.6651L109.062 16.6482C108.829 16.7517 108.608 16.8358 108.399 16.9005C108.19 16.9651 107.973 17.0169 107.75 17.0557C107.527 17.0945 107.287 17.1225 107.031 17.1398C106.776 17.157 106.494 17.1656 106.187 17.1656C105.554 17.1656 104.996 17.088 104.512 16.9328C104.029 16.7776 103.621 16.5534 103.291 16.2601C102.961 15.9669 102.71 15.6134 102.538 15.1994C102.365 14.7855 102.279 14.3241 102.279 13.8153C102.279 13.3151 102.375 12.8559 102.565 12.4377C102.756 12.0194 103.024 11.6637 103.368 11.3705C103.712 11.0773 104.115 10.8488 104.575 10.6849C105.036 10.521 105.54 10.4391 106.089 10.4391C106.648 10.4391 107.131 10.506 107.541 10.6396C107.95 10.7733 108.29 10.9587 108.56 11.1959C108.829 11.433 109.029 11.7154 109.16 12.0431C109.29 12.3708 109.355 12.7287 109.355 13.1168C109.355 13.2979 109.346 13.4639 109.327 13.6148C109.309 13.7657 109.276 13.9274 109.229 14.0999H103.619ZM108.099 13.1685C108.09 12.5304 107.918 12.0776 107.583 11.8103C107.248 11.543 106.703 11.4093 105.95 11.4093C105.671 11.4093 105.394 11.4459 105.119 11.5192C104.845 11.5925 104.601 11.7025 104.387 11.8491C104.173 11.9957 103.994 12.179 103.849 12.3989C103.705 12.6188 103.619 12.8753 103.591 13.1685H108.099ZM111.951 10.5685L112.035 11.5904C112.37 11.1764 112.732 10.8811 113.123 10.7043C113.514 10.5275 113.961 10.4391 114.463 10.4391C114.947 10.4391 115.352 10.506 115.677 10.6396C116.003 10.7733 116.315 11.0169 116.612 11.3705L115.733 12.1078C115.538 11.8836 115.319 11.7176 115.077 11.6098C114.835 11.502 114.584 11.4481 114.323 11.4481C113.802 11.4481 113.379 11.543 113.053 11.7327C112.728 11.9224 112.416 12.2113 112.118 12.5994V17.0363H110.82V10.5685H111.951ZM122.432 11.7715C122.069 11.6163 121.723 11.5106 121.392 11.4546C121.062 11.3985 120.706 11.3705 120.325 11.3705C119.711 11.3705 119.266 11.4503 118.992 11.6098C118.717 11.7693 118.58 11.9741 118.58 12.2242C118.58 12.5433 118.736 12.7611 119.048 12.8775C119.359 12.9939 119.822 13.0823 120.436 13.1427C121.311 13.2289 121.988 13.4251 122.467 13.7312C122.946 14.0374 123.186 14.5225 123.186 15.1865C123.186 15.8591 122.888 16.3572 122.292 16.6805C121.697 17.0039 120.887 17.1656 119.864 17.1656C119.352 17.1656 118.903 17.1333 118.517 17.0686C118.131 17.0039 117.733 16.8897 117.324 16.7258L117.645 15.7427C118.334 16.0446 119.055 16.1955 119.808 16.1955C121.25 16.1955 121.971 15.8548 121.971 15.1736C121.971 15.0097 121.939 14.8717 121.874 14.7596C121.809 14.6475 121.702 14.5548 121.553 14.4815C121.404 14.4082 121.208 14.3478 120.967 14.3004C120.725 14.253 120.422 14.212 120.059 14.1775C119.148 14.0913 118.468 13.9059 118.022 13.6213C117.575 13.3367 117.352 12.9012 117.352 12.3148C117.352 12.0561 117.412 11.8125 117.533 11.5839C117.654 11.3554 117.838 11.157 118.085 10.9889C118.331 10.8207 118.643 10.6871 119.02 10.5879C119.397 10.4887 119.836 10.4391 120.339 10.4391C120.59 10.4391 120.82 10.4456 121.029 10.4585C121.239 10.4715 121.441 10.493 121.636 10.5232C121.832 10.5534 122.027 10.5943 122.223 10.6461C122.418 10.6978 122.623 10.7625 122.837 10.8401L122.432 11.7715ZM123.981 10.9695L124.93 10.4133L125.949 8.95155L126.382 9.01622V10.5685H129.159L129.117 11.5645L126.382 11.4481V14.8502C126.382 15.3417 126.502 15.691 126.744 15.8979C126.986 16.1049 127.298 16.2084 127.679 16.2084C127.986 16.2084 128.263 16.1696 128.51 16.092C128.756 16.0144 129.01 15.9023 129.27 15.7557L129.689 16.6223C129.401 16.8121 129.087 16.95 128.747 17.0363C128.407 17.1225 128.005 17.1656 127.54 17.1656C126.74 17.1656 126.128 16.9716 125.705 16.5835C125.281 16.1955 125.07 15.622 125.07 14.8631V11.5645L123.981 11.4222V10.9695ZM130.931 11.0083C131.452 10.8099 131.934 10.6655 132.376 10.5749C132.818 10.4844 133.327 10.4391 133.904 10.4391C134.937 10.4391 135.697 10.6159 136.186 10.9695C136.674 11.3231 136.918 11.8965 136.918 12.6899V15.3935C136.918 15.7039 136.974 15.913 137.086 16.0208C137.197 16.1286 137.43 16.1825 137.784 16.1825V17.0363C137.625 17.0794 137.479 17.1117 137.344 17.1333C137.209 17.1549 137.049 17.1656 136.863 17.1656C136.574 17.1656 136.346 17.0708 136.179 16.8811C136.011 16.6913 135.914 16.4326 135.886 16.1049C135.244 16.8121 134.285 17.1656 133.011 17.1656C132.192 17.1656 131.571 16.9888 131.148 16.6353C130.724 16.2817 130.513 15.7988 130.513 15.1865C130.513 14.8933 130.561 14.6259 130.659 14.3845C130.757 14.143 130.927 13.8972 131.168 13.6472C131.485 13.5609 131.803 13.4833 132.124 13.4143C132.445 13.3453 132.787 13.2893 133.15 13.2461C133.513 13.203 133.899 13.1685 134.309 13.1427C134.718 13.1168 135.169 13.0995 135.662 13.0909V12.7287C135.662 12.2803 135.53 11.9526 135.265 11.7456C134.999 11.5386 134.527 11.4352 133.848 11.4352C132.973 11.4352 132.094 11.6119 131.21 11.9655L130.931 11.0083ZM135.662 13.9576C134.853 13.9749 134.171 14.0158 133.618 14.0805C133.064 14.1452 132.559 14.2336 132.104 14.3457C131.917 14.5526 131.824 14.8114 131.824 15.1218C131.824 15.4754 131.943 15.7406 132.18 15.9173C132.418 16.0941 132.755 16.1825 133.192 16.1825C133.657 16.1825 134.088 16.1179 134.483 15.9885C134.878 15.8591 135.272 15.6392 135.662 15.3288V13.9576ZM140.268 10.5685L140.352 11.5904C140.686 11.1764 141.049 10.8811 141.44 10.7043C141.831 10.5275 142.277 10.4391 142.78 10.4391C143.264 10.4391 143.668 10.506 143.994 10.6396C144.32 10.7733 144.631 11.0169 144.929 11.3705L144.05 12.1078C143.855 11.8836 143.636 11.7176 143.394 11.6098C143.152 11.502 142.901 11.4481 142.64 11.4481C142.119 11.4481 141.696 11.543 141.37 11.7327C141.045 11.9224 140.733 12.2113 140.435 12.5994V17.0363H139.137V10.5685H140.268ZM145.292 10.9695L146.241 10.4133L147.26 8.95155L147.692 9.01622V10.5685H150.47L150.428 11.5645L147.692 11.4481V14.8502C147.692 15.3417 147.813 15.691 148.055 15.8979C148.297 16.1049 148.609 16.2084 148.99 16.2084C149.297 16.2084 149.574 16.1696 149.821 16.092C150.067 16.0144 150.321 15.9023 150.581 15.7557L151 16.6223C150.712 16.8121 150.398 16.95 150.058 17.0363C149.718 17.1225 149.316 17.1656 148.851 17.1656C148.051 17.1656 147.439 16.9716 147.016 16.5835C146.592 16.1955 146.381 15.622 146.381 14.8631V11.5645L145.292 11.4222V10.9695Z" clip-rule="evenodd"/><path fill="currentColor" fill-rule="evenodd" d="M0.711187 11.1872L0.795565 12.2743C1.13308 11.8095 1.50474 11.4925 1.91056 11.3231C2.31638 11.1538 2.72822 11.0691 3.1461 11.0691C3.6604 11.0691 4.08229 11.1636 4.41177 11.3526C4.74125 11.5417 5.01045 11.8371 5.21939 12.2388C5.56494 11.8213 5.94262 11.522 6.35246 11.3408C6.7623 11.1597 7.20829 11.0691 7.69046 11.0691C8.50212 11.0691 9.09879 11.2818 9.48051 11.7071C9.86215 12.1325 10.053 12.7784 10.053 13.6448V17.0949H9.18519V13.6684C9.18519 13.0541 9.06859 12.5894 8.83557 12.2743C8.60254 11.9591 8.22084 11.8016 7.69046 11.8016C7.20829 11.8016 6.7844 11.9041 6.41876 12.1089C6.05312 12.3136 5.72967 12.605 5.44841 12.9832C5.46448 13.0935 5.47854 13.1978 5.4906 13.2962C5.50265 13.3947 5.50868 13.5109 5.50868 13.6448V17.0949H4.64079V13.6566C4.64079 13.0659 4.52427 12.609 4.29123 12.2861C4.05818 11.9631 3.67648 11.8016 3.1461 11.8016C2.62375 11.8016 2.17575 11.9139 1.80208 12.1384C1.4284 12.3629 1.117 12.676 0.867887 13.0777V17.0949H0V11.1872H0.711187ZM11.9455 11.5535C12.3554 11.3802 12.7511 11.2562 13.1328 11.1813C13.5146 11.1065 13.9425 11.0691 14.4166 11.0691C15.2925 11.0691 15.9354 11.2266 16.3453 11.5417C16.755 11.8568 16.96 12.3727 16.96 13.0895V15.6535C16.96 15.9685 17.0162 16.1831 17.1288 16.2973C17.2412 16.4115 17.4542 16.4766 17.7676 16.4923V17.0949C17.6711 17.1343 17.5707 17.1638 17.4662 17.1835C17.3618 17.2032 17.2412 17.213 17.1047 17.213C16.8636 17.213 16.6747 17.1382 16.5381 16.9885C16.4015 16.8389 16.3171 16.575 16.2849 16.1969C15.9314 16.5671 15.5236 16.829 15.0615 16.9826C14.5994 17.1362 14.1153 17.213 13.609 17.213C12.8857 17.213 12.3574 17.0535 12.0239 16.7345C11.6904 16.4155 11.5236 15.9882 11.5236 15.4526C11.5236 15.1848 11.5618 14.9445 11.6381 14.7318C11.7145 14.5191 11.8491 14.3025 12.042 14.082C12.3152 14.0032 12.5964 13.9324 12.8857 13.8693C13.175 13.8063 13.4824 13.7551 13.8079 13.7157C14.1333 13.6763 14.4849 13.6448 14.8626 13.6212C15.2403 13.5976 15.6541 13.5779 16.1042 13.5621V13.1249C16.1042 12.8965 16.076 12.6996 16.0197 12.5342C15.9635 12.3688 15.8671 12.2329 15.7304 12.1266C15.5939 12.0202 15.4131 11.9414 15.1881 11.8902C14.963 11.839 14.6858 11.8135 14.3563 11.8135C13.9786 11.8135 13.619 11.8489 13.2775 11.9198C12.936 11.9907 12.5683 12.1049 12.1746 12.2624L11.9455 11.5535ZM16.1042 14.1883C15.3166 14.2041 14.6597 14.2454 14.1333 14.3124C13.607 14.3794 13.1389 14.464 12.729 14.5664C12.6165 14.7003 12.5362 14.8323 12.488 14.9622C12.4397 15.0922 12.4156 15.232 12.4156 15.3817C12.4156 16.1064 12.8416 16.4686 13.6934 16.4686C14.1514 16.4686 14.5773 16.4037 14.971 16.2737C15.3648 16.1437 15.7426 15.9055 16.1042 15.5589V14.1883ZM24.6263 8.46973V16.8467C24.3853 16.9177 24.1543 16.9748 23.9333 17.018C23.7122 17.0614 23.4852 17.0988 23.2522 17.1303C23.0192 17.1618 22.772 17.1835 22.5109 17.1953C22.2497 17.2071 21.9624 17.213 21.649 17.213C21.1748 17.213 20.7449 17.15 20.3593 17.0239C19.9735 16.8979 19.644 16.707 19.3708 16.4509C19.0976 16.1949 18.8866 15.876 18.738 15.4939C18.5893 15.1119 18.5149 14.6649 18.5149 14.1529C18.5149 13.696 18.5953 13.2766 18.7561 12.8945C18.9168 12.5125 19.1417 12.1876 19.431 11.9198C19.7203 11.652 20.0619 11.4432 20.4556 11.2936C20.8494 11.1439 21.2754 11.0691 21.7334 11.0691C22.1593 11.0691 22.5249 11.1163 22.8303 11.2109C23.1357 11.3054 23.445 11.455 23.7584 11.6598V8.46973H24.6263ZM23.7584 12.5224C23.4772 12.2939 23.1819 12.1167 22.8724 11.9907C22.5631 11.8647 22.2155 11.8016 21.8298 11.8016C21.5004 11.8016 21.189 11.8509 20.8956 11.9494C20.6023 12.0478 20.3451 12.1955 20.1242 12.3924C19.9032 12.5894 19.7284 12.8335 19.5998 13.1249C19.4712 13.4164 19.4069 13.7551 19.4069 14.141C19.4069 14.5427 19.4692 14.8894 19.5938 15.1808C19.7184 15.4723 19.8931 15.7125 20.1181 15.9015C20.3432 16.0906 20.6063 16.2304 20.9077 16.3209C21.209 16.4115 21.5405 16.4568 21.9021 16.4568C22.2637 16.4568 22.5852 16.4411 22.8664 16.4096C23.1477 16.378 23.445 16.319 23.7584 16.2324V12.5224ZM26.7117 14.3301C26.7358 14.7003 26.8181 15.0213 26.9588 15.2931C27.0994 15.5648 27.2842 15.7873 27.5133 15.9606C27.7423 16.1339 28.0035 16.2619 28.2968 16.3446C28.5901 16.4273 28.9015 16.4686 29.231 16.4686C29.6488 16.4686 30.0265 16.4352 30.3641 16.3683C30.7016 16.3013 31.023 16.189 31.3284 16.0315L31.5815 16.7759C31.2118 16.9413 30.8462 17.0555 30.4846 17.1185C30.123 17.1815 29.689 17.213 29.1828 17.213C28.6444 17.213 28.1662 17.1421 27.7483 17.0003C27.3305 16.8585 26.9809 16.6538 26.6996 16.386C26.4183 16.1182 26.2034 15.7952 26.0548 15.4171C25.9061 15.039 25.8317 14.6176 25.8317 14.1529C25.8317 13.696 25.9141 13.2766 26.0789 12.8945C26.2436 12.5125 26.4726 12.1876 26.766 11.9198C27.0592 11.652 27.4048 11.4432 27.8025 11.2936C28.2003 11.1439 28.6323 11.0691 29.0984 11.0691C29.5725 11.0691 29.9824 11.1301 30.3279 11.2522C30.6734 11.3743 30.9608 11.5417 31.1897 11.7544C31.4188 11.9671 31.5895 12.221 31.7021 12.5165C31.8145 12.8119 31.8708 13.1367 31.8708 13.4912C31.8708 13.6488 31.8648 13.7925 31.8527 13.9225C31.8406 14.0525 31.8145 14.1883 31.7744 14.3301H26.7117ZM31.0391 13.6094C31.0391 12.9556 30.8763 12.4908 30.5509 12.2151C30.2255 11.9395 29.7091 11.8016 29.0019 11.8016C28.7287 11.8016 28.4636 11.841 28.2064 11.9198C27.9492 11.9985 27.7162 12.1127 27.5072 12.2624C27.2983 12.4121 27.1235 12.6012 26.9829 12.8296C26.8423 13.058 26.7559 13.3179 26.7237 13.6094H31.0391ZM37.5001 8.46973V11.6717C37.8616 11.4511 38.2193 11.2955 38.5729 11.205C38.9264 11.1144 39.3282 11.0691 39.7782 11.0691C40.7265 11.0691 41.4598 11.3153 41.9781 11.8075C42.4964 12.2998 42.7556 13.0422 42.7556 14.0347C42.7556 14.5231 42.6671 14.9622 42.4904 15.3521C42.3136 15.742 42.0665 16.0748 41.7491 16.3505C41.4316 16.6262 41.0559 16.8389 40.622 16.9885C40.188 17.1382 39.714 17.213 39.1996 17.213C38.9264 17.213 38.6773 17.2032 38.4523 17.1835C38.2273 17.1638 38.0123 17.1303 37.8074 17.0831C37.6025 17.0358 37.4056 16.9748 37.2168 16.9C37.0279 16.8251 36.833 16.7365 36.6322 16.6341V8.46973H37.5001ZM37.5001 16.1024C37.6446 16.1733 37.7833 16.2304 37.9159 16.2737C38.0485 16.3171 38.1811 16.3525 38.3137 16.3801C38.4463 16.4077 38.5849 16.4273 38.7296 16.4391C38.8742 16.4509 39.0349 16.4568 39.2117 16.4568C39.6055 16.4568 39.967 16.4017 40.2965 16.2914C40.626 16.1812 40.9073 16.0236 41.1403 15.8189C41.3734 15.6141 41.5542 15.36 41.6828 15.0567C41.8114 14.7535 41.8756 14.4089 41.8756 14.0229C41.8756 13.2825 41.6888 12.7252 41.3151 12.351C40.9415 11.9769 40.393 11.7898 39.6697 11.7898C39.2358 11.7898 38.8461 11.8449 38.5005 11.9553C38.155 12.0655 37.8215 12.2309 37.5001 12.4515V16.1024ZM44.5155 11.1872L46.9745 16.1969H47.0468L49.0357 11.1872H50L47.0347 18.2646C46.874 18.6506 46.6249 18.9479 46.2874 19.1566C45.9499 19.3654 45.5883 19.4697 45.2025 19.4697C44.9775 19.4697 44.7485 19.4265 44.5155 19.3398L44.6601 18.6427C44.8047 18.682 44.9695 18.7018 45.1543 18.7018C45.4597 18.7018 45.7128 18.6308 45.9137 18.4891C46.1147 18.3473 46.2713 18.111 46.3838 17.7802L46.5887 17.2012L43.5391 11.1872H44.5155Z" clip-rule="evenodd"/></svg>