<svg width="33" height="11" viewBox="0 0 33 11" fill="none" xmlns="http://www.w3.org/2000/svg">
<path fill-rule="evenodd" clip-rule="evenodd" d="M11.5742 9.98882L13.2374 0.321594H15.8973L14.233 9.98882H11.5742Z" fill="#004F8B"/>
<path fill-rule="evenodd" clip-rule="evenodd" d="M23.8798 0.559551C23.3529 0.363625 22.5272 0.153625 21.4958 0.153625C18.8677 0.153625 17.0161 1.46474 17.0004 3.34381C16.9857 4.73288 18.3222 5.50788 19.3311 5.97029C20.3664 6.444 20.7146 6.74622 20.7096 7.16937C20.7031 7.81733 19.8828 8.11344 19.1182 8.11344C18.0536 8.11344 17.4881 7.96696 16.6146 7.60603L16.2717 7.45233L15.8984 9.6164C16.5198 9.88622 17.6687 10.1201 18.8614 10.1321C21.6575 10.1321 23.4725 8.83603 23.4933 6.82937C23.5034 5.72974 22.7945 4.8927 21.2601 4.20288C20.3303 3.75566 19.7609 3.45714 19.7669 3.00437C19.7669 2.60251 20.2488 2.17288 21.2902 2.17288C22.16 2.15955 22.79 2.34733 23.2809 2.54326L23.5192 2.65474L23.8798 0.559551Z" fill="#004F8B"/>
<path fill-rule="evenodd" clip-rule="evenodd" d="M30.7013 0.330872H28.6459C28.0092 0.330872 27.5327 0.502909 27.2531 1.13254L23.3027 9.99198H26.0959C26.0959 9.99198 26.5526 8.80069 26.656 8.5392C26.9613 8.5392 29.6744 8.54328 30.0623 8.54328C30.142 8.88161 30.3861 9.99198 30.3861 9.99198H32.8542L30.7013 0.330872ZM27.4215 6.5618C27.6413 6.00476 28.4812 3.85939 28.4812 3.85939C28.4653 3.88513 28.6996 3.29976 28.8338 2.9368L29.0136 3.77032C29.0136 3.77032 29.523 6.07791 29.6294 6.5618H27.4215Z" fill="#004F8B"/>
<path fill-rule="evenodd" clip-rule="evenodd" d="M9.3429 0.328613L6.7387 6.92102L6.46128 5.58121C5.97656 4.03676 4.46612 2.36361 2.77734 1.52602L5.15853 9.98046L7.97284 9.97732L12.1604 0.328613H9.3429Z" fill="#004F8B"/>
<path fill-rule="evenodd" clip-rule="evenodd" d="M4.32307 0.322693H0.0340223L0 0.523804C3.33699 1.32399 5.54488 3.25769 6.46143 5.58121L5.52881 1.1388C5.36767 0.526582 4.9007 0.343989 4.32307 0.322693Z" fill="#ED9F2D"/>
</svg>
