<svg width="199" height="78" fill="none" xmlns="http://www.w3.org/2000/svg"><path d="M.921 21.788h57.12v54.356H.922V21.788z" fill="#F4412D"/><path d="M43.544 59.084a1.652 1.652 0 012.33.075 1.64 1.64 0 01-.075 2.322l-2.486 2.324a1.646 1.646 0 01-1.128.444c-.44 0-.878-.174-1.202-.519a1.64 1.64 0 01.075-2.323l2.486-2.323zm.545 7.37l4.637-4.334a1.652 1.652 0 012.33.075 1.64 1.64 0 01-.075 2.323l-4.637 4.334a1.646 1.646 0 01-1.127.444c-.44 0-.878-.174-1.203-.52a1.64 1.64 0 01.075-2.322z" fill="#fff"/><path d="M58.417 20.241h-11.07v-2.854c0-9.34-7.599-16.943-16.942-16.943-9.34 0-16.943 7.6-16.943 16.943v2.85H2.392A2.396 2.396 0 000 22.63v52.807a2.396 2.396 0 002.393 2.393h56.02a2.396 2.396 0 002.393-2.393V22.634a2.39 2.39 0 00-2.39-2.393zM17.326 31.054v-7.87h26.15v7.87c0 2.25 3.864 2.25 3.864 0v-7.87h10.52v51.707H2.945V23.184h10.516v7.87c0 2.315 3.864 2.32 3.864 0zM30.405 3.391c8.544 0 13.075 7.294 13.075 13.996v2.85H17.33v-2.85c0-6.702 4.53-13.996 13.075-13.996z" fill="#000"/><path d="M23.954 21.788h57.12v54.356h-57.12V21.788z" fill="#F4412D"/><path d="M66.576 59.084a1.652 1.652 0 012.33.075 1.64 1.64 0 01-.075 2.322l-2.486 2.324a1.646 1.646 0 01-1.127.444c-.44 0-.878-.174-1.203-.519a1.64 1.64 0 01.075-2.323l2.486-2.323zm.545 7.37l4.637-4.334a1.652 1.652 0 012.33.075 1.64 1.64 0 01-.075 2.323l-4.637 4.334a1.646 1.646 0 01-1.127.444c-.44 0-.878-.174-1.203-.52a1.64 1.64 0 01.075-2.322z" fill="#fff"/><path d="M81.449 20.241h-11.07v-2.854C70.38 8.047 62.78.444 53.438.444c-9.34 0-16.943 7.6-16.943 16.943v2.85h-11.07a2.396 2.396 0 00-2.393 2.393v52.807a2.396 2.396 0 002.393 2.393h56.02a2.396 2.396 0 002.393-2.393V22.634a2.39 2.39 0 00-2.389-2.393zm-41.09 10.813v-7.87h26.15v7.87c0 2.25 3.863 2.25 3.863 0v-7.87h10.52v51.707H25.979V23.184h10.515v7.87c0 2.315 3.864 2.32 3.864 0zM53.436 3.391c8.544 0 13.075 7.294 13.075 13.996v2.85h-26.15v-2.85c0-6.702 4.53-13.996 13.075-13.996z" fill="#000"/><path d="M46.986 21.788h57.12v54.356h-57.12V21.788z" fill="#F4412D"/><path d="M89.609 59.084a1.652 1.652 0 012.33.075 1.64 1.64 0 01-.075 2.322l-2.487 2.324a1.646 1.646 0 01-1.127.444c-.44 0-.878-.174-1.202-.519a1.64 1.64 0 01.075-2.323l2.486-2.323zm.545 7.37l4.637-4.334a1.652 1.652 0 012.33.075 1.64 1.64 0 01-.076 2.323l-4.636 4.334a1.646 1.646 0 01-1.127.444c-.44 0-.879-.174-1.203-.52a1.64 1.64 0 01.075-2.322z" fill="#fff"/><path d="M104.481 20.241H93.412v-2.854c0-9.34-7.6-16.943-16.943-16.943-9.34 0-16.942 7.6-16.942 16.943v2.85h-11.07a2.396 2.396 0 00-2.392 2.393v52.807a2.396 2.396 0 002.393 2.393h56.02a2.395 2.395 0 002.392-2.393V22.634a2.39 2.39 0 00-2.389-2.393zm-41.09 10.813v-7.87h26.15v7.87c0 2.25 3.864 2.25 3.864 0v-7.87h10.519v51.707H49.011V23.184h10.516v7.87c0 2.315 3.864 2.32 3.864 0zM76.469 3.391c8.545 0 13.076 7.294 13.076 13.996v2.85h-26.15v-2.85c0-6.702 4.53-13.996 13.074-13.996z" fill="#000"/><path d="M70.019 21.788h57.12v54.356h-57.12V21.788z" fill="#F4412D"/><path d="M112.641 59.084a1.652 1.652 0 012.33.075 1.64 1.64 0 01-.075 2.322l-2.486 2.324a1.646 1.646 0 01-1.127.444c-.44 0-.879-.174-1.203-.519a1.64 1.64 0 01.075-2.323l2.486-2.323zm.545 7.37l4.637-4.334a1.652 1.652 0 012.33.075 1.64 1.64 0 01-.075 2.323l-4.637 4.334a1.646 1.646 0 01-1.127.444c-.44 0-.878-.174-1.203-.52a1.64 1.64 0 01.075-2.322z" fill="#fff"/><path d="M127.514 20.241h-11.069v-2.854c0-9.34-7.6-16.943-16.943-16.943-9.34 0-16.943 7.6-16.943 16.943v2.85H71.49a2.396 2.396 0 00-2.392 2.393v52.807a2.396 2.396 0 002.393 2.393h56.02a2.396 2.396 0 002.393-2.393V22.634a2.39 2.39 0 00-2.389-2.393zm-41.09 10.813v-7.87h26.149v7.87c0 2.25 3.864 2.25 3.864 0v-7.87h10.519v51.707H72.044V23.184h10.515v7.87c0 2.315 3.864 2.32 3.864 0zM99.501 3.391c8.544 0 13.075 7.294 13.075 13.996v2.85h-26.15v-2.85c0-6.702 4.53-13.996 13.075-13.996z" fill="#000"/><path d="M93.05 21.788h57.121v54.356h-57.12V21.788z" fill="#F4412D"/><path d="M135.674 59.084a1.65 1.65 0 012.329.075 1.64 1.64 0 01-.075 2.322l-2.486 2.324a1.646 1.646 0 01-1.127.444 1.641 1.641 0 01-1.128-2.842l2.487-2.323zm.545 7.37l4.636-4.334a1.652 1.652 0 012.33.075 1.64 1.64 0 01-.075 2.323l-4.637 4.334a1.646 1.646 0 01-1.127.444 1.644 1.644 0 01-1.127-2.842z" fill="#fff"/><path d="M150.546 20.241h-11.069v-2.854c0-9.34-7.599-16.943-16.943-16.943-9.34 0-16.943 7.6-16.943 16.943v2.85H94.522a2.396 2.396 0 00-2.392 2.393v52.807a2.396 2.396 0 002.392 2.393h56.021a2.395 2.395 0 002.392-2.393V22.634a2.39 2.39 0 00-2.389-2.393zm-41.091 10.813v-7.87h26.151v7.87c0 2.25 3.864 2.25 3.864 0v-7.87h10.519v51.707H95.076V23.184h10.515v7.87c0 2.315 3.864 2.32 3.864 0zm13.079-27.663c8.544 0 13.075 7.294 13.075 13.996v2.85h-26.15v-2.85c0-6.702 4.531-13.996 13.075-13.996z" fill="#000"/><path d="M116.083 21.788h57.121v54.356h-57.121V21.788z" fill="#F4412D"/><path d="M158.706 59.084a1.652 1.652 0 012.33.075 1.64 1.64 0 01-.075 2.322l-2.486 2.324a1.646 1.646 0 01-1.127.444c-.44 0-.879-.174-1.203-.519a1.64 1.64 0 01.075-2.323l2.486-2.323zm.545 7.37l4.637-4.334a1.652 1.652 0 012.33.075 1.64 1.64 0 01-.075 2.323l-4.637 4.334a1.646 1.646 0 01-1.127.444c-.44 0-.878-.174-1.203-.52a1.64 1.64 0 01.075-2.322z" fill="#fff"/><path d="M173.579 20.241h-11.07v-2.854c0-9.34-7.599-16.943-16.942-16.943-9.34 0-16.943 7.6-16.943 16.943v2.85h-11.069a2.396 2.396 0 00-2.393 2.393v52.807a2.396 2.396 0 002.393 2.393h56.02a2.396 2.396 0 002.393-2.393V22.634a2.39 2.39 0 00-2.389-2.393zm-41.091 10.813v-7.87h26.15v7.87c0 2.25 3.864 2.25 3.864 0v-7.87h10.519v51.707h-54.913V23.184h10.516v7.87c0 2.315 3.864 2.32 3.864 0zm13.079-27.663c8.544 0 13.075 7.294 13.075 13.996v2.85h-26.15v-2.85c0-6.702 4.53-13.996 13.075-13.996z" fill="#000"/><path d="M139.116 21.788h57.12v54.356h-57.12V21.788z" fill="#F4412D"/><path d="M180.03 54.608a2.214 2.214 0 013.123.1 2.198 2.198 0 01-.101 3.114l-3.332 3.114a2.205 2.205 0 01-1.51.596c-.59 0-1.178-.234-1.613-.696a2.198 2.198 0 01.101-3.113l3.332-3.115zm.731 9.879l6.215-5.81a2.213 2.213 0 013.122.101c.835.888.79 2.281-.1 3.114l-6.215 5.808a2.205 2.205 0 01-1.511.596 2.206 2.206 0 01-1.612-.696 2.198 2.198 0 01.101-3.113z" fill="#fff"/><path d="M196.611 20.241h-11.069v-2.854c0-9.34-7.6-16.943-16.943-16.943-9.34 0-16.943 7.6-16.943 16.943v2.85h-11.069a2.396 2.396 0 00-2.393 2.393v52.807a2.396 2.396 0 002.393 2.393h56.02A2.396 2.396 0 00199 75.437V22.634a2.39 2.39 0 00-2.389-2.393zM155.52 31.054v-7.87h26.15v7.87c0 2.25 3.864 2.25 3.864 0v-7.87h10.52v51.707h-54.913V23.184h10.515v7.87c0 2.315 3.864 2.32 3.864 0zm13.079-27.663c8.544 0 13.075 7.294 13.075 13.996v2.85h-26.15v-2.85c0-6.702 4.531-13.996 13.075-13.996z" fill="#000"/></svg>