<svg width="118" height="66" fill="none" xmlns="http://www.w3.org/2000/svg"><path d="M9 4h100v55.586H9V4z" fill="#F4412D"/><path d="M23.598 10.482a1.793 1.793 0 012.529.082 1.78 1.78 0 01-.081 2.521l-5.033 4.704a1.787 1.787 0 01-1.224.483c-.477 0-.953-.19-1.305-.564a1.78 1.78 0 01.081-2.521l5.033-4.704zm1.899 6.592l2.7-2.522a1.793 1.793 0 012.528.081 1.78 1.78 0 01-.082 2.521l-2.698 2.523a1.786 1.786 0 01-1.223.482c-.478 0-.954-.19-1.306-.564a1.78 1.78 0 01.081-2.52zm63.767 23.409a1.793 1.793 0 012.529.08 1.78 1.78 0 01-.082 2.522l-2.698 2.522a1.787 1.787 0 01-1.224.483c-.477 0-.953-.19-1.305-.564a1.78 1.78 0 01.081-2.521l2.699-2.523zm.591 8l5.033-4.705a1.793 1.793 0 012.53.082 1.78 1.78 0 01-.082 2.52l-5.033 4.705a1.787 1.787 0 01-1.224.482c-.477 0-.953-.189-1.305-.563a1.78 1.78 0 01.081-2.521z" fill="#fff"/><path d="M46.99 34.637l1.772 1.194c.096 1.002.24 2.1.67 3.007.096.286.575.811.767 1.05.287.382.527.62.814.955l.91.907c.287.286.622.62.91.86.718.572 1.101.906 1.963 1.574 1.341 1.003 2.922 1.862 4.454 2.77 1.389.858.958.858 2.299.047 2.298-1.384 3.304-1.957 5.46-3.533.717-.525 2.202-1.91 2.873-2.578.43-.43 1.292-1.431 1.58-1.957.67-1.145.718-1.288.718-2.912V25.233c-1.15-.525-2.25-1.05-3.448-1.528-4.023-1.432-8.572-2.1-12.739-1.05l.527-1.957c.719-.096 1.676-.287 2.395-.287.287 0 .335-.047.622-.047 2.203-.048 2.251 0 4.406.286l2.203.43c.718.19 1.437.334 2.107.573 1.58.477 2.395.764 3.927 1.432l1.82.811v12.746c0 1.146-.287 1.575-.67 2.482-.096.287-.67 1.05-.862 1.29-.144.19-.336.381-.48.572a2.735 2.735 0 01-.526.525c-.192.191-.288.334-.479.573-1.293 1.241-1.916 1.766-3.4 2.96-.335.238-1.485 1.098-1.82 1.336a4.378 4.378 0 01-.623.382 109.46 109.46 0 01-3.974 2.387c-.862.525-.384.573-2.682-.764-.814-.477-1.868-1.098-2.634-1.623-1.006-.668-1.389-.907-2.49-1.718-.91-.716-1.772-1.432-2.634-2.148-.48-.43-1.916-2.005-2.3-2.483a4.83 4.83 0 01-.43-.62c-1.197-1.814-1.006-2.912-1.006-5.156z" fill="#101010"/><path fill-rule="evenodd" clip-rule="evenodd" d="M46.49 33.698l2.747 1.85.023.235c.096 1.005.235 2.022.624 2.84l.013.028.01.029s0 .003.004.01a1.25 1.25 0 00.072.125c.05.076.115.163.189.256a12.586 12.586 0 00.261.317c.057.068.113.134.156.188l.005.006.004.006c.183.243.335.412.508.606.084.093.173.192.273.308l.897.894c.29.29.607.605.872.826.282.224.508.409.729.589.354.289.694.566 1.222.976 1.032.77 2.204 1.453 3.414 2.156.328.191.66.384.992.58l.008.005c.179.11.328.207.453.289l.053.034c.101.066.18.118.25.16.088.055.137.079.159.088.02-.009.063-.028.136-.072.07-.042.152-.094.26-.163l.03-.018c.12-.077.263-.168.436-.273l.656-.394c1.855-1.114 2.847-1.71 4.767-3.114.685-.5 2.146-1.86 2.816-2.528.2-.2.513-.546.81-.907.305-.369.565-.72.684-.936l.004-.007.003-.006c.342-.584.482-.845.558-1.146.077-.31.092-.687.092-1.513V25.554l-.377-.174c-.913-.42-1.799-.828-2.747-1.206-3.964-1.41-8.405-2.05-12.44-1.034l-.827.209.835-3.102.33-.044c.173-.023.372-.054.584-.087.601-.093 1.314-.204 1.877-.204.108 0 .165-.008.24-.019.092-.013.201-.029.377-.029 2-.043 2.273-.006 3.862.208l.615.083.015.002 2.234.436.017.004c.2.053.41.105.624.157.501.123 1.025.252 1.51.424 1.589.48 2.422.773 3.971 1.449l.004.002 2.116.943v13.07c0 1.072-.243 1.62-.541 2.29a22.73 22.73 0 00-.163.373c-.044.123-.12.257-.188.368a7.645 7.645 0 01-.264.4c-.183.262-.378.518-.482.648a5.661 5.661 0 01-.252.302l-.006.007c-.087.098-.157.18-.216.257l-.005.006-.004.006c-.209.26-.33.382-.583.585a3.227 3.227 0 00-.267.315c-.043.055-.093.12-.156.198l-.02.026-.024.022c-1.307 1.254-1.941 1.79-3.433 2.989l-.011.009-.012.008c-.163.116-.53.387-.903.663l-.007.006c-.363.268-.732.541-.905.665-.21.155-.461.307-.67.413a110.171 110.171 0 01-3.968 2.382 6.96 6.96 0 00-.226.145l-.02.014c-.07.046-.155.102-.24.146a.935.935 0 01-.344.104.942.942 0 01-.381-.048c-.203-.066-.438-.204-.715-.37l-.243-.146c-.263-.16-.59-.358-1.019-.607l-.001-.001c-.81-.475-1.878-1.103-2.66-1.64l-.419-.277a41.287 41.287 0 01-2.089-1.453l-.006-.005-.007-.005c-.915-.72-1.781-1.44-2.642-2.155l-.01-.008-.006-.006c-.506-.453-1.961-2.05-2.355-2.541a5.322 5.322 0 01-.464-.667c-.633-.962-.913-1.759-1.025-2.62-.08-.619-.073-1.28-.064-2.03.003-.247.006-.504.006-.773v-.94zm1.506 6.095c.144.239.24.382.43.62.384.478 1.82 2.053 2.3 2.483a127.19 127.19 0 002.633 2.148c.934.688 1.351.964 2.069 1.439l.422.28c.766.525 1.82 1.145 2.634 1.623 1.478.86 1.808 1.146 2.084 1.102.153-.025.29-.151.598-.339a109.175 109.175 0 003.974-2.386c.192-.096.431-.24.623-.382.168-.12.539-.394.91-.669.371-.274.742-.549.91-.668 1.484-1.193 2.107-1.718 3.4-2.96.051-.064.096-.12.137-.174.113-.144.202-.259.342-.398.24-.191.335-.287.527-.526.072-.095.155-.19.24-.286a5.01 5.01 0 00.239-.287c.191-.238.766-1.002.862-1.288.061-.146.12-.28.176-.405.291-.659.494-1.116.494-2.078V23.897l-1.82-.812c-1.532-.668-2.346-.955-3.927-1.432a14.9 14.9 0 00-1.445-.406c-.22-.054-.44-.108-.662-.167l-2.203-.43-.623-.083c-1.567-.212-1.815-.245-3.783-.203a1.93 1.93 0 00-.311.024 1.93 1.93 0 01-.311.024c-.521 0-1.168.1-1.758.192-.224.035-.44.068-.637.094l-.527 1.957c.184-.046.368-.089.553-.128 4.014-.861 8.34-.19 12.186 1.179.966.385 1.869.8 2.785 1.223.22.1.44.203.663.304v10.789c0 1.623-.048 1.766-.718 2.912-.288.525-1.15 1.527-1.58 1.957-.671.668-2.156 2.053-2.874 2.578-1.939 1.417-2.947 2.023-4.804 3.138l-.655.394c-.661.4-.892.603-1.122.603-.237 0-.473-.215-1.177-.65-.324-.192-.65-.381-.974-.57-1.215-.707-2.422-1.408-3.48-2.2a56.023 56.023 0 01-1.243-.992c-.221-.18-.447-.364-.72-.583a14.374 14.374 0 01-.91-.859l-.91-.907a18.873 18.873 0 00-.263-.298 9.367 9.367 0 01-.551-.657 10.61 10.61 0 00-.146-.175c-.224-.266-.544-.646-.62-.875-.431-.907-.575-2.005-.67-3.007l-1.773-1.194a56.794 56.794 0 01-.006.81c-.02 1.727-.032 2.764 1.012 4.346z" fill="#000"/><path d="M48.758 35.051l-.835-.58-.836-.58c-.836-.537-1.056-.626-1.803-1.296-.176-.134-.264-.268-.396-.446-.748-.938-1.011-1.117-.836-2.1.044-.178.132-.401.176-.58.22-.357.264-.759.44-1.16l.572-1.34c.044-.09.088-.134.132-.268.088-.179.176-.313.264-.492.571-1.205.483-.893 1.143-1.92.352-.536 2.2-2.813 2.727-3.394a3.23 3.23 0 01.352-.401c.088-.09.132-.09.176-.18l.527-.624c.792-.983.924-1.117 1.627-2.233.396-.625 1.452-2.322 1.936-2.724.307-.268.571-.447.967-.536.352-.09.924-.134 1.32-.178.527-.045.835 0 1.363.044 1.32.134 2.419.223 3.43 1.117.528.49.836 1.473.836 2.232 0 .358.132 1.072-.088 1.295-.44.313-2.287.536-2.507.58-.396.046-2.463.358-2.639.269-.22-.09-.22-.134-.307-.313l-.572-1.384c-.044-.134-.176-.491-.308-.402-.132.134-.132.268-.088.447.044.401.264.937.352 1.25.264.982.044 1.741 0 1.83l-.924 3.395c-.176.49-.66 2.054-.88 2.634a2.688 2.688 0 01-.263.491c-.528.894-1.452 2.278-1.276 3.439.176 1.072.968 1.608 1.76 1.92.351.179 1.363.357 1.759.402 0 0-1.715-.58-2.463-1.25-1.583-1.474 1.32-5.136 1.32-5.136.395-.536 1.495-.58 1.802-.536 2.155.358 3.21 2.412 3.255 2.59 0 0 1.847-2.232 6.509-2.232 1.407 0 3.254.893 3.518 1.027v8.038c0 .938-.22 1.384-.616 2.01-.791 1.294-2.067 2.59-3.166 3.482-.22.18-.352.313-.704.626-.44.312-1.055.893-1.495 1.116l-2.023-4.42c-1.32.401-.968.356-2.2.535-1.055.134-2.286.09-3.341-.179-.396-.089-.88-.223-1.32-.357-3.65-1.16-6.377-3.528-6.377-3.528z" fill="#fff"/><path d="M6.87 59.588V5.536C6.87 2.483 9.36 0 12.42 0h93.161c3.061 0 5.551 2.483 5.551 5.536v54.052h-3.947V4.13H10.818v55.46H6.87zm60.893 1.467a1.6 1.6 0 01-1.567 1.278h-14.39a1.6 1.6 0 01-1.567-1.278H0v1.328A3.62 3.62 0 003.625 66h110.75A3.62 3.62 0 00118 62.383v-1.328H67.763z" fill="#101010"/></svg>