<svg width="339" height="392" fill="none" xmlns="http://www.w3.org/2000/svg"><g opacity=".1" fill="#000"><path d="M142.417 285.374l4.106 2.765c.222 2.323.555 4.867 1.553 6.968.222.664 1.332 1.88 1.776 2.433.666.885 1.22 1.438 1.886 2.213l2.108 2.101c.666.664 1.443 1.438 2.109 1.991 1.664 1.327 2.552 2.102 4.549 3.65 3.107 2.323 6.769 4.314 10.32 6.415 3.218 1.991 2.219 1.991 5.326.111 5.326-3.208 7.656-4.535 12.649-8.185 1.665-1.217 5.105-4.424 6.658-5.973.999-.995 2.996-3.318 3.662-4.535 1.553-2.654 1.664-2.986 1.664-6.747v-24.997c-2.663-1.217-5.215-2.433-7.989-3.539-9.321-3.319-19.862-4.867-29.516-2.434l1.221-4.535c1.664-.221 3.883-.663 5.548-.663.666 0 .777-.111 1.442-.111 5.105-.111 5.216 0 10.209.664l5.104.995c1.665.443 3.329.774 4.883 1.327 3.661 1.107 5.548 1.77 9.098 3.319l4.217 1.88v29.532c0 2.655-.666 3.65-1.554 5.752-.221.663-1.553 2.433-1.997 2.986-.333.443-.777.885-1.109 1.327-.444.553-.666.775-1.221 1.217-.444.443-.666.774-1.11 1.327-2.996 2.876-4.438 4.093-7.878 6.858-.777.553-3.44 2.544-4.217 3.097-.443.332-.998.664-1.442.885-2.774 1.77-6.325 3.871-9.21 5.53-1.997 1.217-.888 1.328-6.214-1.769-1.886-1.106-4.327-2.544-6.103-3.761-2.33-1.549-3.218-2.102-5.77-3.982-2.108-1.659-4.105-3.318-6.103-4.977-1.109-.996-4.438-4.646-5.326-5.752a11.108 11.108 0 01-.998-1.438c-2.775-4.203-2.331-6.747-2.331-11.945z"/><path d="M146.634 288.25l-2.109-1.438-2.108-1.438c-2.108-1.327-2.663-1.548-4.549-3.208-.444-.331-.666-.663-.999-1.106-1.886-2.322-2.552-2.765-2.108-5.198.111-.443.333-.996.444-1.438.554-.885.665-1.88 1.109-2.876l1.443-3.318c.111-.221.222-.332.333-.664.222-.442.444-.774.665-1.216 1.443-2.987 1.221-2.213 2.885-4.757.888-1.327 5.549-6.968 6.88-8.406.333-.442.555-.663.888-.995.222-.221.333-.221.444-.443l1.331-1.548c1.998-2.434 2.33-2.765 4.106-5.531.998-1.548 3.662-5.751 4.882-6.747.777-.663 1.443-1.106 2.441-1.327.888-.221 2.331-.332 3.329-.442 1.332-.111 2.108 0 3.44.11 3.329.332 6.103.553 8.655 2.765 1.332 1.217 2.108 3.651 2.108 5.531 0 .885.333 2.654-.222 3.208-1.109.774-5.77 1.327-6.324 1.437-.999.111-6.214.885-6.658.664-.555-.221-.555-.332-.777-.774l-1.442-3.429c-.111-.332-.444-1.217-.777-.996-.333.332-.333.664-.222 1.107.111.995.666 2.322.888 3.097.665 2.433.111 4.313 0 4.534l-2.331 8.407c-.443 1.216-1.664 5.088-2.219 6.525-.111.332-.444.885-.666 1.217-1.331 2.212-3.661 5.641-3.217 8.517.443 2.655 2.441 3.982 4.438 4.756.888.442 3.44.885 4.438.996 0 0-4.327-1.438-6.213-3.097-3.995-3.651 3.328-12.72 3.328-12.72.999-1.328 3.773-1.438 4.55-1.328 5.437.885 8.1 5.973 8.211 6.416 0 0 4.661-5.531 16.423-5.531 3.55 0 8.211 2.212 8.876 2.544v19.91c0 2.322-.554 3.428-1.553 4.977-1.997 3.207-5.215 6.415-7.989 8.627-.555.443-.888.775-1.776 1.549-1.109.774-2.663 2.212-3.772 2.765l-5.105-10.95c-3.328.995-2.441.885-5.548 1.327-2.663.332-5.77.221-8.433-.442a50.815 50.815 0 01-3.329-.885c-9.21-2.876-16.089-8.738-16.089-8.738z"/></g><path opacity=".15" d="M143.887 85.74l1.188 1.44-1.584 9-1.692 1.44h-3.78l2.088-11.88h3.78zm-9.36 0l-2.088 11.88h-3.78l-1.188-1.44 1.584-9 1.692-1.44h3.78zm-5.328-4.86l-5.436 4.608-2.196 12.384 3.816 4.608h6.192l-.612 3.42h5.58l.612-3.42h6.192l5.4-4.608 2.196-12.384-3.78-4.608h-6.192l.648-3.78h-5.58l-.648 3.78h-6.192zm31.787-1.44l-5.832 4.536-2.88 16.488 4.212 4.536h10.692l5.796-4.536 2.88-16.488-4.176-4.536h-10.692zm8.928 6.732l-2.16 12.096-1.908 1.512h-6.228l-1.404-1.512 2.16-12.096 1.908-1.512h6.228l1.404 1.512zm20.602-1.512h7.02l.936-5.22h-19.62l-.936 5.22h7.02L181.372 105h5.58l3.564-20.34zm15.152-5.22l-5.832 4.536-2.88 16.488 4.212 4.536h10.692l5.796-4.536 2.88-16.488-4.176-4.536h-10.692zm8.928 6.732l-2.16 12.096-1.908 1.512H204.3l-1.404-1.512 2.16-12.096 1.908-1.512h6.228l1.404 1.512zM85.332 124.66h8.46L90.228 145h5.58l4.5-25.56h-19.62l-4.5 25.56h5.58l3.564-20.34zm24.661-5.22l-5.832 4.536-2.88 16.488 4.212 4.536h10.692l5.796-4.536 2.88-16.488-4.176-4.536h-10.692zm8.928 6.732l-2.16 12.096-1.908 1.512h-6.228l-1.404-1.512 2.16-12.096 1.908-1.512h6.228l1.404 1.512zm24.149-1.512l-1.044 6.048h-7.164l-1.08-1.296.612-3.456 1.512-1.296h7.164zm-10.836 11.268l1.368-.612.036.108-1.404.9-3.492 3.636-3.276.972.684 4.788 5.796-1.728 7.704-8.064h1.44L139.506 145h5.58l4.5-25.56h-15.624l-4.716 3.96-1.512 8.568 3.312 3.96h1.188zm33.563-.144l-.468 2.628-1.62 1.368h-7.092l.972-5.472h6.552l1.656 1.476zm-6.516-11.124h6.804l.756.9-.504 2.772-1.116.756h-6.732l.792-4.428zm10.152 7.02l2.16-1.512 1.224-6.84-3.204-3.888h-14.976l-4.5 25.56h15.012l5.4-4.608 1.188-6.624-2.304-2.088zm14.707-12.24h-5.58l-4.5 25.56h5.04l10.8-14.04 1.368-2.376h.144l-.828 2.412L188.136 145h5.58l4.5-25.56h-5.04l-10.836 14.04-1.368 2.376h-.144l.828-2.412 2.484-14.004zm28.98 5.22h7.02l.936-5.22h-19.62l-.936 5.22h7.02L203.976 145h5.58l3.564-20.34zm19.401 15.12h-5.832l-1.188-1.44 2.16-12.24 1.692-1.44h5.58l1.188 1.44-.468 2.7h5.58l.828-4.752-3.78-4.608h-10.404l-5.436 4.608-2.88 16.344 3.816 4.608h10.656l5.688-4.86-3.132-3.816-4.068 3.456zm26.825-15.12l-1.044 6.048h-7.164l-1.08-1.296.612-3.456 1.512-1.296h7.164zm-10.836 11.268l1.368-.612.036.108-1.404.9-3.492 3.636-3.276.972.684 4.788 5.796-1.728 7.704-8.064h1.44L255.782 145h5.58l4.5-25.56h-15.624l-4.716 3.96-1.512 8.568 3.312 3.96h1.188zM117.015 163.66h8.46L121.911 184h5.58l4.5-25.56h-19.62l-4.5 25.56h5.58l3.564-20.34zm24.661-5.22l-5.832 4.536-2.88 16.488 4.212 4.536h10.692l5.796-4.536 2.88-16.488-4.176-4.536h-10.692zm8.928 6.732l-2.16 12.096-1.908 1.512h-6.228l-1.404-1.512 2.16-12.096 1.908-1.512h6.228l1.404 1.512zm15.221-6.732l-5.688 1.764.756 4.932 4.752-1.476h6.444l1.044 1.224-.432 2.448-1.656 1.152h-6.804l-.9 5.22h6.624l1.62 1.476-.396 2.16-1.692 1.44h-6.732l-4.248-1.476-2.484 4.932 5.076 1.764h9.936l5.364-4.572 1.116-6.264-2.304-2.088 2.736-1.908 1.116-6.372-3.564-4.356h-9.684zm23.006 1.008l-5.22-1.728-2.448 5.04 2.916.972 2.988 7.488-5.832 7.488-3.24.972.684 5.04 5.796-1.728 7.272-9.324h1.044l-1.8 10.332h5.58l1.8-10.332h1.044l3.96 9.324 5.22 1.728 2.484-5.04-2.952-.972-3.168-7.488 5.652-7.488 3.276-.972-.72-5.04-5.796 1.728-6.768 9h-1.296l1.764-10.008h-5.58l-1.764 10.008h-1.296l-3.6-9zM213.372 184h17.748l.9-5.22h-12.168l.972-5.508h10.656l.936-5.22H221.76l.756-4.392h12.168l.936-5.22h-17.748l-4.5 25.56z" fill="#101010"/></svg>