<svg width="29" height="17" viewBox="0 0 29 17" fill="none" xmlns="http://www.w3.org/2000/svg">
<path fill-rule="evenodd" clip-rule="evenodd" d="M15.9222 16.1721C15.9222 16.1721 16.4456 16.115 16.7137 15.8324C16.959 15.5735 16.9505 15.0848 16.9505 15.0848C16.9505 15.0848 16.9179 12.8028 17.9973 12.4659C19.0611 12.1345 20.427 14.6726 21.8766 15.6486C22.9716 16.3865 23.8028 16.225 23.8028 16.225L27.6764 16.1721C27.6764 16.1721 29.7019 16.0496 28.7416 14.4861C28.6622 14.358 28.1814 13.3291 25.8623 11.2156C23.4326 9.00324 23.7588 9.36106 26.6835 5.53366C28.465 3.20296 29.1771 1.78004 28.9544 1.17161C28.743 0.589637 27.4324 0.744181 27.4324 0.744181L23.0723 0.770635C23.0723 0.770635 22.7489 0.727474 22.5092 0.868095C22.2752 1.00593 22.1234 1.32755 22.1234 1.32755C22.1234 1.32755 21.4341 3.13056 20.5135 4.66487C18.5718 7.90055 17.7959 8.0718 17.4782 7.87131C16.7392 7.40211 16.9236 5.98893 16.9236 4.98509C16.9236 1.84827 17.4087 0.540907 15.9804 0.202581C15.5066 0.0898055 15.1577 0.0160142 13.945 0.00348356C12.389 -0.0118316 11.0727 0.00905269 10.3267 0.366871C9.83021 0.604952 9.44725 1.13681 9.68128 1.16744C9.96922 1.20503 10.6217 1.34008 10.9678 1.80232C11.4146 2.39961 11.399 3.73899 11.399 3.73899C11.399 3.73899 11.6557 7.43134 10.799 7.88941C10.2118 8.20407 9.40611 7.56222 7.67426 4.62588C6.78777 3.12221 6.11828 1.45982 6.11828 1.45982C6.11828 1.45982 5.98921 1.14934 5.75801 0.982263C5.47859 0.780381 5.08853 0.717728 5.08853 0.717728L0.945412 0.744181C0.945412 0.744181 0.322738 0.760889 0.0943774 1.02682C-0.108453 1.26211 0.0787751 1.75081 0.0787751 1.75081C0.0787751 1.75081 3.32264 9.20094 6.99627 12.9559C10.3649 16.3977 14.1889 16.1721 14.1889 16.1721H15.9222Z" fill="white"/>
</svg>
