<svg xmlns="http://www.w3.org/2000/svg" width="94" height="108" fill="none" viewBox="0 0 94 108"><path fill="#000" d="M2.37327 93.348H10.2842L12.2882 95.7663L10.7588 104.283L7.91089 106.701H0L2.37327 93.348ZM8.54376 96.0817H4.79927L3.37531 104.02H7.1198L8.01637 103.284L9.17663 96.8703L8.54376 96.0817Z"/><path fill="#000" d="M22.8888 93.348L25.1039 95.7137L23.5745 104.388L20.5156 106.754H14.8725L12.6574 104.388L14.1868 95.7137L17.2457 93.348H22.8888ZM21.2012 96.0817H17.9313L16.9293 96.8703L15.8218 103.231L16.5601 104.02H19.83L20.832 103.231L21.9923 96.8703L21.2012 96.0817Z"/><path fill="#E84434" d="M36.5483 101.549L36.0737 104.283H34.7025L34.2806 106.754H31.3271L31.7491 104.283H24.7875L25.2621 101.602L34.2278 93.348H36.6538L35.1771 101.549H36.5483ZM29.2176 101.339L28.4792 101.759L28.532 101.812L29.2176 101.549H32.2237L32.8039 98.2897L33.173 97.6063L33.1203 97.5537L32.5929 98.2371L29.2176 101.339Z"/><path fill="#000" d="M45.514 92.9801L47.6763 106.228L44.7229 107.174L44.2483 104.178H39.9764L38.4997 107.174L35.9154 106.228L42.7188 92.9801H45.514ZM43.4572 98.4475V97.028H43.3517L42.877 98.4475L41.2421 101.602H43.9318L43.4572 98.4475Z"/><path fill="#000" d="M48.5202 104.651L49.4695 103.862H50.9989L51.7373 104.651L51.4736 106.28L50.5243 107.069H48.8894L48.2037 106.28L48.5202 104.651Z"/><path fill="#000" d="M62.2851 102.232L63.92 104.23L60.9139 106.754H55.2708L53.2667 104.335L54.7961 95.7663L57.644 93.348H63.1289L65.133 95.7663L64.7111 98.2371H61.8104L62.0741 96.8177L61.4413 96.0817H58.4879L57.5913 96.8177L56.431 103.231L57.0639 103.967H60.1228L62.2851 102.232Z"/><path fill="#000" d="M75.3118 93.348L77.5268 95.7137L75.9974 104.388L72.9385 106.754H67.2954L65.0803 104.388L66.6098 95.7137L69.6686 93.348H75.3118ZM73.6241 96.0817H70.3543L69.3522 96.8703L68.1919 103.231L68.9303 104.02H72.2001L73.2022 103.231L74.3625 96.8703L73.6241 96.0817Z"/><path fill="#000" d="M85.5959 99.8143L85.7014 100.55H85.7541L86.1233 99.8143L91.239 93.4006H93.9287L91.5554 106.806H88.602L89.8678 99.6565L90.2897 98.3949H90.237L89.4986 99.6565L86.1233 103.967H84.1192L82.2206 99.6565L81.9569 98.3949H81.8514V99.6565L80.5857 106.806H77.6323L80.0055 93.4006H82.6952L85.5959 99.8143Z"/><path fill="#000" d="M19.7256 46.3537L23.5884 48.9554C23.7972 51.1408 24.1105 53.5344 25.0501 55.5117C25.2589 56.1361 26.3029 57.2809 26.7205 57.8012C27.3469 58.6338 27.8689 59.1541 28.4953 59.8826L30.479 61.8599C31.1054 62.4843 31.8362 63.2128 32.4626 63.7331C34.0287 64.9819 34.8639 65.7104 36.7431 67.1674C39.6664 69.3528 43.1117 71.226 46.4525 73.2033C49.4802 75.0766 48.5406 75.0766 51.4638 73.3074C56.4751 70.2894 58.6676 69.0406 63.3657 65.6063C64.9317 64.4616 68.1682 61.4436 69.6298 59.9866C70.5694 59.05 72.4487 56.8646 73.0751 55.7198C74.5367 53.2222 74.6411 52.91 74.6411 49.3717V25.8522C72.1355 24.7074 69.7342 23.5627 67.1242 22.522C58.3544 19.3999 48.4362 17.943 39.3532 20.2325L40.5016 15.9657C42.0676 15.7575 44.1557 15.3413 45.7217 15.3413C46.3481 15.3413 46.4525 15.2372 47.0789 15.2372C51.8814 15.1331 51.9858 15.2372 56.6839 15.8616L61.4864 16.7982C63.0525 17.2145 64.6185 17.5267 66.0801 18.047C69.5254 19.0877 71.3003 19.7121 74.6411 21.1691L78.6084 22.9383V50.7245C78.6084 53.2222 77.982 54.1588 77.1468 56.1361C76.938 56.7605 75.6851 58.4256 75.2675 58.9459C74.9543 59.3622 74.5367 59.7785 74.2235 60.1948C73.8059 60.7151 73.5971 60.9233 73.0751 61.3395C72.6575 61.7558 72.4487 62.068 72.0311 62.5883C69.2122 65.2941 67.855 66.4389 64.6185 69.0406C63.8877 69.5609 61.382 71.4342 60.6512 71.9545C60.2336 72.2667 59.7116 72.5789 59.294 72.7871C56.6839 74.4522 53.3431 76.4295 50.6286 77.9905C48.7494 79.1352 49.7934 79.2393 44.7821 76.3254C43.0073 75.2847 40.7104 73.9318 39.04 72.7871C36.8475 71.3301 36.0123 70.8098 33.6111 69.0406C31.6274 67.4796 29.7482 65.9185 27.8689 64.3575C26.8249 63.4209 23.6928 59.9866 22.8576 58.9459C22.44 58.4256 22.2312 58.1134 21.918 57.5931C19.308 53.6385 19.7256 51.2449 19.7256 46.3537Z"/><path fill="#E84434" d="M23.6928 49.0593L21.7092 47.7065C19.7256 46.3536 19.7256 46.3536 19.7256 46.3536C17.7419 45.1048 17.2199 44.8966 15.4451 43.3356C15.0275 43.0234 14.8186 42.7112 14.5054 42.2949C12.7306 40.1094 12.1042 39.6932 12.5218 37.4037C12.6262 36.9874 12.835 36.4671 12.9394 36.0508C13.4614 35.2182 13.5658 34.2816 13.9834 33.345L15.3407 30.223C15.4451 30.0148 15.5495 29.9108 15.6539 29.5986C15.8627 29.1823 16.0715 28.8701 16.2803 28.4538C17.6375 25.6439 17.4287 26.3724 18.9947 23.9789C19.8299 22.73 24.2148 17.4225 25.4677 16.0697C25.7809 15.6534 25.9897 15.4452 26.3029 15.133C26.5117 14.9249 26.6161 14.9249 26.7205 14.7167L27.9733 13.2598C29.8526 10.9703 30.1658 10.6581 31.8362 8.05637C32.7758 6.59941 35.2815 2.6448 36.4299 1.70818C37.1607 1.08377 37.7871 0.667516 38.7268 0.459379C39.562 0.251242 40.9192 0.14718 41.8588 0.0431118C43.1116 -0.0609566 43.8425 0.0430864 45.0953 0.147155C48.2273 0.45936 50.8374 0.667497 53.2387 2.74887C54.4915 3.89362 55.2223 6.18313 55.2223 7.95229C55.2223 8.78484 55.5355 10.45 55.0135 10.9703C53.9695 11.6988 49.5846 12.2191 49.0626 12.3232C48.123 12.4272 43.216 13.1557 42.7984 12.9476C42.2764 12.7395 42.2764 12.6354 42.0676 12.2191L40.7104 8.99298C40.606 8.68077 40.2928 7.84823 39.9796 8.05637C39.6664 8.36857 39.6664 8.68078 39.7708 9.09705C39.8752 10.0337 40.3972 11.2825 40.606 12.011C41.2324 14.3005 40.7104 16.0696 40.606 16.2778L38.4135 24.187C37.9959 25.3317 36.8475 28.9741 36.3255 30.327C36.2211 30.6392 35.9079 31.1596 35.6991 31.4718C34.4463 33.5531 32.2538 36.7793 32.6714 39.4851C33.089 41.9827 34.9683 43.2315 36.8475 43.96C37.6827 44.3763 40.084 44.7925 41.0236 44.8966C41.0236 44.8966 36.9519 43.5437 35.1771 41.9827C31.4186 38.5484 38.3091 30.0148 38.3091 30.0148C39.2488 28.766 41.8588 28.6619 42.5896 28.766C47.7053 29.5985 50.211 34.3857 50.3154 34.802C50.3154 34.802 54.7003 29.5986 65.7669 29.5986C69.1078 29.5986 73.4927 31.6799 74.1191 31.9921V50.7244C74.1191 52.9099 73.5971 53.9506 72.6575 55.4075C70.7782 58.4255 67.7506 61.4435 65.1405 63.5249C64.6185 63.9412 64.3053 64.2533 63.4701 64.9818C62.4261 65.7103 60.9644 67.0632 59.9204 67.5835L55.1179 57.2808C51.9858 58.2174 52.8211 58.1133 49.8978 58.5296C47.3921 58.8418 44.4689 58.7377 41.9632 58.1133C41.0236 57.9052 39.8752 57.593 38.8312 57.2808C30.1658 54.575 23.6928 49.0593 23.6928 49.0593Z"/></svg>