<svg xmlns="http://www.w3.org/2000/svg" width="97" height="126" fill="none" viewBox="0 0 97 126"><path fill="#000" d="M5.3733 93.348H13.2842L15.2883 95.7663L13.7588 104.283L10.9109 106.701H3.00003L5.3733 93.348ZM11.5438 96.0817H7.7993L6.37534 104.02H10.1198L11.0164 103.284L12.1767 96.8703L11.5438 96.0817Z"/><path fill="#000" d="M6.28082 123.152L6.68697 126L8.32607 125.488L6.87554 115H5.01885L0 125.488L1.46504 126L2.82854 123.152H6.28082ZM5.22193 118.134L5.55555 117.11H5.61357L5.59906 118.134L6.07774 121.57H3.58282L5.22193 118.134Z"/><path fill="#000" d="M14.6391 124.116H11.9991L11.3754 123.333L12.3907 117.366L13.2756 116.582H15.756L16.3797 117.366L16.1621 118.616H17.8302L18.1494 116.748L16.7714 115H12.8114L10.8242 116.748L9.60571 123.951L10.9982 125.699H15.1323L17.0905 123.966L16.1476 122.79L14.6391 124.116Z"/><path fill="#000" d="M23.4426 124.116H20.8026L20.1789 123.333L21.1942 117.366L22.0791 116.582H24.5595L25.1832 117.366L24.9656 118.616H26.6337L26.9529 116.748L25.5749 115H21.6149L19.6277 116.748L18.4092 123.951L19.8017 125.699H23.9358L25.894 123.966L24.9511 122.79L23.4426 124.116Z"/><path fill="#000" d="M27.351 125.699H33.9219L34.183 124.116H29.2802L29.8314 120.907H34.125L34.3861 119.325H30.0925L30.5567 116.582H35.4595L35.7351 115H29.1641L27.351 125.699Z"/><path fill="#000" d="M41.7364 116.582L43.245 117.11L43.9412 115.618L42.2876 115H38.7048L36.7321 116.733L36.413 118.632L36.7031 119.641L41.0402 122.112L41.1417 122.338L40.9676 123.348L40.0973 124.116H37.5734L36.0793 123.544L35.3251 125.066L37.0512 125.699H40.576L42.5342 123.966L42.8823 121.871L42.5197 120.832L38.2116 118.375L38.1681 118.164L38.2987 117.351L39.169 116.582H41.7364Z"/><path fill="#000" d="M49.775 116.582L51.2836 117.11L51.9798 115.618L50.3262 115H46.7434L44.7706 116.733L44.4515 118.632L44.7416 119.641L49.0787 122.112L49.1803 122.338L49.0062 123.348L48.1359 124.116H45.612L44.1179 123.544L43.3636 125.066L45.0898 125.699H48.6146L50.5728 123.966L50.9209 121.871L50.5583 120.832L46.2502 118.375L46.2067 118.164L46.3372 117.351L47.2075 116.582H49.775Z"/><path fill="#000" d="M55.6707 115L53.5385 116.733L52.32 123.966L53.8576 125.699H57.9626L60.0804 123.966L61.2988 116.733L59.7758 115H55.6707ZM59.5292 117.381L58.5138 123.318L57.5564 124.116H54.7859L54.0897 123.333L55.105 117.381L56.0624 116.582H58.8329L59.5292 117.381Z"/><path fill="#000" d="M68.4684 116.582L69.0486 117.29L68.715 119.279L67.8882 119.988H64.5955L65.1757 116.582H68.4684ZM67.395 121.736L67.1049 121.464L67.1484 121.419L67.4531 121.57H68.4104L70.2671 119.942L70.8328 116.627L69.5273 115H63.7832L61.97 125.699H63.6381L64.3344 121.57H65.0597L68.1928 126L69.5998 124.855L67.395 121.736Z"/><path fill="#000" d="M75.5173 125.699L75.7784 124.116H74.3134L75.5899 116.582H77.0549L77.3305 115H72.7323L72.4567 116.582H73.9218L72.6453 124.116H71.1802L70.9191 125.699H75.5173Z"/><path fill="#000" d="M77.4097 125.699H83.9807L84.2418 124.116H79.3389L79.8901 120.907H84.1837L84.4448 119.325H80.1512L80.6154 116.582H85.5182L85.7938 115H79.2229L77.4097 125.699Z"/><path fill="#000" d="M91.7952 116.582L93.3037 117.11L94 115.618L92.3464 115H88.7636L86.7908 116.733L86.4717 118.632L86.7618 119.641L91.0989 122.112L91.2005 122.338L91.0264 123.348L90.1561 124.116H87.6321L86.1381 123.544L85.3838 125.066L87.1099 125.699H90.6348L92.593 123.966L92.9411 121.871L92.5785 120.832L88.2704 118.375L88.2269 118.164L88.3574 117.351L89.2277 116.582H91.7952Z"/><path fill="#000" d="M25.8889 93.348L28.1039 95.7137L26.5745 104.388L23.5156 106.754H17.8725L15.6574 104.388L17.1869 95.7137L20.2458 93.348H25.8889ZM24.2012 96.0817H20.9314L19.9293 96.8703L18.8218 103.231L19.5602 104.02H22.83L23.832 103.231L24.9923 96.8703L24.2012 96.0817Z"/><path fill="#E84434" d="M39.5484 101.549L39.0737 104.283H37.7025L37.2806 106.754H34.3272L34.7491 104.283H27.7875L28.2622 101.602L37.2278 93.348H39.6539L38.1772 101.549H39.5484ZM32.2176 101.339L31.4793 101.759L31.532 101.812L32.2176 101.549H35.2237L35.8039 98.2897L36.1731 97.6063L36.1203 97.5537L35.5929 98.2371L32.2176 101.339Z"/><path fill="#000" d="M48.514 92.9801L50.6764 106.228L47.723 107.174L47.2483 104.178H42.9764L41.4997 107.174L38.9155 106.228L45.7189 92.9801H48.514ZM46.4572 98.4475V97.028H46.3517L45.8771 98.4475L44.2421 101.602H46.9319L46.4572 98.4475Z"/><path fill="#000" d="M51.5202 104.651L52.4695 103.862H53.999L54.7373 104.651L54.4736 106.28L53.5243 107.069H51.8894L51.2038 106.28L51.5202 104.651Z"/><path fill="#000" d="M65.2851 102.232L66.92 104.23L63.9139 106.754H58.2708L56.2667 104.335L57.7961 95.7663L60.6441 93.348H66.1289L68.133 95.7663L67.7111 98.2371H64.8105L65.0742 96.8177L64.4413 96.0817H61.4879L60.5913 96.8177L59.4311 103.231L60.0639 103.967H63.1228L65.2851 102.232Z"/><path fill="#000" d="M78.3118 93.348L80.5268 95.7137L78.9974 104.388L75.9385 106.754H70.2954L68.0804 104.388L69.6098 95.7137L72.6687 93.348H78.3118ZM76.6241 96.0817H73.3543L72.3522 96.8703L71.192 103.231L71.9303 104.02H75.2002L76.2022 103.231L77.3625 96.8703L76.6241 96.0817Z"/><path fill="#000" d="M88.5959 99.8143L88.7014 100.55H88.7541L89.1233 99.8143L94.239 93.4006H96.9287L94.5555 106.806H91.6021L92.8678 99.6565L93.2897 98.3949H93.237L92.4986 99.6565L89.1233 103.967H87.1192L85.2206 99.6565L84.9569 98.3949H84.8514V99.6565L83.5857 106.806H80.6323L83.0056 93.4006H85.6953L88.5959 99.8143Z"/><path fill="#000" d="M22.7256 46.3537L26.5885 48.9554C26.7973 51.1408 27.1105 53.5344 28.0501 55.5117C28.2589 56.1361 29.3029 57.2809 29.7205 57.8012C30.347 58.6338 30.869 59.1541 31.4954 59.8826L33.479 61.8599C34.1054 62.4843 34.8362 63.2128 35.4627 63.7331C37.0287 64.9819 37.8639 65.7104 39.7431 67.1674C42.6664 69.3528 46.1117 71.226 49.4526 73.2033C52.4802 75.0766 51.5406 75.0766 54.4639 73.3074C59.4752 70.2894 61.6676 69.0406 66.3657 65.6063C67.9317 64.4616 71.1682 61.4436 72.6298 59.9866C73.5695 59.05 75.4487 56.8646 76.0751 55.7198C77.5367 53.2222 77.6412 52.91 77.6412 49.3717V25.8522C75.1355 24.7074 72.7342 23.5627 70.1242 22.522C61.3544 19.3999 51.4362 17.943 42.3532 20.2325L43.5016 15.9657C45.0677 15.7575 47.1557 15.3413 48.7217 15.3413C49.3482 15.3413 49.4526 15.2372 50.079 15.2372C54.8815 15.1331 54.9859 15.2372 59.684 15.8616L64.4865 16.7982C66.0525 17.2145 67.6185 17.5267 69.0802 18.047C72.5254 19.0877 74.3003 19.7121 77.6412 21.1691L81.6084 22.9383V50.7245C81.6084 53.2222 80.982 54.1588 80.1468 56.1361C79.938 56.7605 78.6852 58.4256 78.2676 58.9459C77.9544 59.3622 77.5367 59.7785 77.2235 60.1948C76.8059 60.7151 76.5971 60.9233 76.0751 61.3395C75.6575 61.7558 75.4487 62.068 75.0311 62.5883C72.2122 65.2941 70.855 66.4389 67.6185 69.0406C66.8877 69.5609 64.3821 71.4342 63.6513 71.9545C63.2336 72.2667 62.7116 72.5789 62.294 72.7871C59.684 74.4522 56.3431 76.4295 53.6286 77.9905C51.7494 79.1352 52.7934 79.2393 47.7821 76.3254C46.0073 75.2847 43.7104 73.9318 42.04 72.7871C39.8476 71.3301 39.0123 70.8098 36.6111 69.0406C34.6274 67.4796 32.7482 65.9185 30.869 64.3575C29.8249 63.4209 26.6929 59.9866 25.8577 58.9459C25.4401 58.4256 25.2312 58.1134 24.918 57.5931C22.308 53.6385 22.7256 51.2449 22.7256 46.3537Z"/><path fill="#E84434" d="M26.6929 49.0593L24.7092 47.7065C22.7256 46.3536 22.7256 46.3536 22.7256 46.3536C20.7419 45.1048 20.2199 44.8966 18.4451 43.3356C18.0275 43.0234 17.8187 42.7112 17.5055 42.2949C15.7306 40.1094 15.1042 39.6932 15.5218 37.4037C15.6262 36.9874 15.835 36.4671 15.9394 36.0508C16.4615 35.2182 16.5659 34.2816 16.9835 33.345L18.3407 30.223C18.4451 30.0148 18.5495 29.9108 18.6539 29.5986C18.8627 29.1823 19.0715 28.8701 19.2803 28.4538C20.6375 25.6439 20.4287 26.3724 21.9948 23.9789C22.83 22.73 27.2149 17.4225 28.4677 16.0697C28.7809 15.6534 28.9897 15.4452 29.3029 15.133C29.5117 14.9249 29.6161 14.9249 29.7205 14.7167L30.9734 13.2598C32.8526 10.9703 33.1658 10.6581 34.8362 8.05637C35.7759 6.59941 38.2815 2.6448 39.4299 1.70818C40.1608 1.08377 40.7872 0.667516 41.7268 0.459379C42.562 0.251242 43.9192 0.14718 44.8588 0.0431118C46.1117 -0.0609566 46.8425 0.0430864 48.0953 0.147155C51.2274 0.45936 53.8374 0.667497 56.2387 2.74887C57.4915 3.89362 58.2223 6.18313 58.2223 7.95229C58.2223 8.78484 58.5355 10.45 58.0135 10.9703C56.9695 11.6988 52.5846 12.2191 52.0626 12.3232C51.123 12.4272 46.2161 13.1557 45.7985 12.9476C45.2765 12.7395 45.2765 12.6354 45.0677 12.2191L43.7104 8.99298C43.606 8.68077 43.2928 7.84823 42.9796 8.05637C42.6664 8.36857 42.6664 8.68078 42.7708 9.09705C42.8752 10.0337 43.3972 11.2825 43.606 12.011C44.2324 14.3005 43.7104 16.0696 43.606 16.2778L41.4136 24.187C40.996 25.3317 39.8475 28.9741 39.3255 30.327C39.2211 30.6392 38.9079 31.1596 38.6991 31.4718C37.4463 33.5531 35.2538 36.7793 35.6715 39.4851C36.0891 41.9827 37.9683 43.2315 39.8475 43.96C40.6828 44.3763 43.084 44.7925 44.0236 44.8966C44.0236 44.8966 39.9519 43.5437 38.1771 41.9827C34.4186 38.5484 41.3092 30.0148 41.3092 30.0148C42.2488 28.766 44.8589 28.6619 45.5897 28.766C50.7054 29.5985 53.211 34.3857 53.3154 34.802C53.3154 34.802 57.7003 29.5986 68.767 29.5986C72.1078 29.5986 76.4927 31.6799 77.1191 31.9921V50.7244C77.1191 52.9099 76.5971 53.9506 75.6575 55.4075C73.7783 58.4255 70.7506 61.4435 68.1405 63.5249C67.6185 63.9412 67.3053 64.2533 66.4701 64.9818C65.4261 65.7103 63.9645 67.0632 62.9204 67.5835L58.1179 57.2808C54.9859 58.2174 55.8211 58.1133 52.8978 58.5296C50.3922 58.8418 47.4689 58.7377 44.9632 58.1133C44.0236 57.9052 42.8752 57.593 41.8312 57.2808C33.1658 54.575 26.6929 49.0593 26.6929 49.0593Z"/></svg>