<svg xmlns="http://www.w3.org/2000/svg" width="64" height="32" fill="none" viewBox="0 0 64 32"><path fill="#0055A6" fill-rule="evenodd" d="M33.0667 0V32H64V0H33.0667ZM0 0V32H30.9333V0H0Z" clip-rule="evenodd"/><path fill="#fff" fill-rule="evenodd" d="M62.4004 1.59998V30.4H34.667V1.59998H62.4004ZM16.7593 22.649C16.4185 22.2218 16.2462 21.6608 16.2462 20.9824C16.2462 20.2864 16.411 19.7258 16.7358 19.3162C17.09 18.8677 17.6116 18.6405 18.2868 18.6405H18.3385V17.4789H18.2868C17.2334 17.4789 16.4206 17.8181 15.8708 18.4864C15.3705 19.0917 15.1166 19.9338 15.1166 20.9914C15.1166 22.0133 15.3918 22.8533 15.9348 23.4885C16.506 24.1562 17.3022 24.4954 18.3022 24.4954H18.354V23.3338H18.3022C17.643 23.3338 17.1236 23.1034 16.7593 22.649ZM12.7476 22.649C12.4068 22.2218 12.234 21.6613 12.234 20.9824C12.234 20.2864 12.3988 19.7258 12.7236 19.3162C13.0777 18.8677 13.5993 18.6405 14.2745 18.6405H14.3262V17.4789H14.2745C13.2212 17.4789 12.4084 17.8181 11.8585 18.4864C11.3582 19.0917 11.1044 19.9338 11.1044 20.9914C11.1044 22.0133 11.3801 22.8533 11.923 23.4885C12.4942 24.1562 13.2905 24.4954 14.2905 24.4954H14.3422V23.3338H14.2905C13.6313 23.3338 13.1118 23.1034 12.7476 22.649ZM16.4345 11.3365V14.5701H17.6324V7.87571H16.4345V10.2074H15.7828C15.514 10.2074 15.3134 10.1445 15.1865 10.0202C15.0948 9.93224 15.0505 9.81491 15.0505 9.66078V7.87571H13.8526V9.78718C13.8526 10.2272 14.0217 10.6 14.3556 10.8954C14.6857 11.1882 15.09 11.3365 15.5588 11.3365H16.4345ZM27.8937 17.32L27.8094 17.4106L25.4164 19.9808V17.6389H24.37V24.2954H25.4164V21.561L26.9337 19.9082L27.0857 24.2954H28.1524L27.8937 17.32ZM20.058 14.5701H21.2553V8.98878H22.2649V7.87624H19.0649V8.98878H20.058V14.5701ZM22.8164 17.4106L20.4233 19.9808V17.6389H19.3769V24.2954H20.4233V21.561L21.9406 19.9082L22.0921 24.2954H23.1588L22.9012 17.3194L22.8164 17.4106ZM24.9705 8.98878H25.4041C25.7129 8.98878 25.9252 9.08371 26.0537 9.27997C26.1572 9.44317 26.2308 9.75838 26.2777 10.1904H24.9417L24.9705 8.98878ZM24.9204 11.3029L26.4153 11.3034L26.7513 14.5706L27.9577 14.5701L27.4052 9.67624C27.4057 9.03464 27.2132 8.55038 26.8329 8.24584C26.5305 8.00051 26.1161 7.87571 25.6014 7.87571H23.827L23.6068 14.5701H24.8046L24.9204 11.3029ZM4.04464 8.98878H5.52784V14.5706H6.72571V7.87571H2.84678V14.5701H4.04464V8.98878ZM4.60464 21.273C4.51878 21.4437 4.41851 21.529 4.30704 21.529C4.19878 21.529 4.10758 21.4554 4.02918 21.3029C3.94544 21.1413 3.90331 20.905 3.90331 20.5994V18.6405H3.94704C4.19451 18.6405 4.38331 18.7813 4.52464 19.0698C4.66971 19.3674 4.74331 19.8426 4.74331 20.4842C4.74278 20.825 4.69638 21.0906 4.60464 21.273ZM3.94971 17.649H2.83984V24.2912H3.90331V22.3605C4.10918 22.5466 4.33371 22.6576 4.57958 22.6576C4.93371 22.6576 5.22811 22.465 5.45584 22.0858C5.71078 21.6597 5.83931 21.0288 5.83931 20.2085C5.83931 19.6389 5.73584 19.1274 5.53211 18.6906C5.21104 18 4.67824 17.649 3.94971 17.649ZM11.075 12.9328C10.9193 13.3664 10.6996 13.577 10.4046 13.577C10.122 13.577 9.90864 13.3637 9.75238 12.9242C9.58918 12.465 9.50651 11.8826 9.50651 11.193C9.50651 10.4853 9.58758 9.90291 9.74811 9.46184C9.90064 9.03997 10.1156 8.83518 10.4046 8.83518C10.7289 8.83518 10.9604 9.04264 11.1108 9.46931C11.2505 9.86237 11.3209 10.4357 11.3209 11.1738C11.3209 11.8874 11.2382 12.4789 11.075 12.9328ZM11.9998 13.6896C12.355 13.0586 12.5353 12.2122 12.5353 11.1738C12.5353 10.1477 12.3486 9.30718 11.9817 8.67571C11.6062 8.03144 11.075 7.70504 10.4025 7.70504C9.76464 7.70504 9.25691 8.03358 8.89424 8.68158C8.53904 9.31411 8.35878 10.1557 8.35878 11.1824C8.35878 12.2453 8.53104 13.1034 8.87131 13.7333C9.21904 14.3786 9.73424 14.7061 10.4025 14.7061C11.0814 14.7066 11.619 14.3648 11.9998 13.6896ZM9.00091 22.6912C8.86064 23.129 8.65424 23.3509 8.38864 23.3509C8.13318 23.3509 7.93264 23.1258 7.79184 22.6821C7.64571 22.2197 7.57104 21.6336 7.57104 20.9392C7.57104 20.2272 7.64411 19.641 7.78758 19.1968C7.92518 18.7706 8.12731 18.5546 8.38811 18.5546C8.68411 18.5546 8.89531 18.768 9.03238 19.2058C9.15771 19.6016 9.22118 20.1781 9.22118 20.921C9.22171 21.6389 9.14758 22.2341 9.00091 22.6912ZM9.79184 18.4384C9.45851 17.8021 8.98704 17.4789 8.38971 17.4789C7.82331 17.4789 7.37264 17.8037 7.05051 18.4448C6.73424 19.0741 6.57318 19.9104 6.57318 20.9301C6.57318 21.9866 6.72731 22.8405 7.02971 23.4666C7.33798 24.104 7.79558 24.4272 8.38918 24.4272C8.99184 24.4272 9.46918 24.089 9.80784 23.4208C10.1241 22.7952 10.2846 21.9541 10.2846 20.921C10.2852 19.9002 10.1193 19.065 9.79184 18.4384Z" clip-rule="evenodd"/><path fill="#0055A6" fill-rule="evenodd" d="M42.367 10.4837C42.5963 11.0059 42.9734 11.5403 43.9995 12.2613C44.2288 12.4229 44.4822 12.7589 44.2891 13.2309C44.0955 13.7035 43.7328 14.3749 43.9504 14.6352C44.168 14.8971 44.9408 15.0336 45.5702 14.7723C45.5702 14.7723 45.703 15.1824 45.9328 15.4432C45.9328 15.4432 45.8246 15.6672 45.4619 15.5557C45.4619 15.5557 45.5947 15.8912 45.4134 16.2517C45.4134 16.2517 44.9899 16.1776 44.8086 15.7787C44.8086 15.7787 44.639 16.0901 44.3014 16.2011C44.3014 16.2011 44.023 16.0528 44.0838 15.4805C44.0838 15.4805 43.8779 15.9904 43.2496 16.0768C43.2496 16.0768 42.887 15.6048 43.3584 14.9701C43.3584 14.9701 43.0192 15.2816 42.4038 15.1328C42.4038 15.1328 42.3062 14.8096 42.8624 14.3611C42.8624 14.3611 42.2331 14.3371 41.992 13.7899C41.992 13.7899 42.2576 13.4544 42.911 13.5291C42.911 13.5291 42.3062 13.392 42.1734 12.6459C42.1734 12.6459 42.6086 12.36 43.2982 12.8197C43.2982 12.8197 43.1766 12.584 42.887 12.3477C42.5958 12.112 42.2459 11.4528 42.367 10.4837ZM44.896 17.9819C44.8116 17.8671 44.7409 17.7429 44.6854 17.6117C44.7936 18.5168 44.8326 19.1269 45.3072 19.712C45.3072 19.712 45.5942 19.32 45.4091 18.3675C45.3178 18.3406 45.2314 18.2994 45.1531 18.2453C45.1531 18.2453 45.2619 18.632 45.1942 19.0219C45.1942 19.0213 45.023 18.8928 44.896 17.9819ZM44.0747 17.888C43.9923 17.7801 43.9178 17.6664 43.8518 17.5477C43.8118 18.0725 43.6774 19.4555 44.1275 19.888C44.1275 19.888 44.4363 19.656 44.5451 17.64C44.48 17.7525 44.3659 17.8725 44.3099 17.9381C44.3099 17.9381 44.3851 18.5781 44.1622 19.0293C44.1616 19.0293 43.9376 18.8544 44.0747 17.888ZM43.0016 18.9445C43.3803 18.4784 43.4939 17.0821 43.4939 17.0821C43.5462 17.0464 43.5979 17.0064 43.6512 16.9632C43.673 16.9457 43.6939 16.927 43.7136 16.9072C43.7131 16.9584 43.7158 17.0107 43.72 17.0635C43.6656 17.9035 43.6011 18.7696 43.3462 19.2011C43.096 19.624 42.6374 19.8427 42.6374 19.8427C42.2059 19.0549 42.727 17.9963 43.1627 17.2613C43.216 17.24 43.2699 17.2144 43.3259 17.1851C43.1723 17.752 42.8822 18.4251 43.0016 18.9445ZM41.9334 16.5205C41.9302 16.6112 41.9467 16.6837 41.9584 16.7227C41.9632 16.7371 41.9691 16.7579 41.9792 16.7787C41.6176 17.144 41.3504 17.4912 40.8155 18.256C40.2795 19.0213 39.432 19.0512 39.432 19.0512C39.5131 18.4325 39.6774 17.9424 40.1307 17.4155C40.5846 16.8875 41.1643 16.4059 41.5915 16.0859C41.7008 16.1387 41.8443 16.1712 42.0251 16.1493C42.0384 16.1477 42.0523 16.1461 42.0672 16.1435C42.0156 16.2104 41.9777 16.2869 41.9558 16.3685C41.6331 16.5589 40.6966 17.048 40.3163 17.8352C40.3168 17.8352 40.9099 17.6448 41.9334 16.5205ZM41.2608 15.7493L41.2966 15.6843C41.3078 15.6634 41.3202 15.6433 41.3339 15.624C40.9862 15.7637 39.7446 16.2453 39.343 16.4587C38.9414 16.6736 38.36 17.16 38.0443 18.1477C38.0443 18.1477 38.8816 18.2256 39.5734 17.6373C40.264 17.048 41.0699 16.2267 41.4139 15.9648C41.3849 15.9367 41.3582 15.9064 41.3339 15.8741C41.3339 15.8741 40.3984 16.7269 39.4091 17.0944C39.4091 17.0944 39.6214 16.6997 40.0123 16.4128C40.488 16.0651 40.8448 15.9477 41.2608 15.7493ZM40.5515 15.168C40.5643 15.1339 40.5787 15.1013 40.5926 15.0699C40.183 15.1563 39.159 15.2816 38.7014 15.4256C38.2448 15.5701 37.4171 15.9147 36.9259 16.8768C36.9259 16.8768 37.647 17.1061 39.0064 16.4475C40.3654 15.7899 40.7915 15.6539 41.0518 15.5835C40.8996 15.5733 40.752 15.5269 40.6214 15.448C40.079 15.6955 39.3536 15.9904 38.6336 16.0091C38.6336 16.0091 38.9899 15.7509 39.3616 15.5899C39.7479 15.4215 40.1455 15.2806 40.5515 15.168ZM40.5856 14.4747C40.719 14.5392 40.8208 14.5717 40.9947 14.5904C40.8924 14.6577 40.8027 14.7423 40.7296 14.8405C40.2507 14.9824 39.4336 15.1376 38.087 15.2379C36.7392 15.3381 36.0208 15.0827 36.0208 15.0827C36.4907 14.7877 37.239 14.488 37.7451 14.3877C38.2512 14.2875 39.5803 14.2976 40.1627 14.2165C40.1702 14.2224 40.2406 14.2827 40.3542 14.3536C39.8646 14.3989 38.8203 14.4496 38.2811 14.7296C38.2811 14.7296 39.2763 14.8667 40.5856 14.4747ZM40.4848 13.6784C40.5526 13.6368 40.6347 13.5963 40.7344 13.5573C40.0534 13.3451 39.1158 13.0064 37.7078 12.9109C36.6742 12.8411 35.927 12.9019 35.5414 13.0048C35.5414 13.0048 36.4822 13.6869 37.5579 13.928C38.6336 14.1691 39.5078 14.016 40.1472 14.0213C40.1934 13.945 40.2485 13.8744 40.3115 13.8112C39.5654 13.816 38.3216 13.6171 37.8768 13.4651C37.8774 13.4656 38.9616 13.2325 40.4848 13.6784ZM40.4811 12.8539C40.4848 12.8731 40.5638 13.2688 41.0096 13.488C40.0528 13.0565 38.1654 12.808 37.1521 12.3749C35.7809 11.7893 35.5312 11.0581 35.5312 11.0581C36.7174 11.0261 37.6763 11.3243 38.4155 11.5568C39.2811 11.8299 40.599 12.3355 41.0603 12.5467C40.8875 12.5541 40.6976 12.6048 40.5382 12.7147C39.8934 12.4603 39.5936 12.3536 39.0091 12.1851C38.5478 12.0523 38.2059 12.0261 37.9184 11.9973C37.9184 11.9973 38.3238 12.2736 38.9931 12.4944C39.656 12.7115 39.9435 12.7477 40.4811 12.8539ZM40.4086 11.7776C40.447 11.848 40.5606 12.0149 40.6054 12.0811C39.0902 11.8203 37.4251 10.6421 36.9104 9.91254C36.3952 9.1824 36.5419 8.09174 36.5419 8.09174C37.0411 8.19574 38.127 9.1584 38.4075 9.44694C38.6886 9.736 39.5382 10.5856 40.1254 11.0608L40.3099 11.6085C39.8244 11.2113 39.333 10.8214 38.8358 10.4389C38.5494 10.2165 38.12 9.9024 37.6939 9.752C37.6939 9.752 38.0864 10.2784 38.4032 10.5344C38.7314 10.8048 39.0806 11.0486 39.4475 11.2635C39.72 11.4165 39.8582 11.504 40.4086 11.7776Z" clip-rule="evenodd"/><path fill="#0055A6" fill-rule="evenodd" d="M44.6801 16.1371C44.7259 16.0966 44.7654 16.0555 44.799 16.0176C44.8689 16.1083 45.1019 16.4096 45.2166 16.7083C45.3046 16.9638 45.3969 17.3115 45.4438 17.5115C45.4897 17.7099 45.6283 18.1227 45.7115 18.2656C45.7115 18.2656 45.3424 18.3131 45.0694 17.9856C44.8011 17.6635 44.7094 17.3398 44.6678 17.007C44.6376 16.7175 44.6418 16.4256 44.6801 16.1371ZM44.0982 16.1872C44.1354 16.242 44.1837 16.2884 44.24 16.3232L44.2891 16.3494L44.3414 16.3323C44.3872 16.3168 44.4294 16.2992 44.4694 16.279C44.5222 16.4326 44.5446 16.5067 44.5579 16.6374C44.5755 16.8102 44.6091 17.0832 44.5457 17.3062C44.4683 17.5782 44.3104 17.7435 44.223 17.8491C44.223 17.8491 43.9824 17.576 43.9126 17.3504C43.8406 17.1147 43.8145 16.84 43.9035 16.5595C43.9443 16.4242 44.0104 16.2979 44.0982 16.1872ZM43.2667 16.2128C43.475 16.1866 43.6728 16.1065 43.8406 15.9803C43.8726 16.0699 43.9206 16.1904 43.8848 16.3606C43.8486 16.5312 43.7345 16.7206 43.5686 16.8571C43.3195 17.0614 42.9862 17.2539 42.6187 17.1947C42.6187 17.1947 42.5344 16.9115 43.2667 16.2128ZM42.9883 15.7387C43.0182 15.9915 43.1355 16.1499 43.1451 16.1622C43.0587 16.2678 42.7483 16.8166 42.1003 16.7238C42.1003 16.7238 41.9254 16.351 42.3563 16.0539C42.6491 15.8528 42.7878 15.8118 42.9883 15.7387ZM43.0448 15.2704C42.8236 15.3252 42.5922 15.3236 42.3718 15.2656L42.2976 15.248L42.2758 15.1734C41.943 15.4528 41.5478 15.4987 41.4123 15.7504C41.4123 15.7504 41.5782 16.0672 42.0091 16.0139C42.2029 15.9931 42.3904 15.9329 42.5601 15.8369C42.7298 15.741 42.878 15.6114 42.9958 15.456C43.0054 15.4102 43.024 15.3275 43.0448 15.2704ZM42.2976 14.8779C42.3595 14.7846 42.4017 14.6395 42.5307 14.4928C42.2404 14.4389 41.9422 14.4427 41.6534 14.504C41.2555 14.5819 40.8491 14.6779 40.6459 15.3003C40.6459 15.3003 40.9014 15.5238 41.3659 15.4267C41.7584 15.344 42.1019 15.1696 42.2976 14.8779ZM42.1291 14.2022C42.0181 14.1038 41.93 13.9824 41.871 13.8464L41.8368 13.7691C41.4928 13.6246 41.1328 13.5499 40.7814 13.6848C40.4304 13.8203 40.3366 13.9766 40.248 14.111C40.248 14.111 40.6374 14.4464 41.0859 14.4592C41.535 14.4736 41.9488 14.3408 42.1291 14.2022ZM42.2331 13.4747C42.2923 13.4512 42.3595 13.4299 42.4347 13.4144C42.2822 13.2763 42.1318 13.0662 42.0587 12.7504C41.8992 12.7888 41.5222 12.7888 41.3574 12.7238C41.192 12.6587 40.8662 12.6544 40.6123 12.8283C40.6123 12.8283 40.6976 13.2854 41.2726 13.4422C41.8123 13.5888 42.0139 13.551 42.2331 13.4747ZM42.0262 12.5814L42.1025 12.5318C42.1126 12.5248 42.2411 12.4438 42.4608 12.4267C42.2758 12.2843 41.8358 11.9046 41.5222 11.7227C41.1819 11.5259 40.616 11.2656 40.3286 11.2267C40.3286 11.2267 40.5984 11.9558 40.9131 12.2491C41.2384 12.5536 41.4667 12.6667 42.0262 12.5814ZM42.6075 12.2464C42.4699 12.0619 42.3616 11.8086 42.2816 11.5088C42.216 11.2651 42.0683 10.6603 41.9798 10.5035C41.8912 10.3467 41.5734 9.7979 40.9515 9.6283C40.9515 9.6283 40.7856 10.3419 41.0987 10.9078C41.3675 11.3952 41.9211 11.9094 42.6075 12.2464ZM46.055 15.568C46.1328 15.647 46.1915 15.6918 46.3307 15.7632C46.3307 15.7632 46.5286 16.152 46.2891 16.6219C46.0869 17.0171 45.9064 17.423 45.7483 17.8379C45.7483 17.8379 45.6192 17.8192 45.4763 17.0827C45.3787 16.5835 45.2566 16.4598 45.1286 16.2891C45.2678 16.3616 45.3814 16.384 45.3899 16.3856L45.487 16.4027L45.5307 16.3142C45.6231 16.1315 45.6592 15.9254 45.6342 15.7222C45.8571 15.7275 45.9766 15.6118 46.0214 15.552C46.0257 15.5467 46.0299 15.5419 46.0326 15.5371L46.055 15.568Z" clip-rule="evenodd"/><path fill="#0055A6" fill-rule="evenodd" d="M40.7758 9.92803C40.7733 10.0028 40.7729 10.0777 40.7747 10.1526L40.787 10.328C40.4211 9.84696 39.9817 9.26563 39.5619 8.73123C39.2745 8.36429 39.0329 8.14243 38.7625 7.96376C38.9902 8.64323 39.3961 9.18509 39.6851 9.45549C39.9731 9.72536 40.3897 10.1824 40.7961 10.4608L40.8355 10.5984C40.867 10.7248 40.9145 10.8539 40.9822 10.976C41.0771 11.1472 41.2019 11.3168 41.3491 11.4795C41.2207 11.4151 41.0907 11.3537 40.9593 11.2955L40.8334 11.2416C39.715 10.6315 38.6051 9.36856 38.1561 8.48803C37.707 7.60909 37.8937 6.58883 38.0131 6.04163C38.5203 6.48429 39.2515 7.35629 39.5705 7.83043C39.9619 8.41229 40.4638 9.23683 40.7747 9.90723V9.92803H40.7758ZM56.4617 13.6784C56.3821 13.6306 56.2984 13.5901 56.2115 13.5574C56.8931 13.3451 57.8307 13.0064 59.2393 12.911C60.2729 12.8411 61.0185 12.9019 61.4051 13.0048C61.4051 13.0048 60.4643 13.687 59.3875 13.928C58.3118 14.1691 57.4382 14.016 56.7987 14.0214C56.7566 13.9568 56.7097 13.8843 56.6345 13.8112C57.3806 13.816 58.6243 13.6171 59.0686 13.4651C59.0691 13.4656 57.9854 13.2326 56.4617 13.6784ZM56.4649 12.8539C56.4617 12.8731 56.3822 13.2688 55.9363 13.488C56.8937 13.0566 58.7811 12.808 59.7945 12.375C61.1657 11.7894 61.4153 11.0582 61.4153 11.0582C60.2297 11.0262 59.2697 11.3243 58.531 11.5568C57.6654 11.8299 56.347 12.3355 55.8862 12.5467C56.059 12.5542 56.2483 12.6048 56.4078 12.7147C57.0531 12.4603 57.3523 12.3536 57.9374 12.1851C58.3982 12.0523 58.7406 12.0262 59.0281 11.9974C59.0281 11.9974 58.6217 12.2736 57.9529 12.4944C57.2899 12.7115 57.0041 12.7478 56.4649 12.8539ZM56.5374 11.7776C56.499 11.848 56.3859 12.015 56.3417 12.0811C57.8569 11.8203 59.5219 10.6422 60.0371 9.91256C60.5518 9.18243 60.4046 8.09176 60.4046 8.09176C59.9049 8.19576 58.8201 9.15843 58.5395 9.44696C58.2585 9.73602 57.4083 10.5856 56.8217 11.0608L56.6371 11.6086C57.1401 11.1926 57.7385 10.727 58.1113 10.439C58.3977 10.2166 58.8259 9.90243 59.2537 9.75203C59.2537 9.75203 58.8606 10.2784 58.5438 10.5344C58.1769 10.832 57.8057 11.0902 57.499 11.2635C57.2281 11.4166 57.0878 11.504 56.5374 11.7776ZM56.1705 9.92803C56.1715 9.99576 56.1737 10.0726 56.1715 10.1526L56.1582 10.328C56.5251 9.84696 56.9646 9.26563 57.3843 8.73123C57.6718 8.36429 57.9134 8.14243 58.1833 7.96376C57.9561 8.64323 57.5497 9.18509 57.2611 9.45549C56.9731 9.72536 56.5571 10.1824 56.1502 10.4608L56.1107 10.5984C56.0785 10.7302 56.0292 10.8571 55.9641 10.976C55.8609 11.157 55.7378 11.3259 55.5971 11.4795C55.7155 11.4203 55.8515 11.3552 55.987 11.2955L56.1129 11.2416C57.2307 10.6315 58.3411 9.36856 58.7902 8.48803C59.2382 7.60909 59.0526 6.58883 58.9331 6.04163C58.4254 6.48429 57.6947 7.35629 57.3753 7.83043C56.9833 8.41229 56.4825 9.23683 56.1715 9.90723V9.92803H56.1705ZM42.2057 16.8726C41.7449 17.3472 40.7726 18.4102 40.8643 19.5648C40.8643 19.5648 41.7667 19.2742 42.1385 18.5931C42.5102 17.9131 42.7401 17.4864 42.8969 17.3328C42.7976 17.3468 42.6968 17.3461 42.5977 17.3307L42.5166 17.3168C42.2873 17.7456 41.8334 18.4486 41.4249 18.6934C41.4249 18.6934 41.3209 18.1248 42.5219 16.9712C42.5385 16.9238 42.563 16.871 42.5971 16.8112C42.4867 16.8507 42.3619 16.8752 42.2206 16.8715L42.2057 16.8726ZM54.5801 10.4838C54.3497 11.0059 53.9726 11.5403 52.9475 12.2614C52.7182 12.423 52.4649 12.759 52.6579 13.231C52.8515 13.7035 53.2142 14.375 52.9955 14.6352C52.7785 14.8971 52.0051 15.0336 51.3763 14.7723C51.3763 14.7723 51.2441 15.1824 51.0137 15.4432C51.0137 15.4432 51.1225 15.6672 51.4851 15.5558C51.4851 15.5558 51.3523 15.8912 51.5337 16.2518C51.5337 16.2518 51.9566 16.1776 52.1379 15.7787C52.1379 15.7787 52.307 16.0902 52.6457 16.2011C52.6457 16.2011 52.9235 16.0528 52.8633 15.4806C52.8633 15.4806 53.0691 15.9904 53.6969 16.0768C53.6969 16.0768 54.0601 15.6048 53.5886 14.9702C53.5886 14.9702 53.9267 15.2816 54.5433 15.1328C54.5433 15.1328 54.6403 14.8096 54.0841 14.3611C54.0841 14.3611 54.7123 14.3371 54.955 13.7899C54.955 13.7899 54.6883 13.4544 54.0361 13.5291C54.0361 13.5291 54.6403 13.392 54.7731 12.6459C54.7731 12.6459 54.3385 12.36 53.6499 12.8198C53.6499 12.8198 53.7705 12.584 54.0606 12.3478C54.3497 12.112 54.7006 11.4528 54.5801 10.4838ZM52.0499 17.9819C52.1417 17.8576 52.2099 17.7328 52.2606 17.6118C52.1534 18.5168 52.1139 19.127 51.6387 19.712C51.6387 19.712 51.3523 19.32 51.5379 18.3675C51.6174 18.344 51.7065 18.3056 51.7934 18.2454C51.7934 18.2454 51.6846 18.632 51.7523 19.0219C51.7518 19.0214 51.9235 18.8928 52.0499 17.9819ZM52.8713 17.888C52.9544 17.7804 53.0293 17.6666 53.0953 17.5478C53.1342 18.0726 53.2686 19.4555 52.819 19.888C52.819 19.888 52.5097 19.656 52.4019 17.64C52.4665 17.7526 52.5811 17.8726 52.6361 17.9382C52.6361 17.9382 52.5614 18.5782 52.7849 19.0294C52.7854 19.0294 53.0089 18.8544 52.8713 17.888ZM53.9449 18.9446C53.5657 18.4784 53.4526 17.0822 53.4526 17.0822C53.3751 17.0292 53.3015 16.9707 53.2323 16.9072C53.2329 16.9584 53.2307 17.0107 53.2254 17.0635C53.2809 17.9035 53.3454 18.7696 53.6003 19.2011C53.8505 19.624 54.3091 19.8427 54.3091 19.8427C54.7406 19.055 54.219 17.9963 53.7849 17.2614C53.7287 17.2395 53.674 17.214 53.6211 17.1851C53.7742 17.752 54.0638 18.4251 53.9449 18.9446ZM55.0126 16.5206C55.0158 16.6112 54.9993 16.6838 54.987 16.7227C54.9827 16.7371 54.9774 16.7579 54.9673 16.7787C55.3278 17.144 55.5961 17.4912 56.131 18.256C56.6665 19.0214 57.5145 19.0512 57.5145 19.0512C57.4323 18.4326 57.2686 17.9424 56.8153 17.4155C56.3614 16.8875 55.7811 16.4059 55.355 16.0859C55.2446 16.1387 55.1017 16.1712 54.9219 16.1494C54.9076 16.1479 54.8934 16.146 54.8793 16.1435C54.9363 16.2198 54.971 16.2966 54.9907 16.3686C55.3134 16.559 56.251 17.048 56.6302 17.8352C56.6302 17.8352 56.0366 17.6448 55.0126 16.5206ZM55.6851 15.7494L55.6499 15.6843C55.6388 15.6634 55.6263 15.6433 55.6126 15.624C55.9598 15.7638 57.2019 16.2454 57.6035 16.4587C58.0051 16.6736 58.5859 17.16 58.9022 18.1478C58.9022 18.1478 58.0649 18.2256 57.3731 17.6374C56.6814 17.048 55.8761 16.2267 55.5321 15.9648C55.5612 15.9367 55.5881 15.9064 55.6126 15.8742C55.6126 15.8742 56.5481 16.727 57.5363 17.0944C57.5363 17.0944 57.3251 16.6998 56.9342 16.4128C56.4579 16.0651 56.1022 15.9478 55.6851 15.7494ZM56.395 15.168C56.3819 15.1349 56.3678 15.1022 56.3529 15.0699C56.763 15.1563 57.787 15.2816 58.2446 15.4256C58.7022 15.5696 59.5289 15.9147 60.0195 16.8768C60.0195 16.8768 59.2995 17.1062 57.9395 16.4475C56.5801 15.7899 56.155 15.6539 55.8947 15.5835C56.1022 15.5675 56.2483 15.4955 56.3251 15.448C56.8681 15.6955 57.5923 15.9904 58.3123 16.0091C58.3123 16.0091 57.9566 15.751 57.5838 15.5899C57.198 15.4214 56.8007 15.2804 56.395 15.168ZM56.3614 14.4747C56.2281 14.5392 56.1257 14.5718 55.9518 14.5904C56.0467 14.6528 56.1369 14.7334 56.2174 14.8406C56.6963 14.9824 57.5129 15.1376 58.8601 15.2379C60.2073 15.3382 60.9257 15.0827 60.9257 15.0827C60.4569 14.7878 59.7075 14.488 59.2019 14.3878C58.6958 14.2875 57.3662 14.2976 56.7833 14.2166C56.7229 14.2669 56.6589 14.3127 56.5918 14.3536C57.0825 14.399 58.1262 14.4496 58.6654 14.7296C58.6649 14.7296 57.6707 14.8667 56.3614 14.4747Z" clip-rule="evenodd"/><path fill="#0055A6" fill-rule="evenodd" d="M52.266 16.1371C52.2237 16.1 52.184 16.0601 52.1471 16.0176C52.0761 16.1083 51.8441 16.4096 51.7295 16.7083C51.6409 16.9638 51.5481 17.3115 51.5023 17.5115C51.4559 17.7099 51.3177 18.1227 51.2345 18.2656C51.2345 18.2656 51.6036 18.3131 51.8761 17.9856C52.1444 17.6635 52.2367 17.3398 52.2772 17.007C52.3074 16.7176 52.3037 16.4256 52.266 16.1371ZM52.8468 16.1872C52.8099 16.2418 52.7622 16.2881 52.7065 16.3232L52.6575 16.3494L52.6041 16.3323C52.5605 16.3177 52.5181 16.2999 52.4772 16.279C52.4244 16.4326 52.402 16.5067 52.3887 16.6374C52.3711 16.8102 52.3369 17.0832 52.4009 17.3062C52.4783 17.5782 52.6351 17.7435 52.7231 17.8491C52.7231 17.8491 52.9647 17.576 53.0335 17.3504C53.106 17.1147 53.1327 16.84 53.0431 16.5595C53.002 16.424 52.9353 16.2977 52.8468 16.1872ZM53.6793 16.2128C53.4707 16.1866 53.2726 16.1065 53.1044 15.9803C53.0729 16.0699 53.0255 16.1904 53.0617 16.3606C53.0969 16.5312 53.2116 16.7206 53.3775 16.8571C53.6255 17.0614 53.9599 17.2539 54.3273 17.1947C54.3273 17.1947 54.4116 16.9115 53.6793 16.2128ZM53.9577 15.7387C53.9284 15.9915 53.8105 16.1499 53.8015 16.1622C53.8873 16.2678 54.1977 16.8166 54.8457 16.7238C54.8457 16.7238 55.0207 16.351 54.5903 16.0539C54.2964 15.8528 54.1588 15.8118 53.9577 15.7387ZM53.9012 15.2704C54.074 15.3152 54.2985 15.3328 54.5737 15.2656L54.6473 15.248L54.6703 15.1734C55.0025 15.4528 55.3972 15.4987 55.5332 15.7504C55.5332 15.7504 55.3673 16.0672 54.9369 16.0139C54.743 15.9931 54.5555 15.9329 54.3857 15.837C54.2159 15.741 54.0676 15.6114 53.9497 15.456C53.938 15.3931 53.9217 15.3311 53.9012 15.2704ZM54.6489 14.8779C54.5865 14.7846 54.5444 14.6395 54.4153 14.4928C54.7058 14.4389 55.0041 14.4427 55.2932 14.504C55.6911 14.5819 56.0975 14.6779 56.3001 15.3003C56.3001 15.3003 56.0447 15.5238 55.5807 15.4267C55.1871 15.344 54.8441 15.1696 54.6489 14.8779ZM54.8169 14.2022C54.9172 14.1131 55.0079 13.9974 55.0745 13.8464L55.1081 13.7691C55.4537 13.6246 55.8127 13.5499 56.1636 13.6848C56.5156 13.8203 56.6084 13.9766 56.698 14.111C56.698 14.111 56.3087 14.4464 55.8596 14.4592C55.4105 14.4736 54.9967 14.3408 54.8169 14.2022ZM54.7119 13.4747C54.6471 13.4486 54.5802 13.4284 54.5119 13.4144C54.6644 13.2763 54.8137 13.0662 54.8868 12.7504C55.0473 12.7888 55.4244 12.7888 55.5892 12.7238C55.7545 12.6587 56.0804 12.6544 56.3337 12.8283C56.3337 12.8283 56.2505 13.2854 55.6735 13.4422C55.1327 13.5888 54.9327 13.551 54.7119 13.4747ZM54.9199 12.5814L54.8441 12.5318C54.8335 12.5248 54.7044 12.4438 54.4847 12.4267C54.6708 12.2843 55.1108 11.9046 55.4244 11.7227C55.7641 11.5259 56.3295 11.2656 56.618 11.2267C56.618 11.2267 56.3481 11.9558 56.0335 12.2491C55.7076 12.5536 55.4793 12.6667 54.9199 12.5814ZM54.338 12.2464C54.4756 12.0619 54.5849 11.8086 54.6649 11.5088C54.73 11.2651 54.8783 10.6603 54.9668 10.5035C55.0559 10.3467 55.3732 9.7979 55.9951 9.6283C55.9951 9.6283 56.1604 10.3419 55.8473 10.9078C55.5769 11.3952 55.0255 11.9094 54.338 12.2464ZM50.8916 15.568C50.8123 15.6493 50.7189 15.7154 50.6159 15.7632C50.6159 15.7632 50.418 16.152 50.6575 16.6219C50.8969 17.0923 51.1012 17.5723 51.1977 17.8379C51.1977 17.8379 51.3268 17.8192 51.4703 17.0827C51.5673 16.5835 51.69 16.4598 51.8175 16.2891C51.735 16.3331 51.6469 16.3656 51.5556 16.3856L51.4596 16.4027L51.4148 16.3142C51.3229 16.1313 51.2871 15.9253 51.3119 15.7222C51.0889 15.7275 50.97 15.6118 50.9241 15.552L50.9135 15.5371L50.8916 15.568Z" clip-rule="evenodd"/><path fill="#0055A6" fill-rule="evenodd" d="M54.7407 16.8725C55.2015 17.3472 56.1738 18.4101 56.082 19.5648C56.082 19.5648 55.1791 19.2741 54.8074 18.5931C54.4362 17.9131 54.2058 17.4864 54.0495 17.3328C54.1498 17.3467 54.2495 17.3461 54.3487 17.3307L54.4298 17.3168C54.6591 17.7456 55.1124 18.4485 55.5215 18.6933C55.5215 18.6933 55.625 18.1248 54.4244 16.9712C54.4039 16.9159 54.3787 16.8624 54.3492 16.8112C54.4586 16.8507 54.5839 16.8752 54.7252 16.8715L54.7407 16.8725ZM47.7674 7.66934C47.7674 7.58454 48.0837 7.51521 48.4719 7.51521C48.8613 7.51521 49.177 7.58454 49.177 7.66934C49.177 7.75467 48.8613 7.82347 48.4719 7.82347C48.0837 7.82347 47.7674 7.75521 47.7674 7.66934ZM45.3743 8.50401C45.3743 8.45707 45.5775 8.41974 45.8298 8.41974C46.0799 8.41974 46.2831 8.45707 46.2831 8.50401C46.2831 8.55041 46.0799 8.58827 45.8298 8.58827C45.5775 8.58827 45.3743 8.55041 45.3743 8.50401ZM48.6106 8.00961C48.6109 8.02809 48.6076 8.04646 48.6008 8.06365C48.594 8.08085 48.5839 8.09652 48.571 8.10976C48.5581 8.12301 48.5427 8.13356 48.5257 8.14081C48.5087 8.14807 48.4904 8.15187 48.4719 8.15201C48.4535 8.1518 48.4352 8.14795 48.4182 8.14067C48.4013 8.13339 48.3859 8.12284 48.373 8.10961C48.3601 8.09638 48.35 8.08073 48.3432 8.06357C48.3363 8.04641 48.333 8.02807 48.3333 8.00961C48.3333 7.93121 48.3951 7.86721 48.4719 7.86721C48.5493 7.86721 48.6106 7.93121 48.6106 8.00961ZM47.7167 7.51947C47.4821 6.94347 47.3258 6.52001 47.3317 6.37761C47.3359 6.29067 47.4351 6.22721 47.5285 6.19787C47.6218 6.16801 47.705 6.16267 47.7674 6.21121C47.8895 6.30774 48.0031 7.08374 48.0453 7.40694C47.9299 7.42472 47.8187 7.46282 47.7167 7.51947ZM48.145 7.39414C48.2042 7.38774 48.2661 7.38347 48.3274 7.38187C48.2901 7.07361 48.1866 6.55947 48.1253 6.35681C48.0645 6.15467 47.9861 6.00854 47.8575 5.97174C47.8575 5.97174 47.9578 6.25387 48.0122 6.54614C48.0666 6.83841 48.1098 7.11734 48.145 7.39414ZM47.4026 8.42401C47.6607 8.36054 47.9258 8.07627 47.9258 8.07627C47.5087 8.13867 47.4026 8.42401 47.4026 8.42401ZM47.7898 8.39787C47.4298 8.61441 47.025 8.58027 47.025 8.58027C47.1029 8.43414 47.1765 8.29814 47.4021 8.13227C47.6282 7.96587 47.9957 7.92427 48.1407 7.94507C48.1087 8.05654 47.961 8.29494 47.7898 8.39787ZM46.4442 9.00854V8.97814C46.089 9.02454 45.6703 9.00481 45.6703 9.00481C45.6927 9.14081 45.7477 9.24374 45.841 9.30721C45.8639 9.01174 46.4442 9.00854 46.4442 9.00854ZM45.2671 8.61654C45.2671 8.61654 45.7151 8.78881 46.1642 8.76587C46.6122 8.74241 47.4383 8.73281 47.7061 8.60001C47.7061 8.60001 47.6613 8.77227 47.4485 8.87254C47.4485 8.87254 47.5615 8.87254 47.6714 8.97227C47.6714 8.97227 47.6069 9.11467 47.4165 9.19094C47.4165 9.19094 47.7583 9.55574 48.1226 9.52961C48.1226 9.52961 47.9546 9.74507 47.5802 9.66187C47.2069 9.57921 47.0869 9.36374 47.0223 9.28054C47.0223 9.28054 47.0703 9.48587 47.0474 9.56961C47.0474 9.56961 46.8831 9.55947 46.7546 9.39307C46.7546 9.39307 46.8485 9.55947 46.8671 9.69867C46.8671 9.69867 46.7642 9.71201 46.5797 9.59894C46.5797 9.59894 46.6181 9.70134 46.6255 9.82081C46.6255 9.82081 46.1925 9.67787 45.9829 9.47627C45.9829 9.47627 45.9797 9.61494 45.9903 9.69547C45.9898 9.69547 45.3183 9.62561 45.2671 8.61654ZM45.1642 8.68694C45.1797 8.90561 45.2351 9.12161 45.3087 9.27414C45.3087 9.27414 45.0442 9.06881 44.9797 8.89654C44.9151 8.72267 44.8997 8.60374 45.1642 8.68694ZM44.6335 9.51574C44.6481 9.51567 44.6626 9.51272 44.6761 9.50704C44.6895 9.50137 44.7017 9.49309 44.712 9.48268C44.7223 9.47228 44.7304 9.45995 44.7358 9.4464C44.7413 9.43285 44.7441 9.41835 44.7439 9.40374C44.7442 9.37413 44.7328 9.34561 44.7121 9.32442C44.6914 9.30323 44.6631 9.2911 44.6335 9.29067C44.6041 9.29137 44.5761 9.30363 44.5557 9.32479C44.5352 9.34595 44.5239 9.37431 44.5242 9.40374C44.5242 9.46614 44.5738 9.51574 44.6335 9.51574ZM45.2805 9.38347C45.4575 9.46614 45.6149 9.66187 45.6149 9.66187C45.3471 9.72534 45.2271 9.80481 45.2271 9.80481C45.0944 9.69837 44.9292 9.64063 44.7591 9.64121C44.589 9.64179 44.4242 9.70066 44.2922 9.80801C44.0143 9.64534 43.9599 9.25067 44.0991 9.04161C44.2378 8.83254 44.5509 8.86934 44.6991 8.90507C44.793 9.21121 45.1215 9.30987 45.2805 9.38347ZM45.6735 9.73174C45.6735 9.73174 45.8613 9.98721 45.9962 10.0997C45.9962 10.0997 45.3055 10.0933 45.1317 10.7077C45.1317 10.7077 44.8927 10.3323 45.0671 10.0869C45.2549 9.82187 45.4282 9.78881 45.6735 9.73174Z" clip-rule="evenodd"/><path fill="#0055A6" fill-rule="evenodd" d="M46.4324 9.88428C46.4324 9.88428 46.6553 9.95094 46.7289 9.97068C46.7289 9.97068 46.7327 9.83788 46.7263 9.77494C46.794 9.79094 46.8772 9.81494 46.9487 9.82081C46.9487 9.82081 47.1711 10.3317 47.3449 10.5376C47.3449 10.5376 47.3551 10.6507 47.2585 10.8229C47.2585 10.8229 47.1327 10.5211 46.9065 10.2795C46.778 10.1424 46.6969 10.0736 46.4324 9.88428ZM45.8447 9.77548C45.9167 9.79521 46.2719 9.90988 46.4447 10.0373C46.6612 10.1963 46.8095 10.3787 46.7865 10.6933C46.7865 10.6933 46.6127 10.4453 46.4196 10.3323C46.2665 10.2432 45.9903 9.99414 45.8447 9.77548ZM45.85 7.46454C45.9156 7.46454 46.0431 7.49654 46.0431 7.60481C46.0431 7.71414 45.8777 7.97708 45.8329 8.09441H45.8297C45.7849 7.97708 45.6191 7.71414 45.6191 7.60481C45.6191 7.49654 45.7471 7.46454 45.8127 7.46454H45.85ZM45.7055 8.31308C45.674 8.15948 45.6153 7.76161 45.5231 7.67361C45.4356 7.58988 45.3071 7.58188 45.2436 7.58614C45.2251 7.58785 45.2072 7.5937 45.1913 7.60328C45.1754 7.61285 45.1619 7.62589 45.1518 7.64143C45.1416 7.65697 45.1351 7.6746 45.1327 7.69301C45.1303 7.71142 45.1321 7.73013 45.138 7.74774C45.1647 7.83734 45.4505 8.27841 45.4873 8.33388C45.554 8.32268 45.5412 8.32641 45.7055 8.31308ZM45.9583 8.31308C45.9908 8.15948 46.0489 7.76161 46.1407 7.67361C46.2276 7.58988 46.3572 7.58188 46.4201 7.58614C46.4387 7.58775 46.4566 7.59354 46.4725 7.60309C46.4885 7.61263 46.5021 7.62569 46.5122 7.64125C46.5224 7.65682 46.5289 7.6745 46.5313 7.69294C46.5336 7.71139 46.5317 7.73013 46.5257 7.74774C46.4996 7.83734 46.2132 8.27841 46.1759 8.33388C46.1092 8.32268 46.1225 8.32641 45.9583 8.31308ZM46.1428 6.92961H45.9199V6.67628H45.7396V6.92961H45.5156V7.08908H45.7396V7.38774H45.9199V7.08908H46.1428V6.92961ZM43.4409 8.56374C43.4415 8.51521 43.4447 8.46614 43.4511 8.41814C43.4681 8.31371 43.4699 8.20736 43.4564 8.10241C43.2969 8.16534 43.1876 8.20534 42.9668 8.57174C42.9663 8.57174 43.3188 8.34828 43.4409 8.56374ZM43.7487 9.14508C43.7535 9.05388 43.8111 8.76694 43.8847 8.56374C43.9748 8.31574 43.9236 7.95414 43.8153 7.73548C43.7103 7.52428 43.6527 7.32481 43.6713 7.10561C43.6713 7.10561 43.4617 7.17761 43.3423 7.25334C43.3225 7.50774 43.4665 7.76161 43.5359 7.90668C43.6169 8.07734 43.6004 8.29974 43.5823 8.43628C43.5519 8.66721 43.5977 8.91414 43.7487 9.14508ZM43.7727 7.20161C43.764 7.15492 43.7666 7.10685 43.7801 7.06134C43.7801 7.06134 44.1081 6.73228 44.3849 6.67628C44.4434 6.66266 44.5043 6.66356 44.5623 6.6789C44.6203 6.69424 44.6737 6.72355 44.7177 6.76428C44.7177 6.76428 44.6207 6.75254 44.474 6.87521C44.3273 6.99841 44.1439 7.14721 44.0052 7.18454C43.8681 7.22134 43.8383 7.21014 43.7727 7.20161ZM44.7444 6.78881C44.8681 6.91628 44.9727 7.05014 44.9705 7.16641C44.9684 7.28748 44.8319 7.58934 44.7604 7.70561C44.6889 7.82188 44.5844 7.97174 44.5961 8.15574C44.6025 8.24748 44.6644 8.34188 44.738 8.41921C44.738 8.41921 44.3359 8.32108 44.2868 8.06561C44.2431 7.83734 44.338 7.67681 44.4025 7.55041C44.4628 7.43201 44.6484 7.15414 44.6953 7.03894C44.738 6.93388 44.7604 6.84641 44.7444 6.78881ZM47.0953 9.66668C47.1759 9.95841 47.3124 10.2331 47.4468 10.4491C47.5679 10.6448 47.6447 10.9653 47.6335 11.0736C47.6335 11.0736 47.8159 10.6613 47.722 10.3696C47.65 10.1451 47.4548 9.80908 47.0953 9.66668ZM47.5476 9.76321C47.5476 9.76321 47.8228 9.76694 47.9524 9.85441C48.1188 9.96748 48.2756 10.2128 48.3364 10.5083C48.3364 10.5083 48.058 10.4587 47.9204 10.3173C47.7828 10.1749 47.6127 9.96321 47.5476 9.76321ZM46.1199 10.2752C46.0308 10.2887 45.9428 10.3083 45.8564 10.3339C45.8564 10.3339 46.0916 10.4043 46.2084 10.504C46.3087 10.5888 46.3951 10.72 46.4356 10.9408C46.4921 11.2491 46.6692 11.5819 46.722 11.6816L46.7433 11.6773C46.7103 11.4651 46.8399 11.0245 46.8719 10.9616C46.8719 10.9616 46.6863 10.8411 46.6009 10.7157C46.5385 10.624 46.4271 10.4709 46.1199 10.2752ZM47.3423 10.9371C47.4105 11.0992 47.5929 11.3861 47.5076 11.6859C47.4223 11.9856 47.2329 12.1147 47.1151 12.368C47.1151 12.368 47.0217 11.9104 47.0431 11.5568C47.0623 11.2032 47.1881 11.0661 47.3423 10.9371ZM47.8719 10.9493C47.8719 10.9493 48.146 11.496 48.1956 11.7109C48.2436 11.9227 48.1993 12.0645 48.106 12.1931C48.0127 12.3216 47.8548 12.4597 47.7103 12.7301C47.7103 12.7301 47.5407 12.5013 47.5193 12.3803C47.4991 12.2597 47.5316 11.9723 47.5689 11.8517C47.6047 11.7317 47.7497 11.3445 47.8719 10.9493ZM48.0127 12.6955C47.9519 12.7621 47.6313 13.1584 47.5881 13.2741C47.5455 13.3899 47.4713 13.608 47.5705 13.7595C47.6708 13.9109 47.8985 14.1536 48.0985 14.2565C48.0985 14.2565 47.882 13.9088 47.9039 13.6235C47.9183 13.4416 48.0548 13.2789 48.0809 13.1675C48.1071 13.056 48.0905 12.8688 48.0127 12.6955ZM47.3855 12.4763C47.4345 12.5467 47.5204 12.7168 47.5316 12.8837C47.5428 13.0469 47.5177 13.1787 47.4308 13.4187C47.3276 13.6892 47.2079 13.9532 47.0724 14.2091C47.0724 14.2091 46.9215 13.9877 46.8388 13.7904C46.8388 13.7904 47.074 13.4592 47.1743 13.2245C47.2905 12.9488 47.3396 12.6933 47.3855 12.4763ZM47.2756 12.3483C47.2756 12.3483 47.1748 13.1264 46.7295 13.7051C46.4287 14.0965 46.1828 14.2325 46.0212 14.2325C45.7764 14.2325 45.5305 14.0229 45.4479 13.7829C45.3652 13.5429 45.3913 13.1707 45.5492 13.0384C45.5492 13.0384 45.6964 13.5056 46.0095 13.5227C46.3636 13.5429 46.8196 13.1355 47.2756 12.3483Z" clip-rule="evenodd"/><path fill="#0055A6" fill-rule="evenodd" d="M46.9103 12.0229C46.9477 12.1621 46.9594 12.376 46.9103 12.5776C46.873 12.7301 46.7823 12.9312 46.6085 13.0426C46.4586 13.1392 46.1034 13.1626 45.9679 12.8176C45.9674 12.8176 46.6154 12.8677 46.9103 12.0229ZM47.9711 15.1626C48.0602 15.3962 48.3775 15.6928 48.3759 15.8752C48.3695 16.36 48.1647 16.6565 48.1157 16.8165C48.1157 16.8165 47.7386 16.5082 47.6714 16.1546C47.6373 15.9738 47.6773 15.4304 47.9711 15.1626ZM47.5493 15.5045C47.5935 15.3792 47.7322 15.0373 47.8927 14.9173C47.8927 14.9173 48.0991 14.2954 47.4383 13.9141C47.4383 13.9141 47.1669 14.2848 47.0949 14.6325C47.0229 14.9802 47.3834 15.1909 47.5493 15.5045ZM46.7237 13.937C46.6175 14.0677 46.4682 14.2501 46.3519 14.3072C46.3519 14.3072 46.313 14.585 46.3349 14.769C46.3685 15.0426 46.5397 15.3226 46.6127 15.5274C46.6127 15.5274 46.9013 15.1397 46.9349 14.9114C46.9679 14.6832 46.9621 14.4954 46.9733 14.3872C46.9727 14.3872 46.8122 14.1189 46.7237 13.937ZM45.9637 15.2666C45.8821 15.1392 45.617 14.6682 45.6133 14.3269C45.6133 14.3269 45.9391 14.5045 46.2117 14.3744C46.2117 14.3744 46.2479 14.8186 46.1951 14.969C46.1519 15.0912 46.0959 15.1642 45.9637 15.2666ZM46.0383 15.3621C46.0917 15.3152 46.2213 15.192 46.2741 15.1269C46.2741 15.1269 46.4895 15.5338 46.5269 15.6528C46.5269 15.6528 46.4186 15.681 46.3002 15.5925C46.2054 15.5247 46.1176 15.4475 46.0383 15.3621ZM47.0383 15.1232C47.0122 15.2261 46.6629 15.7248 46.6031 15.7861C46.6031 15.7861 46.6303 15.9669 46.7594 16.2266C46.8885 16.4864 47.0687 16.6677 47.1647 16.76C47.1647 16.76 47.3797 16.3733 47.4437 16.2032C47.5167 16.0085 47.5082 15.8165 47.4767 15.7456C47.4042 15.5776 47.1509 15.3349 47.0383 15.1232ZM47.5637 16.4288C47.6399 16.5898 47.873 16.8522 47.9093 17.0608C47.9375 17.2245 47.9119 17.3578 47.8693 17.4709C47.8261 17.5834 47.6863 17.8026 47.5925 17.9706C47.5925 17.9706 47.2741 17.6613 47.2037 17.4405C47.1503 17.2741 47.1706 17.0373 47.2474 16.8906C47.3237 16.7429 47.4906 16.5818 47.5637 16.4288ZM46.6597 16.384C46.7429 16.569 46.9391 16.7541 46.985 16.9168C47.0383 17.1082 47.0549 17.2309 46.9653 17.4533C46.8853 17.6501 46.7882 17.7642 46.7551 17.8837C46.7551 17.8837 46.4965 17.5397 46.4538 17.3962C46.4101 17.2522 46.3967 17.016 46.4495 16.8661C46.5034 16.7157 46.5967 16.52 46.6597 16.384ZM47.9354 17.696C47.9354 17.696 47.4895 18.2496 47.5002 18.5429C47.5135 18.9093 47.7493 19.152 47.7829 19.377C47.7829 19.377 48.0159 19.105 48.105 18.9226C48.2047 18.7173 48.281 18.5429 48.2549 18.3109C48.2282 18.0789 48.1674 17.929 47.9354 17.696ZM47.1146 17.6416C47.185 17.7472 47.3845 18.1093 47.3274 18.3248C47.2714 18.5397 47.0517 18.8437 46.9791 18.9738C46.9791 18.9738 46.8021 18.601 46.7626 18.4304C46.7231 18.2597 46.7594 17.9834 47.1146 17.6416ZM51.5706 8.50397C51.5706 8.45704 51.3674 8.4197 51.1162 8.4197C50.8655 8.4197 50.6623 8.45704 50.6623 8.50397C50.6623 8.55037 50.8655 8.58824 51.1162 8.58824C51.3674 8.58824 51.5706 8.55037 51.5706 8.50397ZM48.4773 7.07037C48.5071 6.8613 48.7429 6.4165 48.7429 6.2213C48.7437 6.14878 48.7158 6.07887 48.6652 6.02689C48.6147 5.97491 48.5455 5.94509 48.473 5.94397C48.4005 5.94509 48.3314 5.97491 48.2808 6.02689C48.2302 6.07887 48.2023 6.14878 48.2031 6.2213C48.2031 6.4165 48.4394 6.8613 48.4682 7.07037H48.4773ZM49.2293 7.51944C49.4645 6.94344 49.6202 6.51997 49.6143 6.37757C49.6095 6.29064 49.5114 6.22717 49.4175 6.19784C49.3231 6.16797 49.2399 6.16264 49.1791 6.21117C49.057 6.3077 48.9434 7.0837 48.9013 7.4069C49.0197 7.4309 49.0917 7.44584 49.2293 7.51944ZM48.801 7.3941C48.7404 7.38757 48.6796 7.38348 48.6186 7.38184C48.6554 7.07357 48.7589 6.55944 48.8202 6.35677C48.881 6.15464 48.9594 6.0085 49.0879 5.9717C49.0879 5.9717 48.9877 6.25384 48.9333 6.5461C48.881 6.82743 48.8369 7.11022 48.801 7.3941ZM49.0207 8.07677C49.0207 8.07677 49.2842 8.36104 49.5434 8.4245C49.5439 8.42397 49.4362 8.13864 49.0207 8.07677ZM48.8042 7.94504C48.9487 7.92424 49.3178 7.96584 49.5439 8.13224C49.7695 8.29864 49.8431 8.4341 49.921 8.58024C49.921 8.58024 49.5157 8.61437 49.1551 8.39784C48.9855 8.2949 48.8373 8.0565 48.8042 7.94504ZM51.1045 9.30717C51.1983 9.2437 51.2527 9.14077 51.2746 9.00477C51.2746 9.00477 50.8559 9.0245 50.5013 8.9781V9.0085C50.5013 9.0085 51.0821 9.0117 51.1045 9.30717ZM50.9562 9.69544C50.9669 9.61544 50.9631 9.47623 50.9631 9.47623C50.753 9.67837 50.321 9.82077 50.321 9.82077C50.3274 9.7013 50.3658 9.5989 50.3658 9.5989C50.1823 9.71143 50.0783 9.69863 50.0783 9.69863C50.0981 9.5589 50.1919 9.39303 50.1919 9.39303C50.1573 9.44063 50.1134 9.48077 50.0629 9.5111C50.0124 9.54142 49.9564 9.56131 49.8981 9.56957C49.8757 9.48637 49.9242 9.2805 49.9242 9.2805C49.8597 9.3637 49.7397 9.57917 49.3658 9.66183C48.9909 9.74503 48.8234 9.52957 48.8234 9.52957C49.1887 9.5557 49.5301 9.1909 49.5301 9.1909C49.4215 9.15099 49.3308 9.07339 49.2746 8.97224C49.385 8.8725 49.4975 8.8725 49.4975 8.8725C49.2842 8.77224 49.2394 8.59997 49.2394 8.59997C49.5077 8.73277 50.3333 8.74237 50.7823 8.76584C51.2303 8.78877 51.6794 8.6165 51.6794 8.6165C51.6271 9.62557 50.9562 9.69544 50.9562 9.69544ZM51.7823 8.6869C51.7658 8.90557 51.7114 9.12157 51.6373 9.2741C51.6373 9.2741 51.9013 9.06877 51.9658 8.8965C52.0309 8.72264 52.0469 8.6037 51.7823 8.6869ZM52.4207 9.4037C52.421 9.38906 52.4183 9.37453 52.4129 9.36092C52.4075 9.34732 52.3994 9.33491 52.3892 9.32441C52.379 9.31391 52.3669 9.30552 52.3534 9.29973C52.34 9.29393 52.3255 9.29084 52.3109 9.29064C52.2814 9.2912 52.2533 9.30339 52.2327 9.32456C52.2121 9.34574 52.2007 9.37418 52.201 9.4037C52.201 9.4661 52.2511 9.5157 52.3109 9.5157C52.3255 9.51563 52.3399 9.51267 52.3533 9.50699C52.3668 9.50131 52.379 9.49303 52.3892 9.48261C52.3994 9.4722 52.4074 9.45986 52.4129 9.44632C52.4183 9.43277 52.421 9.41829 52.4207 9.4037ZM52.2463 8.90557C52.3951 8.86984 52.7082 8.83304 52.8463 9.0421C52.9855 9.25117 52.9306 9.64584 52.6538 9.8085C52.6538 9.8085 52.2303 9.43357 51.7178 9.8053C51.7178 9.8053 51.5978 9.72584 51.3301 9.66237C51.3301 9.66237 51.4885 9.46663 51.6655 9.38397C51.8239 9.30983 52.1525 9.21117 52.2463 8.90557ZM51.273 9.7317C51.273 9.7317 51.0853 9.98717 50.9503 10.0997C50.9503 10.0997 51.641 10.0933 51.8149 10.7077C51.8149 10.7077 52.0533 10.3322 51.8789 10.0869C51.6911 9.82184 51.5178 9.78877 51.273 9.7317Z" clip-rule="evenodd"/><path fill="#0055A6" fill-rule="evenodd" d="M50.5142 9.88428C50.5142 9.88428 50.2912 9.95094 50.2171 9.97068C50.2171 9.97068 50.2134 9.83788 50.2203 9.77494C50.1526 9.79094 50.0683 9.81494 49.9974 9.82081C49.9974 9.82081 49.775 10.3317 49.6011 10.5376C49.6011 10.5376 49.591 10.6507 49.688 10.8229C49.688 10.8229 49.8134 10.5211 50.0395 10.2795C50.167 10.1424 50.2496 10.0736 50.5142 9.88428ZM51.1014 9.77548C51.0294 9.79521 50.6731 9.90988 50.5008 10.0373C50.2848 10.1963 50.1355 10.3787 50.1584 10.6933C50.1584 10.6933 50.3334 10.4453 50.5259 10.3323C50.6795 10.2432 50.9558 9.99414 51.1014 9.77548ZM51.0966 7.46454C51.0304 7.46454 50.903 7.49654 50.903 7.60481C50.903 7.71414 51.0688 7.97708 51.1126 8.09441H51.1168C51.1606 7.97708 51.3264 7.71414 51.3264 7.60481C51.3264 7.49654 51.199 7.46454 51.1328 7.46454H51.0966ZM51.24 8.31308C51.2715 8.15948 51.3302 7.76161 51.4224 7.67361C51.5099 7.58988 51.6379 7.58188 51.7024 7.58614C51.7209 7.58794 51.7387 7.59386 51.7545 7.60346C51.7704 7.61306 51.7839 7.6261 51.794 7.64161C51.8041 7.65712 51.8106 7.67471 51.8131 7.69308C51.8155 7.71145 51.8138 7.73013 51.808 7.74774C51.7814 7.83734 51.495 8.27841 51.4576 8.33388C51.391 8.32268 51.4048 8.32641 51.24 8.31308ZM50.9872 8.31308C50.9558 8.15948 50.8976 7.76161 50.8048 7.67361C50.7174 7.58988 50.5894 7.58188 50.5248 7.58614C50.5064 7.58801 50.4887 7.59399 50.4729 7.60362C50.4571 7.61325 50.4437 7.62629 50.4336 7.6418C50.4235 7.6573 50.4171 7.67486 50.4147 7.6932C50.4123 7.71153 50.414 7.73017 50.4198 7.74774C50.447 7.83734 50.7323 8.27841 50.7696 8.33388C50.8363 8.32268 50.823 8.32641 50.9872 8.31308ZM50.8038 6.92961H51.0262V6.67628H51.2059V6.92961H51.4299V7.08908H51.2059V7.38774H51.0262V7.08908H50.8038V6.92961ZM48.127 5.42988H48.3494V5.17548H48.5296V5.42988H48.7531V5.58934H48.5296V5.88748H48.3494V5.58934H48.127V5.42988ZM53.5046 8.56374C53.5046 8.51521 53.5008 8.46614 53.4939 8.41814C53.4779 8.31362 53.4761 8.20741 53.4886 8.10241C53.6491 8.16534 53.7574 8.20534 53.9782 8.57174C53.9787 8.57174 53.6272 8.34828 53.5046 8.56374Z" clip-rule="evenodd"/><path fill="#0055A6" fill-rule="evenodd" d="M53.1964 9.14509C53.1921 9.05389 53.134 8.76695 53.0609 8.56375C52.9713 8.31575 53.0225 7.95415 53.1308 7.73549C53.2348 7.52429 53.2934 7.32482 53.2742 7.10562C53.2742 7.10562 53.4833 7.17762 53.6028 7.25335C53.6225 7.50775 53.4785 7.76162 53.4102 7.90669C53.3281 8.07735 53.3452 8.29975 53.3633 8.43629C53.3942 8.66722 53.3473 8.91415 53.1964 9.14509ZM53.1734 7.20162C53.1824 7.15492 53.1797 7.10673 53.1654 7.06135C53.1654 7.06135 52.8374 6.73229 52.5612 6.67629C52.5027 6.66272 52.4417 6.66364 52.3836 6.67897C52.3255 6.69431 52.2721 6.72359 52.2278 6.76429C52.2278 6.76429 52.3249 6.75255 52.4716 6.87522C52.6188 6.99842 52.8012 7.14722 52.9404 7.18455C53.0774 7.22135 53.1078 7.21015 53.1734 7.20162ZM52.2006 6.78882C52.0769 6.91629 51.9729 7.05015 51.975 7.16642C51.9777 7.28749 52.1132 7.58935 52.1852 7.70562C52.2572 7.82189 52.3617 7.97175 52.3489 8.15575C52.342 8.24749 52.2812 8.34189 52.2081 8.41922C52.2081 8.41922 52.6102 8.32109 52.6593 8.06562C52.7025 7.83735 52.6081 7.67682 52.5436 7.55042C52.4828 7.43202 52.2977 7.15415 52.2508 7.03895C52.2086 6.93389 52.1862 6.84642 52.2006 6.78882ZM49.8519 9.66669C49.7713 9.94251 49.6528 10.2058 49.4999 10.4491C49.3777 10.6448 49.3009 10.9654 49.3132 11.0736C49.3132 11.0736 49.1308 10.6614 49.2246 10.3696C49.2966 10.1451 49.4903 9.80909 49.8519 9.66669ZM49.3975 9.76322C49.3975 9.76322 49.1223 9.76695 48.9932 9.85442C48.8273 9.96749 48.6695 10.2128 48.6087 10.5083C48.6087 10.5083 48.8876 10.4587 49.0252 10.3174C49.1633 10.175 49.3335 9.96322 49.3975 9.76322ZM50.8268 10.2752C50.8791 10.28 51.0204 10.3131 51.0892 10.3339C51.0892 10.3339 50.8545 10.4043 50.7377 10.504C50.6375 10.5888 50.5516 10.72 50.511 10.9408C50.454 11.2491 50.2774 11.5819 50.2241 11.6816L50.2028 11.6774C50.2358 11.4651 50.1057 11.0246 50.0737 10.9616C50.0737 10.9616 50.2604 10.8411 50.3457 10.7158C50.4076 10.624 50.5196 10.471 50.8268 10.2752ZM49.6044 10.9371C49.5356 11.0992 49.3537 11.3862 49.438 11.6859C49.5228 11.9856 49.7137 12.1147 49.8305 12.368C49.8305 12.368 49.9244 11.9104 49.9036 11.5568C49.8833 11.2032 49.758 11.0662 49.6044 10.9371ZM48.4769 11.7755C48.4881 11.6011 48.8844 11.1782 48.8647 10.9494C48.8439 10.7206 48.5479 10.5584 48.4753 10.5254H48.4716C48.3985 10.5584 48.1031 10.7206 48.0828 10.9494C48.0625 11.1782 48.4577 11.6011 48.47 11.7755H48.4769ZM49.0743 10.9494C49.0743 10.9494 48.7996 11.496 48.7505 11.711C48.7031 11.9227 48.7468 12.0646 48.8407 12.1931C48.9335 12.3222 49.0908 12.4598 49.2369 12.7302C49.2369 12.7302 49.406 12.5014 49.4268 12.3803C49.4465 12.2598 49.4145 11.9723 49.3777 11.8518C49.3415 11.7318 49.1953 11.3446 49.0743 10.9494ZM48.4759 13.0651C48.6017 12.9536 48.7127 12.7888 48.7479 12.6907C48.782 12.5926 48.7927 12.4491 48.7095 12.3398C48.6092 12.2086 48.4844 12.0624 48.4759 11.9435H48.4695C48.4599 12.063 48.3361 12.2086 48.2364 12.3398C48.1537 12.4491 48.1628 12.5926 48.1985 12.6907C48.2327 12.7888 48.3452 12.9536 48.4711 13.0651H48.4759ZM48.934 12.6955C48.9937 12.7622 49.3142 13.1584 49.3574 13.2742C49.4006 13.3899 49.4743 13.608 49.374 13.7595C49.2748 13.911 49.0476 14.1536 48.8476 14.2566C48.8476 14.2566 49.0636 13.9088 49.0423 13.6235C49.0279 13.4416 48.8903 13.279 48.8641 13.1675C48.838 13.056 48.8556 12.8688 48.934 12.6955ZM49.5612 12.4763C49.48 12.5982 49.4297 12.7381 49.4145 12.8838C49.4033 13.047 49.4289 13.1787 49.5164 13.4187C49.6257 13.7211 49.7943 14.0582 49.8743 14.2091C49.8743 14.2091 50.0247 13.9878 50.1073 13.7904C50.1073 13.7904 49.8721 13.4592 49.7724 13.2246C49.655 12.9488 49.6065 12.6934 49.5612 12.4763ZM49.6705 12.3483C49.6705 12.3483 49.7713 13.1264 50.2166 13.7051C50.518 14.0966 50.7628 14.2326 50.9254 14.2326C51.1702 14.2326 51.415 14.023 51.4982 13.783C51.5804 13.543 51.5543 13.1707 51.3964 13.0384C51.3964 13.0384 51.2497 13.5056 50.9367 13.5227C50.582 13.543 50.1255 13.1355 49.6705 12.3483Z" clip-rule="evenodd"/><path fill="#0055A6" fill-rule="evenodd" d="M50.037 12.0229C49.9935 12.2053 49.9935 12.3953 50.037 12.5776C50.0738 12.7301 50.165 12.9312 50.3378 13.0427C50.4888 13.1392 50.8429 13.1627 50.9784 12.8176C50.9789 12.8176 50.3309 12.8677 50.037 12.0229ZM48.7496 14.0901C48.8322 13.96 48.9106 13.7195 48.8658 13.5488C48.8109 13.3376 48.6994 13.2523 48.6328 13.1205C48.5773 13.1728 48.5437 13.2133 48.477 13.2539H48.4733C48.4061 13.2133 48.3709 13.1728 48.3154 13.1205C48.2488 13.2523 48.1373 13.3376 48.0818 13.5488C48.0386 13.7195 48.116 13.96 48.1992 14.0901C48.3042 14.2555 48.3821 14.2896 48.4738 14.3344C48.5661 14.2896 48.6434 14.2555 48.7496 14.0901ZM48.4738 15.6469C48.5186 15.4416 48.9378 15.0427 48.8989 14.8256C48.8418 14.5008 48.6376 14.5696 48.477 14.432H48.4738C48.3122 14.5691 48.1069 14.5003 48.0493 14.8256C48.0114 15.0421 48.4269 15.4411 48.4722 15.6469H48.4738ZM48.9768 15.1627C48.8872 15.3963 48.5693 15.6928 48.5714 15.8752C48.5768 16.36 48.7821 16.6565 48.8317 16.8165C48.8317 16.8165 49.2088 16.5083 49.2749 16.1547C49.309 15.9739 49.2701 15.4304 48.9768 15.1627ZM49.3976 15.5045C49.3528 15.3792 49.2141 15.0373 49.0536 14.9173C49.0536 14.9173 48.8482 14.2955 49.5085 13.9141C49.5085 13.9141 49.78 14.2848 49.853 14.6326C49.9245 14.9803 49.565 15.1909 49.3976 15.5045ZM50.2237 13.9371C50.3288 14.0677 50.4792 14.2501 50.5954 14.3072C50.5954 14.3072 50.6338 14.5851 50.612 14.7691C50.5784 15.0427 50.4066 15.3227 50.3346 15.5275C50.3346 15.5275 50.0456 15.1397 50.012 14.9115C49.9789 14.6832 49.9848 14.4955 49.9736 14.3872C49.9736 14.3872 50.1346 14.1189 50.2237 13.9371ZM50.9842 15.2667C51.0653 15.1392 51.3309 14.6683 51.3341 14.3269C51.3341 14.3269 51.0082 14.5045 50.7357 14.3744C50.7357 14.3744 50.7 14.8187 50.7528 14.9691C50.7954 15.0912 50.852 15.1643 50.9842 15.2667ZM50.909 15.3621C50.8256 15.2886 50.7467 15.2101 50.6728 15.1269C50.6728 15.1269 50.4573 15.5339 50.42 15.6528C50.42 15.6528 50.5282 15.6811 50.6466 15.5925C50.765 15.5035 50.7922 15.4811 50.909 15.3621ZM49.909 15.1232C49.9352 15.2261 50.2845 15.7248 50.3432 15.7861C50.3432 15.7861 50.317 15.9669 50.1869 16.2267C50.0839 16.4266 49.9469 16.607 49.7821 16.76C49.7821 16.76 49.5672 16.3733 49.5026 16.2032C49.4301 16.0085 49.4392 15.8165 49.4701 15.7456C49.5432 15.5776 49.7954 15.3349 49.909 15.1232ZM48.796 17.5397C48.8456 17.3984 48.8434 17.2341 48.789 17.1221C48.7261 16.992 48.5 16.6715 48.4733 16.5787C48.445 16.6715 48.2216 16.9915 48.1581 17.1221C48.1032 17.2341 48.1016 17.3989 48.1517 17.5397C48.2354 17.776 48.4365 17.9381 48.4701 18.0752H48.4765C48.5101 17.9381 48.7112 17.776 48.796 17.5397ZM49.3842 16.4288C49.3069 16.5899 49.0749 16.8523 49.0386 17.0608C49.0098 17.2245 49.0354 17.3579 49.0781 17.4709C49.1208 17.5835 49.2616 17.8027 49.3544 17.9707C49.3544 17.9707 49.6733 17.6613 49.7432 17.4405C49.7965 17.2741 49.7768 17.0373 49.7005 16.8907C49.6226 16.7429 49.4568 16.5819 49.3842 16.4288ZM50.2877 16.384C50.204 16.5691 50.0072 16.7541 49.9618 16.9168C49.909 17.1083 49.892 17.2309 49.9821 17.4533C50.061 17.6501 50.1581 17.7643 50.1917 17.8837C50.1917 17.8837 50.4498 17.5397 50.4936 17.3963C50.5373 17.2528 50.5501 17.016 50.4978 16.8661C50.4434 16.7157 50.3506 16.52 50.2877 16.384ZM48.4738 20.72C48.4904 20.5515 48.8296 20.0299 48.8456 19.4763C48.8541 19.1989 48.613 18.7659 48.477 18.6011H48.4701C48.333 18.7659 48.0946 19.1989 48.1021 19.4763C48.1186 20.0299 48.4562 20.5509 48.4738 20.72ZM49.012 17.696C49.012 17.696 49.4578 18.2496 49.4472 18.543C49.4344 18.9093 49.1976 19.152 49.1645 19.3771C49.1645 19.3771 48.9309 19.1051 48.8424 18.9227C48.7426 18.7173 48.6664 18.5429 48.6941 18.3109C48.7197 18.0789 48.7789 17.9291 49.012 17.696ZM49.8322 17.6416C49.7624 17.7472 49.5634 18.1093 49.62 18.3248C49.676 18.5397 49.8962 18.8437 49.9688 18.9739C49.9688 18.9739 50.1448 18.6011 50.1848 18.4304C50.2242 18.2597 50.1874 17.9835 49.8322 17.6416Z" clip-rule="evenodd"/><path fill="#0055A6" fill-rule="evenodd" d="M48.7784 21.608C48.8056 21.1776 49.0429 20.92 49.0835 20.696C49.1304 20.4501 49.1149 20.2149 48.9283 19.9307C48.8156 20.3372 48.6666 20.7328 48.4829 21.1125L48.4728 21.1344L48.4637 21.1125C48.2797 20.7329 48.1304 20.3373 48.0179 19.9307C47.8323 20.2144 47.8157 20.4501 47.8621 20.696C47.9043 20.92 48.1411 21.1776 48.1672 21.608C48.1944 22.0389 47.7224 22.2032 47.7224 22.2032C47.8819 22.2613 48.0632 22.2875 48.3507 22.0075C48.4035 21.9563 48.4435 21.9008 48.4728 21.8416C48.5032 21.9003 48.5427 21.9563 48.5955 22.0075C48.8829 22.2875 49.0637 22.2619 49.2227 22.2032C49.2232 22.2032 48.7517 22.0384 48.7784 21.608ZM47.2941 18.7456C47.3443 18.9067 47.4909 19.2032 47.5096 19.2944C47.5448 19.4651 47.4973 19.6715 47.1949 19.8912C47.1949 19.8912 46.9987 19.7504 46.9208 19.5653C46.8488 19.3915 46.8904 19.2693 46.9667 19.1797C47.0419 19.0896 47.2189 18.8811 47.2941 18.7456ZM47.9304 19.3829C47.9304 19.4693 47.868 19.9563 47.7336 20.1979C47.5448 20.5376 47.2664 20.7904 47.0237 20.7904C46.7981 20.7904 46.7507 20.6523 46.6387 20.5957C46.6387 20.5957 46.6957 20.3008 46.9485 20.2235C47.26 20.1285 47.7373 19.7445 47.9304 19.3829Z" clip-rule="evenodd"/><path fill="#0055A6" fill-rule="evenodd" d="M47.118 20.0037C47.0657 19.9627 47.0198 19.9339 46.9574 19.8592C46.9574 19.8592 46.7169 19.9509 46.5201 20.0875C46.3222 20.224 46.1286 20.456 46.0241 20.5781C46.0241 20.5781 46.3201 20.6571 46.5073 20.5691C46.5073 20.5691 46.5761 20.2784 46.7862 20.1488C46.8332 20.1205 46.9809 20.0763 47.118 20.0037ZM46.871 19.7541C46.8257 19.6811 46.7318 19.5456 46.7521 19.3344C46.7521 19.3344 46.3366 19.6043 46.2113 19.7083C46.086 19.8123 45.8268 20.088 45.7692 20.1787C45.7692 20.1787 46.0833 20.1083 46.3249 20.0256C46.5905 19.9344 46.774 19.8123 46.871 19.7541ZM46.1665 20.2176C45.943 20.2987 45.4385 20.3835 45.2278 20.4475C45.0166 20.5115 44.8641 20.624 44.6619 20.8507C44.6619 20.8507 44.9713 20.9387 45.1372 20.9936C45.1372 20.9936 45.4006 20.8085 45.6886 20.6949C45.8764 20.6208 45.9676 20.4176 46.1665 20.2176ZM45.6988 21.7456C45.7473 21.6912 45.8076 21.6277 45.7606 21.4992C45.7276 21.4048 45.5452 21.3019 45.4348 21.2464C45.2545 21.1584 44.7532 21.0203 44.59 20.9707C44.59 20.9707 44.5089 21.0693 44.4652 21.1728C44.446 21.2128 44.4715 21.2539 44.5425 21.2672C44.6817 21.2912 45.0177 21.2272 45.0993 21.2816C45.1878 21.3403 45.1569 21.4203 45.1569 21.4987C45.1569 21.4987 45.31 21.4027 45.406 21.424C45.5404 21.4555 45.6214 21.5195 45.6988 21.7456ZM45.2524 21.0293C45.2886 21.0416 45.4838 21.1035 45.6742 21.2272C45.6742 21.2272 45.759 21.1941 45.8001 21.1136C45.8406 21.0368 46.0124 20.7765 46.1692 20.7419C46.1692 20.7419 46.0353 20.7285 45.959 20.704C45.959 20.704 45.7953 20.7472 45.6801 20.7952C45.5649 20.8432 45.4204 20.9168 45.2524 21.0293ZM46.5452 20.7003C46.5142 20.7147 46.4641 20.7392 46.3468 20.7445C46.3468 20.7445 45.9052 21.0592 45.854 21.3723C45.8097 21.6411 45.9473 21.7691 46.0134 21.8032C46.0801 21.8373 46.3878 21.968 46.5884 21.544C46.5884 21.544 46.2465 21.6592 46.1542 21.4896C46.0614 21.3211 46.2113 21.0752 46.3046 21.0043C46.4262 20.9109 46.646 20.8475 46.7782 20.872C46.7782 20.872 46.6721 20.7669 46.5452 20.7003Z" clip-rule="evenodd"/><path fill="#0055A6" fill-rule="evenodd" d="M43.6581 24.2992C43.7119 24.0688 43.7711 23.8256 43.8735 23.6022C44.0725 23.1691 44.5615 22.0134 45.5802 21.8096C45.6767 21.791 45.4703 21.5472 45.3786 21.559C45.2879 21.5707 45.1055 21.6912 45.0255 21.7462C45.0255 21.7462 45.0255 21.4998 45.0229 21.456C45.0202 21.4118 44.9829 21.3952 44.9429 21.3974C44.9045 21.3979 44.657 21.3952 44.5797 21.488C44.3471 21.7643 43.9551 22.5078 43.7338 23.0619C43.5109 23.615 43.3589 23.784 43.1242 23.6987C42.8901 23.615 42.7503 23.3382 42.3407 23.4224C42.1999 23.4507 42.0426 23.5488 41.9199 23.6934C41.9535 23.7606 41.9973 23.8427 42.1887 23.8427C42.3791 23.8427 42.7434 23.9254 42.9471 24.072C43.1509 24.2171 43.3647 24.2662 43.6581 24.2992ZM47.7258 20.7179C47.7487 20.896 47.8325 21.064 47.9258 21.2379C47.9258 21.2379 47.6154 22.7104 46.4933 22.8246C46.4933 22.8246 46.5162 22.5195 46.8485 22.2864C47.1807 22.0539 47.6778 21.6939 47.641 21.1462C47.641 21.1462 47.5525 21.1648 47.393 21.3702C47.2335 21.5755 46.8837 22.168 46.3429 22.1723C46.3429 22.1723 46.4218 21.8944 46.6618 21.7344C46.9018 21.5755 47.2074 21.3702 47.345 21.1232C47.4821 20.8774 47.6293 20.7638 47.7258 20.7179ZM47.1967 26.079L47.8789 27.0614L48.3962 26.1147L48.2127 25.7771C48.0778 26.0272 47.9333 26.296 47.8506 26.4416L47.3903 25.7771L47.1967 26.079Z" clip-rule="evenodd"/><path fill="#0055A6" fill-rule="evenodd" d="M47.0215 25.2469C46.3569 24.2896 45.5351 23.1029 45.4519 22.9834L45.71 22.793L44.8956 22.473L44.9111 23.3834L45.1863 23.1802L46.8295 25.5488L47.0215 25.2469ZM41.4092 19.8666C41.6108 19.6416 41.9516 19.8352 42.2945 20.1616C42.6391 20.4858 42.8561 20.8186 42.6551 21.0442C42.4695 21.2522 42.1132 21.0752 41.7692 20.7498C41.4252 20.425 41.2081 20.0917 41.4092 19.8666Z" clip-rule="evenodd"/><path fill="#0055A6" fill-rule="evenodd" d="M41.965 23.8672C41.9538 23.8581 41.9429 23.8485 41.9325 23.8384C41.7501 23.6736 41.6461 23.4208 41.6461 23.144C41.6461 22.6117 42.0669 22.1787 42.5842 22.1787C43.1015 22.1787 43.5218 22.6117 43.5218 23.144C43.5218 23.2165 43.5085 23.3333 43.5085 23.3333C43.5517 23.2507 43.7053 22.8827 43.7373 22.816C43.597 22.296 43.133 21.9141 42.5847 21.9141C42.1127 21.9141 41.7042 22.1968 41.5095 22.6064C41.5837 22.12 41.8183 21.6821 41.9863 21.52C42.1853 21.3264 42.525 21.2645 42.525 21.2645C42.3031 21.3013 42.0093 21.1605 41.6807 20.8507C41.3687 20.5557 41.2082 20.2992 41.1991 20.0837C41.2189 20.3877 41.2098 20.5579 41.1261 20.8048C41.0119 21.1413 40.7021 21.7611 40.8125 22.4608C40.8738 22.8453 41.1447 23.4171 41.5981 23.8848C41.6941 23.9899 41.7314 24.1451 41.7421 24.2267C41.7421 24.2267 42.4114 24.2267 42.5698 24.2405C42.5698 24.2405 42.7287 24.2267 42.7261 24.1237C42.7234 24.0224 42.6349 23.9963 42.5559 23.9963C42.477 23.9963 42.1431 24.0037 41.965 23.8672ZM45.6605 24.1008C45.2311 24.2613 44.8023 24.3451 44.3954 24.4091C44.1403 24.4503 43.8817 24.4649 43.6237 24.4528C43.6312 24.5004 43.6242 24.5491 43.6034 24.5925C43.6034 24.5925 43.6535 24.6517 43.6535 24.7184C43.9058 24.7291 44.1682 24.7131 44.4359 24.6709C44.8797 24.6005 45.3479 24.5077 45.8183 24.3253L45.6605 24.1008ZM46.3661 24.0672C46.9357 23.7461 47.493 23.2528 47.9943 22.4635L48.085 22.3083C47.9479 22.3707 47.7714 22.328 47.7714 22.328C47.7634 22.3408 47.741 22.376 47.7298 22.3957C47.2615 23.1067 46.7437 23.5552 46.2135 23.848L46.3661 24.0672ZM42.6055 24.3189C42.5277 24.3061 42.2775 24.3125 42.1266 24.3365C41.9629 24.3632 41.7757 24.3979 41.7565 24.4907C41.7373 24.5792 41.7975 24.6736 41.8797 24.8075C41.9319 24.8901 42.053 24.8427 42.1213 24.8171C42.1895 24.7915 42.5746 24.5787 42.637 24.5088C42.6994 24.4379 42.7245 24.3397 42.6055 24.3189ZM42.9991 24.5808C42.9626 24.5581 42.9214 24.5439 42.8787 24.5394C42.8359 24.5348 42.7926 24.5401 42.7522 24.5547C42.6482 24.5952 42.2679 24.8261 42.2429 24.9339C42.2173 25.0411 42.269 25.0965 42.3282 25.1205C42.3863 25.1445 42.4583 25.1669 42.5106 25.1723C42.5558 25.1738 42.6008 25.1647 42.6419 25.1456C42.6829 25.1265 42.7189 25.098 42.7469 25.0624C42.7959 25.0011 42.973 24.7797 42.9991 24.7296C43.0242 24.68 43.0386 24.6075 42.9991 24.5808ZM43.045 24.8235C42.9661 24.9162 42.8905 25.0118 42.8183 25.1099C42.8002 25.1419 42.8274 25.1904 42.8759 25.1856C42.9234 25.1808 43.1842 25.1531 43.3351 25.0469C43.485 24.9419 43.5858 24.7387 43.4818 24.6645C43.3794 24.5893 43.2199 24.6229 43.045 24.8235ZM43.1293 24.2373C43.0797 24.2251 42.8823 24.1728 42.8391 24.2405C42.7853 24.3237 42.8242 24.4139 42.9773 24.4901C43.1303 24.5659 43.4199 24.6261 43.4775 24.5451C43.5346 24.4624 43.4557 24.3237 43.1293 24.2373ZM49.6514 18.7456C49.6018 18.9067 49.4557 19.2032 49.437 19.2944C49.4018 19.4651 49.4487 19.6715 49.7517 19.8912C49.7517 19.8912 49.9474 19.7504 50.0258 19.5653C50.0983 19.3915 50.0551 19.2693 49.9799 19.1797C49.9037 19.0896 49.7271 18.8811 49.6514 18.7456ZM49.0146 19.3829C49.0146 19.4693 49.0775 19.9563 49.2125 20.1979C49.4013 20.5376 49.6786 20.7904 49.9218 20.7904C50.1479 20.7904 50.1949 20.6523 50.3069 20.5957C50.3069 20.5957 50.2503 20.3008 49.9959 20.2235C49.6861 20.1285 49.2087 19.7445 49.0146 19.3829ZM49.8274 20.0037C49.8797 19.9627 49.9245 19.9339 49.9879 19.8592C49.9879 19.8592 50.2279 19.9509 50.4247 20.0875C50.6221 20.224 50.8157 20.456 50.9207 20.5781C50.9207 20.5781 50.6253 20.6571 50.437 20.5691C50.437 20.5691 50.3682 20.2784 50.1581 20.1488C50.1117 20.1205 49.9639 20.0763 49.8274 20.0037ZM50.0738 19.7541C50.1197 19.6811 50.2135 19.5456 50.1933 19.3344C50.1933 19.3344 50.6087 19.6043 50.7341 19.7083C50.8594 19.8123 51.1186 20.088 51.1767 20.1787C51.1767 20.1787 50.8615 20.1083 50.6205 20.0256C50.3543 19.9344 50.1719 19.8123 50.0738 19.7541ZM50.7778 20.2176C51.0013 20.2987 51.5053 20.3835 51.7165 20.4475C51.9277 20.5115 52.0807 20.624 52.2829 20.8507C52.2829 20.8507 51.973 20.9387 51.8077 20.9936C51.8077 20.9936 51.5442 20.8085 51.2562 20.6949C51.0679 20.6208 50.9773 20.4176 50.7778 20.2176ZM51.2461 21.7456C51.1981 21.6912 51.1378 21.6277 51.1842 21.4992C51.2173 21.4048 51.4002 21.3019 51.5106 21.2464C51.6914 21.1584 52.1927 21.0203 52.3554 20.9707C52.3554 20.9707 52.4365 21.0693 52.4797 21.1728C52.4989 21.2128 52.4738 21.2539 52.4029 21.2672C52.2631 21.2912 51.9266 21.2272 51.8455 21.2816C51.7575 21.3403 51.7885 21.4203 51.7885 21.4987C51.7885 21.4987 51.6354 21.4027 51.5383 21.424C51.4045 21.4555 51.3229 21.5195 51.2461 21.7456ZM51.693 21.0293C51.6567 21.0416 51.4615 21.1035 51.2701 21.2272C51.2701 21.2272 51.1863 21.1941 51.1453 21.1136C51.1047 21.0368 50.933 20.7765 50.7767 20.7419C50.7767 20.7419 50.909 20.7285 50.9863 20.704C50.9863 20.704 51.1501 20.7472 51.2653 20.7952C51.3805 20.8432 51.5245 20.9168 51.693 21.0293ZM50.4002 20.7003C50.4306 20.7147 50.4802 20.7392 50.597 20.7445C50.597 20.7445 51.0386 21.0592 51.0909 21.3723C51.1357 21.6411 50.9981 21.7691 50.9314 21.8032C50.8637 21.8373 50.557 21.968 50.3565 21.544C50.3565 21.544 50.6973 21.6592 50.7906 21.4896C50.8834 21.3211 50.7335 21.0752 50.6402 21.0043C50.5186 20.9109 50.2994 20.8475 50.165 20.872C50.1655 20.872 50.2733 20.7669 50.4002 20.7003Z" clip-rule="evenodd"/><path fill="#0055A6" fill-rule="evenodd" d="M53.2869 24.2992C53.233 24.0688 53.1738 23.8256 53.0709 23.6022C52.873 23.1691 52.3839 22.0134 51.3658 21.8096C51.2687 21.791 51.4751 21.5472 51.5658 21.559C51.6586 21.5707 51.8399 21.6912 51.9199 21.7462C51.9199 21.7462 51.9199 21.4998 51.9221 21.456C51.9253 21.4118 51.9626 21.3952 52.0021 21.3974C52.041 21.3979 52.2885 21.3952 52.3658 21.488C52.5983 21.7643 52.9898 22.5078 53.2117 23.0619C53.4346 23.615 53.5866 23.784 53.8202 23.6987C54.0549 23.615 54.1951 23.3382 54.6047 23.4224C54.7455 23.4507 54.9018 23.5488 55.0255 23.6934C54.9919 23.7606 54.9482 23.8427 54.7573 23.8427C54.5658 23.8427 54.2015 23.9254 53.9983 24.072C53.7941 24.2171 53.5813 24.2662 53.2869 24.2992ZM49.2186 20.7179C49.1978 20.896 49.1125 21.064 49.0197 21.2379C49.0197 21.2379 49.3301 22.7104 50.4517 22.8246C50.4517 22.8246 50.4293 22.5195 50.0975 22.2864C49.7647 22.0539 49.2682 21.6939 49.3034 21.1462C49.3034 21.1462 49.3919 21.1648 49.5525 21.3702C49.7119 21.5755 50.0613 22.168 50.6026 22.1723C50.6026 22.1723 50.5226 21.8944 50.2837 21.7344C50.0442 21.5755 49.7381 21.3702 49.6005 21.1232C49.4623 20.8774 49.3167 20.7638 49.2186 20.7179ZM48.4751 22.1446C48.5397 22.3408 48.9647 22.9563 49.1509 23.1323C49.337 23.3083 49.7893 23.7728 50.0303 24.0064C50.0303 24.0064 49.3418 23.8304 48.9551 23.4688C48.9551 23.4688 48.6783 23.6347 48.4778 23.6347H48.4666C48.2661 23.6347 47.9898 23.4688 47.9898 23.4688C47.6026 23.8304 46.9141 24.0064 46.9141 24.0064C47.1557 23.7728 47.6079 23.3078 47.7935 23.1323C47.9802 22.9568 48.4047 22.3414 48.4703 22.1446H48.4751Z" clip-rule="evenodd"/><path fill="#0055A6" fill-rule="evenodd" d="M48.4785 23.7787C48.6305 23.7787 48.7755 23.7163 48.8555 23.68C48.7755 23.856 48.6214 24.1296 48.4753 24.2437H48.4721C48.3265 24.1296 48.1729 23.856 48.0918 23.68C48.1729 23.7157 48.3158 23.7787 48.4683 23.7787H48.4785Z" clip-rule="evenodd"/><path fill="#0055A6" fill-rule="evenodd" d="M49.0662 27.0614L51.7601 23.1803L52.0353 23.3835L52.0507 22.4731L51.2363 22.7931L51.4934 22.9835C51.3622 23.1744 49.3483 26.0774 49.0945 26.4416L47.8747 24.1691L47.7249 24.4048L46.639 26.0912L46.3675 25.9046L46.3633 26.8027L47.1867 26.4662L46.911 26.2779C47.0598 26.0448 47.6497 25.1307 47.8465 24.8246L49.0662 27.0614Z" clip-rule="evenodd"/><path fill="#0055A6" fill-rule="evenodd" d="M49.5581 25.5365C49.3757 25.2554 49.1927 24.9712 49.0999 24.8256C49.0322 24.9557 48.8925 25.2117 48.7389 25.4938L48.5469 25.1397L49.0706 24.1696L49.2215 24.4053L49.7613 25.2437L49.5581 25.5365ZM50.1122 25.7893L50.3069 26.0912L50.5783 25.9045L50.5831 26.8026L49.7591 26.4661L50.0343 26.2778L49.9095 26.0821L50.1122 25.7893ZM55.5362 19.8666C55.3341 19.6416 54.9938 19.8352 54.6498 20.1616C54.3053 20.4858 54.0893 20.8186 54.2893 21.0442C54.4759 21.2522 54.8322 21.0752 55.1762 20.7498C55.5202 20.425 55.7367 20.0917 55.5362 19.8666Z" clip-rule="evenodd"/><path fill="#0055A6" fill-rule="evenodd" d="M54.9813 23.8672C54.9923 23.8582 55.0028 23.8486 55.0128 23.8384C55.1963 23.6736 55.3003 23.4208 55.3003 23.144C55.3003 22.6117 54.8795 22.1787 54.3616 22.1787C53.8448 22.1787 53.4245 22.6117 53.4245 23.144C53.4245 23.2165 53.4379 23.3333 53.4379 23.3333C53.3957 23.2507 53.2411 22.8827 53.2096 22.816C53.3493 22.296 53.8123 21.9141 54.3611 21.9141C54.8341 21.9141 55.2427 22.1968 55.4368 22.6064C55.3627 22.12 55.1269 21.6821 54.96 21.52C54.7611 21.3264 54.4203 21.2645 54.4203 21.2645C54.6432 21.3013 54.9371 21.1605 55.2651 20.8507C55.5771 20.5557 55.7381 20.2992 55.7472 20.0837C55.7275 20.3877 55.7365 20.5579 55.8203 20.8048C55.9339 21.1413 56.2437 21.7611 56.1333 22.4608C56.0725 22.8453 55.8016 23.4171 55.3488 23.8848C55.2512 23.9899 55.2149 24.1451 55.2043 24.2267C55.2043 24.2267 54.536 24.2267 54.3771 24.2405C54.3771 24.2405 54.2181 24.2267 54.2208 24.1237C54.224 24.0224 54.312 23.9963 54.3904 23.9963C54.4709 23.9957 54.8032 24.0037 54.9813 23.8672ZM50.5787 24.0667C50.0096 23.7451 49.4533 23.2523 48.9509 22.4635L48.8613 22.3083C48.9979 22.3707 49.1749 22.328 49.1749 22.328C49.1835 22.3408 49.2048 22.376 49.2165 22.3957C49.6837 23.1056 50.2021 23.5541 50.7317 23.8469L50.5787 24.0667ZM51.2827 24.1003C51.7136 24.2619 52.1424 24.3456 52.5499 24.4096C52.8144 24.4517 53.0736 24.4656 53.3216 24.4533C53.3145 24.5009 53.3217 24.5496 53.3424 24.5931C53.3424 24.5931 53.2923 24.6523 53.2923 24.7189C53.0389 24.7296 52.7776 24.7136 52.5099 24.6715C52.0661 24.6011 51.5973 24.5083 51.1275 24.3259L51.2827 24.1003ZM54.3408 24.3189C54.4192 24.3061 54.6693 24.3125 54.8192 24.3365C54.9835 24.3632 55.1707 24.3979 55.1904 24.4907C55.2091 24.5792 55.1499 24.6736 55.0656 24.8075C55.0139 24.8901 54.8928 24.8427 54.824 24.8171C54.7568 24.7909 54.3717 24.5787 54.3088 24.5088C54.2469 24.4379 54.2213 24.3397 54.3408 24.3189ZM53.9456 24.5808C53.9823 24.5581 54.0237 24.544 54.0666 24.5394C54.1095 24.5349 54.1529 24.5401 54.1936 24.5547C54.2965 24.5952 54.6773 24.8261 54.7029 24.9339C54.728 25.0411 54.6768 25.0965 54.6176 25.1205C54.5592 25.1455 54.4979 25.1628 54.4352 25.1723C54.39 25.1738 54.345 25.1647 54.3039 25.1456C54.2629 25.1265 54.2269 25.098 54.1989 25.0624C54.1504 25.0011 53.9723 24.7797 53.9456 24.7296C53.9211 24.68 53.9072 24.6075 53.9456 24.5808ZM53.9003 24.8235C53.9552 24.8864 54.1093 25.0789 54.1275 25.1099C54.1445 25.1419 54.1184 25.1904 54.0709 25.1856C54.0219 25.1808 53.7605 25.1531 53.6112 25.0469C53.4608 24.9419 53.36 24.7387 53.464 24.6645C53.5664 24.5893 53.7269 24.6229 53.9003 24.8235ZM53.816 24.2373C53.8656 24.2251 54.0635 24.1728 54.1067 24.2405C54.1605 24.3237 54.1216 24.4139 53.9685 24.4901C53.8155 24.5659 53.5259 24.6261 53.4683 24.5451C53.4117 24.4624 53.4917 24.3237 53.816 24.2373Z" clip-rule="evenodd"/></svg>