<svg xmlns="http://www.w3.org/2000/svg" width="339" height="392" fill="none" viewBox="0 0 339 392"><g opacity=".1"><path fill="#000" d="M142.417 285.374L146.523 288.139C146.745 290.462 147.078 293.006 148.076 295.107C148.298 295.771 149.408 296.987 149.852 297.54C150.518 298.425 151.072 298.978 151.738 299.753L153.846 301.854C154.512 302.518 155.289 303.292 155.955 303.845C157.619 305.172 158.507 305.947 160.504 307.495C163.611 309.818 167.273 311.809 170.824 313.91C174.042 315.901 173.043 315.901 176.15 314.021C181.476 310.813 183.806 309.486 188.799 305.836C190.464 304.619 193.904 301.412 195.457 299.863C196.456 298.868 198.453 296.545 199.119 295.328C200.672 292.674 200.783 292.342 200.783 288.581V263.584C198.12 262.367 195.568 261.151 192.794 260.045C183.473 256.726 172.932 255.178 163.278 257.611L164.499 253.076C166.163 252.855 168.382 252.413 170.047 252.413C170.713 252.413 170.824 252.302 171.489 252.302C176.594 252.191 176.705 252.302 181.698 252.966L186.802 253.961C188.467 254.404 190.131 254.735 191.685 255.288C195.346 256.395 197.233 257.058 200.783 258.607L205 260.487V290.019C205 292.674 204.334 293.669 203.446 295.771C203.225 296.434 201.893 298.204 201.449 298.757C201.116 299.2 200.672 299.642 200.34 300.084C199.896 300.637 199.674 300.859 199.119 301.301C198.675 301.744 198.453 302.075 198.009 302.628C195.013 305.504 193.571 306.721 190.131 309.486C189.354 310.039 186.691 312.03 185.914 312.583C185.471 312.915 184.916 313.247 184.472 313.468C181.698 315.238 178.147 317.339 175.262 318.998C173.265 320.215 174.374 320.326 169.048 317.229C167.162 316.123 164.721 314.685 162.945 313.468C160.615 311.919 159.727 311.366 157.175 309.486C155.067 307.827 153.07 306.168 151.072 304.509C149.963 303.513 146.634 299.863 145.746 298.757C145.302 298.204 145.08 297.872 144.748 297.319C141.973 293.116 142.417 290.572 142.417 285.374Z"/><path fill="#000" d="M146.634 288.25L144.525 286.812C142.417 285.374 142.417 285.374 142.417 285.374C140.309 284.047 139.754 283.826 137.868 282.166C137.424 281.835 137.202 281.503 136.869 281.06C134.983 278.738 134.317 278.295 134.761 275.862C134.872 275.419 135.094 274.866 135.205 274.424C135.759 273.539 135.87 272.544 136.314 271.548L137.757 268.23C137.868 268.009 137.979 267.898 138.09 267.566C138.312 267.124 138.534 266.792 138.755 266.35C140.198 263.363 139.976 264.137 141.64 261.593C142.528 260.266 147.189 254.625 148.52 253.187C148.853 252.745 149.075 252.524 149.408 252.192C149.63 251.971 149.741 251.971 149.852 251.749L151.183 250.201C153.181 247.767 153.513 247.436 155.289 244.67C156.287 243.122 158.951 238.919 160.171 237.923C160.948 237.26 161.614 236.817 162.612 236.596C163.5 236.375 164.943 236.264 165.941 236.154C167.273 236.043 168.049 236.154 169.381 236.264C172.71 236.596 175.484 236.817 178.036 239.029C179.368 240.246 180.144 242.68 180.144 244.56C180.144 245.445 180.477 247.214 179.922 247.768C178.813 248.542 174.152 249.095 173.598 249.205C172.599 249.316 167.384 250.09 166.94 249.869C166.385 249.648 166.385 249.537 166.163 249.095L164.721 245.666C164.61 245.334 164.277 244.449 163.944 244.67C163.611 245.002 163.611 245.334 163.722 245.777C163.833 246.772 164.388 248.099 164.61 248.874C165.275 251.307 164.721 253.187 164.61 253.408L162.279 261.815C161.836 263.031 160.615 266.903 160.06 268.34C159.949 268.672 159.616 269.225 159.394 269.557C158.063 271.769 155.733 275.198 156.177 278.074C156.62 280.729 158.618 282.056 160.615 282.83C161.503 283.272 164.055 283.715 165.053 283.826C165.053 283.826 160.726 282.388 158.84 280.729C154.845 277.078 162.168 268.009 162.168 268.009C163.167 266.681 165.941 266.571 166.718 266.681C172.155 267.566 174.818 272.654 174.929 273.097C174.929 273.097 179.59 267.566 191.352 267.566C194.902 267.566 199.563 269.778 200.228 270.11V290.02C200.228 292.342 199.674 293.448 198.675 294.997C196.678 298.204 193.46 301.412 190.686 303.624C190.131 304.067 189.798 304.399 188.91 305.173C187.801 305.947 186.247 307.385 185.138 307.938L180.033 296.988C176.705 297.983 177.592 297.873 174.485 298.315C171.822 298.647 168.715 298.536 166.052 297.873C165.053 297.651 163.833 297.32 162.723 296.988C153.513 294.112 146.634 288.25 146.634 288.25Z"/></g><path fill="#101010" d="M143.887 85.74L145.075 87.18L143.491 96.18L141.799 97.62H138.019L140.107 85.74H143.887ZM134.527 85.74L132.439 97.62H128.659L127.471 96.18L129.055 87.18L130.747 85.74H134.527ZM129.199 80.88L123.763 85.488L121.567 97.872L125.383 102.48H131.575L130.963 105.9H136.543L137.155 102.48H143.347L148.747 97.872L150.943 85.488L147.163 80.88H140.971L141.619 77.1H136.039L135.391 80.88H129.199ZM160.986 79.44L155.154 83.976L152.274 100.464L156.486 105H167.178L172.974 100.464L175.854 83.976L171.678 79.44H160.986ZM169.914 86.172L167.754 98.268L165.846 99.78H159.618L158.214 98.268L160.374 86.172L162.282 84.66H168.51L169.914 86.172ZM190.516 84.66H197.536L198.472 79.44H178.852L177.916 84.66H184.936L181.372 105H186.952L190.516 84.66ZM205.668 79.44L199.836 83.976L196.956 100.464L201.168 105H211.86L217.656 100.464L220.536 83.976L216.36 79.44H205.668ZM214.596 86.172L212.436 98.268L210.528 99.78H204.3L202.896 98.268L205.056 86.172L206.964 84.66H213.192L214.596 86.172ZM85.3316 124.66H93.7916L90.2276 145H95.8076L100.308 119.44H80.6876L76.1876 145H81.7676L85.3316 124.66ZM109.993 119.44L104.161 123.976L101.281 140.464L105.493 145H116.185L121.981 140.464L124.861 123.976L120.685 119.44H109.993ZM118.921 126.172L116.761 138.268L114.853 139.78H108.625L107.221 138.268L109.381 126.172L111.289 124.66H117.517L118.921 126.172ZM143.07 124.66L142.026 130.708H134.862L133.782 129.412L134.394 125.956L135.906 124.66H143.07ZM132.234 135.928L133.602 135.316L133.638 135.424L132.234 136.324L128.742 139.96L125.466 140.932L126.15 145.72L131.946 143.992L139.65 135.928H141.09L139.506 145H145.086L149.586 119.44H133.962L129.246 123.4L127.734 131.968L131.046 135.928H132.234ZM165.797 135.784L165.329 138.412L163.709 139.78H156.617L157.589 134.308H164.141L165.797 135.784ZM159.281 124.66H166.085L166.841 125.56L166.337 128.332L165.221 129.088H158.489L159.281 124.66ZM169.433 131.68L171.593 130.168L172.817 123.328L169.613 119.44H154.637L150.137 145H165.149L170.549 140.392L171.737 133.768L169.433 131.68ZM184.14 119.44H178.56L174.06 145H179.1L189.9 130.96L191.268 128.584H191.412L190.584 130.996L188.136 145H193.716L198.216 119.44H193.176L182.34 133.48L180.972 135.856H180.828L181.656 133.444L184.14 119.44ZM213.12 124.66H220.14L221.076 119.44H201.456L200.52 124.66H207.54L203.976 145H209.556L213.12 124.66ZM232.521 139.78H226.689L225.501 138.34L227.661 126.1L229.353 124.66H234.933L236.121 126.1L235.653 128.8H241.233L242.061 124.048L238.281 119.44H227.877L222.441 124.048L219.561 140.392L223.377 145H234.033L239.721 140.14L236.589 136.324L232.521 139.78ZM259.346 124.66L258.302 130.708H251.138L250.058 129.412L250.67 125.956L252.182 124.66H259.346ZM248.51 135.928L249.878 135.316L249.914 135.424L248.51 136.324L245.018 139.96L241.742 140.932L242.426 145.72L248.222 143.992L255.926 135.928H257.366L255.782 145H261.362L265.862 119.44H250.238L245.522 123.4L244.01 131.968L247.322 135.928H248.51ZM117.015 163.66H125.475L121.911 184H127.491L131.991 158.44H112.371L107.871 184H113.451L117.015 163.66ZM141.676 158.44L135.844 162.976L132.964 179.464L137.176 184H147.868L153.664 179.464L156.544 162.976L152.368 158.44H141.676ZM150.604 165.172L148.444 177.268L146.536 178.78H140.308L138.904 177.268L141.064 165.172L142.972 163.66H149.2L150.604 165.172ZM165.825 158.44L160.137 160.204L160.893 165.136L165.645 163.66H172.089L173.133 164.884L172.701 167.332L171.045 168.484H164.241L163.341 173.704H169.965L171.585 175.18L171.189 177.34L169.497 178.78H162.765L158.517 177.304L156.033 182.236L161.109 184H171.045L176.409 179.428L177.525 173.164L175.221 171.076L177.957 169.168L179.073 162.796L175.509 158.44H165.825ZM188.831 159.448L183.611 157.72L181.163 162.76L184.079 163.732L187.067 171.22L181.235 178.708L177.995 179.68L178.679 184.72L184.475 182.992L191.747 173.668H192.791L190.991 184H196.571L198.371 173.668H199.415L203.375 182.992L208.595 184.72L211.079 179.68L208.127 178.708L204.959 171.22L210.611 163.732L213.887 162.76L213.167 157.72L207.371 159.448L200.603 168.448H199.307L201.071 158.44H195.491L193.727 168.448H192.431L188.831 159.448ZM213.372 184H231.12L232.02 178.78H219.852L220.824 173.272H231.48L232.416 168.052H221.76L222.516 163.66H234.684L235.62 158.44H217.872L213.372 184Z" opacity=".15"/></svg>