<svg width="109" height="29" viewBox="0 0 109 29" fill="none" xmlns="http://www.w3.org/2000/svg">
<path fill-rule="evenodd" clip-rule="evenodd" d="M0 0V27.0667L27.1289 0H0Z" fill="#92CFAE"/>
<path fill-rule="evenodd" clip-rule="evenodd" d="M1.93781 29H29.0667V1.93335L1.93781 29Z" fill="#2A8288"/>
<path fill-rule="evenodd" clip-rule="evenodd" d="M44.3053 13.8714C47.4596 13.8714 49.1365 12.3302 49.1365 9.45067V9.28798C49.1365 6.20566 47.3796 4.98896 44.3053 4.98896H41.0312V13.8714H44.3053ZM34.6031 0H44.4649C51.4121 0 55.3651 3.12288 55.3651 9.24789V9.40965C55.3651 15.5342 51.1729 18.4548 44.6644 18.4548H41.0312V29H34.6031V0Z" fill="black"/>
<path fill-rule="evenodd" clip-rule="evenodd" d="M68.1617 24.011C71.2565 24.011 72.8237 22.6321 72.8237 19.9955V19.8337C72.8237 17.2376 71.2565 15.8181 68.0051 15.8181H64.401V24.011H68.1617ZM68.3969 29H58.1333V0H76.3883V5.11063H64.4405L64.401 11.1942H68.5926C75.0563 11.1942 78.8952 14.0742 78.8952 19.8738V20.0365C78.8952 25.7144 75.3306 29 68.3969 29Z" fill="black"/>
<path fill-rule="evenodd" clip-rule="evenodd" d="M83.5667 0.0405002H90.3161V12.5155L100.732 0H107.898L96.1071 13.7305L108.481 29H100.607L90.3161 15.9985V29H83.5667V0.0405002Z" fill="black"/>
</svg>
