<svg xmlns="http://www.w3.org/2000/svg" xmlns:xlink="http://www.w3.org/1999/xlink">
    <symbol id="heart" viewBox="0 0 37 32">
        <path fill="currentColor" fill-rule="evenodd" clip-rule="evenodd" d="M36.4994 10.0704C36.4941 4.7526 32.1037 0.5 26.7497 0.5C23.2879 0.5 20.2306 2.28417 18.4995 4.97787C16.7674 2.28406 13.7092 0.5 10.2503 0.5C4.90213 0.5 0.506168 4.74682 0.500629 10.0659C0.468323 12.6928 1.68128 15.3338 3.28689 17.705C4.91429 20.1084 7.06713 22.4121 9.17863 24.3974C11.2969 26.389 13.4126 28.0965 14.9955 29.3043C15.7881 29.9092 16.4501 30.3909 16.9157 30.7227C17.1486 30.8887 17.3326 31.0173 17.4595 31.1052C17.523 31.1491 17.5722 31.1829 17.6061 31.206L17.6454 31.2328L17.6562 31.2401L17.6604 31.243C17.6607 31.2432 17.661 31.2434 18.5 30C19.339 31.2434 19.3393 31.2432 19.3396 31.243L19.3438 31.2402L19.3546 31.2329L19.3939 31.2061C19.4278 31.1829 19.477 31.1492 19.5404 31.1053C19.6673 31.0174 19.8512 30.8889 20.0841 30.723C20.5496 30.3913 21.2114 29.9097 22.0039 29.305C23.5864 28.0976 25.7018 26.3906 27.8198 24.3995C29.931 22.4147 32.0837 20.1116 33.7113 17.7087C35.3171 15.3378 36.5306 12.6971 36.4994 10.0704ZM18.5 30L19.3396 31.243L18.5 31.8095L17.6604 31.243L18.5 30ZM18.5001 28.1676C18.0695 27.8586 17.4928 27.4363 16.8154 26.9194C15.2861 25.7525 13.255 24.1123 11.2336 22.2117C9.20555 20.3049 7.22617 18.172 5.77098 16.023C4.29608 13.8448 3.47714 11.8214 3.50048 10.0963L3.50062 10.0861V10.076C3.50062 6.47044 6.49354 3.5 10.2503 3.5C14.0036 3.5 17 6.4876 17 10.0842H20C20 6.4871 22.9928 3.5 26.7497 3.5C30.5092 3.5 33.4994 6.47308 33.4994 10.0801V10.0899L33.4995 10.0997C33.5221 11.8251 32.7025 13.8485 31.2274 16.0263C29.772 18.175 27.7927 20.3074 25.7649 22.2137C23.7438 24.1138 21.713 25.7535 20.1842 26.9199C19.507 27.4366 18.9305 27.8587 18.5001 28.1676Z"/>
    </symbol>

    <symbol id="shield" viewBox="0 0 11 15">
        <path stroke="currentColor" stroke-width="1.5" fill="none" d="M1 8.67857L1.9 2C1.9 2 4.36838 1 5.95 1C7.53162 1 10 2 10 2L9.1 8.67857L4.15 13L1 8.67857Z"/>
    </symbol>

    <symbol id="person" viewBox="0 0 8 12">
        <path fill="currentColor" d="M4 0L6.34549 1.12953L6.92478 3.66756L5.30165 5.70291H2.69835L1.07522 3.66756L1.65451 1.12953L4 0Z"/>
        <path fill="currentColor" d="M5.5 12L8 7L0 7L2.5 12L5.5 12Z"/>
    </symbol>

    <symbol id="loupe" viewBox="0 0 24 26">
        <path fill="currentColor" fill-rule="evenodd" clip-rule="evenodd" d="M16.7948 10.5808C16.7948 14.5282 13.5948 17.7282 9.64739 17.7282C5.7 17.7282 2.5 14.5282 2.5 10.5808C2.5 6.63344 5.7 3.43344 9.64739 3.43344C13.5948 3.43344 16.7948 6.63344 16.7948 10.5808ZM14.8572 18.702C13.3546 19.6679 11.5664 20.2282 9.64739 20.2282C4.31928 20.2282 0 15.9089 0 10.5808C0 5.25273 4.31928 0.933441 9.64739 0.933441C14.9755 0.933441 19.2948 5.25273 19.2948 10.5808C19.2948 12.9005 18.4761 15.029 17.1119 16.6931L23.4246 23.0058L21.2928 25.1376L14.8572 18.702Z"/>
    </symbol>

    <symbol id="phone" viewBox="0 0 11 11">
        <path fill="currentColor" d="M0 0H3.66667V1.83333L1.83333 4.58333L6.41667 9.16667L8.70833 7.79167H11V11H5.5L0 5.5V0Z"/>
    </symbol>

    <symbol id="trash" viewBox="0 0 14 16">
        <path fill="currentColor" d="M12.9504 2.08658H9.80004V1.39147C9.80004 0.624178 9.17262 0 8.40011 0H5.59971C4.8281 0 4.19996 0.624178 4.19996 1.39147V2.08658H1.04963C0.471056 2.08658 0 2.55449 0 3.1312V5.5648H0.699517V13.2172C0.699517 14.7513 1.95525 16 3.49973 16H10.5004C12.0448 16 13.3005 14.7513 13.3005 13.2174V5.56498H14V3.1312C14 2.55449 13.5286 2.08658 12.9504 2.08658ZM5.59971 1.39147H8.40011V2.08658H5.59971V1.39147ZM11.9006 13.2174C11.9006 13.9847 11.273 14.6084 10.5004 14.6084H3.49973C2.72794 14.6084 2.09962 13.9849 2.09962 13.2174V5.56498H11.9006V13.2174ZM1.39975 4.17351V3.47769H12.6001V4.17351H1.39975ZM3.49973 13.2174V6.95627C3.49973 6.57156 3.81335 6.26009 4.19996 6.26009C4.58586 6.26009 4.89984 6.57156 4.89984 6.95627V13.2174C4.89984 13.6016 4.58586 13.9134 4.19996 13.9134C3.81335 13.9134 3.49973 13.6014 3.49973 13.2174ZM6.30013 13.2174V6.95627C6.30013 6.57156 6.61374 6.26009 7 6.26009C7.38733 6.26009 7.69987 6.57156 7.69987 6.95627V13.2174C7.69987 13.6016 7.38733 13.9134 7 13.9134C6.61374 13.9134 6.30013 13.6014 6.30013 13.2174ZM9.10016 13.2174V6.95627C9.10016 6.57156 9.41324 6.26009 9.80004 6.26009C10.187 6.26009 10.5003 6.57156 10.5003 6.95627V13.2174C10.5003 13.6016 10.187 13.9134 9.80004 13.9134C9.41324 13.9134 9.10016 13.6014 9.10016 13.2174Z"/>
    </symbol>

    <symbol id="cart" viewBox="0 0 20 22">
        <path fill="currentColor" d="M10.1835 19.1055C10.1835 18.5929 10.0315 18.0918 9.7467 17.6656C9.46192 17.2394 9.05714 16.9072 8.58356 16.711C8.10998 16.5149 7.58887 16.4636 7.08612 16.5636C6.58337 16.6636 6.12157 16.9104 5.75911 17.2729C5.39664 17.6353 5.1498 18.0971 5.0498 18.5999C4.9498 19.1026 5.00112 19.6237 5.19729 20.0973C5.39345 20.5709 5.72564 20.9757 6.15185 21.2605C6.57806 21.5452 7.07915 21.6973 7.59174 21.6973C8.27912 21.6973 8.93834 21.4242 9.42438 20.9381C9.91043 20.4521 10.1835 19.7929 10.1835 19.1055ZM6.83486 19.1055C6.83486 18.9558 6.87925 18.8095 6.96242 18.685C7.04559 18.5605 7.1638 18.4635 7.3021 18.4062C7.4404 18.349 7.59258 18.334 7.7394 18.3632C7.88623 18.3924 8.02109 18.4645 8.12694 18.5703C8.23279 18.6762 8.30488 18.811 8.33408 18.9578C8.36329 19.1047 8.3483 19.2569 8.29101 19.3952C8.23372 19.5335 8.13671 19.6517 8.01224 19.7348C7.88778 19.818 7.74144 19.8624 7.59174 19.8624C7.39101 19.8624 7.19849 19.7826 7.05655 19.6407C6.91461 19.4988 6.83486 19.3062 6.83486 19.1055Z"/>
        <path fill="currentColor" d="M18.0276 19.1055C18.0276 18.5929 17.8756 18.0918 17.5908 17.6656C17.306 17.2394 16.9013 16.9072 16.4277 16.711C15.9541 16.5149 15.433 16.4636 14.9302 16.5636C14.4275 16.6636 13.9657 16.9104 13.6032 17.2729C13.2408 17.6353 12.9939 18.0971 12.8939 18.5999C12.7939 19.1026 12.8452 19.6237 13.0414 20.0973C13.2376 20.5709 13.5698 20.9757 13.996 21.2605C14.4222 21.5452 14.9233 21.6973 15.4359 21.6973C16.1232 21.6973 16.7825 21.4242 17.2685 20.9381C17.7545 20.4521 18.0276 19.7929 18.0276 19.1055ZM14.679 19.1055C14.679 18.9558 14.7234 18.8095 14.8065 18.685C14.8897 18.5605 15.0079 18.4635 15.1462 18.4062C15.2845 18.349 15.4367 18.334 15.5835 18.3632C15.7303 18.3924 15.8652 18.4645 15.9711 18.5703C16.0769 18.6762 16.149 18.811 16.1782 18.9578C16.2074 19.1047 16.1924 19.2569 16.1351 19.3952C16.0778 19.5335 15.9808 19.6517 15.8564 19.7348C15.7319 19.818 15.5856 19.8624 15.4359 19.8624C15.2351 19.8624 15.0426 19.7826 14.9007 19.6407C14.7587 19.4988 14.679 19.3062 14.679 19.1055Z"/>
        <path fill="currentColor" d="M4.51835 16.3991H17.844V14.5642H6.07798L5.87156 13.2339H18.578L20 3.55505H4.3578L4.0367 1.5367L0.275229 0.963303L0 2.77523L2.43119 3.1422L4.51835 16.3991ZM17.867 5.38991L16.9954 11.3991H5.59633L4.63303 5.38991H17.867Z"/>
    </symbol>

    <symbol id="menu" viewBox="0 0 22 10">
        <path fill="currentColor" fill-rule="evenodd" clip-rule="evenodd" d="M22 0H2.73034L2 3H21.2697L22 0ZM20 7H0.730337L0 10H19.2697L20 7Z"/>
    </symbol>

    <symbol id="logo" viewBox="0 0 150 45">
        <path d="M4.1097 26.4182L6.31332 27.9024C6.43243 29.1491 6.6111 30.5145 7.14712 31.6425C7.26623 31.9987 7.8618 32.6517 8.10003 32.9485C8.45737 33.4235 8.75516 33.7203 9.1125 34.1359L10.2441 35.2638C10.6014 35.6201 11.0183 36.0356 11.3757 36.3324C12.269 37.0448 12.7455 37.4604 13.8175 38.2916C15.4851 39.5383 17.4505 40.6069 19.3563 41.7348C21.0835 42.8034 20.5475 42.8034 22.2151 41.7942C25.0738 40.0726 26.3245 39.3602 29.0046 37.4011C29.8979 36.748 31.7442 35.0264 32.578 34.1952C33.114 33.6609 34.1861 32.4142 34.5434 31.7612C35.3772 30.3364 35.4368 30.1583 35.4368 28.1398V14.7229C34.0074 14.0699 32.6376 13.4169 31.1486 12.8232C26.1458 11.0422 20.4879 10.2111 15.3064 11.5171L15.9616 9.08311C16.8549 8.96437 18.0461 8.7269 18.9394 8.7269C19.2968 8.7269 19.3563 8.66753 19.7137 8.66753C22.4533 8.60817 22.5129 8.66754 25.1929 9.02374L27.9326 9.55803C28.8259 9.7955 29.7193 9.97361 30.5531 10.2704C32.5185 10.8641 33.5309 11.2203 35.4368 12.0514L37.6999 13.0607V28.9116C37.6999 30.3364 37.3426 30.8707 36.8661 31.9987C36.747 32.3549 36.0323 33.3047 35.7941 33.6016C35.6154 33.839 35.3772 34.0765 35.1985 34.314C34.9603 34.6108 34.8412 34.7295 34.5434 34.967C34.3052 35.2045 34.1861 35.3826 33.9478 35.6794C32.3398 37.2229 31.5655 37.876 29.7193 39.3602C29.3024 39.657 27.873 40.7256 27.4561 41.0224C27.2179 41.2005 26.9201 41.3786 26.6819 41.4974C25.1929 42.4472 23.2871 43.5752 21.7386 44.4657C20.6666 45.1187 21.2622 45.1781 18.4034 43.5158C17.3909 42.9222 16.0807 42.1504 15.1278 41.4974C13.8771 40.6662 13.4006 40.3694 12.0308 39.3602C10.8992 38.4697 9.82719 37.5791 8.75516 36.6886C8.15959 36.1543 6.37288 34.1952 5.89642 33.6016C5.65819 33.3047 5.53907 33.1266 5.3604 32.8298C3.87147 30.5739 4.1097 29.2084 4.1097 26.4182Z" fill="black"/>
        <path d="M6.37281 27.9617L5.24123 27.19C4.10964 26.4182 4.10964 26.4182 4.10964 26.4182C2.97806 25.7058 2.68027 25.5871 1.6678 24.6966C1.42957 24.5185 1.31046 24.3404 1.13178 24.1029C0.119313 22.8562 -0.23803 22.6187 0.000198245 21.3127C0.0597554 21.0752 0.178871 20.7784 0.238428 20.5409C0.536213 20.066 0.595771 19.5317 0.833999 18.9974L1.60824 17.2164C1.6678 17.0976 1.72736 17.0383 1.78691 16.8602C1.90603 16.6227 2.02514 16.4446 2.14425 16.2071C2.9185 14.6042 2.79938 15.0198 3.69274 13.6544C4.1692 12.942 6.6706 9.91426 7.38528 9.14249C7.56396 8.90502 7.68307 8.78629 7.86174 8.60819C7.98085 8.48946 8.04041 8.48944 8.09997 8.37071L8.81466 7.53958C9.88669 6.23351 10.0654 6.05541 11.0183 4.57124C11.5543 3.74011 12.9837 1.48417 13.6388 0.949865C14.0557 0.593665 14.413 0.356209 14.949 0.237475C15.4255 0.118741 16.1997 0.0593784 16.7358 1.1608e-05C17.4504 -0.0593552 17.8673 -2.88151e-06 18.582 0.0593639C20.3687 0.237464 21.8577 0.356198 23.2275 1.54353C23.9422 2.19657 24.3591 3.50264 24.3591 4.51187C24.3591 4.9868 24.5377 5.93669 24.24 6.23352C23.6444 6.64909 21.143 6.94592 20.8452 7.00528C20.3092 7.06465 17.51 7.48022 17.2718 7.36149C16.974 7.24275 16.974 7.18338 16.8549 6.94591L16.0806 5.10554C16.0211 4.92744 15.8424 4.45251 15.6637 4.57124C15.4851 4.74934 15.4851 4.92744 15.5446 5.16491C15.6042 5.69921 15.902 6.41162 16.0211 6.82719C16.3784 8.13326 16.0806 9.14248 16.0211 9.26121L14.7704 13.7731C14.5321 14.4261 13.877 16.504 13.5792 17.2757C13.5197 17.4538 13.341 17.7507 13.2219 17.9288C12.5072 19.1161 11.2565 20.9565 11.4947 22.5C11.733 23.9248 12.805 24.6372 13.877 25.0528C14.3535 25.2902 15.7233 25.5277 16.2593 25.5871C16.2593 25.5871 13.9366 24.8153 12.9241 23.9248C10.78 21.9657 14.7108 17.0976 14.7108 17.0976C15.2468 16.3852 16.7358 16.3259 17.1527 16.3852C20.071 16.8602 21.5003 19.591 21.5599 19.8285C21.5599 19.8285 24.0613 16.8602 30.3743 16.8602C32.2802 16.8602 34.7816 18.0475 35.1389 18.2256V28.9116C35.1389 30.1583 34.8411 30.752 34.3051 31.5831C33.2331 33.3048 31.5059 35.0264 30.017 36.2137C29.7192 36.4512 29.5405 36.6293 29.0641 37.0449C28.4685 37.4604 27.6347 38.2322 27.0391 38.529L24.2995 32.6517C22.5128 33.186 22.9893 33.1267 21.3217 33.3641C19.8923 33.5422 18.2247 33.4829 16.7953 33.1267C16.2593 33.0079 15.6042 32.8298 15.0086 32.6517C10.0654 31.1082 6.37281 27.9617 6.37281 27.9617Z" fill="#E84434"/>
        <path d="M53.1249 18.971L49.4323 10.1253L47.2287 22.533H45.8589L48.4794 7.63193H50.0279L53.9587 17.2493L61.3437 7.57256H62.8922L60.2717 22.4736H58.9019L61.1055 10.066L54.316 18.971H53.1249Z" fill="black"/>
        <path d="M63.7263 22.7111L62.416 22.2955L69.8011 7.57256H71.7665L73.9105 22.2955L72.4812 22.7111L71.7665 17.9617H66.1086L63.7263 22.7111ZM71.6474 16.5963L70.5753 9.11609L66.8232 16.5963H71.6474Z" fill="black"/>
        <path d="M77.4841 22.4736H76.1143L78.7348 7.57256H86.9537L88.7999 9.76913L87.9661 14.5185L85.3456 16.715H82.3082L86.5963 21.8799L85.4647 22.8892L80.4024 16.715H78.6157L77.4841 22.4736ZM79.8664 8.938L78.7348 15.2309H84.9287L86.5963 13.8654L87.1919 10.3034L86.0007 8.938H79.8664Z" fill="black"/>
        <path d="M99.5201 21.9393L98.2099 22.7111L94.4578 14.8153L91.3013 17.5462L90.4675 22.4736H89.0977L91.7182 7.57255H93.088L91.7182 15.5277L101.009 7.33508L101.843 8.28495L95.6489 13.7467L99.5201 21.9393Z" fill="black"/>
        <path d="M103.808 7.57256H113.099L112.861 8.938H104.999L104.165 13.8654H111.134L110.895 15.2309H103.927L102.915 21.0488H110.776L110.538 22.4142H101.247L103.808 7.57256Z" fill="black"/>
        <path d="M116.97 22.4736H115.601L117.983 8.938H113.278L113.516 7.57256H124.355L124.117 8.938H119.412L116.97 22.4736Z" fill="black"/>
        <path d="M46.6801 29.4156H55.6136L57.8768 32.1464L56.1496 41.7639L52.9336 44.4947H44L46.6801 29.4156ZM53.6482 32.5026H49.4197L47.8117 41.467H52.0402L53.0527 40.6359L54.3629 33.3931L53.6482 32.5026Z" fill="black"/>
        <path d="M69.848 29.4156L72.3494 32.0871L70.6223 41.8826L67.168 44.5541H60.7953L58.2939 41.8826L60.0211 32.0871L63.4754 29.4156H69.848ZM67.9422 32.5026H64.2497L63.1181 33.3931L61.8674 40.5765L62.7012 41.467H66.3937L67.5253 40.5765L68.8356 33.3931L67.9422 32.5026Z" fill="black"/>
        <path d="M85.2729 38.6768L84.7369 41.7639H83.1884L82.712 44.5541H79.3768L79.8532 41.7639H71.9917L72.5277 38.7361L82.6524 29.4156H85.3921L83.7245 38.6768H85.2729ZM76.9945 38.4393L76.1607 38.9142L76.2203 38.9736L76.9945 38.6768H80.3893L81.0444 34.996L81.4613 34.2243L81.4017 34.1649L80.8062 34.9367L76.9945 38.4393Z" fill="#E84434"/>
        <path d="M95.398 29L97.8399 43.9604L94.5047 45.029L93.9686 41.6451H89.1445L87.4769 45.029L84.5586 43.9604L92.2415 29H95.398ZM93.0753 35.1741V33.5712H92.9562L92.4202 35.1741L90.5739 38.7361H93.6113L93.0753 35.1741Z" fill="black"/>
        <path d="M98.7924 42.1794L99.8644 41.2889H101.592L102.425 42.1794L102.128 44.0198L101.056 44.9103H99.2093L98.4351 44.0198L98.7924 42.1794Z" fill="black"/>
        <path d="M114.337 39.4485L116.183 41.7045L112.789 44.5541H106.416L104.153 41.8232L105.88 32.1464L109.096 29.4156H115.29L117.553 32.1464L117.077 34.9367H113.801L114.099 33.3338L113.384 32.5026H110.049L109.037 33.3338L107.726 40.5765L108.441 41.4076H111.895L114.337 39.4485Z" fill="black"/>
        <path d="M129.048 29.4156L131.549 32.0871L129.822 41.8826L126.368 44.5541H119.995L117.494 41.8826L119.221 32.0871L122.675 29.4156H129.048ZM127.142 32.5026H123.449L122.318 33.3931L121.008 40.5765L121.841 41.467H125.534L126.665 40.5765L127.976 33.3931L127.142 32.5026Z" fill="black"/>
        <path d="M140.661 36.7177L140.78 37.5488H140.84L141.257 36.7177L147.034 29.4749H150.071L147.391 44.6135H144.056L145.485 36.5396L145.962 35.1148H145.902L145.068 36.5396L141.257 41.4076H138.993L136.849 36.5396L136.552 35.1148H136.433V36.5396L135.003 44.6135H131.668L134.348 29.4749H137.385L140.661 36.7177Z" fill="black"/>
    </symbol>

    <symbol id="riverstart-logo" viewBox="0 0 151 25">
        <path fill="currentColor" fill-rule="evenodd" clip-rule="evenodd" d="M58.9817 3.60059L60.6422 5.26151H71.3218L72.9824 3.60059H58.9817ZM77.3424 11.6172V22.8094H71.4826V24.47H79.003V9.95665L77.3424 11.6172ZM58.1343 24.47H67.4737L65.8132 22.8094H59.7951V16.791L58.1343 15.1304V24.47Z"/>
        <path fill="currentColor" fill-rule="evenodd" clip-rule="evenodd" d="M79.003 0.469727L69.822 9.44836V16.9588L79.003 7.97988V0.469727ZM58.1343 13.0399L69.822 24.4696V16.9591L58.1343 5.52973V13.0399Z"/>
        <path fill="currentColor" fill-rule="evenodd" clip-rule="evenodd" d="M85.351 10.5685L85.434 11.5904C85.769 11.1764 86.132 10.8811 86.523 10.7043C86.914 10.5275 87.36 10.4391 87.863 10.4391C88.347 10.4391 88.751 10.506 89.077 10.6396C89.403 10.7733 89.714 11.0169 90.012 11.3705L89.133 12.1078C88.937 11.8836 88.719 11.7176 88.477 11.6098C88.235 11.502 87.984 11.4481 87.723 11.4481C87.202 11.4481 86.779 11.543 86.453 11.7327C86.128 11.9224 85.816 12.2113 85.518 12.5994V17.0363H84.2202V10.5685H85.351ZM92.371 10.5685V17.0363H91.073V10.5685H92.371ZM91.729 7.77441C92.017 7.77441 92.24 7.85418 92.398 8.01372C92.557 8.17326 92.636 8.36513 92.636 8.58935C92.636 8.80494 92.557 8.99466 92.398 9.15852C92.24 9.32237 92.017 9.40429 91.729 9.40429C91.44 9.40429 91.217 9.32237 91.059 9.15852C90.901 8.99466 90.821 8.80494 90.821 8.58935C90.821 8.36513 90.901 8.17326 91.059 8.01372C91.217 7.85418 91.44 7.77441 91.729 7.77441ZM95.036 10.5685L97.465 16.0144H97.52L100.032 10.5685H101.372L98.19 17.0363H96.683L93.627 10.5685H95.036ZM103.619 14.0999C103.647 14.4535 103.735 14.7618 103.884 15.0248C104.033 15.2878 104.229 15.5034 104.47 15.6716C104.712 15.8397 104.989 15.9648 105.301 16.0467C105.613 16.1286 105.936 16.1696 106.271 16.1696C106.764 16.1696 107.199 16.1329 107.576 16.0596C107.953 15.9863 108.322 15.8548 108.685 15.6651L109.062 16.6482C108.829 16.7517 108.608 16.8358 108.399 16.9005C108.19 16.9651 107.973 17.0169 107.75 17.0557C107.527 17.0945 107.287 17.1225 107.031 17.1398C106.776 17.157 106.494 17.1656 106.187 17.1656C105.554 17.1656 104.996 17.088 104.512 16.9328C104.029 16.7776 103.621 16.5534 103.291 16.2601C102.961 15.9669 102.71 15.6134 102.538 15.1994C102.365 14.7855 102.279 14.3241 102.279 13.8153C102.279 13.3151 102.375 12.8559 102.565 12.4377C102.756 12.0194 103.024 11.6637 103.368 11.3705C103.712 11.0773 104.115 10.8488 104.575 10.6849C105.036 10.521 105.54 10.4391 106.089 10.4391C106.648 10.4391 107.131 10.506 107.541 10.6396C107.95 10.7733 108.29 10.9587 108.56 11.1959C108.829 11.433 109.029 11.7154 109.16 12.0431C109.29 12.3708 109.355 12.7287 109.355 13.1168C109.355 13.2979 109.346 13.4639 109.327 13.6148C109.309 13.7657 109.276 13.9274 109.229 14.0999H103.619ZM108.099 13.1685C108.09 12.5304 107.918 12.0776 107.583 11.8103C107.248 11.543 106.703 11.4093 105.95 11.4093C105.671 11.4093 105.394 11.4459 105.119 11.5192C104.845 11.5925 104.601 11.7025 104.387 11.8491C104.173 11.9957 103.994 12.179 103.849 12.3989C103.705 12.6188 103.619 12.8753 103.591 13.1685H108.099ZM111.951 10.5685L112.035 11.5904C112.37 11.1764 112.732 10.8811 113.123 10.7043C113.514 10.5275 113.961 10.4391 114.463 10.4391C114.947 10.4391 115.352 10.506 115.677 10.6396C116.003 10.7733 116.315 11.0169 116.612 11.3705L115.733 12.1078C115.538 11.8836 115.319 11.7176 115.077 11.6098C114.835 11.502 114.584 11.4481 114.323 11.4481C113.802 11.4481 113.379 11.543 113.053 11.7327C112.728 11.9224 112.416 12.2113 112.118 12.5994V17.0363H110.82V10.5685H111.951ZM122.432 11.7715C122.069 11.6163 121.723 11.5106 121.392 11.4546C121.062 11.3985 120.706 11.3705 120.325 11.3705C119.711 11.3705 119.266 11.4503 118.992 11.6098C118.717 11.7693 118.58 11.9741 118.58 12.2242C118.58 12.5433 118.736 12.7611 119.048 12.8775C119.359 12.9939 119.822 13.0823 120.436 13.1427C121.311 13.2289 121.988 13.4251 122.467 13.7312C122.946 14.0374 123.186 14.5225 123.186 15.1865C123.186 15.8591 122.888 16.3572 122.292 16.6805C121.697 17.0039 120.887 17.1656 119.864 17.1656C119.352 17.1656 118.903 17.1333 118.517 17.0686C118.131 17.0039 117.733 16.8897 117.324 16.7258L117.645 15.7427C118.334 16.0446 119.055 16.1955 119.808 16.1955C121.25 16.1955 121.971 15.8548 121.971 15.1736C121.971 15.0097 121.939 14.8717 121.874 14.7596C121.809 14.6475 121.702 14.5548 121.553 14.4815C121.404 14.4082 121.208 14.3478 120.967 14.3004C120.725 14.253 120.422 14.212 120.059 14.1775C119.148 14.0913 118.468 13.9059 118.022 13.6213C117.575 13.3367 117.352 12.9012 117.352 12.3148C117.352 12.0561 117.412 11.8125 117.533 11.5839C117.654 11.3554 117.838 11.157 118.085 10.9889C118.331 10.8207 118.643 10.6871 119.02 10.5879C119.397 10.4887 119.836 10.4391 120.339 10.4391C120.59 10.4391 120.82 10.4456 121.029 10.4585C121.239 10.4715 121.441 10.493 121.636 10.5232C121.832 10.5534 122.027 10.5943 122.223 10.6461C122.418 10.6978 122.623 10.7625 122.837 10.8401L122.432 11.7715ZM123.981 10.9695L124.93 10.4133L125.949 8.95155L126.382 9.01622V10.5685H129.159L129.117 11.5645L126.382 11.4481V14.8502C126.382 15.3417 126.502 15.691 126.744 15.8979C126.986 16.1049 127.298 16.2084 127.679 16.2084C127.986 16.2084 128.263 16.1696 128.51 16.092C128.756 16.0144 129.01 15.9023 129.27 15.7557L129.689 16.6223C129.401 16.8121 129.087 16.95 128.747 17.0363C128.407 17.1225 128.005 17.1656 127.54 17.1656C126.74 17.1656 126.128 16.9716 125.705 16.5835C125.281 16.1955 125.07 15.622 125.07 14.8631V11.5645L123.981 11.4222V10.9695ZM130.931 11.0083C131.452 10.8099 131.934 10.6655 132.376 10.5749C132.818 10.4844 133.327 10.4391 133.904 10.4391C134.937 10.4391 135.697 10.6159 136.186 10.9695C136.674 11.3231 136.918 11.8965 136.918 12.6899V15.3935C136.918 15.7039 136.974 15.913 137.086 16.0208C137.197 16.1286 137.43 16.1825 137.784 16.1825V17.0363C137.625 17.0794 137.479 17.1117 137.344 17.1333C137.209 17.1549 137.049 17.1656 136.863 17.1656C136.574 17.1656 136.346 17.0708 136.179 16.8811C136.011 16.6913 135.914 16.4326 135.886 16.1049C135.244 16.8121 134.285 17.1656 133.011 17.1656C132.192 17.1656 131.571 16.9888 131.148 16.6353C130.724 16.2817 130.513 15.7988 130.513 15.1865C130.513 14.8933 130.561 14.6259 130.659 14.3845C130.757 14.143 130.927 13.8972 131.168 13.6472C131.485 13.5609 131.803 13.4833 132.124 13.4143C132.445 13.3453 132.787 13.2893 133.15 13.2461C133.513 13.203 133.899 13.1685 134.309 13.1427C134.718 13.1168 135.169 13.0995 135.662 13.0909V12.7287C135.662 12.2803 135.53 11.9526 135.265 11.7456C134.999 11.5386 134.527 11.4352 133.848 11.4352C132.973 11.4352 132.094 11.6119 131.21 11.9655L130.931 11.0083ZM135.662 13.9576C134.853 13.9749 134.171 14.0158 133.618 14.0805C133.064 14.1452 132.559 14.2336 132.104 14.3457C131.917 14.5526 131.824 14.8114 131.824 15.1218C131.824 15.4754 131.943 15.7406 132.18 15.9173C132.418 16.0941 132.755 16.1825 133.192 16.1825C133.657 16.1825 134.088 16.1179 134.483 15.9885C134.878 15.8591 135.272 15.6392 135.662 15.3288V13.9576ZM140.268 10.5685L140.352 11.5904C140.686 11.1764 141.049 10.8811 141.44 10.7043C141.831 10.5275 142.277 10.4391 142.78 10.4391C143.264 10.4391 143.668 10.506 143.994 10.6396C144.32 10.7733 144.631 11.0169 144.929 11.3705L144.05 12.1078C143.855 11.8836 143.636 11.7176 143.394 11.6098C143.152 11.502 142.901 11.4481 142.64 11.4481C142.119 11.4481 141.696 11.543 141.37 11.7327C141.045 11.9224 140.733 12.2113 140.435 12.5994V17.0363H139.137V10.5685H140.268ZM145.292 10.9695L146.241 10.4133L147.26 8.95155L147.692 9.01622V10.5685H150.47L150.428 11.5645L147.692 11.4481V14.8502C147.692 15.3417 147.813 15.691 148.055 15.8979C148.297 16.1049 148.609 16.2084 148.99 16.2084C149.297 16.2084 149.574 16.1696 149.821 16.092C150.067 16.0144 150.321 15.9023 150.581 15.7557L151 16.6223C150.712 16.8121 150.398 16.95 150.058 17.0363C149.718 17.1225 149.316 17.1656 148.851 17.1656C148.051 17.1656 147.439 16.9716 147.016 16.5835C146.592 16.1955 146.381 15.622 146.381 14.8631V11.5645L145.292 11.4222V10.9695Z"/>
        <path fill="currentColor" fill-rule="evenodd" clip-rule="evenodd" d="M0.711187 11.1872L0.795565 12.2743C1.13308 11.8095 1.50474 11.4925 1.91056 11.3231C2.31638 11.1538 2.72822 11.0691 3.1461 11.0691C3.6604 11.0691 4.08229 11.1636 4.41177 11.3526C4.74125 11.5417 5.01045 11.8371 5.21939 12.2388C5.56494 11.8213 5.94262 11.522 6.35246 11.3408C6.7623 11.1597 7.20829 11.0691 7.69046 11.0691C8.50212 11.0691 9.09879 11.2818 9.48051 11.7071C9.86215 12.1325 10.053 12.7784 10.053 13.6448V17.0949H9.18519V13.6684C9.18519 13.0541 9.06859 12.5894 8.83557 12.2743C8.60254 11.9591 8.22084 11.8016 7.69046 11.8016C7.20829 11.8016 6.7844 11.9041 6.41876 12.1089C6.05312 12.3136 5.72967 12.605 5.44841 12.9832C5.46448 13.0935 5.47854 13.1978 5.4906 13.2962C5.50265 13.3947 5.50868 13.5109 5.50868 13.6448V17.0949H4.64079V13.6566C4.64079 13.0659 4.52427 12.609 4.29123 12.2861C4.05818 11.9631 3.67648 11.8016 3.1461 11.8016C2.62375 11.8016 2.17575 11.9139 1.80208 12.1384C1.4284 12.3629 1.117 12.676 0.867887 13.0777V17.0949H0V11.1872H0.711187ZM11.9455 11.5535C12.3554 11.3802 12.7511 11.2562 13.1328 11.1813C13.5146 11.1065 13.9425 11.0691 14.4166 11.0691C15.2925 11.0691 15.9354 11.2266 16.3453 11.5417C16.755 11.8568 16.96 12.3727 16.96 13.0895V15.6535C16.96 15.9685 17.0162 16.1831 17.1288 16.2973C17.2412 16.4115 17.4542 16.4766 17.7676 16.4923V17.0949C17.6711 17.1343 17.5707 17.1638 17.4662 17.1835C17.3618 17.2032 17.2412 17.213 17.1047 17.213C16.8636 17.213 16.6747 17.1382 16.5381 16.9885C16.4015 16.8389 16.3171 16.575 16.2849 16.1969C15.9314 16.5671 15.5236 16.829 15.0615 16.9826C14.5994 17.1362 14.1153 17.213 13.609 17.213C12.8857 17.213 12.3574 17.0535 12.0239 16.7345C11.6904 16.4155 11.5236 15.9882 11.5236 15.4526C11.5236 15.1848 11.5618 14.9445 11.6381 14.7318C11.7145 14.5191 11.8491 14.3025 12.042 14.082C12.3152 14.0032 12.5964 13.9324 12.8857 13.8693C13.175 13.8063 13.4824 13.7551 13.8079 13.7157C14.1333 13.6763 14.4849 13.6448 14.8626 13.6212C15.2403 13.5976 15.6541 13.5779 16.1042 13.5621V13.1249C16.1042 12.8965 16.076 12.6996 16.0197 12.5342C15.9635 12.3688 15.8671 12.2329 15.7304 12.1266C15.5939 12.0202 15.4131 11.9414 15.1881 11.8902C14.963 11.839 14.6858 11.8135 14.3563 11.8135C13.9786 11.8135 13.619 11.8489 13.2775 11.9198C12.936 11.9907 12.5683 12.1049 12.1746 12.2624L11.9455 11.5535ZM16.1042 14.1883C15.3166 14.2041 14.6597 14.2454 14.1333 14.3124C13.607 14.3794 13.1389 14.464 12.729 14.5664C12.6165 14.7003 12.5362 14.8323 12.488 14.9622C12.4397 15.0922 12.4156 15.232 12.4156 15.3817C12.4156 16.1064 12.8416 16.4686 13.6934 16.4686C14.1514 16.4686 14.5773 16.4037 14.971 16.2737C15.3648 16.1437 15.7426 15.9055 16.1042 15.5589V14.1883ZM24.6263 8.46973V16.8467C24.3853 16.9177 24.1543 16.9748 23.9333 17.018C23.7122 17.0614 23.4852 17.0988 23.2522 17.1303C23.0192 17.1618 22.772 17.1835 22.5109 17.1953C22.2497 17.2071 21.9624 17.213 21.649 17.213C21.1748 17.213 20.7449 17.15 20.3593 17.0239C19.9735 16.8979 19.644 16.707 19.3708 16.4509C19.0976 16.1949 18.8866 15.876 18.738 15.4939C18.5893 15.1119 18.5149 14.6649 18.5149 14.1529C18.5149 13.696 18.5953 13.2766 18.7561 12.8945C18.9168 12.5125 19.1417 12.1876 19.431 11.9198C19.7203 11.652 20.0619 11.4432 20.4556 11.2936C20.8494 11.1439 21.2754 11.0691 21.7334 11.0691C22.1593 11.0691 22.5249 11.1163 22.8303 11.2109C23.1357 11.3054 23.445 11.455 23.7584 11.6598V8.46973H24.6263ZM23.7584 12.5224C23.4772 12.2939 23.1819 12.1167 22.8724 11.9907C22.5631 11.8647 22.2155 11.8016 21.8298 11.8016C21.5004 11.8016 21.189 11.8509 20.8956 11.9494C20.6023 12.0478 20.3451 12.1955 20.1242 12.3924C19.9032 12.5894 19.7284 12.8335 19.5998 13.1249C19.4712 13.4164 19.4069 13.7551 19.4069 14.141C19.4069 14.5427 19.4692 14.8894 19.5938 15.1808C19.7184 15.4723 19.8931 15.7125 20.1181 15.9015C20.3432 16.0906 20.6063 16.2304 20.9077 16.3209C21.209 16.4115 21.5405 16.4568 21.9021 16.4568C22.2637 16.4568 22.5852 16.4411 22.8664 16.4096C23.1477 16.378 23.445 16.319 23.7584 16.2324V12.5224ZM26.7117 14.3301C26.7358 14.7003 26.8181 15.0213 26.9588 15.2931C27.0994 15.5648 27.2842 15.7873 27.5133 15.9606C27.7423 16.1339 28.0035 16.2619 28.2968 16.3446C28.5901 16.4273 28.9015 16.4686 29.231 16.4686C29.6488 16.4686 30.0265 16.4352 30.3641 16.3683C30.7016 16.3013 31.023 16.189 31.3284 16.0315L31.5815 16.7759C31.2118 16.9413 30.8462 17.0555 30.4846 17.1185C30.123 17.1815 29.689 17.213 29.1828 17.213C28.6444 17.213 28.1662 17.1421 27.7483 17.0003C27.3305 16.8586 26.9809 16.6538 26.6996 16.386C26.4183 16.1182 26.2034 15.7952 26.0548 15.4171C25.9061 15.039 25.8317 14.6176 25.8317 14.1529C25.8317 13.696 25.9141 13.2766 26.0789 12.8945C26.2436 12.5125 26.4726 12.1876 26.766 11.9198C27.0592 11.652 27.4048 11.4432 27.8025 11.2936C28.2003 11.1439 28.6323 11.0691 29.0984 11.0691C29.5725 11.0691 29.9824 11.1301 30.3279 11.2522C30.6734 11.3743 30.9608 11.5417 31.1897 11.7544C31.4188 11.9671 31.5895 12.221 31.7021 12.5165C31.8145 12.8119 31.8708 13.1367 31.8708 13.4912C31.8708 13.6488 31.8648 13.7925 31.8527 13.9225C31.8406 14.0525 31.8145 14.1883 31.7744 14.3301H26.7117ZM31.0391 13.6094C31.0391 12.9556 30.8763 12.4908 30.5509 12.2151C30.2255 11.9395 29.7091 11.8016 29.0019 11.8016C28.7287 11.8016 28.4636 11.841 28.2064 11.9198C27.9492 11.9985 27.7162 12.1127 27.5072 12.2624C27.2983 12.4121 27.1235 12.6012 26.9829 12.8296C26.8423 13.058 26.7559 13.3179 26.7237 13.6094H31.0391ZM37.5001 8.46973V11.6717C37.8616 11.4511 38.2193 11.2955 38.5729 11.205C38.9264 11.1144 39.3282 11.0691 39.7782 11.0691C40.7265 11.0691 41.4598 11.3153 41.9781 11.8075C42.4964 12.2998 42.7556 13.0422 42.7556 14.0347C42.7556 14.5231 42.6671 14.9622 42.4904 15.3521C42.3136 15.742 42.0665 16.0748 41.7491 16.3505C41.4316 16.6262 41.0559 16.8389 40.622 16.9885C40.188 17.1382 39.714 17.213 39.1996 17.213C38.9264 17.213 38.6773 17.2032 38.4523 17.1835C38.2273 17.1638 38.0123 17.1303 37.8074 17.0831C37.6025 17.0358 37.4056 16.9748 37.2168 16.9C37.0279 16.8251 36.833 16.7365 36.6322 16.6341V8.46973H37.5001ZM37.5001 16.1024C37.6446 16.1733 37.7833 16.2304 37.9159 16.2737C38.0485 16.3171 38.1811 16.3525 38.3137 16.3801C38.4463 16.4077 38.5849 16.4273 38.7295 16.4391C38.8742 16.4509 39.0349 16.4568 39.2117 16.4568C39.6055 16.4568 39.967 16.4017 40.2965 16.2914C40.626 16.1812 40.9073 16.0236 41.1403 15.8189C41.3734 15.6141 41.5542 15.36 41.6828 15.0567C41.8114 14.7535 41.8756 14.4089 41.8756 14.0229C41.8756 13.2825 41.6888 12.7252 41.3151 12.351C40.9415 11.9769 40.393 11.7898 39.6697 11.7898C39.2358 11.7898 38.8461 11.8449 38.5005 11.9553C38.155 12.0655 37.8215 12.2309 37.5001 12.4515V16.1024ZM44.5155 11.1872L46.9745 16.1969H47.0468L49.0357 11.1872H50L47.0347 18.2646C46.8741 18.6506 46.6249 18.9479 46.2874 19.1566C45.9499 19.3654 45.5883 19.4697 45.2025 19.4697C44.9775 19.4697 44.7485 19.4265 44.5155 19.3398L44.6601 18.6427C44.8047 18.682 44.9695 18.7018 45.1543 18.7018C45.4597 18.7018 45.7128 18.6308 45.9137 18.4891C46.1147 18.3473 46.2714 18.111 46.3838 17.7802L46.5887 17.2012L43.5391 11.1872H44.5155Z"/>
    </symbol>

    <symbol id="icon-inst" viewBox="0 0 32 32">
        <path fill="currentColor" fill-rule="evenodd" clip-rule="evenodd" d="M16.0015 0C11.6561 0 11.1108 0.0190002 9.4041 0.0966676C7.70075 0.174668 6.53807 0.444338 5.52072 0.840008C4.46838 1.24868 3.5757 1.79535 2.68636 2.68503C1.79635 3.57437 1.24968 4.46704 0.839675 5.51905C0.443005 6.53673 0.173002 7.69974 0.0963343 9.40243C0.0200002 11.1091 0 11.6548 0 16.0002C0 20.3455 0.0193335 20.8892 0.0966677 22.5959C0.175002 24.2992 0.444671 25.4619 0.840009 26.4793C1.24901 27.5316 1.79569 28.4243 2.68536 29.3136C3.57437 30.2036 4.46705 30.7516 5.51872 31.1603C6.53673 31.556 7.69975 31.8256 9.40276 31.9037C11.1094 31.9813 11.6545 32.0003 15.9995 32.0003C20.3452 32.0003 20.8889 31.9813 22.5956 31.9037C24.2989 31.8256 25.4629 31.556 26.4809 31.1603C27.533 30.7516 28.4243 30.2036 29.3133 29.3136C30.2033 28.4243 30.75 27.5316 31.16 26.4796C31.5533 25.4619 31.8233 24.2989 31.9033 22.5962C31.98 20.8895 32 20.3455 32 16.0002C32 11.6548 31.98 11.1094 31.9033 9.40276C31.8233 7.69941 31.5533 6.53673 31.16 5.51939C30.75 4.46704 30.2033 3.57437 29.3133 2.68503C28.4233 1.79502 27.5333 1.24835 26.4799 0.840008C25.4599 0.444338 24.2966 0.174668 22.5932 0.0966676C20.8866 0.0190002 20.3432 0 15.9965 0H16.0015ZM14.5661 2.88188C14.9921 2.88122 15.4675 2.88188 16.0015 2.88188C20.2735 2.88188 20.7799 2.89722 22.4669 2.97388C24.0269 3.04522 24.8736 3.30589 25.4376 3.52489C26.1842 3.81489 26.7166 4.16156 27.2763 4.72157C27.8363 5.28157 28.1829 5.81491 28.4736 6.56159C28.6926 7.12493 28.9536 7.9716 29.0246 9.53162C29.1013 11.2183 29.1179 11.725 29.1179 15.995C29.1179 20.2651 29.1013 20.7717 29.0246 22.4584C28.9533 24.0184 28.6926 24.8651 28.4736 25.4285C28.1836 26.1751 27.8363 26.7068 27.2763 27.2665C26.7162 27.8265 26.1846 28.1731 25.4376 28.4632C24.8742 28.6832 24.0269 28.9432 22.4669 29.0145C20.7802 29.0912 20.2735 29.1078 16.0015 29.1078C11.7291 29.1078 11.2228 29.0912 9.53607 29.0145C7.97605 28.9425 7.12938 28.6818 6.56504 28.4628C5.81836 28.1728 5.28502 27.8261 4.72502 27.2661C4.16501 26.7061 3.81834 26.1741 3.52767 25.4271C3.30867 24.8638 3.04767 24.0171 2.97667 22.4571C2.9 20.7704 2.88467 20.2637 2.88467 15.991C2.88467 11.7183 2.9 11.2143 2.97667 9.52762C3.048 7.9676 3.30867 7.12093 3.52767 6.55692C3.81768 5.81025 4.16501 5.27691 4.72502 4.7169C5.28502 4.1569 5.81836 3.81022 6.56504 3.51956C7.12904 3.29955 7.97605 3.03955 9.53607 2.96788C11.0121 2.90122 11.5841 2.88122 14.5661 2.87788V2.88188ZM24.5422 5.54216C23.4822 5.54216 22.6222 6.40117 22.6222 7.46152C22.6222 8.52153 23.4822 9.38154 24.5422 9.38154C25.6022 9.38154 26.4622 8.52153 26.4622 7.46152C26.4622 6.4015 25.6022 5.5415 24.5422 5.5415V5.54216ZM16.0016 7.78151C11.4639 7.78151 7.78484 11.4605 7.78484 15.9983C7.78484 20.536 11.4639 24.2133 16.0016 24.2133C20.5393 24.2133 24.217 20.536 24.217 15.9983C24.217 11.4605 20.539 7.78151 16.0013 7.78151H16.0016ZM16.0016 10.666C18.947 10.666 21.335 13.0537 21.335 15.9994C21.335 18.9448 18.947 21.3328 16.0016 21.3328C13.0559 21.3328 10.6682 18.9448 10.6682 15.9994C10.6682 13.0537 13.0559 10.666 16.0016 10.666Z"/>
    </symbol>

    <symbol id="icon-vk" viewBox="0 0 32 18">
        <path fill="currentColor" fill-rule="evenodd" clip-rule="evenodd" d="M17.5693 17.8471C17.5693 17.8471 18.1469 17.7841 18.4427 17.4722C18.7134 17.1864 18.704 16.6472 18.704 16.6472C18.704 16.6472 18.668 14.1292 19.8591 13.7574C21.0329 13.3917 22.5402 16.1924 24.1397 17.2694C25.348 18.0837 26.2651 17.9054 26.2651 17.9054L30.5395 17.8471C30.5395 17.8471 32.7745 17.7119 31.7149 15.9866C31.6272 15.8452 31.0967 14.7099 28.5377 12.3778C25.8566 9.93656 26.2166 10.3314 29.4439 6.10805C31.4097 3.53626 32.1954 1.96614 31.9497 1.29477C31.7165 0.652587 30.2703 0.823119 30.2703 0.823119L25.4591 0.852309C25.4591 0.852309 25.1023 0.804683 24.8377 0.959851C24.5795 1.11195 24.412 1.46684 24.412 1.46684C24.412 1.46684 23.6514 3.45637 22.6356 5.14939C20.493 8.7198 19.6369 8.90876 19.2863 8.68753C18.4708 8.16979 18.6743 6.61043 18.6743 5.50274C18.6743 2.04142 19.2096 0.598816 17.6335 0.225491C17.1107 0.101049 16.7257 0.0196239 15.3875 0.00579705C13.6706 -0.0111025 12.2182 0.0119423 11.3949 0.406776C10.8471 0.669487 10.4245 1.25636 10.6828 1.29016C11.0005 1.33164 11.7205 1.48066 12.1024 1.99072C12.5954 2.6498 12.5782 4.12774 12.5782 4.12774C12.5782 4.12774 12.8614 8.20206 11.9161 8.7075C11.2681 9.05471 10.3792 8.34647 8.46815 5.10637C7.48995 3.44715 6.75121 1.61279 6.75121 1.61279C6.75121 1.61279 6.60878 1.27019 6.35367 1.08583C6.04534 0.863063 5.61493 0.793928 5.61493 0.793928L1.04321 0.823119C1.04321 0.823119 0.356125 0.841554 0.104141 1.13499C-0.119672 1.39463 0.0869242 1.93388 0.0869242 1.93388C0.0869242 1.93388 3.66636 10.1547 7.72002 14.2982C11.4372 18.0959 15.6567 17.8471 15.6567 17.8471H17.5693Z"/>
    </symbol>

    <symbol id="icon-fb" viewBox="0 0 16 33">
        <path fill="currentColor" fill-rule="evenodd" clip-rule="evenodd" d="M10.1269 32.6393V16.3178H14.6324L15.2295 10.6933H10.1269L10.1346 7.87813C10.1346 6.41117 10.274 5.62514 12.381 5.62514H15.1976V0H10.6915C5.27892 0 3.37384 2.72849 3.37384 7.31696V10.6939H0V16.3184H3.37384V32.6393H10.1269Z"/>
    </symbol>

    <symbol id="benefits-jar" viewBox="0 0 111 81">
        <rect x="65.3195" y="1.86279" width="36.4282" height="11.3053" fill="#E84434"/>
        <rect x="60" y="67" width="48" height="11" fill="#E84434"/>
        <path d="M60 24L69 20H84H99L108 24V35H60V24Z" fill="#E84434"/>
        <path d="M64.895 19.2719C64.8662 19.2875 64.8483 19.304 64.8197 19.3197C64.6881 19.3912 64.5624 19.4638 64.4334 19.5391C64.3766 19.5725 64.3235 19.6075 64.2671 19.6416C64.1679 19.7013 64.0698 19.761 63.972 19.8229C63.9089 19.8631 63.8477 19.9049 63.7854 19.946C63.6963 20.0043 63.6075 20.0627 63.52 20.1228C63.4548 20.1676 63.3912 20.2138 63.3269 20.2595C63.2437 20.3187 63.1607 20.3778 63.0791 20.4383C63.0141 20.4867 62.9501 20.5362 62.886 20.5856C62.8069 20.6463 62.728 20.7072 62.6501 20.7691C62.5862 20.8203 62.5234 20.8723 62.4602 20.9244C62.3842 20.9874 62.3085 21.0506 62.2337 21.115C62.1714 21.1687 62.11 21.2231 62.0486 21.2778C61.9753 21.3431 61.9026 21.4089 61.8307 21.4754C61.7702 21.531 61.7101 21.5876 61.6505 21.6451C61.5801 21.7124 61.5104 21.7805 61.4412 21.8494C61.3825 21.9077 61.3243 21.9665 61.2664 22.0255C61.1986 22.0956 61.1313 22.1663 61.0647 22.2377C61.0085 22.2975 60.9525 22.3574 60.8975 22.4183C60.8314 22.4914 60.7664 22.5654 60.7017 22.6398C60.6484 22.7008 60.595 22.7617 60.5427 22.8233C60.4781 22.8998 60.4149 22.9777 60.3518 23.0556C60.3021 23.117 60.2517 23.1782 60.2028 23.2404C60.1388 23.3218 60.0769 23.4047 60.0146 23.4873C59.969 23.548 59.9226 23.608 59.8778 23.6692C59.8129 23.7585 59.7499 23.8492 59.6869 23.9398C59.6474 23.9963 59.607 24.052 59.5682 24.1092C59.4925 24.2208 59.4195 24.3342 59.3476 24.448C59.3236 24.4853 59.2985 24.522 59.2749 24.5596C59.1801 24.7108 59.088 24.8637 58.9985 25.0182C58.9705 25.0668 58.9442 25.1163 58.9167 25.165C58.856 25.2726 58.7952 25.38 58.7372 25.4891C58.7032 25.5518 58.6723 25.6157 58.6398 25.6789C58.59 25.7753 58.5402 25.8715 58.4925 25.9689C58.4585 26.0378 58.427 26.1076 58.3946 26.1769C58.3506 26.2703 58.3067 26.3636 58.2646 26.4578C58.2323 26.5304 58.2018 26.6036 58.1706 26.6766C58.131 26.7692 58.0917 26.8618 58.054 26.955C58.0238 27.0299 57.9951 27.1051 57.9661 27.1807C57.9303 27.2738 57.8948 27.3668 57.8609 27.4606C57.833 27.5373 57.8064 27.6143 57.7799 27.6914C57.7477 27.7851 57.7162 27.879 57.6856 27.9731C57.6605 28.0509 57.636 28.1294 57.6121 28.2086C57.5834 28.303 57.5555 28.3978 57.5286 28.493C57.506 28.5724 57.4842 28.6518 57.4633 28.7313C57.4378 28.8274 57.4134 28.9237 57.39 29.0202C57.3705 29.1 57.3516 29.1799 57.3331 29.2601C57.3111 29.3578 57.2905 29.4559 57.2703 29.5541C57.2534 29.634 57.2374 29.7137 57.2223 29.794C57.2035 29.894 57.1863 29.995 57.1695 30.0959C57.1565 30.1748 57.1427 30.2533 57.1308 30.3325C57.1152 30.4363 57.1018 30.5407 57.0884 30.6451C57.0786 30.7222 57.0677 30.7989 57.0591 30.8763C57.0467 30.9855 57.0372 31.0951 57.0272 31.2049C57.0205 31.2779 57.0127 31.3508 57.0073 31.424C56.9981 31.5456 56.992 31.6679 56.9859 31.791C56.9829 31.8527 57.0144 31.9142 57.0121 31.9759C57.0051 32.1602 57.0375 32.345 57.0375 32.5303V72.6653C57.0309 74.8662 57.9128 76.9797 59.4898 78.5423C61.0667 80.1048 63.2099 80.9887 65.4491 81H102.592C104.831 80.9876 106.974 80.1026 108.55 78.5391C110.127 76.9756 111.007 74.8615 110.999 72.6604V32.5305C111.026 29.5349 110.149 26.5986 108.48 24.0919C107.05 21.9181 105.047 20.1657 102.684 19.0204V15.5612C103.129 15.5451 103.551 15.3642 103.866 15.0548C104.181 14.7454 104.365 14.3305 104.381 13.8933V3.94251C104.369 3.05297 104 2.20408 103.355 1.57972C102.711 0.955352 101.842 0.605772 100.937 0.606691H67.0997C66.1946 0.605772 65.3255 0.955352 64.6807 1.57972C64.036 2.20408 63.6674 3.05297 63.6549 3.94251V13.8938C63.6713 14.331 63.8554 14.7459 64.1701 15.0552C64.4849 15.3646 64.907 15.5455 65.3518 15.5617V19.0279C65.1821 19.1062 65.0521 19.1872 64.895 19.2719ZM99.2905 15.6179V18.4383H68.7457V15.6179H99.2905ZM60.4307 36.3H107.606V64.4877H60.4307V36.3ZM102.587 77.6642H65.4536C64.7895 77.6601 64.1326 77.5274 63.5207 77.2737C62.9087 77.02 62.3536 76.6502 61.8871 76.1855C61.4207 75.7208 61.0519 75.1703 60.802 74.5654C60.5521 73.9606 60.4259 73.3132 60.4307 72.6604V67.8235H107.606V72.6556C107.611 73.3084 107.485 73.9559 107.236 74.561C106.987 75.1661 106.618 75.717 106.152 76.1821C105.686 76.6473 105.132 77.0176 104.52 77.2719C103.908 77.5262 103.251 77.6595 102.587 77.6642ZM107.606 32.5305V32.9642H60.4307V32.5305C60.4307 32.3832 60.3968 32.2363 60.403 32.0897C60.4049 32.0396 60.3908 31.9896 60.3935 31.9396C60.3983 31.8435 60.3935 31.7474 60.401 31.6517C60.4056 31.593 60.4078 31.5349 60.4131 31.4762C60.421 31.3895 60.426 31.3028 60.436 31.2164C60.4431 31.1542 60.4512 31.0923 60.4594 31.0302C60.4701 30.9483 60.4796 30.8663 60.492 30.7849C60.5018 30.7208 60.5133 30.6574 60.5242 30.5937C60.5376 30.5147 60.5502 30.4354 60.5653 30.3567C60.5777 30.2923 60.5919 30.2286 60.6052 30.1644C60.6213 30.0874 60.6367 30.01 60.6545 29.9332C60.6693 29.8687 60.6859 29.8046 60.7019 29.7404C60.7207 29.6649 60.7389 29.5891 60.7591 29.5141C60.776 29.4497 60.7955 29.386 60.8139 29.3219C60.8353 29.2479 60.856 29.1738 60.8787 29.1003C60.8986 29.0361 60.9201 28.9727 60.941 28.909C60.9647 28.8364 60.9881 28.7637 61.0133 28.6921C61.0355 28.6286 61.0594 28.5656 61.0827 28.5023C61.1088 28.4313 61.1348 28.3601 61.1624 28.2895C61.187 28.2263 61.2133 28.1638 61.239 28.101C61.2675 28.0318 61.2958 27.9623 61.3255 27.8936C61.3527 27.8308 61.3813 27.7686 61.4103 27.7064C61.4409 27.6387 61.4714 27.5711 61.5033 27.5041C61.5329 27.442 61.5638 27.3808 61.5945 27.3193C61.6274 27.2526 61.6603 27.1869 61.6944 27.1213C61.7261 27.0604 61.7591 27.0004 61.792 26.9402C61.8273 26.8751 61.8626 26.8102 61.8991 26.7459C61.933 26.6861 61.9681 26.6273 62.0029 26.5682C62.0404 26.5047 62.0781 26.4415 62.1166 26.3788C62.1529 26.32 62.1901 26.262 62.2273 26.204C62.2668 26.1422 62.3065 26.0805 62.3472 26.0205C62.3857 25.9629 62.4249 25.9061 62.4643 25.8494C62.5059 25.7893 62.5476 25.7294 62.5904 25.6701C62.631 25.6139 62.6724 25.5581 62.7139 25.5033C62.7576 25.4449 62.8017 25.3868 62.8461 25.3291C62.8887 25.2744 62.932 25.2202 62.9754 25.1662C63.0212 25.1095 63.0674 25.0531 63.1139 24.9971C63.1585 24.9439 63.2037 24.8911 63.2497 24.8386C63.2975 24.7836 63.3454 24.7289 63.3941 24.6748C63.4428 24.6208 63.4877 24.5719 63.5353 24.5209C63.5828 24.4698 63.6349 24.415 63.6854 24.3626C63.736 24.3102 63.7827 24.2625 63.832 24.2138C63.8814 24.1651 63.9356 24.1116 63.988 24.061C64.0404 24.0105 64.089 23.9648 64.1407 23.9174C64.1925 23.87 64.2478 23.8192 64.3019 23.7706C64.3561 23.7221 64.4068 23.6777 64.4599 23.632C64.513 23.5863 64.5704 23.538 64.6262 23.4916C64.682 23.4452 64.7346 23.4024 64.7895 23.3582C64.8443 23.314 64.9037 23.2681 64.9614 23.2247C65.0191 23.1814 65.073 23.1393 65.1297 23.0975C65.1864 23.0556 65.247 23.0119 65.3062 22.9697C65.3654 22.9275 65.4216 22.888 65.4799 22.8481C65.5383 22.8083 65.6006 22.7671 65.6613 22.727C65.7221 22.687 65.7801 22.6496 65.8399 22.6119C65.8996 22.5742 65.9641 22.5351 66.0265 22.4972C66.089 22.4593 66.1477 22.4241 66.2091 22.3888C66.2705 22.3534 66.3367 22.3164 66.4009 22.2809C66.465 22.2453 66.5251 22.2123 66.5875 22.179C66.65 22.1456 66.7184 22.1114 66.7844 22.0789C66.8477 22.047 66.9111 22.0148 66.9753 21.9841C67.0394 21.9535 67.1095 21.9213 67.1769 21.8906C67.2442 21.8599 67.3065 21.8312 67.372 21.8027C67.3927 21.7938 67.4136 21.786 67.4341 21.7768H100.572C104.813 23.5561 107.606 27.8385 107.606 32.5305ZM67.0997 3.94251H100.987V12.2821H67.0997L67.0978 3.94251H67.0997Z" fill="#101010"/>
        <path d="M71.0358 52.5634L70.2457 57.1332H81.6703L82.2042 54.0368H74.5379L80.6453 50.9191L83.1651 48.5487L83.8485 44.7049L81.6276 41.9716H75.9046L72.4879 42.9752L72.8936 45.9221L75.7551 45.068H79.6203L80.325 45.9221L80.0474 47.5024L78.9796 48.5274L71.0358 52.5634Z" fill="#101010"/>
        <path d="M94.2836 51.2394L95.9279 41.9716H93.1946L83.0939 51.3248L82.5814 54.3358H90.4398L89.9487 57.1332H93.2586L93.7498 54.3358H95.3086L95.8425 51.2394H94.2836ZM91.4008 47.481L91.9773 46.7336L92.0414 46.7763L91.6357 47.5237L90.9737 51.2394H87.5997L86.8096 51.517L86.7669 51.4529L87.5997 51.0045L91.4008 47.481Z" fill="#101010"/>
        <rect x="12.1183" y="35.5961" width="30.3242" height="3.03242" transform="rotate(-6.94286 12.1183 35.5961)" fill="#101010"/>
        <rect x="22.6153" y="46.5372" width="21.227" height="3.03242" transform="rotate(-6.94286 22.6153 46.5372)" fill="#E84434"/>
        <rect y="61.5104" width="45.4864" height="3.03242" transform="rotate(-6.94286 0 61.5104)" fill="#101010"/>
    </symbol>
    <symbol id="benefits-pay" viewBox="0 0 98 91">
        <rect x="81.8461" y="59.8333" width="15.0769" height="21.5385" fill="#E84434"/>
        <path d="M83.6267 59.1333L72.8467 55.05C71.05 54.3966 69.09 54.8866 67.62 56.1933L52.1033 71.71L25.1533 57.1733C23.6833 56.3566 21.8867 56.3566 20.2533 57.3366C18.7833 58.1533 17.8033 59.7866 17.8033 61.5833V64.0333C17.8033 65.83 18.7833 67.4633 20.2533 68.28L56.84 89.5133C57.6567 90.0033 58.4733 90.1666 59.29 90.1666C59.78 90.1666 60.27 90.0033 60.9233 89.84L83.6267 82H98V59.1333H83.6267ZM59.9433 86.5733C59.4533 86.7366 58.9633 86.7366 58.6367 86.41L22.05 65.1766C21.56 64.85 21.2333 64.36 21.2333 63.7066V61.2566C21.2333 60.44 21.7233 59.95 22.05 59.7866C22.2133 59.6233 22.54 59.6233 22.8667 59.6233C23.03 59.6233 23.3567 59.6233 23.6833 59.7866L58.9633 78.8966L71.2133 70.0766L69.2533 67.4633L58.6367 74.9766L55.0433 73.0166L69.7433 58.3166C70.2333 57.8266 70.8867 57.6633 71.54 57.99L81.5033 61.7466V79.06L59.9433 86.5733ZM94.7333 78.7333H84.9333V62.4H94.7333V78.7333Z" fill="#101010"/>
        <path d="M91.4667 65.6667H88.2V72.2H91.4667V65.6667Z" fill="#101010"/>
        <path d="M15.4 22.0333L14.7 2.43335H46.2L67.9 19.9333H85.4H54.6L56 24.8333L51.1 28.3333L39.2 19.9333H28V33.2333L15.4 22.0333Z" fill="#E84434"/>
        <path d="M51.6133 29.8967C50.47 29.8967 49.49 29.5701 48.51 28.7534L35.28 18.3001H26.1333V15.0334H36.5867L50.7967 26.3034C51.1233 26.6301 51.6134 26.6301 52.1034 26.6301C52.5934 26.6301 52.92 26.3034 53.2467 25.9767L53.9 24.8334C54.39 24.1801 54.2267 23.2001 53.5733 22.5467L39.69 11.4401L41.65 8.82672L55.5333 19.9334C57.6567 21.5667 57.9834 24.5067 56.35 26.6301L55.5333 27.9367C54.7167 29.0801 53.5734 29.7334 52.2667 29.8967C52.1033 29.8967 51.94 29.8967 51.6133 29.8967Z" fill="#101010"/>
        <path d="M9.79998 6.8667H6.53331V13.4H9.79998V6.8667Z" fill="#101010"/>
        <path d="M57.1667 42.7999C53.5733 42.7999 50.6333 39.8599 50.6333 36.2666C50.6333 32.6733 53.5733 29.7333 57.1667 29.7333C60.76 29.7333 63.7 32.6733 63.7 36.2666C63.7 39.8599 60.76 42.7999 57.1667 42.7999ZM57.1667 32.9999C55.37 32.9999 53.9 34.4699 53.9 36.2666C53.9 38.0633 55.37 39.5333 57.1667 39.5333C58.9633 39.5333 60.4333 38.0633 60.4333 36.2666C60.4333 34.4699 58.9633 32.9999 57.1667 32.9999Z" fill="#101010"/>
        <path d="M78.4 47.7H35.9333V46.0666C35.9333 45.0866 35.28 44.4333 34.3 44.4333H32.6667V28.1H34.3C35.28 28.1 35.9333 27.4466 35.9333 26.4666V24.8333H40.8333V28.1H38.8733C38.3833 29.57 37.24 30.55 35.9333 31.04V41.33C37.4033 41.82 38.3833 42.9633 38.8733 44.27H75.2967C75.7867 42.8 76.93 41.82 78.2367 41.33V31.04C76.7667 30.55 75.7867 29.4066 75.2967 28.1H60.4333V24.8333H78.4V26.4666C78.4 27.4466 79.0533 28.1 80.0333 28.1H81.6667V44.4333H80.0333C79.0533 44.4333 78.4 45.0866 78.4 46.0666V47.7Z" fill="#101010"/>
        <path d="M69.2533 19.9333L47.6933 1.47665C46.8767 0.823313 45.7333 0.333313 44.59 0.333313H0V24.8333H14.0467L24.1733 33.49C24.99 34.3066 26.1333 34.6333 27.44 34.6333H27.7667V52.6H86.5667V19.9333H69.2533ZM13.0667 21.5666H3.26667V3.59998H13.0667V21.5666ZM83.3 49.3333H31.0333V23.2H34.3V19.9333H27.7667V31.3666H27.2767C26.95 31.3666 26.46 31.2033 26.1333 31.04L16.3333 22.3833V3.59998H44.59C44.9167 3.59998 45.4067 3.76331 45.7333 3.92665L64.19 19.9333H60.4333V23.2H83.3V49.3333Z" fill="#101010"/>
    </symbol>
    <symbol id="benefits-like" viewBox="0 0 84 76">
        <path d="M26.5 36.5V72.5H2V36.5H26.5Z" fill="#E84434"/>
        <path d="M84 36.7551C83.8714 37.2919 83.6999 37.8175 83.4873 38.3269C83.0166 39.2515 82.4534 40.1341 81.9659 41.0503C81.7995 41.2967 81.7334 41.5973 81.781 41.8908C83.025 45.0092 82.3189 47.7746 80.4025 50.3887C80.2687 50.519 80.1783 50.6874 80.1437 50.8709C80.1091 51.0544 80.132 51.2441 80.2092 51.4142C81.3775 54.2636 80.7303 56.8861 79.1164 59.3489C78.9067 59.5975 78.761 59.8938 78.6921 60.2118C78.6232 60.5297 78.6333 60.8597 78.7214 61.1729C79.4947 64.3585 79.024 67.3845 76.62 69.9061C75.4901 71.0762 74.019 71.8588 72.4173 72.142C70.9966 72.4242 69.5536 72.5789 68.1053 72.6043C57.4472 72.6043 46.7891 72.6043 36.1647 72.6043C34.2347 72.563 32.3601 71.9518 30.7768 70.8475C30.5539 70.6717 30.2965 70.5449 30.0213 70.4754C29.7461 70.4058 29.4594 70.3952 29.1798 70.4441C29.1798 70.9736 29.1209 71.4779 29.0537 71.9823C28.9752 72.7672 28.6232 73.4996 28.0593 74.0512C27.4953 74.6029 26.7554 74.9386 25.9689 74.9998C25.7253 75.0132 25.4812 75.0132 25.2376 74.9998H3.98025C3.48998 75.0401 2.99666 74.9794 2.53077 74.8215C2.06487 74.6636 1.63631 74.4119 1.27157 74.0818C0.90683 73.7517 0.613659 73.3503 0.410177 72.9025C0.206695 72.4546 0.0972263 71.9698 0.088536 71.4779C0.088536 60.394 0.088536 49.3128 0.088536 38.2344C0.0546406 37.7067 0.132762 37.1779 0.317771 36.6825C0.502779 36.1871 0.790488 35.7365 1.162 35.3602C1.53351 34.984 1.98043 34.6906 2.47339 34.4992C2.96635 34.3079 3.4942 34.2231 4.02228 34.2503C12.0187 34.2503 20.0178 34.2503 28.0198 34.2503C28.5863 34.3211 29.1478 34.4278 29.7009 34.5697C29.9837 34.6449 30.2845 34.6088 30.5414 34.4688C31.42 33.6169 32.2374 32.704 32.9874 31.737C36.2506 27.1852 39.1671 22.3947 41.7123 17.4058C42.1614 16.5856 42.3793 15.6588 42.3427 14.7244C42.2334 11.959 42.2334 9.18525 42.1325 6.41986C42.0714 5.53445 42.2684 4.65031 42.6995 3.87455C43.1307 3.09879 43.7775 2.46468 44.5617 2.04904C46.061 1.18824 47.7778 0.780889 49.504 0.876373C51.2302 0.971858 52.8916 1.56608 54.2868 2.58698C54.9617 3.19799 55.4755 3.96592 55.783 4.82283C56.8168 7.34446 57.8003 9.92493 58.6744 12.5222C59.5661 15.3473 59.688 18.3591 59.0275 21.2471C58.5904 23.4577 58.271 25.6935 57.8927 27.9126C57.7666 28.6691 57.7919 28.7531 58.5652 28.7531H76.7293C78.1966 28.6828 79.6537 29.0296 80.932 29.7534C81.6396 30.2024 82.2513 30.7872 82.7317 31.4739C83.2121 32.1606 83.5518 32.9357 83.731 33.7543C83.7983 34.0149 83.8823 34.2671 83.958 34.5192V36.7971L84 36.7551ZM53.5639 32.2161C54.2195 28.3244 54.8836 24.5168 55.4888 20.7091C55.7814 19.3623 55.9085 17.9848 55.867 16.6073C55.5308 12.9341 54.0514 9.58871 52.5889 6.25175C52.4511 5.83187 52.2055 5.45556 51.8765 5.16052C51.5475 4.86548 51.1468 4.66207 50.7145 4.57067C49.318 4.15002 47.8133 4.28243 46.5118 4.94051C46.2159 5.06452 45.9674 5.27984 45.8026 5.55505C45.6378 5.83026 45.5653 6.15094 45.5956 6.47029C45.7076 9.52987 45.7637 12.5895 45.7637 15.649C45.7694 16.3791 45.6471 17.1046 45.4022 17.7924C45.0747 18.6702 44.6637 19.5146 44.175 20.314C41.6534 24.4411 39.1318 28.585 36.5429 32.6616C35.4198 34.6487 33.88 36.3691 32.0292 37.7049C30.8356 38.4782 29.6336 39.2683 28.4737 40.0836C28.3479 40.1741 28.242 40.2894 28.1625 40.4224C28.083 40.5554 28.0316 40.7033 28.0114 40.8569C28.0114 49.1699 28.0114 57.4829 28.0114 65.7875C28.0114 66.2834 28.2215 66.3338 28.6502 66.3842C29.4606 66.4689 30.2603 66.635 31.0374 66.8802C31.5707 67.1132 32.0709 67.4156 32.5251 67.7795C33.7879 68.6386 35.2847 69.0876 36.8119 69.0656C47.3607 69.0656 57.9011 69.0656 68.4499 69.0656C69.0765 69.0701 69.7026 69.0336 70.3244 68.9563C71.0933 68.8773 71.8368 68.6364 72.5061 68.2496C73.1754 67.8628 73.7553 67.3388 74.2077 66.712C75.334 65.1654 75.4769 63.3078 74.4262 61.9882C73.8398 61.4224 73.188 60.9286 72.4846 60.5172C72.6089 60.2794 72.7947 60.0792 73.0225 59.9373C73.9492 59.7074 74.7991 59.2376 75.4867 58.5751C76.1743 57.9126 76.6753 57.0808 76.9394 56.1632C77.2028 55.4825 77.2404 54.7351 77.0467 54.0314C76.853 53.3276 76.4382 52.7048 75.8635 52.2547C75.2635 51.8622 74.634 51.5165 73.9807 51.2208C74.1745 50.9283 74.4298 50.6817 74.7288 50.498C76.0511 50.187 77.1982 49.369 77.9229 48.2201C79.5451 45.7573 78.9399 43.1768 76.2418 42.2186C76.1397 42.1803 76.0475 42.1197 75.9718 42.0412C75.8962 41.9626 75.8391 41.8682 75.8047 41.7647C75.7942 41.6823 75.8003 41.5986 75.8226 41.5186C75.845 41.4386 75.8831 41.3638 75.9348 41.2988C75.9866 41.2338 76.0508 41.1798 76.1237 41.14C76.1966 41.1002 76.2768 41.0754 76.3595 41.0671C77.4125 40.8216 78.3635 40.2558 79.0815 39.4474C79.7996 38.639 80.2493 37.6279 80.3689 36.5533C80.562 35.7952 80.4847 34.9933 80.1502 34.286C79.8157 33.5787 79.245 33.0102 78.5365 32.6784C77.7934 32.3822 76.9997 32.2338 76.1998 32.2414C68.9375 32.2414 61.6752 32.2414 54.4129 32.2414H53.5723L53.5639 32.2161ZM24.8762 37.8142C24.6072 37.8142 24.4055 37.7721 24.2121 37.7721C17.5774 37.7721 10.9428 37.7721 4.30806 37.7721C4.20817 37.7438 4.10248 37.7427 4.00205 37.7692C3.90162 37.7956 3.81013 37.8485 3.73713 37.9224C3.66413 37.9962 3.6123 38.0883 3.58705 38.189C3.5618 38.2898 3.56407 38.3954 3.5936 38.495C3.5936 49.2596 3.5936 60.0269 3.5936 70.7971C3.56292 70.9058 3.56162 71.0208 3.58985 71.1302C3.61808 71.2396 3.67482 71.3395 3.75429 71.4199C3.83376 71.5002 3.9331 71.558 4.0422 71.5874C4.1513 71.6168 4.26624 71.6167 4.37531 71.5872C10.9231 71.5872 17.4626 71.5872 24.0104 71.5872C24.8509 71.5872 24.8509 71.5872 24.8509 70.7046C24.8509 60.0073 24.8509 49.3072 24.8509 38.6043V37.8478L24.8762 37.8142Z" fill="black"/>
    </symbol>
    <symbol id="benefits-present" viewBox="0 0 64 63">
        <path d="M62 15V28H2V15H62Z" fill="#E84434"/>
        <path fill-rule="evenodd" clip-rule="evenodd" d="M58.7813 28.9608V62.1821H5.51738V28.9608H0V12.1344H15.4911C14.0056 8.89857 14.4301 5.01556 16.9765 2.42688C20.1596 -0.808961 25.4648 -0.808961 28.6479 2.42688L31.4066 5.23128L33.9531 2.42688C37.1362 -0.808961 42.4414 -0.808961 45.6245 2.42688C48.1709 5.01556 48.8076 8.89857 47.1099 12.1344H63.2376V28.9608H58.7813ZM29.2845 12.1344H42.8658C44.7756 10.1929 45.2 7.17279 43.078 5.01556C41.3803 3.07405 38.1972 3.07405 36.2874 5.01556L29.2845 12.1344ZM19.7352 12.1344H24.616C24.616 12.1344 28.6479 8.03568 28.8601 7.60423L26.3136 5.01556C24.4038 3.07405 21.4329 3.07405 19.523 5.01556C17.401 7.17279 17.8254 10.1929 19.7352 12.1344ZM3.39531 25.5092H30.3456V15.8017H3.39531V25.5092ZM30.3456 28.9608H8.91268V41.0413H30.3456V28.9608ZM8.91268 44.4928V58.5148H30.3456V44.4928H8.91268ZM33.9531 58.5148H55.386V44.4928H33.9531V58.5148ZM55.386 41.0413V28.9608H33.9531V41.0413H55.386ZM59.8423 25.5092V15.8017H33.9531V25.5092H59.8423Z" fill="black"/>
    </symbol>


    <symbol id="benefits-cup" viewBox="0 0 91 62">
        <path d="M63 35.4697V59.4697H27V35.4697H63Z" fill="#E84434"/>
        <path d="M60.0399 61.9553H30.4207C27.2892 61.9553 24.7411 59.4167 24.7411 56.2971V19.95C24.7411 19.6017 24.8386 19.259 25.0236 18.962L30.2569 10.5452C30.6001 9.99168 31.2066 9.65625 31.859 9.65625H58.6025C59.2549 9.65625 59.8614 9.99168 60.2046 10.5452L65.4379 18.962C65.6229 19.259 65.7204 19.6017 65.7204 19.95V56.2971C65.7204 59.4167 63.1723 61.9553 60.0399 61.9553ZM28.5103 20.4834V56.2971C28.5103 57.3473 29.367 58.2015 30.4207 58.2015H60.0399C61.0936 58.2015 61.9512 57.3473 61.9512 56.2971V20.4834L57.5525 13.4101H32.909L28.5103 20.4834Z" fill="black"/>
        <path d="M63.8358 13.4102H26.6257C25.5849 13.4102 24.7411 12.5707 24.7411 11.5333V4.22357C24.7411 2.15419 26.4315 0.469727 28.5103 0.469727H61.9512C64.03 0.469727 65.7204 2.15419 65.7204 4.22357V11.5333C65.7204 12.5707 64.8766 13.4102 63.8358 13.4102ZM28.5103 9.65638H61.9512V4.22357H28.5103V9.65638Z" fill="black"/>
        <path d="M73.3951 37.6816H17.2376C16.1968 37.6816 15.353 36.8421 15.353 35.8047C15.353 34.7672 16.1968 33.9277 17.2376 33.9277H73.3951C74.4358 33.9277 75.2797 34.7672 75.2797 35.8047C75.2797 36.8421 74.4358 37.6816 73.3951 37.6816Z" fill="black"/>
        <path d="M86.6923 49.0096H80.986C79.9452 49.0096 79.1014 48.1701 79.1014 47.1327V24.4795C79.1014 23.442 79.9452 22.6025 80.986 22.6025H86.6923C88.7711 22.6025 90.4615 24.287 90.4615 26.3564V45.2558C90.4615 47.3251 88.7711 49.0096 86.6923 49.0096ZM82.8706 45.2558H86.6923V26.3564H82.8706V45.2558Z" fill="black"/>
        <path d="M80.986 45.2299H73.3951C72.3543 45.2299 71.5105 44.3904 71.5105 43.353V28.2588C71.5105 27.2213 72.3543 26.3818 73.3951 26.3818H80.986C82.0268 26.3818 82.8706 27.2213 82.8706 28.2588V43.353C82.8706 44.3904 82.0268 45.2299 80.986 45.2299ZM75.2797 41.476H79.1014V30.1357H75.2797V41.476Z" fill="black"/>
        <path d="M9.47461 49.0096H3.76923C1.69045 49.0096 0 47.3251 0 45.2558V26.3564C0 24.287 1.69045 22.6025 3.76923 22.6025H9.47461C10.5154 22.6025 11.3592 23.442 11.3592 24.4795V47.1327C11.3592 48.1701 10.5154 49.0096 9.47461 49.0096ZM3.76923 26.3564V45.2558H7.58999V26.3564H3.76923Z" fill="black"/>
        <path d="M17.0655 45.2299H9.47458C8.43381 45.2299 7.58997 44.3904 7.58997 43.353V28.2588C7.58997 27.2213 8.43381 26.3818 9.47458 26.3818H17.0655C18.1063 26.3818 18.9501 27.2213 18.9501 28.2588V43.353C18.9501 44.3904 18.1063 45.2299 17.0655 45.2299ZM11.3592 41.476H15.1809V30.1357H11.3592V41.476Z" fill="black"/>
    </symbol>
    <symbol id="benefits-hand" viewBox="0 0 86 87">
        <path d="M83 9.46973V35.4697H76V9.46973H83Z" fill="#E84434"/>
        <path d="M9 9.46973V35.4697H2V9.46973H9Z" fill="#E84434"/>
        <path d="M79.3333 6.71139C78.625 6.71139 77.7396 6.88973 77.0312 7.24639V6.17639C77.0312 3.14473 74.375 0.469727 71.3646 0.469727C68.3542 0.469727 65.5208 3.14473 65.5208 6.17639V15.0931H60.0312C59.3229 12.9531 57.375 11.5264 55.0729 11.5264C54.3646 11.5264 53.8333 11.7047 53.3021 11.8831C53.125 9.20806 51 6.88973 48.1667 6.88973C46.9271 6.88973 45.6875 7.42473 44.8021 8.13806C43.9167 7.24639 42.6771 6.88973 41.4375 6.88973C40.1979 6.88973 38.9583 7.42473 38.0729 8.13806C37.1875 7.24639 35.9479 6.88973 34.7083 6.88973C33.4688 6.88973 32.2292 7.42473 31.3438 8.13806C30.4583 7.24639 29.2187 6.88973 27.9792 6.88973C25.1458 6.88973 22.8437 9.20806 22.8437 12.0614V15.0931H19.4792V6.17639C19.4792 3.14473 16.8229 0.469727 13.8125 0.469727C10.8021 0.469727 7.96875 3.14473 7.96875 6.17639V7.06806C7.26042 6.88973 6.55208 6.71139 5.84375 6.71139C2.65625 6.71139 0 9.38639 0 12.4181V31.6781C0 34.8881 2.65625 37.5631 5.66667 37.5631C6.375 37.5631 7.26042 37.3847 7.96875 37.0281V37.9197C7.96875 41.1297 10.625 43.8047 13.8125 43.8047C17 43.8047 19.4792 41.1297 19.4792 37.9197V29.0031H22.4896V32.5697C22.4896 34.8881 23.5521 37.0281 25.1458 38.6331C26.2083 39.7031 26.7396 41.1297 26.5625 42.7347L22.4896 84.1081C22.3125 84.9997 23.0208 85.8914 24.0833 86.0697H24.2604C25.1458 86.0697 25.8542 85.3564 26.0312 84.4647L30.1042 43.0914C30.4583 40.4164 29.5729 37.7414 27.4479 35.9581C26.5625 35.0664 26.0312 33.9964 26.0312 32.5697V29.0031H45.8646C43.9167 30.4297 41.6146 33.1047 41.0833 37.5631C40.9062 38.4547 41.6146 39.5247 42.5 39.5247C43.3854 39.7031 44.4479 38.9897 44.4479 38.0981C44.9792 33.8181 47.4583 31.8564 49.4062 30.9647C50.6458 30.4297 51.7083 29.3597 52.4167 28.1114C52.5938 28.1114 53.3021 25.7931 53.125 25.2581V18.4814V16.8764C53.125 15.8064 54.0104 15.0931 54.8958 15.0931C55.9583 15.0931 56.6667 15.9847 56.6667 16.8764V27.2197V32.5697C56.6667 33.8181 56.1354 35.0664 55.25 35.9581C53.125 37.7414 52.2396 40.4164 52.5938 43.0914L56.6667 84.4647C56.8437 85.3564 57.5521 86.0697 58.4375 86.0697H58.6146C59.5 85.8914 60.3854 85.1781 60.2083 84.1081L56.1354 42.5564C55.9583 41.1297 56.4896 39.5247 57.5521 38.6331C59.3229 37.2064 60.2083 34.8881 60.2083 32.5697V29.0031H65.5208V37.9197C65.5208 41.1297 68.1771 43.8047 71.3646 43.8047C74.5521 43.8047 77.2083 41.1297 77.2083 37.9197V37.0281C77.9167 37.3847 78.625 37.5631 79.5104 37.5631C82.6979 37.5631 85.3542 34.8881 85.3542 31.6781V12.4181C85 9.38639 82.3437 6.71139 79.3333 6.71139ZM7.96875 31.6781C7.96875 32.9264 6.90625 33.9964 5.66667 33.9964C4.42708 33.9964 3.36458 32.9264 3.36458 31.6781V12.4181C3.36458 11.1697 4.42708 10.0997 5.66667 10.0997C6.90625 10.0997 7.96875 11.1697 7.96875 12.4181V31.6781ZM15.9375 16.5197C15.9375 16.6981 15.9375 16.6981 15.9375 16.8764V27.2197C15.9375 27.3981 15.9375 27.3981 15.9375 27.5764V37.9197C15.9375 39.1681 14.875 40.2381 13.8125 40.2381C12.5729 40.2381 11.5104 39.1681 11.5104 37.9197V6.17639C11.5104 5.10639 12.5729 4.03639 13.8125 4.03639C14.875 4.03639 15.9375 5.10639 15.9375 6.17639V16.5197ZM39.6667 12.0614C39.6667 11.1697 40.375 10.4564 41.2604 10.4564C42.1458 10.4564 42.8542 11.1697 42.8542 12.0614V18.4814C42.8542 18.6597 42.8542 18.8381 42.6771 19.1947C42.5 19.7297 41.7917 20.2647 41.2604 20.2647C40.9062 20.2647 40.375 20.0864 40.1979 19.7297C39.8438 19.3731 39.6667 19.0164 39.6667 18.6597V12.0614ZM32.7604 12.0614C32.7604 11.1697 33.4687 10.4564 34.3542 10.4564C35.2396 10.4564 35.9479 11.1697 35.9479 12.0614V18.4814C35.9479 19.3731 35.2396 20.0864 34.3542 20.0864C33.4687 20.0864 32.7604 19.3731 32.7604 18.4814V12.0614ZM26.0312 12.0614C26.0312 11.1697 26.7396 10.4564 27.625 10.4564C28.5104 10.4564 29.2187 11.1697 29.2187 12.0614V18.4814C29.2187 18.6597 29.2187 18.8381 29.0417 19.1947C28.8646 19.7297 28.1562 20.2647 27.625 20.2647C26.7396 20.2647 26.0312 19.5514 26.0312 18.6597V16.8764V12.0614ZM49.5833 25.4364H19.4792V18.6597H22.4896C22.4896 21.5131 24.7917 23.8314 27.625 23.8314C29.5729 23.8314 30.6354 22.7614 30.8125 22.7614L30.9896 22.5831L31.1667 22.7614C31.3438 22.9397 34 25.2581 37.5417 22.7614C37.5417 22.7614 37.7187 22.7614 37.7187 22.5831C37.7187 22.5831 37.8958 22.7614 38.0729 22.7614C38.25 22.7614 40.7292 25.2581 44.2708 22.7614L44.4479 22.5831C44.4479 22.5831 44.4479 22.5831 44.625 22.5831C45.5104 23.2964 46.5729 23.8314 47.9896 23.8314C48.1667 23.8314 48.1667 23.8314 48.3437 23.8314C48.6979 23.8314 49.0521 23.6531 49.5833 23.6531H49.7604V25.4364H49.5833ZM49.5833 16.8764V18.4814C49.5833 19.3731 48.875 20.0864 47.9896 20.0864C47.4583 20.0864 47.1042 19.9081 46.9271 19.5514C46.9271 19.5514 46.9271 19.5514 46.9271 19.3731C46.75 19.0164 46.5729 18.6597 46.5729 18.3031V12.0614C46.5729 11.1697 47.2812 10.4564 48.1667 10.4564C48.875 10.4564 49.5833 11.1697 49.5833 12.0614V16.8764ZM65.5208 25.4364H60.3854V18.6597H65.5208V25.4364ZM73.4896 37.9197C73.4896 39.1681 72.4271 40.2381 71.1875 40.2381C69.9479 40.2381 68.8854 39.1681 68.8854 37.9197V6.17639C69.0625 5.10639 70.125 4.03639 71.3646 4.03639C72.6042 4.03639 73.6667 5.10639 73.6667 6.17639V37.9197H73.4896ZM81.4583 31.6781C81.4583 32.9264 80.3958 33.9964 79.1562 33.9964C77.9167 33.9964 76.8542 32.9264 76.8542 31.6781V12.4181C76.8542 11.1697 77.9167 10.0997 79.1562 10.0997C80.3958 10.0997 81.4583 11.1697 81.4583 12.4181V31.6781Z" fill="black"/>
    </symbol>
    <symbol id="benefits-mail" viewBox="0 0 68 69">
        <path d="M12 35.4697V1.46973H47L52 6.46973L56 10.4697V35.4697L34 46.4697L12 35.4697Z" fill="#E84434"/>
        <path d="M46.6267 0.305664H12.2257C11.3574 0.305664 10.651 1.00981 10.651 1.88042V24.1498L1.02017 29.495C1.01267 29.4995 1.01117 29.504 1.00442 29.5085C0.992425 29.516 0.978177 29.519 0.966179 29.5257C0.496 29.8099 0.208794 30.3214 0.208794 30.8703V66.7726C0.208794 66.7726 0.287532 68.3488 1.78355 68.3488H60.3579C64.5715 68.3488 68 65.1048 68 61.1207V30.8703C68 30.3214 67.7128 29.8099 67.2426 29.5257C67.2306 29.5182 67.2164 29.5152 67.2044 29.5085C67.1969 29.504 67.1969 29.4995 67.1886 29.495L57.5586 24.149V10.8536C57.5586 10.1944 57.0742 9.71673 57.0742 9.71673L47.7171 0.743598C47.3541 0.39565 46.6267 0.305664 46.6267 0.305664ZM44.0741 44.2677L64.8512 33.4641V61.1207C64.8512 61.8308 64.6488 62.4975 64.2963 63.0801L44.0741 44.2677ZM3.35757 33.4656L23.8287 44.1095L3.35757 63.1589V33.4656ZM63.0995 30.8253L63.098 30.8268L57.5586 33.7063V27.7515L63.0995 30.8253ZM52.0664 9.2788H49.6308C48.8427 9.2788 48.2015 8.6384 48.2015 7.85252V5.57211L49.3248 6.65045L52.0664 9.2788ZM45.0512 3.45444V7.85252C45.0512 10.3744 47.1044 12.4283 49.6308 12.4283H54.4083V25.0302C54.4068 25.0931 54.4023 25.1561 54.4083 25.2176V35.3456L34.1044 45.904L13.8005 35.3456V3.45444H45.0512ZM10.6517 27.7507V33.7071L5.1228 30.832L5.1108 30.8245L10.6517 27.7507ZM5.7887 65.1986L26.7945 45.652L33.3778 49.0745C33.8329 49.31 34.3751 49.31 34.8295 49.0745L41.1083 45.8095L61.7362 65.0006C61.3013 65.1281 60.8386 65.1986 60.3579 65.1986H5.7887Z" fill="black"/>
        <path d="M23.7147 18.9884H35.7819C36.6518 18.9884 37.3582 18.2842 37.3582 17.4136C37.3582 16.543 36.6525 15.8389 35.7819 15.8389H23.7147C22.8464 15.8389 22.14 16.543 22.14 17.4136C22.14 18.2842 22.8464 18.9884 23.7147 18.9884Z" fill="white"/>
        <path d="M40.8654 18.9884H43.3977C44.2676 18.9884 44.974 18.2842 44.974 17.4136C44.974 16.543 44.2684 15.8389 43.3977 15.8389H40.8654C39.9955 15.8389 39.2906 16.543 39.2906 17.4136C39.2906 18.2842 39.9955 18.9884 40.8654 18.9884Z" fill="white"/>
        <path d="M23.7147 25.1193H27.3599C28.2283 25.1193 28.9347 24.4151 28.9347 23.5445C28.9347 22.6739 28.229 21.9697 27.3599 21.9697H23.7147C22.8464 21.9697 22.14 22.6739 22.14 23.5445C22.14 24.4151 22.8464 25.1193 23.7147 25.1193Z" fill="white"/>
        <path d="M31.941 23.5445C31.941 24.4144 32.6451 25.1193 33.5157 25.1193H46.6267C47.4966 25.1193 48.2015 24.4151 48.2015 23.5445C48.2015 22.6739 47.4974 21.9697 46.6267 21.9697H33.5157C32.6459 21.9697 31.941 22.6746 31.941 23.5445Z" fill="white"/>
        <path d="M37.0087 28.6357H24.0439C23.1741 28.6357 22.4692 29.3414 22.4692 30.2105C22.4692 31.0804 23.1733 31.7868 24.0439 31.7868H37.0087C37.8771 31.7868 38.5835 31.0811 38.5835 30.2105C38.5835 29.3414 37.8771 28.6357 37.0087 28.6357Z" fill="white"/>
        <path d="M45.4584 28.6357H42.1304C41.2606 28.6357 40.5557 29.3414 40.5557 30.2105C40.5557 31.0804 41.2598 31.7868 42.1304 31.7868H45.4584C46.3283 31.7868 47.0347 31.0811 47.0347 30.2105C47.0339 29.3414 46.3283 28.6357 45.4584 28.6357Z" fill="white"/>
    </symbol>

    <symbol id="track-icon" viewBox="0 0 24 10">
        <path fill="currentColor" fill-rule="evenodd" clip-rule="evenodd" d="M7.5 9.0499L-3.78552e-07 4.71978L7.5 0.389649L7.5 3.96978L16.5 3.96978L16.5 0.38965L24 4.71978L16.5 9.0499L16.5 5.46978L7.5 5.46978L7.5 9.0499Z"/>
    </symbol>
    <symbol id="mouse" viewBox="0 0 20 31">
        <path fill="currentColor" d="M9.6977 30.4708H9.65769C4.3306 30.4708 0 26.1377 0 20.8106V11.0083C0 6.79389 3.42834 3.36426 7.64406 3.36426H11.7178C15.9361 3.36426 19.3618 6.79389 19.3618 11.0083V20.8106C19.358 26.1377 15.0248 30.4708 9.6977 30.4708ZM7.64018 4.65505C4.13698 4.65505 1.28692 7.50511 1.28692 11.0083V20.8106C1.28692 25.4264 5.04182 29.18 9.6564 29.18H9.69641C14.3084 29.18 18.0633 25.4251 18.0633 20.8106V11.0083C18.0633 7.50511 15.2132 4.65505 11.71 4.65505H7.64018Z"/>
        <path fill="currentColor" d="M7.74088 12.3992H1.28694C0.931968 12.3992 0.641541 12.1101 0.641541 11.7538C0.641541 11.3975 0.931968 11.1084 1.28694 11.1084H7.74088C8.09585 11.1084 8.38628 11.3975 8.38628 11.7538C8.38628 12.1101 8.09585 12.3992 7.74088 12.3992Z"/>
        <path fill="currentColor" d="M18.0672 12.3992H11.6132C11.2583 12.3992 10.9678 12.1101 10.9678 11.7538C10.9678 11.3975 11.2583 11.1084 11.6132 11.1084H18.0672C18.4221 11.1084 18.7126 11.3975 18.7126 11.7538C18.7126 12.1101 18.4221 12.3992 18.0672 12.3992Z"/>
        <path fill="currentColor" d="M9.67707 9.17195C9.3221 9.17195 9.03168 8.88281 9.03168 8.52655V4.65418C9.03168 4.29793 9.3221 4.00879 9.67707 4.00879C10.032 4.00879 10.3225 4.29793 10.3225 4.65418V8.52655C10.3225 8.88281 10.032 9.17195 9.67707 9.17195Z"/>
        <path fill="currentColor" d="M10.9678 14.9813H8.38624C8.03127 14.9813 7.74084 14.6922 7.74084 14.3359V9.17274C7.74084 8.81648 8.03127 8.52734 8.38624 8.52734H10.9678C11.3228 8.52734 11.6132 8.81648 11.6132 9.17274V14.3359C11.6132 14.6922 11.3228 14.9813 10.9678 14.9813ZM9.03163 13.6905H10.3224V9.81813H9.03163V13.6905Z"/>
        <path fill="currentColor" d="M9.67709 4.1314C9.32212 4.1314 9.03169 3.84226 9.03169 3.486C9.03169 3.07553 8.6664 2.87159 7.89192 2.5334C7.19231 2.22877 6.23584 1.81056 6.23584 0.78309C6.23584 0.426832 6.52627 0.137695 6.88123 0.137695C7.2362 0.137695 7.52663 0.426832 7.52663 0.78309C7.52663 0.966382 8.01455 1.17936 8.40953 1.34975C9.1711 1.68277 10.3225 2.18489 10.3225 3.486C10.3225 3.84226 10.0321 4.1314 9.67709 4.1314Z"/>
    </symbol>


    <symbol id="arrow-right" viewBox="0 0 28 46">
        <path d="M9 2L24 24L2 43" stroke="currentColor" stroke-width="6" fill="none"/>
    </symbol>

    <symbol id="add-to-cart" viewBox="0 0 33 31">
        <path d="M7.28137 5.00346H13.4683C14.0394 5.00346 14.5153 5.47938 14.5153 6.05048C14.5153 6.62158 14.0394 7.19269 13.4683 7.19269H7.6621L9.85133 19.8521H27.9363L30.1255 7.19269H24.3193C23.7482 7.19269 23.2723 6.62158 23.2723 6.05048C23.2723 5.47938 23.7482 5.00346 24.3193 5.00346H31.4581C32.1244 5.00346 32.6003 5.57456 32.5051 6.33603L29.8399 21.0895C29.7448 21.6606 29.2688 22.0414 28.6977 22.0414L8.99468 21.9462C8.42357 21.9462 8.04284 21.5654 7.85247 21.0895L4.7114 2.81423H1.1896C0.618497 2.81423 0.142578 2.33831 0.142578 1.67202C0.142578 1.10092 0.618497 0.625 1.1896 0.625H5.56806C6.13916 0.625 6.5199 1.00574 6.61508 1.48165L7.28137 5.00346ZM17.7516 2.43349C17.7516 1.86239 18.3227 1.29129 18.8938 1.29129C19.4649 1.29129 19.9408 1.86239 19.9408 2.43349V11.7615L21.3686 10.3338C21.8445 9.95302 22.5108 9.95302 22.8915 10.3338C23.3674 10.8097 23.3674 11.476 22.8915 11.8567L19.6553 15.1881C19.4649 15.3785 19.1794 15.4737 18.8938 15.4737C18.6082 15.4737 18.3227 15.3785 18.1323 15.1881L14.8961 11.8567C14.4202 11.476 14.4202 10.8097 14.8961 10.3338C15.2768 9.95302 15.9431 9.95302 16.419 10.3338L17.7516 11.7615V2.43349ZM12.5165 24.1354C14.325 24.1354 15.8479 25.6584 15.8479 27.4668C15.8479 29.1802 14.325 30.7031 12.5165 30.7031C10.8032 30.7031 9.28023 29.2753 9.28023 27.4668C9.28023 26.515 9.66096 25.7535 10.2321 25.0873C10.8032 24.5161 11.6598 24.1354 12.5165 24.1354ZM12.5165 26.3246C12.2309 26.3246 11.9454 26.4198 11.755 26.7054C11.5646 26.8957 11.4695 27.0861 11.4695 27.4668C11.4695 28.038 11.9454 28.5139 12.5165 28.5139C13.1828 28.5139 13.6587 28.038 13.6587 27.4668C13.6587 26.8006 13.1828 26.3246 12.5165 26.3246ZM25.1759 24.2306C26.9844 24.2306 28.5074 25.6584 28.5074 27.4668C28.5074 29.2753 26.9844 30.7031 25.1759 30.7031C23.4626 30.7031 21.9397 29.2753 21.9397 27.4668C21.9397 26.515 22.3204 25.7535 22.8915 25.1824C23.4626 24.5161 24.3193 24.2306 25.1759 24.2306ZM25.1759 26.3246C24.8904 26.3246 24.6048 26.515 24.4145 26.7054C24.2241 26.8957 24.1289 27.1813 24.1289 27.4668C24.1289 28.038 24.6048 28.5139 25.1759 28.5139C25.8422 28.5139 26.3181 28.038 26.3181 27.4668C26.3181 26.8957 25.8422 26.3246 25.1759 26.3246Z" fill="white"/>
    </symbol>

    <symbol id="arrow-right-2" viewBox="0 0 10 14" fill="none">
        <path d="M2.90909 1L7 6.90244L1 12" stroke="currentColor" stroke-width="3"/>
    </symbol>

    <symbol id="change-store-stock-icon" viewBox="0 0 105 77">
        <rect x="62.2393" y="1.42896" width="36.4282" height="11.3053" fill="#E84434"/>
        <rect x="56.7567" y="62.9773" width="45.4054" height="10.4054" fill="#E84434"/>
        <path d="M56.7567 22.3016L65.2702 18.5178H79.4594H93.6486L102.162 22.3016V32.707H56.7567V22.3016Z" fill="#E84434"/>
        <path d="M56.7567 28.5513H65.2702H79.4594H93.6486H102.162V61.6594H56.7567V28.5513Z" fill="#292929"/>
        <path d="M61.3872 17.8292C61.3599 17.8439 61.343 17.8595 61.3159 17.8743C61.1915 17.942 61.0725 18.0106 60.9505 18.0819C60.8968 18.1135 60.8465 18.1466 60.7932 18.1788C60.6993 18.2353 60.6065 18.2918 60.5141 18.3503C60.4544 18.3883 60.3964 18.4279 60.3375 18.4668C60.2532 18.522 60.1693 18.5772 60.0865 18.634C60.0248 18.6764 59.9646 18.7201 59.9038 18.7634C59.8251 18.8194 59.7466 18.8752 59.6694 18.9325C59.6079 18.9783 59.5474 19.0251 59.4867 19.0718C59.4119 19.1292 59.3373 19.1868 59.2636 19.2454C59.2031 19.2938 59.1437 19.343 59.084 19.3923C59.0121 19.4519 58.9405 19.5117 58.8697 19.5726C58.8108 19.6234 58.7527 19.6748 58.6946 19.7266C58.6252 19.7883 58.5565 19.8507 58.4885 19.9136C58.4312 19.9661 58.3744 20.0196 58.318 20.074C58.2514 20.1378 58.1855 20.2022 58.1201 20.2673C58.0645 20.3225 58.0094 20.378 57.9547 20.4339C57.8905 20.5002 57.8269 20.5671 57.7639 20.6346C57.7107 20.6912 57.6578 20.7479 57.6058 20.8055C57.5432 20.8746 57.4817 20.9446 57.4205 21.015C57.3701 21.0727 57.3196 21.1303 57.2701 21.1885C57.209 21.261 57.1492 21.3346 57.0895 21.4083C57.0425 21.4664 56.9948 21.5243 56.9486 21.5831C56.8881 21.6601 56.8295 21.7385 56.7706 21.8166C56.7274 21.8741 56.6836 21.9309 56.6412 21.9888C56.5797 22.0732 56.5202 22.159 56.4606 22.2447C56.4232 22.2982 56.385 22.3509 56.3482 22.405C56.2766 22.5105 56.2076 22.6178 56.1396 22.7254C56.1169 22.7608 56.0932 22.7955 56.0709 22.831C55.9812 22.974 55.894 23.1187 55.8094 23.2649C55.7829 23.3108 55.758 23.3576 55.732 23.4037C55.6745 23.5055 55.6171 23.6071 55.5622 23.7103C55.5301 23.7696 55.5009 23.83 55.47 23.8898C55.423 23.981 55.3758 24.072 55.3307 24.1642C55.2986 24.2293 55.2687 24.2953 55.2381 24.3609C55.1965 24.4493 55.1549 24.5375 55.1151 24.6266C55.0846 24.6953 55.0557 24.7645 55.0262 24.8336C54.9888 24.9212 54.9515 25.0088 54.9159 25.0969C54.8873 25.1678 54.8602 25.2389 54.8328 25.3104C54.7989 25.3985 54.7653 25.4865 54.7332 25.5752C54.7069 25.6477 54.6817 25.7206 54.6567 25.7935C54.6262 25.8822 54.5964 25.971 54.5674 26.06C54.5437 26.1336 54.5205 26.2079 54.4979 26.2828C54.4707 26.3721 54.4444 26.4618 54.4189 26.5518C54.3975 26.6269 54.3769 26.702 54.3571 26.7773C54.3331 26.8681 54.3099 26.9592 54.2878 27.0505C54.2694 27.1259 54.2515 27.2016 54.234 27.2774C54.2132 27.3699 54.1937 27.4626 54.1746 27.5556C54.1586 27.6311 54.1435 27.7066 54.1292 27.7824C54.1114 27.8771 54.0952 27.9726 54.0793 28.068C54.0669 28.1426 54.0539 28.217 54.0427 28.2919C54.0279 28.39 54.0152 28.4888 54.0025 28.5876C53.9932 28.6605 53.983 28.733 53.9748 28.8062C53.9631 28.9096 53.9541 29.0132 53.9446 29.1171C53.9383 29.1862 53.931 29.2551 53.9258 29.3244C53.9172 29.4394 53.9114 29.555 53.9056 29.6715C53.9027 29.7299 53.9326 29.7881 53.9303 29.8465C53.9237 30.0208 53.9544 30.1956 53.9544 30.3709V68.3364C53.9482 70.4183 54.7824 72.4176 56.2741 73.8957C57.7658 75.3738 59.7931 76.2099 61.9113 76.2206H97.0466C99.1648 76.2089 101.192 75.3717 102.683 73.8927C104.174 72.4138 105.007 70.4138 104.999 68.3318V30.3711C105.024 27.5373 104.195 24.7598 102.616 22.3886C101.263 20.3323 99.3685 18.6746 97.1339 17.5913V14.319C97.5547 14.3037 97.954 14.1326 98.2517 13.84C98.5495 13.5473 98.7236 13.1548 98.7391 12.7412V3.32836C98.7272 2.4869 98.3786 1.6839 97.7687 1.09328C97.1588 0.502668 96.3367 0.171984 95.4805 0.172853H63.4726C62.6165 0.171984 61.7944 0.502668 61.1845 1.09328C60.5746 1.6839 60.2259 2.4869 60.2141 3.32836V12.7417C60.2296 13.1553 60.4037 13.5478 60.7015 13.8404C60.9992 14.133 61.3985 14.3042 61.8193 14.3195V17.5984C61.6588 17.6724 61.5358 17.749 61.3872 17.8292ZM93.9235 14.3726V17.0406H65.0297V14.3726H93.9235ZM57.1642 33.9368H101.789V60.6008H57.1642V33.9368ZM97.0419 73.0651H61.9156C61.2873 73.0612 60.666 72.9357 60.0871 72.6957C59.5082 72.4557 58.9831 72.1059 58.5419 71.6663C58.1006 71.2267 57.7518 70.706 57.5154 70.1338C57.279 69.5617 57.1597 68.9493 57.1642 68.3318V63.7563H101.789V68.3272C101.794 68.9448 101.675 69.5573 101.439 70.1296C101.204 70.702 100.855 71.2231 100.414 71.6631C99.9736 72.1031 99.4488 72.4534 98.8701 72.694C98.2914 72.9345 97.6702 73.0606 97.0419 73.0651ZM101.789 30.3711V30.7813H57.1642V30.3711C57.1642 30.2317 57.1321 30.0927 57.138 29.9541C57.1398 29.9067 57.1264 29.8594 57.129 29.8121C57.1335 29.7212 57.129 29.6303 57.1361 29.5397C57.1404 29.4842 57.1425 29.4293 57.1475 29.3738C57.155 29.2917 57.1597 29.2097 57.1691 29.128C57.1759 29.0691 57.1836 29.0106 57.1913 28.9519C57.2014 28.8744 57.2104 28.7968 57.2221 28.7198C57.2314 28.6592 57.2423 28.5992 57.2526 28.539C57.2653 28.4642 57.2772 28.3892 57.2915 28.3148C57.3032 28.2539 57.3167 28.1936 57.3292 28.1329C57.3444 28.06 57.359 27.9868 57.3759 27.9142C57.3899 27.8531 57.4056 27.7925 57.4207 27.7318C57.4385 27.6603 57.4557 27.5887 57.4748 27.5177C57.4908 27.4568 57.5093 27.3965 57.5266 27.3359C57.5469 27.2659 57.5664 27.1958 57.5879 27.1263C57.6067 27.0655 57.6271 27.0056 57.6469 26.9453C57.6693 26.8767 57.6915 26.8079 57.7152 26.7402C57.7363 26.6801 57.7589 26.6204 57.7809 26.5606C57.8056 26.4934 57.8302 26.426 57.8563 26.3593C57.8796 26.2995 57.9045 26.2403 57.9287 26.181C57.9557 26.1155 57.9825 26.0498 58.0106 25.9847C58.0363 25.9254 58.0634 25.8666 58.0909 25.8077C58.1198 25.7437 58.1486 25.6798 58.1788 25.6163C58.2068 25.5577 58.236 25.4997 58.265 25.4415C58.2962 25.3784 58.3273 25.3163 58.3596 25.2542C58.3896 25.1967 58.4207 25.1399 58.4519 25.0829C58.4853 25.0214 58.5186 24.96 58.5532 24.8991C58.5853 24.8426 58.6185 24.7869 58.6514 24.7311C58.6869 24.671 58.7225 24.6112 58.7589 24.5518C58.7933 24.4963 58.8284 24.4414 58.8636 24.3865C58.901 24.3281 58.9386 24.2697 58.9771 24.2129C59.0135 24.1585 59.0506 24.1047 59.0879 24.0511C59.1272 23.9943 59.1667 23.9376 59.2071 23.8814C59.2455 23.8283 59.2847 23.7756 59.324 23.7237C59.3653 23.6684 59.407 23.6135 59.449 23.559C59.4893 23.5072 59.5302 23.4559 59.5713 23.4048C59.6147 23.3512 59.6583 23.2978 59.7023 23.2448C59.7445 23.1945 59.7873 23.1446 59.8307 23.0949C59.876 23.0429 59.9213 22.9911 59.9673 22.94C60.0134 22.8889 60.056 22.8427 60.1009 22.7944C60.1458 22.7461 60.1951 22.6942 60.243 22.6446C60.2908 22.5951 60.3349 22.55 60.3817 22.5039C60.4284 22.4578 60.4796 22.4072 60.5292 22.3594C60.5788 22.3116 60.6247 22.2683 60.6736 22.2235C60.7226 22.1787 60.7749 22.1306 60.8261 22.0847C60.8773 22.0388 60.9253 21.9968 60.9756 21.9536C61.0258 21.9104 61.0801 21.8646 61.1329 21.8207C61.1857 21.7769 61.2355 21.7363 61.2873 21.6945C61.3392 21.6527 61.3953 21.6093 61.4499 21.5683C61.5045 21.5273 61.5555 21.4875 61.6092 21.4479C61.6628 21.4083 61.7201 21.367 61.7761 21.3271C61.8321 21.2871 61.8853 21.2498 61.9405 21.212C61.9957 21.1743 62.0546 21.1354 62.1121 21.0975C62.1695 21.0596 62.2244 21.0243 62.2809 20.9886C62.3374 20.953 62.3984 20.9159 62.4575 20.8801C62.5166 20.8443 62.5721 20.811 62.6302 20.7775C62.6883 20.7441 62.7509 20.7091 62.8116 20.6754C62.8723 20.6418 62.9291 20.6106 62.9882 20.5791C63.0473 20.5475 63.112 20.5152 63.1744 20.4844C63.2343 20.4542 63.2943 20.4238 63.355 20.3948C63.4157 20.3657 63.482 20.3353 63.5457 20.3063C63.6094 20.2772 63.6683 20.2501 63.7303 20.2231C63.7499 20.2147 63.7696 20.2073 63.789 20.1987H95.136C99.147 21.8818 101.789 25.9327 101.789 30.3711ZM63.4726 3.32836H95.5287V11.2171H63.4726L63.4709 3.32836H63.4726Z" fill="white"/>
        <rect x="11.4634" y="33.271" width="28.6851" height="2.86851" transform="rotate(-6.94286 11.4634 33.271)" fill="white"/>
        <rect x="21.3929" y="43.6208" width="20.0796" height="2.86851" transform="rotate(-6.94286 21.3929 43.6208)" fill="#E84434"/>
        <rect y="57.7847" width="43.0276" height="2.86851" transform="rotate(-6.94286 0 57.7847)" fill="white"/>
    </symbol>

</svg>