<svg width="24" height="28" fill="none" xmlns="http://www.w3.org/2000/svg"><path d="M2.58 16.484l1.36.925c.073.777.184 1.628.514 2.332.074.221.442.629.589.814.22.296.404.48.624.74l.699.703c.22.222.478.481.698.666.551.444.845.703 1.507 1.221 1.03.777 2.242 1.444 3.418 2.147 1.066.666.735.666 1.764.037 1.765-1.073 2.537-1.517 4.19-2.739.552-.407 1.691-1.48 2.206-1.998.33-.333.992-1.11 1.213-1.518.514-.888.551-.999.551-2.257V9.193c-.882-.407-1.727-.814-2.646-1.184-3.088-1.11-6.58-1.628-9.777-.814l.404-1.517c.551-.075 1.287-.223 1.838-.223.22 0 .257-.037.478-.037 1.69-.037 1.727 0 3.381.223l1.691.333c.551.148 1.103.259 1.617.444 1.213.37 1.838.592 3.014 1.11l1.397.629v9.881c0 .888-.22 1.221-.515 1.924-.073.223-.514.815-.661 1-.11.148-.258.296-.368.444-.147.185-.22.259-.404.407-.147.148-.22.259-.368.444-.992.962-1.47 1.37-2.61 2.294-.257.186-1.139.852-1.396 1.037-.147.11-.33.222-.478.296a83.53 83.53 0 0 1-3.05 1.85c-.662.407-.295.444-2.059-.592-.625-.37-1.433-.851-2.021-1.258-.772-.518-1.066-.703-1.912-1.332-.698-.556-1.36-1.11-2.021-1.666-.368-.333-1.47-1.554-1.764-1.924a3.753 3.753 0 0 1-.331-.481c-.92-1.407-.772-2.258-.772-3.997z" fill="#000"/><path d="M3.977 17.446l-.699-.481-.698-.481c-.698-.444-.882-.518-1.507-1.073-.147-.111-.22-.223-.33-.37-.626-.778-.846-.926-.7-1.74.038-.148.111-.333.148-.481.184-.296.22-.63.367-.962l.478-1.11c.037-.074.074-.111.11-.223.074-.148.147-.258.221-.407.478-.999.404-.74.956-1.59.294-.445 1.837-2.332 2.278-2.813.11-.149.184-.223.295-.334.073-.074.11-.074.147-.148l.44-.518c.662-.814.772-.925 1.36-1.85C7.175 2.347 8.057.94 8.462.607c.257-.222.478-.37.808-.444.294-.074.772-.11 1.103-.148.441-.037.698 0 1.14.037 1.102.111 2.021.185 2.866.926.441.407.699 1.22.699 1.85 0 .296.11.888-.074 1.073-.367.26-1.911.444-2.095.481-.33.037-2.058.296-2.205.222-.184-.074-.184-.11-.258-.259l-.477-1.147c-.037-.111-.147-.407-.258-.333-.11.11-.11.222-.073.37.037.333.22.777.294 1.036.22.814.037 1.444 0 1.518L9.159 8.6c-.147.407-.551 1.702-.735 2.184a2.219 2.219 0 0 1-.22.407c-.442.74-1.213 1.887-1.066 2.85.147.888.808 1.332 1.47 1.59.294.149 1.14.297 1.47.334 0 0-1.433-.481-2.058-1.036-1.323-1.222 1.102-4.256 1.102-4.256.331-.444 1.25-.481 1.507-.444 1.801.295 2.683 1.998 2.72 2.146 0 0 1.544-1.85 5.44-1.85 1.176 0 2.72.74 2.94.85v6.662c0 .777-.183 1.147-.514 1.665-.662 1.074-1.728 2.147-2.647 2.887-.183.148-.294.26-.588.518-.367.26-.882.74-1.25.925l-1.69-3.663c-1.103.333-.809.296-1.838.444-.882.11-1.911.074-2.793-.148-.331-.074-.735-.185-1.103-.296-3.05-.963-5.33-2.924-5.33-2.924z" fill="#E84434"/></svg>