<svg width="150" height="45" viewBox="0 0 150 45" fill="none" xmlns="http://www.w3.org/2000/svg">
<g clip-path="url(#clip0)">
<path d="M4.10946 26.4182L6.31307 27.9024C6.43219 29.1491 6.61086 30.5145 7.14687 31.6425C7.26599 31.9987 7.86156 32.6517 8.09979 32.9485C8.45713 33.4235 8.75492 33.7203 9.11226 34.1359L10.2438 35.2638C10.6012 35.6201 11.0181 36.0356 11.3754 36.3324C12.2688 37.0448 12.7452 37.4604 13.8173 38.2916C15.4849 39.5383 17.4503 40.6069 19.3561 41.7348C21.0832 42.8034 20.5472 42.8034 22.2148 41.7942C25.0736 40.0726 26.3243 39.3602 29.0043 37.4011C29.8977 36.748 31.744 35.0264 32.5778 34.1952C33.1138 33.6609 34.1858 32.4142 34.5432 31.7612C35.377 30.3364 35.4365 30.1583 35.4365 28.1398V14.7229C34.0071 14.0699 32.6373 13.4169 31.1484 12.8232C26.1456 11.0422 20.4877 10.2111 15.3062 11.5171L15.9613 9.08311C16.8547 8.96437 18.0458 8.7269 18.9392 8.7269C19.2965 8.7269 19.3561 8.66753 19.7134 8.66753C22.4531 8.60817 22.5126 8.66754 25.1927 9.02374L27.9323 9.55803C28.8257 9.7955 29.719 9.97361 30.5528 10.2704C32.5182 10.8641 33.5307 11.2203 35.4365 12.0514L37.6997 13.0607V28.9116C37.6997 30.3364 37.3423 30.8707 36.8659 31.9987C36.7468 32.3549 36.0321 33.3047 35.7939 33.6016C35.6152 33.839 35.377 34.0765 35.1983 34.314C34.9601 34.6108 34.8409 34.7295 34.5432 34.967C34.3049 35.2045 34.1858 35.3826 33.9476 35.6794C32.3395 37.2229 31.5653 37.876 29.719 39.3602C29.3021 39.657 27.8728 40.7256 27.4559 41.0224C27.2176 41.2005 26.9198 41.3786 26.6816 41.4974C25.1927 42.4472 23.2869 43.5752 21.7384 44.4657C20.6663 45.1187 21.2619 45.1781 18.4032 43.5158C17.3907 42.9222 16.0804 42.1504 15.1275 41.4974C13.8768 40.6662 13.4004 40.3694 12.0306 39.3602C10.899 38.4697 9.82694 37.5791 8.75491 36.6886C8.15934 36.1543 6.37263 34.1952 5.89617 33.6016C5.65795 33.3047 5.53883 33.1266 5.36016 32.8298C3.87123 30.5739 4.10946 29.2084 4.10946 26.4182Z" fill="black"/>
<path d="M6.37263 27.9617L5.24104 27.19C4.10946 26.4182 4.10946 26.4182 4.10946 26.4182C2.97787 25.7058 2.68009 25.5871 1.66762 24.6966C1.42939 24.5185 1.31027 24.3404 1.1316 24.1029C0.11913 22.8562 -0.238213 22.6187 1.51396e-05 21.3127C0.0595723 21.0752 0.178687 20.7784 0.238245 20.5409C0.53603 20.066 0.595587 19.5317 0.833816 18.9974L1.60806 17.2164C1.66761 17.0976 1.72717 17.0383 1.78673 16.8602C1.90584 16.6227 2.02496 16.4446 2.14407 16.2071C2.91831 14.6042 2.7992 15.0198 3.69256 13.6544C4.16901 12.942 6.67042 9.91426 7.3851 9.14249C7.56377 8.90502 7.68288 8.78629 7.86156 8.60819C7.98067 8.48946 8.04023 8.48944 8.09978 8.37071L8.81447 7.53958C9.8865 6.23351 10.0652 6.05541 11.0181 4.57124C11.5541 3.74011 12.9835 1.48417 13.6386 0.949865C14.0555 0.593665 14.4128 0.356209 14.9489 0.237475C15.4253 0.118741 16.1996 0.0593784 16.7356 1.1608e-05C17.4503 -0.0593552 17.8672 -2.88151e-06 18.5818 0.0593639C20.3686 0.237464 21.8575 0.356198 23.2273 1.54353C23.942 2.19657 24.3589 3.50264 24.3589 4.51187C24.3589 4.9868 24.5376 5.93669 24.2398 6.23352C23.6442 6.64909 21.1428 6.94592 20.845 7.00528C20.309 7.06465 17.5098 7.48022 17.2716 7.36149C16.9738 7.24275 16.9738 7.18338 16.8547 6.94591L16.0804 5.10554C16.0209 4.92744 15.8422 4.45251 15.6635 4.57124C15.4849 4.74934 15.4849 4.92744 15.5444 5.16491C15.604 5.69921 15.9018 6.41162 16.0209 6.82719C16.3782 8.13326 16.0804 9.14248 16.0209 9.26121L14.7702 13.7731C14.532 14.4261 13.8768 16.504 13.579 17.2757C13.5195 17.4538 13.3408 17.7507 13.2217 17.9288C12.507 19.1161 11.2563 20.9565 11.4945 22.5C11.7328 23.9248 12.8048 24.6372 13.8768 25.0528C14.3533 25.2902 15.7231 25.5277 16.2591 25.5871C16.2591 25.5871 13.9364 24.8153 12.9239 23.9248C10.7799 21.9657 14.7106 17.0976 14.7106 17.0976C15.2466 16.3852 16.7356 16.3259 17.1525 16.3852C20.0708 16.8602 21.5001 19.591 21.5597 19.8285C21.5597 19.8285 24.0611 16.8602 30.3742 16.8602C32.28 16.8602 34.7814 18.0475 35.1387 18.2256V28.9116C35.1387 30.1583 34.8409 30.752 34.3049 31.5831C33.2329 33.3048 31.5057 35.0264 30.0168 36.2137C29.719 36.4512 29.5404 36.6293 29.0639 37.0449C28.4683 37.4604 27.6345 38.2322 27.039 38.529L24.2993 32.6517C22.5126 33.186 22.9891 33.1267 21.3215 33.3641C19.8921 33.5422 18.2245 33.4829 16.7951 33.1267C16.2591 33.0079 15.604 32.8298 15.0084 32.6517C10.0652 31.1082 6.37263 27.9617 6.37263 27.9617Z" fill="#E84434"/>
<path d="M53.125 18.971L49.4324 10.1253L47.2288 22.533H45.859L48.4795 7.63193H50.028L53.9588 17.2493L61.3439 7.57256H62.8923L60.2718 22.4736H58.902L61.1056 10.066L54.3161 18.971H53.125Z" fill="black"/>
<path d="M63.7262 22.7111L62.4159 22.2955L69.801 7.57256H71.7664L73.9104 22.2955L72.481 22.7111L71.7664 17.9617H66.1084L63.7262 22.7111ZM71.6472 16.5963L70.5752 9.11609L66.8231 16.5963H71.6472Z" fill="black"/>
<path d="M77.4838 22.4736H76.114L78.7345 7.57256H86.9534L88.7997 9.76913L87.9659 14.5185L85.3454 16.715H82.308L86.5961 21.8799L85.4645 22.8892L80.4021 16.715H78.6154L77.4838 22.4736ZM79.8661 8.938L78.7345 15.2309H84.9285L86.5961 13.8654L87.1916 10.3034L86.0005 8.938H79.8661Z" fill="black"/>
<path d="M99.52 21.9393L98.2097 22.7111L94.4576 14.8153L91.3011 17.5462L90.4673 22.4736H89.0975L91.718 7.57255H93.0878L91.718 15.5277L101.009 7.33508L101.843 8.28495L95.6488 13.7467L99.52 21.9393Z" fill="black"/>
<path d="M103.808 7.57256H113.099L112.861 8.938H104.999L104.165 13.8654H111.134L110.895 15.2309H103.927L102.915 21.0488H110.776L110.538 22.4142H101.247L103.808 7.57256Z" fill="black"/>
<path d="M116.97 22.4736H115.6L117.983 8.938H113.278L113.516 7.57256H124.355L124.117 8.938H119.412L116.97 22.4736Z" fill="black"/>
<path d="M46.6801 29.4156H55.6136L57.8768 32.1464L56.1496 41.7639L52.9336 44.4947H44L46.6801 29.4156ZM53.6482 32.5026H49.4197L47.8117 41.467H52.0402L53.0527 40.6359L54.3629 33.3931L53.6482 32.5026Z" fill="black"/>
<path d="M69.8478 29.4156L72.3492 32.0871L70.622 41.8826L67.1677 44.5541H60.7951L58.2937 41.8826L60.0209 32.0871L63.4752 29.4156H69.8478ZM67.942 32.5026H64.2494L63.1178 33.3931L61.8671 40.5765L62.7009 41.467H66.3935L67.5251 40.5765L68.8353 33.3931L67.942 32.5026Z" fill="black"/>
<path d="M85.2731 38.6768L84.7371 41.7639H83.1886L82.7121 44.5541H79.3769L79.8534 41.7639H71.9919L72.5279 38.7361L82.6526 29.4156H85.3922L83.7246 38.6768H85.2731ZM76.9946 38.4393L76.1609 38.9142L76.2204 38.9736L76.9946 38.6768H80.3894L81.0445 34.996L81.4614 34.2243L81.4019 34.1649L80.8063 34.9367L76.9946 38.4393Z" fill="#E84434"/>
<path d="M95.3978 29L97.8396 43.9604L94.5044 45.029L93.9684 41.6451H89.1443L87.4767 45.029L84.5584 43.9604L92.2413 29H95.3978ZM93.0751 35.1741V33.5712H92.956L92.4199 35.1741L90.5737 38.7361H93.6111L93.0751 35.1741Z" fill="black"/>
<path d="M98.7926 42.1794L99.8646 41.2889H101.592L102.426 42.1794L102.128 44.0198L101.056 44.9103H99.2095L98.4352 44.0198L98.7926 42.1794Z" fill="black"/>
<path d="M114.337 39.4485L116.183 41.7045L112.788 44.5541H106.416L104.153 41.8232L105.88 32.1464L109.096 29.4156H115.29L117.553 32.1464L117.077 34.9367H113.801L114.099 33.3338L113.384 32.5026H110.049L109.036 33.3338L107.726 40.5765L108.441 41.4076H111.895L114.337 39.4485Z" fill="black"/>
<path d="M129.048 29.4156L131.549 32.0871L129.822 41.8826L126.368 44.5541H119.995L117.493 41.8826L119.221 32.0871L122.675 29.4156H129.048ZM127.142 32.5026H123.449L122.318 33.3931L121.007 40.5765L121.841 41.467H125.534L126.665 40.5765L127.976 33.3931L127.142 32.5026Z" fill="black"/>
<path d="M140.661 36.7177L140.78 37.5488H140.84L141.257 36.7177L147.034 29.4749H150.071L147.391 44.6135H144.056L145.485 36.5396L145.962 35.1148H145.902L145.068 36.5396L141.257 41.4076H138.994L136.85 36.5396L136.552 35.1148H136.433V36.5396L135.003 44.6135H131.668L134.348 29.4749H137.386L140.661 36.7177Z" fill="black"/>
</g>
<defs>
<clipPath id="clip0">
<rect width="150" height="45" fill="white"/>
</clipPath>
</defs>
</svg>
