<svg xmlns="http://www.w3.org/2000/svg" xmlns:xlink="http://www.w3.org/1999/xlink"><symbol id="sprite-close" viewBox="0 0 18 19"><title>close</title><path clip-rule="evenodd" d="M5.178 4.46L3.822 5.814l3.822 3.822-3.822 3.822 1.356 1.356L9 10.993l3.822 3.822 1.356-1.356-3.822-3.822 3.822-3.822-1.356-1.356L9 8.281 5.178 4.46z" fill="#9B9B9B"/></symbol><use xlink:href="#sprite-close" width="18" height="19"/><view id="sprite-close-fragment" viewBox="0 0 18 19"/><symbol id="sprite-heart-fill" viewBox="0 0 31 27"><title>heart-fill</title><path d="M21.667 0c-2.524 0-4.854 1.034-6.465 2.792A8.81 8.81 0 0 0 8.77.004C3.957.004 0 3.908 0 8.778c0 2.351.917 4.556 2.577 6.206l11.59 11.598a1.423 1.423 0 0 0 2.014.004l11.676-11.602a8.716 8.716 0 0 0 2.577-6.217C30.426 3.931 26.494 0 21.667 0z" fill="#F4412D"/></symbol><use xlink:href="#sprite-heart-fill" y="19" width="31" height="27"/><view id="sprite-heart-fill-fragment" viewBox="0 19 31 27"/><symbol id="sprite-heart" viewBox="0 0 31 27"><title>heart</title><path d="M21.667 0c-2.524 0-4.854 1.034-6.465 2.792A8.81 8.81 0 0 0 8.77.004C3.957.004 0 3.908 0 8.778c0 2.351.917 4.556 2.577 6.206l11.59 11.598a1.423 1.423 0 0 0 2.014.004l11.676-11.602a8.716 8.716 0 0 0 2.577-6.217C30.426 3.931 26.494 0 21.667 0zm4.176 12.964L15.179 23.56 4.592 12.964a5.86 5.86 0 0 1-1.739-4.186 5.926 5.926 0 0 1 5.917-5.92 5.948 5.948 0 0 1 5.204 3.06c.254.459.71.74 1.265.735a1.427 1.427 0 0 0 1.247-.766c.964-1.843 2.998-3.034 5.181-3.034 3.25 0 5.909 2.656 5.913 5.919a5.882 5.882 0 0 1-1.737 4.192z" fill="#F4412D"/></symbol><use xlink:href="#sprite-heart" y="46" width="31" height="27"/><view id="sprite-heart-fragment" viewBox="0 46 31 27"/></svg>