<svg width="18" height="17" viewBox="0 0 18 17" fill="none" xmlns="http://www.w3.org/2000/svg">
<path fill-rule="evenodd" clip-rule="evenodd" d="M15.9245 13.2499L9.91392 2.83923C9.6595 2.39857 9.02346 2.39857 8.76905 2.83923L2.75846 13.2499C2.50404 13.6905 2.82207 14.2414 3.3309 14.2414H15.3521C15.8609 14.2414 16.1789 13.6905 15.9245 13.2499ZM11.6312 1.84774C10.6136 0.0850968 8.0694 0.0850931 7.05174 1.84774L1.04115 12.2584C0.0234887 14.021 1.29557 16.2243 3.3309 16.2243H15.3521C17.3874 16.2243 18.6595 14.021 17.6418 12.2584L11.6312 1.84774ZM8.34999 9.77966V5.4832H10.333V9.77966H8.34999ZM8.34999 11.1016V12.7541H10.333V11.1016H8.34999Z" fill="black"/>
</svg>
