<svg xmlns="http://www.w3.org/2000/svg" width="619" height="73" fill="none" viewBox="0 0 619 73"><path fill="#fff" d="M0 7C0 3.13401 3.13401 0 7 0H619V50.1769C619 51.3544 618.584 52.4941 617.827 53.3952L603.483 70.4501C601.485 72.8258 597.828 72.8258 595.83 70.4501L584.139 56.5499C582.141 54.1742 578.484 54.1742 576.486 56.5499L564.795 70.4501C562.797 72.8258 559.14 72.8258 557.142 70.4501L545.452 56.5499C543.454 54.1742 539.796 54.1742 537.798 56.5499L526.108 70.4501C524.11 72.8258 520.453 72.8258 518.455 70.4501L506.764 56.5499C504.766 54.1742 501.109 54.1742 499.111 56.5499L487.42 70.4501C485.422 72.8258 481.765 72.8258 479.767 70.4501L468.077 56.5499C466.079 54.1742 462.421 54.1742 460.423 56.5499L448.733 70.4501C446.735 72.8258 443.078 72.8258 441.08 70.4501L429.389 56.5499C427.391 54.1742 423.734 54.1742 421.736 56.5499L410.045 70.4501C408.047 72.8258 404.39 72.8258 402.392 70.4501L390.702 56.5499C388.704 54.1742 385.046 54.1742 383.048 56.5499L371.358 70.4501C369.36 72.8258 365.703 72.8258 363.705 70.4501L352.014 56.5499C350.016 54.1742 346.359 54.1742 344.361 56.5499L332.67 70.4501C330.672 72.8258 327.015 72.8258 325.017 70.4502L313.327 56.5499C311.329 54.1742 307.671 54.1742 305.673 56.5499L293.983 70.4501C291.985 72.8258 288.328 72.8258 286.33 70.4501L274.639 56.5499C272.641 54.1742 268.984 54.1742 266.986 56.5499L255.295 70.4501C253.297 72.8258 249.64 72.8258 247.642 70.4501L235.952 56.5499C233.954 54.1742 230.296 54.1742 228.298 56.5499L216.608 70.4501C214.61 72.8258 210.953 72.8258 208.955 70.4501L197.264 56.5499C195.266 54.1742 191.609 54.1742 189.611 56.5499L177.92 70.4501C175.922 72.8258 172.265 72.8258 170.267 70.4501L158.577 56.5499C156.579 54.1742 152.921 54.1742 150.923 56.5499L139.233 70.4501C137.235 72.8258 133.578 72.8258 131.58 70.4501L119.889 56.5499C117.891 54.1742 114.234 54.1742 112.236 56.5499L100.545 70.4501C98.5473 72.8258 94.8902 72.8258 92.8922 70.4501L81.2016 56.5499C79.2036 54.1742 75.5464 54.1742 73.5484 56.5499L61.8578 70.4501C59.8598 72.8258 56.2027 72.8258 54.2047 70.4501L42.5141 56.5499C40.5161 54.1742 36.8589 54.1742 34.8609 56.5499L23.1703 70.4501C21.1723 72.8258 17.5152 72.8258 15.5172 70.4501L1.17342 53.3952C0.415543 52.4941 0 51.3544 0 50.1769V7Z"/></svg>