<svg xmlns="http://www.w3.org/2000/svg" viewBox="0 0 60 60"><rect width="60" height="60" fill="url(#paint0_linear)"/><path fill="#fff" fill-rule="evenodd" d="M30.0015 14C25.6561 14 25.1108 14.019 23.4041 14.0967C21.7007 14.1747 20.5381 14.4443 19.5207 14.84C18.4684 15.2487 17.5757 15.7954 16.6864 16.685C15.7964 17.5744 15.2497 18.467 14.8397 19.5191C14.443 20.5367 14.173 21.6997 14.0963 23.4024C14.02 25.1091 14 25.6548 14 30.0002C14 34.3455 14.0193 34.8892 14.0967 36.5959C14.175 38.2992 14.4447 39.4619 14.84 40.4793C15.249 41.5316 15.7957 42.4243 16.6854 43.3136C17.5744 44.2036 18.467 44.7516 19.5187 45.1603C20.5367 45.556 21.6997 45.8256 23.4028 45.9037C25.1094 45.9813 25.6545 46.0003 29.9995 46.0003C34.3452 46.0003 34.8889 45.9813 36.5956 45.9037C38.2989 45.8256 39.4629 45.556 40.4809 45.1603C41.533 44.7516 42.4243 44.2036 43.3133 43.3136C44.2033 42.4243 44.75 41.5316 45.16 40.4796C45.5533 39.4619 45.8233 38.2989 45.9033 36.5962C45.98 34.8895 46 34.3455 46 30.0002C46 25.6548 45.98 25.1094 45.9033 23.4028C45.8233 21.6994 45.5533 20.5367 45.16 19.5194C44.75 18.467 44.2033 17.5744 43.3133 16.685C42.4233 15.795 41.5333 15.2483 40.4799 14.84C39.4599 14.4443 38.2966 14.1747 36.5932 14.0967C34.8866 14.019 34.3432 14 29.9965 14H30.0015ZM28.5661 16.8819C28.9921 16.8812 29.4675 16.8819 30.0015 16.8819C34.2735 16.8819 34.7799 16.8972 36.4669 16.9739C38.0269 17.0452 38.8736 17.3059 39.4376 17.5249C40.1842 17.8149 40.7166 18.1616 41.2763 18.7216C41.8363 19.2816 42.1829 19.8149 42.4736 20.5616C42.6926 21.1249 42.9536 21.9716 43.0246 23.5316C43.1013 25.2183 43.1179 25.725 43.1179 29.995C43.1179 34.2651 43.1013 34.7717 43.0246 36.4584C42.9533 38.0184 42.6926 38.8651 42.4736 39.4285C42.1836 40.1751 41.8363 40.7068 41.2763 41.2665C40.7162 41.8265 40.1846 42.1731 39.4376 42.4632C38.8742 42.6832 38.0269 42.9432 36.4669 43.0145C34.7802 43.0912 34.2735 43.1078 30.0015 43.1078C25.7291 43.1078 25.2228 43.0912 23.5361 43.0145C21.9761 42.9425 21.1294 42.6818 20.565 42.4628C19.8184 42.1728 19.285 41.8261 18.725 41.2661C18.165 40.7061 17.8183 40.1741 17.5277 39.4271C17.3087 38.8638 17.0477 38.0171 16.9767 36.4571C16.9 34.7704 16.8847 34.2637 16.8847 29.991C16.8847 25.7183 16.9 25.2143 16.9767 23.5276C17.048 21.9676 17.3087 21.1209 17.5277 20.5569C17.8177 19.8102 18.165 19.2769 18.725 18.7169C19.285 18.1569 19.8184 17.8102 20.565 17.5196C21.129 17.2996 21.9761 17.0396 23.5361 16.9679C25.0121 16.9012 25.5841 16.8812 28.5661 16.8779V16.8819ZM38.5422 19.5422C37.4822 19.5422 36.6222 20.4012 36.6222 21.4615C36.6222 22.5215 37.4822 23.3815 38.5422 23.3815C39.6022 23.3815 40.4622 22.5215 40.4622 21.4615C40.4622 20.4015 39.6022 19.5415 38.5422 19.5415V19.5422ZM30.0016 21.7815C25.4639 21.7815 21.7848 25.4605 21.7848 29.9983C21.7848 34.536 25.4639 38.2133 30.0016 38.2133C34.5393 38.2133 38.217 34.536 38.217 29.9983C38.217 25.4605 34.539 21.7815 30.0013 21.7815H30.0016ZM30.0016 24.666C32.947 24.666 35.335 27.0537 35.335 29.9994C35.335 32.9448 32.947 35.3328 30.0016 35.3328C27.0559 35.3328 24.6682 32.9448 24.6682 29.9994C24.6682 27.0537 27.0559 24.666 30.0016 24.666Z" clip-rule="evenodd"/><defs><linearGradient id="paint0_linear" x1="49.615" x2="17.308" y1="3.462" y2="53.077" gradientUnits="userSpaceOnUse"><stop stop-color="#536DE8"/><stop offset=".367" stop-color="#A84CA7"/><stop offset=".751" stop-color="#FC3436"/><stop offset="1" stop-color="#FFA10D"/></linearGradient></defs></svg>