<svg xmlns="http://www.w3.org/2000/svg" width="24" height="28" fill="none" viewBox="0 0 24 28"><path fill="#000" d="M2.57993 16.4838L3.93987 17.409C4.01338 18.1861 4.12365 19.0373 4.45444 19.7405C4.52795 19.9625 4.8955 20.3696 5.04253 20.5546C5.26306 20.8507 5.44683 21.0357 5.66737 21.2948L6.36571 21.9979C6.58624 22.22 6.84353 22.479 7.06406 22.6641C7.61539 23.1082 7.90943 23.3672 8.57102 23.8853C9.60017 24.6625 10.8131 25.3286 11.9893 26.0318C13.0552 26.6979 12.7244 26.6979 13.7535 26.0688C15.5178 24.9956 16.2896 24.5515 17.9436 23.3302C18.4949 22.9231 19.6343 21.8499 20.1489 21.3318C20.4797 20.9987 21.1413 20.2216 21.3618 19.8145C21.8764 18.9263 21.9132 18.8153 21.9132 17.557V9.19324C21.031 8.78616 20.1857 8.37907 19.2668 8.00899C16.1793 6.89876 12.6876 6.38066 9.4899 7.19483L9.89421 5.67751C10.4455 5.60349 11.1806 5.45546 11.732 5.45546C11.9525 5.45546 11.9893 5.41845 12.2098 5.41845C13.9005 5.38144 13.9373 5.41845 15.5913 5.6405L17.282 5.97356C17.8333 6.12159 18.3847 6.23262 18.8992 6.41766C20.1122 6.78774 20.737 7.00979 21.9132 7.52789L23.3099 8.15703V18.0381C23.3099 18.9263 23.0893 19.2594 22.7953 19.9625C22.7218 20.1845 22.2807 20.7767 22.1337 20.9617C22.0234 21.1097 21.8764 21.2578 21.7661 21.4058C21.6191 21.5908 21.5456 21.6649 21.3618 21.8129C21.2148 21.9609 21.1413 22.0719 20.9943 22.257C20.0019 23.2192 19.5241 23.6263 18.3847 24.5515C18.1274 24.7365 17.2452 25.4026 16.988 25.5877C16.8409 25.6987 16.6572 25.8097 16.5101 25.8837C15.5913 26.4759 14.4151 27.179 13.4595 27.7341C12.7979 28.1412 13.1654 28.1782 11.4012 27.142C10.7763 26.7719 9.96772 26.2908 9.37964 25.8837C8.60778 25.3656 8.31374 25.1806 7.46837 24.5515C6.77002 23.9963 6.10843 23.4412 5.44683 22.8861C5.07928 22.553 3.97663 21.3318 3.68259 20.9617C3.53556 20.7767 3.46205 20.6656 3.35179 20.4806C2.43291 19.0743 2.57993 18.2231 2.57993 16.4838Z"/><path fill="#E84434" d="M3.97662 17.446L3.27827 16.9649C2.57992 16.4838 2.57992 16.4838 2.57992 16.4838C1.88158 16.0397 1.6978 15.9657 1.07296 15.4106C0.925942 15.2995 0.852431 15.1885 0.742165 15.0405C0.117327 14.2633 -0.103204 14.1153 0.0438164 13.3011C0.0805716 13.1531 0.154083 12.968 0.190838 12.82C0.374614 12.5239 0.411369 12.1909 0.558389 11.8578L1.03621 10.7476C1.07296 10.6736 1.10972 10.6366 1.14647 10.5255C1.21998 10.3775 1.29349 10.2665 1.367 10.1184C1.84482 9.11924 1.77131 9.37829 2.32264 8.52712C2.61668 8.08302 4.1604 6.19562 4.60146 5.71452C4.71172 5.56649 4.78523 5.49248 4.8955 5.38146C4.96901 5.30744 5.00576 5.30743 5.04252 5.23342L5.48358 4.71531C6.14518 3.90114 6.25544 3.79012 6.84352 2.86492C7.17432 2.34681 8.05645 0.940516 8.46075 0.607446C8.71804 0.3854 8.93857 0.237375 9.26936 0.16336C9.56341 0.0893443 10.0412 0.0523387 10.372 0.015331C10.8131 -0.0216768 11.0704 0.015322 11.5114 0.0523297C12.6141 0.163353 13.533 0.237369 14.3783 0.977524C14.8194 1.38461 15.0767 2.19878 15.0767 2.82791C15.0767 3.12397 15.1869 3.71611 15.0032 3.90115C14.6356 4.1602 13.0919 4.34523 12.9081 4.38224C12.5773 4.41925 10.8498 4.67831 10.7028 4.60429C10.519 4.53028 10.519 4.49326 10.4455 4.34523L9.96771 3.19799C9.93096 3.08697 9.82069 2.79091 9.71043 2.86492C9.60016 2.97594 9.60016 3.08697 9.63692 3.235C9.67367 3.56807 9.85745 4.01217 9.93096 4.27122C10.1515 5.08539 9.96771 5.71452 9.93096 5.78853L9.1591 8.60112C9.01208 9.00821 8.60777 10.3035 8.424 10.7846C8.38724 10.8956 8.27697 11.0806 8.20346 11.1917C7.7624 11.9318 6.99055 13.0791 7.13757 14.0413C7.28459 14.9295 7.94618 15.3735 8.60777 15.6326C8.90181 15.7806 9.74718 15.9287 10.078 15.9657C10.078 15.9657 8.64453 15.4846 8.01969 14.9295C6.6965 13.7082 9.12234 10.6736 9.12234 10.6736C9.45314 10.2295 10.372 10.1925 10.6293 10.2295C12.4303 10.5255 13.3124 12.2279 13.3492 12.3759C13.3492 12.3759 14.8929 10.5255 18.789 10.5255C19.9651 10.5255 21.5088 11.2657 21.7294 11.3767V18.0381C21.7294 18.8153 21.5456 19.1853 21.2148 19.7035C20.5532 20.7767 19.4873 21.8499 18.5684 22.5901C18.3846 22.7381 18.2744 22.8491 17.9803 23.1082C17.6128 23.3672 17.0982 23.8483 16.7307 24.0334L15.0399 20.3696C13.9373 20.7027 14.2313 20.6657 13.2022 20.8137C12.32 20.9247 11.2909 20.8877 10.4088 20.6657C10.078 20.5916 9.67367 20.4806 9.30612 20.3696C6.25544 19.4074 3.97662 17.446 3.97662 17.446Z"/></svg>