<svg xmlns="http://www.w3.org/2000/svg" width="15" height="15" fill="none" viewBox="0 0 15 15"><path fill="#000" stroke="#000" stroke-linecap="round" stroke-linejoin="round" stroke-miterlimit="10" stroke-width=".35" d="M8.00007 8.53106H6.46882V7.00034H5.15632V8.53106H3.62524V9.84426H5.15632V11.375H6.46882V9.84426H8.00007V8.53106Z"/><path fill="#000" stroke="#000" stroke-linecap="round" stroke-linejoin="round" stroke-miterlimit="10" stroke-width=".35" d="M12.6874 1H5.68726C4.96258 1 4.37476 1.58783 4.37476 2.3125V3.37517H5.68726V2.53142C5.68726 2.41085 5.78561 2.3125 5.90618 2.3125H12.4687C12.5887 2.3125 12.6874 2.41085 12.6874 2.53142V9.0934C12.6874 9.21397 12.5887 9.31232 12.4687 9.31232H11.6248V10.6246H12.6874C13.4121 10.6246 13.9999 10.037 13.9999 9.31232V2.3125C13.9999 1.58783 13.4121 1 12.6874 1Z"/><path fill="#000" stroke="#000" stroke-linecap="round" stroke-linejoin="round" stroke-miterlimit="10" stroke-width=".35" d="M9.31232 4.37518H2.3125C1.58783 4.37518 1 4.96301 1 5.68768V12.6875C1 13.4124 1.58783 14 2.3125 14H9.31232C10.0372 14 10.6248 13.4124 10.6248 12.6875V5.68786C10.6248 4.96318 10.0372 4.37518 9.31232 4.37518ZM9.31232 12.4688C9.31232 12.5892 9.21397 12.6875 9.09357 12.6875H2.53108C2.41103 12.6875 2.3125 12.5892 2.3125 12.4688V5.90678C2.3125 5.78621 2.41103 5.68786 2.53108 5.68786H9.09357C9.21397 5.68786 9.31232 5.78621 9.31232 5.90678V12.4688Z"/></svg>