<svg xmlns="http://www.w3.org/2000/svg" width="60" height="60" fill="none" viewBox="0 0 60 60"><rect width="60" height="60" fill="#F68634"/><path fill="#fff" fill-rule="evenodd" d="M33.3003 22.742C33.3003 20.9744 31.8108 19.5371 29.9796 19.5371C28.1499 19.5371 26.659 20.9744 26.659 22.742C26.659 24.5082 28.1499 25.9464 29.9796 25.9464C31.8108 25.9464 33.3003 24.5082 33.3003 22.742ZM37.9995 22.742C37.9995 27.0099 34.4035 30.4816 29.9796 30.4816C25.5567 30.4816 21.9597 27.0099 21.9597 22.742C21.9597 18.4726 25.5567 15 29.9796 15C34.4035 15 37.9995 18.4726 37.9995 22.742ZM37.902 34.9388C36.4519 35.8179 34.8774 36.4414 33.245 36.8004L37.7283 41.1285C38.6467 42.0133 38.6467 43.4501 37.7283 44.3358C36.8108 45.2214 35.3237 45.2214 34.4072 44.3358L29.9992 40.0826L25.595 44.3358C25.1358 44.7781 24.534 44.9995 23.9323 44.9995C23.3315 44.9995 22.7307 44.7781 22.2715 44.3358C21.354 43.4501 21.354 42.0142 22.2705 41.1285L26.7544 36.8004C25.1219 36.4414 23.5475 35.817 22.0973 34.9388C20.9999 34.2708 20.6702 32.8715 21.3617 31.8112C22.0513 30.7496 23.5014 30.4299 24.6008 31.0979C27.884 33.0915 32.1134 33.092 35.3986 31.0979C36.4979 30.4299 37.9476 30.7496 38.6386 31.8112C39.3301 32.8706 38.9994 34.2708 37.902 34.9388Z" clip-rule="evenodd"/></svg>