<svg width="115" height="16" viewBox="0 0 115 16" fill="none" xmlns="http://www.w3.org/2000/svg">
<path fill-rule="evenodd" clip-rule="evenodd" d="M13.1891 13.255L14.9466 3.03967H17.7573L15.9986 13.255H13.1891Z" fill="#004F8B"/>
<path fill-rule="evenodd" clip-rule="evenodd" d="M26.1929 3.29113C25.636 3.08409 24.7635 2.86218 23.6737 2.86218C20.8966 2.86218 18.94 4.24764 18.9234 6.23326C18.9078 7.7011 20.3202 8.52004 21.3863 9.00867C22.4802 9.50923 22.8482 9.82859 22.8429 10.2757C22.836 10.9604 21.9692 11.2733 21.1613 11.2733C20.0363 11.2733 19.4388 11.1185 18.5157 10.7372L18.1534 10.5747L17.7589 12.8615C18.4155 13.1466 19.6296 13.3938 20.8898 13.4065C23.8446 13.4065 25.7624 12.0369 25.7844 9.91645C25.795 8.75447 25.046 7.86997 23.4246 7.14104C22.4421 6.66846 21.8404 6.35302 21.8467 5.87457C21.8467 5.44993 22.356 4.99594 23.4564 4.99594C24.3756 4.98185 25.0412 5.18027 25.56 5.38731L25.8118 5.50511L26.1929 3.29113Z" fill="#004F8B"/>
<path fill-rule="evenodd" clip-rule="evenodd" d="M33.4003 3.0495H31.2284C30.5556 3.0495 30.0521 3.23129 29.7566 3.89662L25.5823 13.2584H28.5338C28.5338 13.2584 29.0164 11.9996 29.1257 11.7233C29.4482 11.7233 32.3153 11.7276 32.7252 11.7276C32.8093 12.0851 33.0673 13.2584 33.0673 13.2584H35.6753L33.4003 3.0495ZM29.9346 9.6337C30.1669 9.04507 31.0544 6.77806 31.0544 6.77806C31.0377 6.80526 31.2852 6.18669 31.427 5.80315L31.617 6.68393C31.617 6.68393 32.1553 9.12237 32.2677 9.6337H29.9346Z" fill="#004F8B"/>
<path fill-rule="evenodd" clip-rule="evenodd" d="M10.8318 3.04712L8.07989 10.0133L7.78675 8.59755C7.27454 6.96553 5.67845 5.19751 3.89392 4.31242L6.41013 13.2463L9.38402 13.2429L13.809 3.04712H10.8318Z" fill="#004F8B"/>
<path fill-rule="evenodd" clip-rule="evenodd" d="M5.52718 3.04083H0.994936L0.958984 3.25335C4.48519 4.0989 6.81827 6.14225 7.78679 8.59752L6.80129 3.90322C6.63101 3.25628 6.13757 3.06334 5.52718 3.04083Z" fill="#ED9F2D"/>
<path fill-rule="evenodd" clip-rule="evenodd" d="M54.7712 8.29325C54.7712 5.84345 55.878 3.66212 57.6012 2.25053C56.3306 1.20974 54.7253 0.586487 52.9784 0.586487C48.8623 0.586487 45.5255 4.03686 45.5255 8.29325C45.5255 12.5496 48.8623 16 52.9784 16C54.7253 16 56.3306 15.3769 57.6012 14.336C55.878 12.9244 54.7712 10.7431 54.7712 8.29325Z" fill="#E30E17"/>
<path fill-rule="evenodd" clip-rule="evenodd" d="M54.7712 8.29321C54.7712 10.743 55.878 12.9243 57.6012 14.3359C59.3245 12.9243 60.4312 10.743 60.4312 8.29321C60.4312 5.8434 59.3245 3.66207 57.6012 2.25049C55.878 3.66207 54.7712 5.8434 54.7712 8.29321Z" fill="#EA600A"/>
<path fill-rule="evenodd" clip-rule="evenodd" d="M62.224 0.586487C60.4771 0.586487 58.8719 1.20974 57.6012 2.25053C59.3245 3.66212 60.4312 5.84345 60.4312 8.29325C60.4312 10.7431 59.3245 12.9243 57.6012 14.336C58.8719 15.3769 60.4771 16 62.224 16C66.3402 16 69.677 12.5496 69.677 8.29325C69.677 4.03686 66.3402 0.586487 62.224 0.586487Z" fill="#F59F00"/>
<path fill-rule="evenodd" clip-rule="evenodd" d="M88.9044 3.60559V3.60988C88.9001 3.60988 87.5464 3.60559 87.1854 4.89532C86.8545 6.07793 85.922 9.34296 85.8962 9.43295H85.6384C85.6384 9.43295 84.6843 6.09507 84.3491 4.89104C83.9881 3.60131 82.6302 3.60559 82.6302 3.60559H79.536V13.4178H82.6302V7.59047H82.7591H82.888L84.6929 13.4178H86.8416L88.6466 7.59476H88.9044V13.4178H91.9986V3.60559H88.9044Z" fill="#4DB45E"/>
<path fill-rule="evenodd" clip-rule="evenodd" d="M100.207 3.60559C100.207 3.60559 99.2999 3.687 98.8745 4.63395L96.6828 9.43295H96.425V3.60559H93.3308V13.4178H96.2531C96.2531 13.4178 97.2028 13.3321 97.6282 12.3895L99.777 7.59047H100.035V13.4178H103.129V3.60559H100.207Z" fill="#4DB45E"/>
<path fill-rule="evenodd" clip-rule="evenodd" d="M104.504 8.06183V13.4179H107.598V10.2899H110.95C112.411 10.2899 113.649 9.36013 114.109 8.06183H104.504Z" fill="#4DB45E"/>
<path fill-rule="evenodd" clip-rule="evenodd" d="M110.95 3.60559H104.07C104.414 5.47377 105.819 6.97346 107.637 7.46193C108.049 7.57333 108.484 7.63332 108.93 7.63332H114.233C114.281 7.41051 114.302 7.18341 114.302 6.94775C114.302 5.10099 112.802 3.60559 110.95 3.60559Z" fill="url(#paint0_linear)"/>
<defs>
<linearGradient id="paint0_linear" x1="104.071" y1="7.63316" x2="114.302" y2="7.63316" gradientUnits="userSpaceOnUse">
<stop offset="0.3" stop-color="#00B4E6"/>
<stop offset="1" stop-color="#088CCB"/>
</linearGradient>
</defs>
</svg>
