<svg width="190" height="243" viewBox="0 0 190 243" fill="none" xmlns="http://www.w3.org/2000/svg">
<g opacity="0.1">
<path d="M66.4172 208.374L70.5228 211.139C70.7447 213.462 71.0776 216.006 72.0763 218.107C72.2982 218.771 73.4078 219.987 73.8517 220.54C74.5174 221.425 75.0722 221.978 75.738 222.753L77.8463 224.854C78.5121 225.518 79.2888 226.292 79.9546 226.845C81.619 228.172 82.5067 228.947 84.504 230.495C87.611 232.818 91.2727 234.809 94.8235 236.91C98.0414 238.901 97.0427 238.901 100.15 237.021C105.476 233.813 107.806 232.486 112.799 228.836C114.464 227.619 117.904 224.412 119.457 222.863C120.456 221.868 122.453 219.545 123.119 218.328C124.672 215.674 124.783 215.342 124.783 211.581V186.584C122.12 185.367 119.568 184.151 116.794 183.045C107.473 179.726 96.9318 178.178 87.2781 180.611L88.4987 176.076C90.1631 175.855 92.3823 175.413 94.0468 175.413C94.7125 175.413 94.8235 175.302 95.4893 175.302C100.594 175.191 100.704 175.302 105.698 175.966L110.802 176.961C112.466 177.404 114.131 177.735 115.684 178.288C119.346 179.395 121.232 180.058 124.783 181.607L129 183.487V213.019C129 215.674 128.334 216.669 127.446 218.771C127.224 219.434 125.893 221.204 125.449 221.757C125.116 222.2 124.672 222.642 124.339 223.084C123.896 223.637 123.674 223.859 123.119 224.301C122.675 224.744 122.453 225.075 122.009 225.628C119.013 228.504 117.571 229.721 114.131 232.486C113.354 233.039 110.691 235.03 109.914 235.583C109.47 235.915 108.916 236.247 108.472 236.468C105.698 238.238 102.147 240.339 99.262 241.998C97.2647 243.215 98.3743 243.326 93.0481 240.229C91.1618 239.123 88.7206 237.685 86.9452 236.468C84.615 234.919 83.7273 234.366 81.1752 232.486C79.0669 230.827 77.0696 229.168 75.0722 227.509C73.9626 226.513 70.6338 222.863 69.7461 221.757C69.3022 221.204 69.0803 220.872 68.7474 220.319C65.9733 216.116 66.4172 213.572 66.4172 208.374Z" fill="black"/>
<path d="M70.6336 211.25L68.5254 209.812C66.4171 208.374 66.4171 208.374 66.4171 208.374C64.3088 207.047 63.754 206.826 61.8676 205.166C61.4238 204.835 61.2019 204.503 60.869 204.06C58.9826 201.738 58.3168 201.295 58.7607 198.862C58.8717 198.419 59.0936 197.866 59.2045 197.424C59.7594 196.539 59.8703 195.544 60.3142 194.548L61.7567 191.23C61.8676 191.009 61.9786 190.898 62.0896 190.566C62.3115 190.124 62.5334 189.792 62.7553 189.35C64.1978 186.363 63.9759 187.137 65.6403 184.593C66.528 183.266 71.1885 177.625 72.52 176.187C72.8529 175.745 73.0748 175.524 73.4077 175.192C73.6296 174.971 73.7406 174.971 73.8515 174.749L75.1831 173.201C77.1804 170.767 77.5133 170.436 79.2887 167.67C80.2873 166.122 82.9504 161.919 84.171 160.923C84.9478 160.26 85.6135 159.817 86.6122 159.596C87.4999 159.375 88.9424 159.264 89.9411 159.154C91.2726 159.043 92.0493 159.154 93.3809 159.264C96.7097 159.596 99.4838 159.817 102.036 162.029C103.367 163.246 104.144 165.68 104.144 167.56C104.144 168.445 104.477 170.214 103.922 170.768C102.813 171.542 98.1523 172.095 97.5974 172.205C96.5988 172.316 91.3836 173.09 90.9397 172.869C90.3849 172.648 90.3849 172.537 90.163 172.095L88.7205 168.666C88.6095 168.334 88.2766 167.449 87.9437 167.67C87.6109 168.002 87.6108 168.334 87.7218 168.777C87.8328 169.772 88.3876 171.099 88.6095 171.874C89.2753 174.307 88.7205 176.187 88.6095 176.408L86.2793 184.815C85.8355 186.031 84.6149 189.903 84.0601 191.34C83.9491 191.672 83.6162 192.225 83.3943 192.557C82.0627 194.769 79.7325 198.198 80.1764 201.074C80.6202 203.729 82.6176 205.056 84.6149 205.83C85.5026 206.272 88.0547 206.715 89.0534 206.826C89.0534 206.826 84.7258 205.388 82.8395 203.729C78.8448 200.078 86.1683 191.009 86.1683 191.009C87.167 189.681 89.9411 189.571 90.7178 189.681C96.1549 190.566 98.818 195.654 98.929 196.097C98.929 196.097 103.589 190.566 115.351 190.566C118.902 190.566 123.563 192.778 124.228 193.11V213.02C124.228 215.342 123.674 216.448 122.675 217.997C120.678 221.204 117.46 224.412 114.686 226.624C114.131 227.067 113.798 227.399 112.91 228.173C111.801 228.947 110.247 230.385 109.138 230.938L104.033 219.988C100.704 220.983 101.592 220.873 98.4851 221.315C95.8221 221.647 92.7151 221.536 90.052 220.873C89.0534 220.651 87.8328 220.32 86.7232 219.988C77.5133 217.112 70.6336 211.25 70.6336 211.25Z" fill="black"/>
</g>
<g opacity="0.15">
<path d="M67.887 8.7401L69.075 10.1801L67.491 19.1801L65.799 20.6201H62.019L64.1071 8.7401H67.887ZM58.5271 8.7401L56.439 20.6201H52.659L51.4711 19.1801L53.055 10.1801L54.747 8.7401H58.5271ZM53.199 3.8801L47.763 8.4881L45.567 20.8721L49.383 25.4801H55.575L54.963 28.9001H60.543L61.155 25.4801H67.347L72.747 20.8721L74.943 8.4881L71.163 3.8801H64.971L65.619 0.100098H60.039L59.391 3.8801H53.199Z" fill="#101010"/>
<path d="M84.9856 2.4401L79.1536 6.9761L76.2736 23.4641L80.4856 28.0001H91.1776L96.9736 23.4641L99.8536 6.9761L95.6776 2.4401H84.9856ZM93.9136 9.1721L91.7536 21.2681L89.8456 22.7801H83.6176L82.2136 21.2681L84.3736 9.1721L86.2816 7.6601H92.5096L93.9136 9.1721Z" fill="#101010"/>
<path d="M114.515 7.6601H121.535L122.471 2.4401H102.851L101.915 7.6601H108.935L105.371 28.0001H110.951L114.515 7.6601Z" fill="#101010"/>
<path d="M129.668 2.4401L123.836 6.9761L120.956 23.4641L125.168 28.0001H135.86L141.656 23.4641L144.536 6.9761L140.36 2.4401H129.668ZM138.596 9.1721L136.436 21.2681L134.528 22.7801H128.3L126.896 21.2681L129.056 9.1721L130.964 7.6601H137.192L138.596 9.1721Z" fill="#101010"/>
<path d="M9.3315 47.6601H17.7915L14.2275 68.0001H19.8075L24.3075 42.4401H4.6875L0.1875 68.0001H5.7675L9.3315 47.6601Z" fill="#101010"/>
<path d="M33.9929 42.4401L28.1609 46.9761L25.2809 63.4641L29.4929 68.0001H40.1849L45.9809 63.4641L48.8609 46.9761L44.6849 42.4401H33.9929ZM42.9209 49.1721L40.7609 61.2681L38.8529 62.7801H32.6249L31.2209 61.2681L33.3809 49.1721L35.2889 47.6601H41.5169L42.9209 49.1721Z" fill="#101010"/>
<path d="M67.0699 47.6601L66.0259 53.7081H58.8619L57.7819 52.4121L58.3939 48.9561L59.9059 47.6601H67.0699ZM56.2339 58.9281L57.6019 58.3161L57.6379 58.4241L56.2339 59.3241L52.7419 62.9601L49.4659 63.9321L50.1499 68.7201L55.9459 66.9921L63.6499 58.9281H65.0899L63.5059 68.0001H69.0859L73.5859 42.4401H57.9619L53.2459 46.4001L51.7339 54.9681L55.0459 58.9281H56.2339Z" fill="#101010"/>
<path d="M89.7966 58.7841L89.3286 61.4121L87.7086 62.7801H80.6166L81.5886 57.3081H88.1406L89.7966 58.7841ZM83.2806 47.6601H90.0846L90.8406 48.5601L90.3366 51.3321L89.2206 52.0881H82.4886L83.2806 47.6601ZM93.4326 54.6801L95.5926 53.1681L96.8166 46.3281L93.6126 42.4401H78.6366L74.1366 68.0001H89.1486L94.5486 63.3921L95.7366 56.7681L93.4326 54.6801Z" fill="#101010"/>
<path d="M108.14 42.4401H102.56L98.0597 68.0001H103.1L113.9 53.9601L115.268 51.5841H115.412L114.584 53.9961L112.136 68.0001H117.716L122.216 42.4401H117.176L106.34 56.4801L104.972 58.8561H104.828L105.656 56.4441L108.14 42.4401Z" fill="#101010"/>
<path d="M137.12 47.6601H144.14L145.076 42.4401H125.456L124.52 47.6601H131.54L127.976 68.0001H133.556L137.12 47.6601Z" fill="#101010"/>
<path d="M156.521 62.7801H150.689L149.501 61.3401L151.661 49.1001L153.353 47.6601H158.933L160.121 49.1001L159.653 51.8001H165.233L166.061 47.0481L162.281 42.4401H151.877L146.441 47.0481L143.561 63.3921L147.377 68.0001H158.033L163.721 63.1401L160.589 59.3241L156.521 62.7801Z" fill="#101010"/>
<path d="M183.346 47.6601L182.302 53.7081H175.138L174.058 52.4121L174.67 48.9561L176.182 47.6601H183.346ZM172.51 58.9281L173.878 58.3161L173.914 58.4241L172.51 59.3241L169.018 62.9601L165.742 63.9321L166.426 68.7201L172.222 66.9921L179.926 58.9281H181.366L179.782 68.0001H185.362L189.862 42.4401H174.238L169.522 46.4001L168.01 54.9681L171.322 58.9281H172.51Z" fill="#101010"/>
<path d="M41.015 86.6601H49.475L45.911 107H51.491L55.991 81.4401H36.371L31.871 107H37.451L41.015 86.6601Z" fill="#101010"/>
<path d="M65.6764 81.4401L59.8444 85.9761L56.9644 102.464L61.1764 107H71.8684L77.6644 102.464L80.5444 85.9761L76.3684 81.4401H65.6764ZM74.6044 88.1721L72.4444 100.268L70.5364 101.78H64.3084L62.9044 100.268L65.0644 88.1721L66.9724 86.6601H73.2004L74.6044 88.1721Z" fill="#101010"/>
<path d="M89.8254 81.4401L84.1374 83.2041L84.8934 88.1361L89.6454 86.6601H96.0894L97.1334 87.8841L96.7014 90.3321L95.0454 91.4841H88.2414L87.3414 96.7041H93.9654L95.5854 98.1801L95.1894 100.34L93.4974 101.78H86.7654L82.5174 100.304L80.0334 105.236L85.1094 107H95.0454L100.409 102.428L101.525 96.1641L99.2214 94.0761L101.957 92.1681L103.073 85.7961L99.5094 81.4401H89.8254Z" fill="#101010"/>
<path d="M112.831 82.4481L107.611 80.7201L105.163 85.7601L108.079 86.7321L111.067 94.2201L105.235 101.708L101.995 102.68L102.679 107.72L108.475 105.992L115.747 96.6681H116.791L114.991 107H120.571L122.371 96.6681H123.415L127.375 105.992L132.595 107.72L135.079 102.68L132.127 101.708L128.959 94.2201L134.611 86.7321L137.887 85.7601L137.167 80.7201L131.371 82.4481L124.603 91.4481H123.307L125.071 81.4401H119.491L117.727 91.4481H116.431L112.831 82.4481Z" fill="#101010"/>
<path d="M137.372 107H155.12L156.02 101.78H143.852L144.824 96.2721H155.48L156.416 91.0521H145.76L146.516 86.6601H158.684L159.62 81.4401H141.872L137.372 107Z" fill="#101010"/>
</g>
</svg>
