<svg xmlns="http://www.w3.org/2000/svg" width="282" height="440" fill="none" viewBox="0 0 282 440"><rect width="282" height="440" fill="#fff"/><path fill="#ECECEC" d="M117.583 115.637L121.053 117.974C121.24 119.937 121.521 122.087 122.365 123.863C122.553 124.424 123.491 125.452 123.866 125.919C124.429 126.667 124.897 127.135 125.46 127.789L127.242 129.565C127.805 130.126 128.461 130.78 129.024 131.248C130.43 132.369 131.181 133.024 132.869 134.333C135.494 136.296 138.589 137.978 141.59 139.754C144.31 141.437 143.466 141.437 146.091 139.848C150.593 137.137 152.562 136.015 156.782 132.93C158.189 131.902 161.096 129.191 162.409 127.882C163.253 127.041 164.941 125.078 165.504 124.05C166.816 121.806 166.91 121.526 166.91 118.348V97.2214C164.66 96.1932 162.503 95.1649 160.158 94.2301C152.281 91.4258 143.372 90.1171 135.213 92.1736L136.245 88.341C137.651 88.154 139.527 87.7801 140.934 87.7801C141.496 87.7801 141.59 87.6866 142.153 87.6866C146.466 87.5931 146.56 87.6866 150.78 88.2475L155.094 89.0888C156.501 89.4627 157.907 89.7432 159.22 90.2105C162.315 91.1453 163.909 91.7062 166.91 93.0149L170.474 94.6041V119.563C170.474 121.806 169.911 122.648 169.161 124.424C168.973 124.985 167.848 126.48 167.473 126.948C167.192 127.322 166.816 127.695 166.535 128.069C166.16 128.537 165.972 128.724 165.504 129.098C165.128 129.472 164.941 129.752 164.566 130.219C162.034 132.65 160.815 133.678 157.907 136.015C157.251 136.482 155 138.165 154.344 138.632C153.969 138.913 153.5 139.193 153.125 139.38C150.78 140.876 147.779 142.652 145.341 144.054C143.653 145.083 144.591 145.176 140.09 142.559C138.495 141.624 136.432 140.409 134.932 139.38C132.962 138.072 132.212 137.604 130.055 136.015C128.273 134.613 126.585 133.211 124.897 131.809C123.96 130.967 121.146 127.882 120.396 126.948C120.021 126.48 119.833 126.2 119.552 125.732C117.208 122.18 117.583 120.03 117.583 115.637Z"/><path fill="#ECECEC" d="M121.146 118.067L119.364 116.852C117.583 115.637 117.583 115.637 117.583 115.637C115.801 114.515 115.332 114.328 113.738 112.926C113.362 112.645 113.175 112.365 112.894 111.991C111.299 110.028 110.737 109.654 111.112 107.598C111.206 107.224 111.393 106.756 111.487 106.382C111.956 105.635 112.05 104.793 112.425 103.952L113.644 101.148C113.738 100.961 113.831 100.867 113.925 100.587C114.113 100.213 114.3 99.9323 114.488 99.5584C115.707 97.0345 115.519 97.6888 116.926 95.5388C117.676 94.4171 121.615 89.6497 122.74 88.4344C123.022 88.0605 123.209 87.8736 123.491 87.5931C123.678 87.4062 123.772 87.4062 123.866 87.2192L124.991 85.9105C126.679 83.854 126.96 83.5735 128.461 81.2366C129.305 79.9279 131.556 76.3757 132.587 75.5344C133.244 74.9735 133.806 74.5996 134.65 74.4126C135.4 74.2257 136.62 74.1322 137.464 74.0387C138.589 73.9452 139.245 74.0387 140.371 74.1322C143.184 74.4126 145.528 74.5996 147.685 76.4691C148.811 77.4974 149.467 79.5539 149.467 81.1431C149.467 81.8909 149.749 83.3866 149.28 83.854C148.342 84.5083 144.403 84.9757 143.934 85.0692C143.09 85.1627 138.683 85.817 138.308 85.6301C137.839 85.4431 137.839 85.3496 137.651 84.9757L136.432 82.0779C136.338 81.7974 136.057 81.0496 135.776 81.2366C135.494 81.517 135.494 81.7974 135.588 82.1714C135.682 83.0127 136.151 84.1344 136.338 84.7888C136.901 86.8453 136.432 88.4344 136.338 88.6214L134.369 95.7258C133.994 96.754 132.962 100.026 132.493 101.241C132.4 101.521 132.118 101.989 131.931 102.269C130.805 104.139 128.836 107.037 129.211 109.467C129.586 111.711 131.274 112.832 132.962 113.487C133.712 113.861 135.869 114.235 136.713 114.328C136.713 114.328 133.056 113.113 131.462 111.711C128.086 108.626 134.275 100.961 134.275 100.961C135.119 99.8388 137.464 99.7453 138.12 99.8388C142.715 100.587 144.966 104.887 145.06 105.261C145.06 105.261 148.998 100.587 158.939 100.587C161.94 100.587 165.878 102.456 166.441 102.737V119.563C166.441 121.526 165.972 122.461 165.128 123.769C163.44 126.48 160.721 129.191 158.376 131.061C157.907 131.435 157.626 131.715 156.876 132.369C155.938 133.024 154.625 134.239 153.687 134.706L149.373 125.452C146.56 126.293 147.31 126.2 144.684 126.574C142.434 126.854 139.808 126.761 137.557 126.2C136.713 126.013 135.682 125.732 134.744 125.452C126.96 123.022 121.146 118.067 121.146 118.067Z"/><path fill="#EBEBEB" d="M25 405L26.5518 408.864L30.7063 409.146L27.5108 411.816L28.5267 415.854L25 413.64L21.4733 415.854L22.4892 411.816L19.2937 409.146L23.4482 408.864L25 405Z"/><path fill="#EBEBEB" d="M38 405L39.5518 408.864L43.7063 409.146L40.5108 411.816L41.5267 415.854L38 413.64L34.4733 415.854L35.4892 411.816L32.2937 409.146L36.4482 408.864L38 405Z"/><path fill="#EBEBEB" d="M51 405L52.5518 408.864L56.7063 409.146L53.5108 411.816L54.5267 415.854L51 413.64L47.4733 415.854L48.4892 411.816L45.2937 409.146L49.4482 408.864L51 405Z"/><path fill="#EBEBEB" d="M64 405L65.5518 408.864L69.7063 409.146L66.5108 411.816L67.5267 415.854L64 413.64L60.4733 415.854L61.4892 411.816L58.2937 409.146L62.4482 408.864L64 405Z"/><path fill="#EBEBEB" d="M77 405L78.5518 408.864L82.7063 409.146L79.5108 411.816L80.5267 415.854L77 413.64L73.4733 415.854L74.4892 411.816L71.2937 409.146L75.4482 408.864L77 405Z"/><path fill="#EBEBEB" d="M20 231H228V249H20V231Z"/><path fill="#EBEBEB" d="M20 254H209V272H20V254Z"/><path fill="#EBEBEB" d="M24 345H158L154 366H20L24 345Z"/><rect width="56" height="11" x="92" y="405" fill="#EBEBEB"/><rect width="56" height="11" x="206" y="405" fill="#EBEBEB"/><rect width="56" height="11" x="206" y="390" fill="#EBEBEB"/><path fill="#EBEBEB" d="M20 287H163V298H20V287Z"/></svg>