<svg xmlns="http://www.w3.org/2000/svg" width="27" height="19" fill="none" viewBox="0 0 27 19"><path fill="#101010" fill-rule="evenodd" d="M26.215 9.554L24.215 5.553C24.045 5.214 23.699 5 23.32 5H19.5L18.834 9.001H17.834L18.807 3.164C18.856 2.874 18.774 2.578 18.582 2.353C18.392 2.129 18.113 2 17.819 2H6.347C5.857 2 5.44 2.354 5.36 2.835L5.166 4H8.5C8.776 4 9 4.224 9 4.5C9 4.776 8.776 5 8.5 5H1.5C1.224 5 1 5.224 1 5.5C1 5.776 1.223 6 1.5 6H6.5C6.776 6 7 6.224 7 6.5C7 6.776 6.776 7 6.5 7H1C0.724 7 0.5 7.224 0.5 7.5C0.5 7.776 0.723 8 1 8H7.5C7.776 8 8 8.224 8 8.5C8 8.776 7.776 9 7.5 9H0.5C0.224 9 0 9.224 0 9.5C0 9.776 0.223 10 0.5 10H5.5C5.776 10 6 10.224 6 10.5C6 10.775 5.776 11 5.5 11H3.875L3.194 14.836C3.145 15.126 3.227 15.422 3.418 15.647C3.607 15.871 3.887 16 4.181 16H5C5 14.07 6.57 12.5 8.5 12.5C10.43 12.5 12 14.07 12 16H17C17 14.07 18.57 12.5 20.5 12.5C22.43 12.5 24 14.07 24 16V16.001H24.487C24.976 16.001 25.392 15.647 25.472 15.166L26.306 10.165C26.342 9.957 26.308 9.743 26.215 9.554ZM8.5 18.5C9.88071 18.5 11 17.3807 11 16C11 14.6193 9.88071 13.5 8.5 13.5C7.11929 13.5 6 14.6193 6 16C6 17.3807 7.11929 18.5 8.5 18.5ZM23 16C23 17.3807 21.8807 18.5 20.5 18.5C19.1193 18.5 18 17.3807 18 16C18 14.6193 19.1193 13.5 20.5 13.5C21.8807 13.5 23 14.6193 23 16Z" clip-rule="evenodd"/><path fill="#80C627" d="M14 5.5C14 8.53757 11.5376 11 8.5 11C5.46243 11 3 8.53757 3 5.5C3 2.46243 5.46243 0 8.5 0C11.5376 0 14 2.46243 14 5.5Z"/><path fill="#F7F7F7" fill-rule="evenodd" d="M11.0419 4.21477L7.77906 7.27372L5.97168 5.70033L6.62828 4.94609L7.75423 5.92627L10.358 3.48523L11.0419 4.21477Z" clip-rule="evenodd"/></svg>