<svg width="20" height="20" viewBox="0 0 20 20" fill="none" xmlns="http://www.w3.org/2000/svg">
<path fill-rule="evenodd" clip-rule="evenodd" d="M10 0C15.5228 0 20 4.47715 20 10C20 15.5228 15.5228 20 10 20C4.47715 20 0 15.5228 0 10C0 4.47715 4.47715 0 10 0Z" fill="#7F4DA0"/>
<path fill-rule="evenodd" clip-rule="evenodd" d="M12.6642 8.73417C12.6155 8.33904 12.4941 8.02878 12.2784 7.75397C11.9984 7.4001 11.6405 7.1882 11.1106 7.0625C10.7653 6.97872 10.6258 6.98834 10.5009 7.10242C10.3845 7.2093 10.3618 7.42357 10.4507 7.56232C10.5133 7.66303 10.5854 7.69911 10.786 7.73848C11.0531 7.78763 11.2377 7.85142 11.4056 7.94743C11.7621 8.15324 11.9281 8.4753 11.9458 8.99669C11.9541 9.2415 11.9753 9.31677 12.0608 9.4036C12.2193 9.56232 12.5013 9.53144 12.621 9.34151C12.6649 9.26992 12.6716 9.23876 12.6762 9.07253C12.6792 8.96961 12.6748 8.81643 12.6642 8.73417Z" fill="white"/>
<path fill-rule="evenodd" clip-rule="evenodd" d="M14.0603 9.17805C13.9899 7.96748 13.5164 6.99352 12.669 6.30826C12.1915 5.92322 11.6144 5.65845 10.9818 5.52968C10.7501 5.48363 10.3234 5.4463 10.2502 5.46765C10.1811 5.48743 10.0834 5.56222 10.0399 5.62985C9.99385 5.70319 9.98347 5.86694 10.0228 5.96166C10.0862 6.12001 10.2041 6.17595 10.5344 6.20485C11.0436 6.2494 11.5688 6.4283 11.9657 6.69315C12.4187 6.9947 12.7789 7.40716 13.0119 7.89184C13.2132 8.30827 13.337 8.9084 13.3335 9.44581C13.3324 9.64017 13.3624 9.74994 13.4406 9.83019C13.5586 9.95359 13.7305 9.98057 13.8823 9.89861C14.0505 9.81015 14.0899 9.65486 14.0603 9.17805Z" fill="white"/>
<path fill-rule="evenodd" clip-rule="evenodd" d="M15.6051 13.8387C15.5814 13.7695 15.5262 13.6627 15.4867 13.6014C15.238 13.2259 13.9019 12.1803 13.2348 11.8383C12.8539 11.6426 12.5717 11.5774 12.3625 11.6387C12.1375 11.702 12.0191 11.8067 11.6421 12.2751C11.4901 12.4629 11.3342 12.6389 11.2928 12.6665C11.1901 12.7377 10.9888 12.795 10.8467 12.795C10.5171 12.793 9.91913 12.5795 9.45927 12.2989C9.10205 12.0815 8.64419 11.6921 8.29287 11.3066C7.87839 10.854 7.5962 10.4547 7.37315 10.004C7.08502 9.42489 7.012 9.07106 7.13237 8.81212C7.16198 8.7469 7.20146 8.67774 7.2192 8.65596C7.23698 8.63623 7.42251 8.48401 7.62774 8.31797C8.03038 7.99777 8.0955 7.92464 8.17049 7.70523C8.26523 7.42651 8.23958 7.14189 8.09353 6.85529C7.98103 6.63786 7.68696 6.16347 7.47382 5.85711C7.19159 5.45389 6.48898 4.59209 6.34883 4.47544C6.09621 4.26989 5.77257 4.23429 5.41531 4.37268C5.03838 4.51895 4.3318 5.08821 4.02983 5.48552C3.75747 5.84525 3.65291 6.10022 3.6371 6.43625C3.62329 6.71296 3.64697 6.82761 3.79302 7.18143C4.93575 9.95658 6.64093 12.1724 8.98364 13.9316C10.2073 14.8507 11.4763 15.5504 12.7927 16.0288C13.5604 16.3074 13.894 16.3213 14.2867 16.092C14.4525 15.9932 14.863 15.5721 15.092 15.2658C15.4709 14.7558 15.611 14.5206 15.6505 14.3328C15.6781 14.2043 15.6564 13.981 15.6051 13.8387Z" fill="white"/>
<path fill-rule="evenodd" clip-rule="evenodd" d="M15.4815 9.45686C15.4562 8.77209 15.3409 8.21042 15.1005 7.5842C14.8631 6.9682 14.6229 6.56623 14.1693 6.02256C13.7404 5.5128 13.4072 5.22174 12.8789 4.89774C12.1418 4.44633 11.2447 4.1476 10.2393 4.02197C9.89649 3.97806 9.81893 3.9812 9.71375 4.05138C9.50992 4.18433 9.51264 4.51595 9.71711 4.64691C9.78479 4.68856 9.84485 4.70374 10.1191 4.73964C10.5401 4.79632 10.8108 4.84973 11.132 4.93737C12.3916 5.2817 13.3602 5.98551 14.0078 7.03028C14.5497 7.90111 14.7747 8.77201 14.7427 9.88428C14.7316 10.2603 14.7397 10.3265 14.7972 10.4168C14.9073 10.5852 15.1975 10.6185 15.3465 10.4788C15.4391 10.3936 15.4566 10.3297 15.4749 10.0079C15.4836 9.83998 15.4855 9.59214 15.4815 9.45686Z" fill="white"/>
</svg>
