<svg xmlns="http://www.w3.org/2000/svg" viewBox="0 0 60 60"><rect width="60" height="60" fill="#4C6C91"/><path fill="#fff" fill-rule="evenodd" d="M31.5693 39.8471C31.5693 39.8471 32.1469 39.7841 32.4427 39.4722C32.7134 39.1864 32.704 38.6472 32.704 38.6472C32.704 38.6472 32.668 36.1292 33.8591 35.7574C35.0329 35.3917 36.5402 38.1924 38.1397 39.2694C39.348 40.0837 40.2651 39.9054 40.2651 39.9054L44.5395 39.8471C44.5395 39.8471 46.7745 39.7119 45.7149 37.9866C45.6272 37.8452 45.0967 36.7099 42.5377 34.3778C39.8566 31.9366 40.2166 32.3314 43.4439 28.1081C45.4097 25.5363 46.1954 23.9661 45.9497 23.2948C45.7165 22.6526 44.2703 22.8231 44.2703 22.8231L39.4591 22.8523C39.4591 22.8523 39.1023 22.8047 38.8377 22.9599C38.5795 23.1119 38.412 23.4668 38.412 23.4668C38.412 23.4668 37.6514 25.4564 36.6356 27.1494C34.493 30.7198 33.6369 30.9088 33.2863 30.6875C32.4708 30.1698 32.6743 28.6104 32.6743 27.5027C32.6743 24.0414 33.2096 22.5988 31.6335 22.2255C31.1107 22.101 30.7257 22.0196 29.3875 22.0058C27.6706 21.9889 26.2182 22.0119 25.3949 22.4068C24.8471 22.6695 24.4245 23.2564 24.6828 23.2902C25.0005 23.3316 25.7205 23.4807 26.1024 23.9907C26.5954 24.6498 26.5782 26.1277 26.5782 26.1277C26.5782 26.1277 26.8614 30.2021 25.9161 30.7075C25.2681 31.0547 24.3792 30.3465 22.4681 27.1064C21.4899 25.4472 20.7512 23.6128 20.7512 23.6128C20.7512 23.6128 20.6088 23.2702 20.3537 23.0858C20.0453 22.8631 19.6149 22.7939 19.6149 22.7939L15.0432 22.8231C15.0432 22.8231 14.3561 22.8416 14.1041 23.135C13.8803 23.3946 14.0869 23.9339 14.0869 23.9339C14.0869 23.9339 17.6664 32.1547 21.72 36.2982C25.4372 40.0959 29.6567 39.8471 29.6567 39.8471H31.5693Z" clip-rule="evenodd"/></svg>