<svg xmlns="http://www.w3.org/2000/svg" width="20" height="20" fill="none" viewBox="0 0 20 20"><path fill="#25D366" fill-rule="evenodd" d="M10 20C15.5228 20 20 15.5228 20 10C20 4.47715 15.5228 0 10 0C4.47715 0 0 4.47715 0 10C0 15.5228 4.47715 20 10 20Z" clip-rule="evenodd"/><path fill="#FDFDFD" fill-rule="evenodd" d="M10.3296 15.5649H10.3272C9.33197 15.5645 8.35409 15.3148 7.48557 14.8411L4.33334 15.668L5.17693 12.5867C4.65657 11.6849 4.38275 10.6619 4.3832 9.6139C4.3845 6.33534 7.05202 3.66797 10.3296 3.66797C11.9203 3.66866 13.4133 4.28791 14.5359 5.41189C15.6586 6.53581 16.2765 8.02977 16.2759 9.6186C16.2746 12.8964 13.6081 15.5635 10.3296 15.5649ZM7.63161 13.7627L7.81208 13.8698C8.57091 14.3201 9.44074 14.5584 10.3276 14.5587H10.3296C13.0537 14.5587 15.2708 12.3415 15.2719 9.61635C15.2724 8.29573 14.7588 7.05401 13.8257 6.11981C12.8926 5.1856 11.6517 4.67087 10.3316 4.67041C7.60538 4.67041 5.38824 6.88736 5.38715 9.61234C5.38677 10.5462 5.64807 11.4557 6.1428 12.2426L6.26032 12.4296L5.76103 14.2534L7.63161 13.7627ZM13.3253 11.0324C13.2882 10.9704 13.1891 10.9333 13.0406 10.8589C12.892 10.7845 12.1615 10.4251 12.0253 10.3755C11.8891 10.3259 11.79 10.3011 11.691 10.4498C11.592 10.5986 11.3072 10.9333 11.2206 11.0324C11.1339 11.1315 11.0472 11.144 10.8987 11.0696C10.7501 10.9952 10.2714 10.8384 9.70384 10.3321C9.26215 9.93816 8.96396 9.45163 8.87729 9.30288C8.79062 9.15413 8.86805 9.07375 8.94243 8.99966C9.00928 8.93307 9.09102 8.82608 9.1653 8.73935C9.23959 8.65262 9.26435 8.5906 9.31388 8.49151C9.3634 8.39231 9.33864 8.30557 9.30149 8.2312C9.26435 8.15682 8.96721 7.42549 8.8434 7.12799C8.72278 6.83827 8.6003 6.87752 8.5091 6.87294C8.42254 6.86859 8.32338 6.86768 8.22434 6.86768C8.1253 6.86768 7.96432 6.90486 7.82813 7.05361C7.69195 7.20236 7.30812 7.56182 7.30812 8.2931C7.30812 9.02444 7.84051 9.73094 7.9148 9.83009C7.98909 9.92929 8.96248 11.43 10.453 12.0736C10.8074 12.2267 11.0842 12.3181 11.3 12.3865C11.6559 12.4997 11.9798 12.4837 12.2358 12.4454C12.5213 12.4028 13.1148 12.086 13.2387 11.739C13.3624 11.3918 13.3624 11.0944 13.3253 11.0324Z" clip-rule="evenodd"/></svg>