<svg xmlns="http://www.w3.org/2000/svg" fill="none" viewBox="0 0 24 25"><path fill="#0055A6" fill-rule="evenodd" d="M0.0498047 0V24.7742H23.9982V0H0.0498047Z" clip-rule="evenodd"/><path fill="#fff" fill-rule="evenodd" d="M22.7595 1.23871V23.5355H1.28857V1.23871H22.7595Z" clip-rule="evenodd"/><path fill="#0055A6" fill-rule="evenodd" d="M7.24848 8.11634C7.42603 8.52057 7.71795 8.9343 8.51237 9.49254C8.68992 9.61765 8.88605 9.87778 8.73658 10.2432C8.5867 10.609 8.30592 11.1289 8.47439 11.3304C8.64285 11.5331 9.24115 11.6388 9.72837 11.4365C9.72837 11.4365 9.83119 11.754 10.0091 11.9559C10.0091 11.9559 9.92533 12.1293 9.64455 12.043C9.64455 12.043 9.74737 12.3028 9.60698 12.5819C9.60698 12.5819 9.27913 12.5245 9.13875 12.2156C9.13875 12.2156 9.00745 12.4568 8.74608 12.5427C8.74608 12.5427 8.53054 12.4279 8.57761 11.9848C8.57761 11.9848 8.41823 12.3796 7.93183 12.4465C7.93183 12.4465 7.65106 12.081 8.01606 11.5897C8.01606 11.5897 7.75346 11.8308 7.27697 11.7156C7.27697 11.7156 7.20141 11.4654 7.63206 11.1181C7.63206 11.1181 7.14484 11.0996 6.95821 10.6759C6.95821 10.6759 7.16383 10.4162 7.66964 10.474C7.66964 10.474 7.20141 10.3679 7.09859 9.79025C7.09859 9.79025 7.43552 9.56893 7.96941 9.92485C7.96941 9.92485 7.87527 9.74235 7.65106 9.55943C7.42561 9.37693 7.15475 8.86658 7.24848 8.11634ZM9.20646 13.9213C9.14111 13.8325 9.08637 13.7363 9.04337 13.6348C9.12719 14.3355 9.15733 14.8078 9.52481 15.2608C9.52481 15.2608 9.74695 14.9573 9.60368 14.2199C9.53301 14.1991 9.46611 14.1672 9.40548 14.1253C9.40548 14.1253 9.48972 14.4247 9.43728 14.7265C9.43728 14.7261 9.30474 14.6266 9.20646 13.9213ZM8.57059 13.8487C8.50683 13.7651 8.44915 13.6771 8.398 13.5852C8.36703 13.9915 8.26298 15.0622 8.61147 15.3971C8.61147 15.3971 8.85054 15.2174 8.93477 13.6567C8.8844 13.7438 8.79604 13.8367 8.75268 13.8875C8.75268 13.8875 8.8109 14.383 8.63831 14.7323C8.6379 14.7323 8.46448 14.5969 8.57059 13.8487ZM7.73983 14.6666C8.03299 14.3058 8.12094 13.2248 8.12094 13.2248C8.16141 13.1971 8.20146 13.1661 8.24275 13.1327C8.25962 13.1191 8.27574 13.1047 8.29106 13.0893C8.29064 13.129 8.29271 13.1694 8.29601 13.2103C8.2539 13.8606 8.20394 14.5312 8.00657 14.8652C7.81292 15.1927 7.45782 15.362 7.45782 15.362C7.12378 14.7521 7.52719 13.9325 7.86453 13.3635C7.90582 13.347 7.94752 13.3272 7.99088 13.3045C7.87196 13.7434 7.64734 14.2645 7.73983 14.6666ZM6.91279 12.79C6.91031 12.8602 6.92311 12.9163 6.93219 12.9465C6.93591 12.9576 6.94045 12.9737 6.9483 12.9898C6.66835 13.2727 6.46148 13.5415 6.04734 14.1336C5.63237 14.7261 4.97627 14.7492 4.97627 14.7492C5.03903 14.2702 5.16621 13.8908 5.51718 13.4828C5.86856 13.0741 6.31738 12.7012 6.64812 12.4535C6.73276 12.4943 6.84383 12.5195 6.98381 12.5026C6.99413 12.5014 7.00486 12.5001 7.01643 12.4981C6.97645 12.5499 6.94712 12.6091 6.93013 12.6723C6.68032 12.8197 5.95527 13.1984 5.66087 13.8078C5.66128 13.8078 6.12043 13.6604 6.91279 12.79ZM6.39212 12.1929L6.41978 12.1426C6.42844 12.1264 6.43809 12.1108 6.44868 12.0959C6.17947 12.2041 5.21823 12.5769 4.90732 12.7421C4.5964 12.9085 4.14634 13.2851 3.9019 14.0498C3.9019 14.0498 4.55015 14.11 5.08569 13.6546C5.6204 13.1983 6.2443 12.5625 6.51062 12.3597C6.48817 12.338 6.46747 12.3145 6.44868 12.2895C6.44868 12.2895 5.72445 12.9498 4.95852 13.2343C4.95852 13.2343 5.12285 12.9287 5.42551 12.7066C5.79382 12.4374 6.07005 12.3465 6.39212 12.1929ZM5.84295 11.7429C5.85286 11.7164 5.86401 11.6913 5.87475 11.6669C5.55764 11.7338 4.76487 11.8308 4.4106 11.9423C4.05715 12.0542 3.41632 12.3209 3.03604 13.0658C3.03604 13.0658 3.59429 13.2434 4.64678 12.7334C5.69885 12.2243 6.02876 12.119 6.23026 12.0645C6.11241 12.0567 5.99815 12.0207 5.89705 11.9596C5.47712 12.1512 4.91558 12.3796 4.35816 12.394C4.35816 12.394 4.63398 12.1942 4.92177 12.0695C5.2208 11.9392 5.52862 11.83 5.84295 11.7429ZM5.86938 11.2061C5.97261 11.2561 6.05147 11.2812 6.18608 11.2957C6.10689 11.3478 6.03744 11.4133 5.98086 11.4893C5.61008 11.5992 4.97751 11.7193 3.93493 11.797C2.89152 11.8746 2.33534 11.6768 2.33534 11.6768C2.69911 11.4485 3.27842 11.2164 3.67026 11.1388C4.06211 11.0612 5.09106 11.069 5.54195 11.0062C5.54773 11.0108 5.60223 11.0574 5.69018 11.1124C5.31114 11.1475 4.50267 11.1867 4.08523 11.4035C4.08523 11.4035 4.8557 11.5096 5.86938 11.2061ZM5.79134 10.5896C5.84378 10.5574 5.90737 10.526 5.98458 10.4959C5.4573 10.3316 4.73142 10.0694 3.64136 9.99546C2.84115 9.94137 2.26267 9.98844 1.96414 10.0681C1.96414 10.0681 2.6925 10.5962 3.52533 10.7829C4.35815 10.9695 5.0349 10.851 5.52997 10.8551C5.5657 10.796 5.6084 10.7414 5.65715 10.6924C5.0795 10.6962 4.11661 10.5421 3.77224 10.4245C3.77266 10.4249 4.61209 10.2444 5.79134 10.5896ZM5.78845 9.95128C5.79134 9.96614 5.85245 10.2725 6.19764 10.4422C5.45689 10.1082 3.99563 9.91577 3.21111 9.58049C2.14954 9.12712 1.9563 8.56103 1.9563 8.56103C2.8746 8.53626 3.61699 8.76707 4.18928 8.9471C4.85942 9.1585 5.8797 9.54994 6.23686 9.71345C6.10308 9.71923 5.95609 9.75845 5.83263 9.84351C5.33343 9.64656 5.10138 9.56398 4.64884 9.4335C4.29168 9.33069 4.02701 9.31045 3.80445 9.28816C3.80445 9.28816 4.11826 9.50204 4.63645 9.67298C5.14969 9.84103 5.37225 9.86911 5.78845 9.95128ZM5.7323 9.11804C5.76203 9.17254 5.84998 9.30178 5.88466 9.35298C4.7116 9.15107 3.42252 8.23897 3.02407 7.67412C2.6252 7.10885 2.73875 6.26447 2.73875 6.26447C3.12523 6.34498 3.9659 7.09027 4.18308 7.31365C4.40068 7.53745 5.05844 8.1952 5.51305 8.5631L5.65591 8.98715C5.28004 8.67963 4.89958 8.37776 4.51465 8.08165C4.29292 7.90947 3.96053 7.66627 3.63062 7.54983C3.63062 7.54983 3.93452 7.95737 4.17978 8.15556C4.43383 8.36491 4.70418 8.55365 4.98824 8.72C5.19924 8.8385 5.30618 8.90622 5.7323 9.11804Z" clip-rule="evenodd"/><path fill="#0055A6" fill-rule="evenodd" d="M9.03963 12.4933C9.07514 12.4619 9.10569 12.4301 9.1317 12.4008C9.18579 12.471 9.36623 12.7043 9.45501 12.9355C9.52314 13.1333 9.59457 13.4025 9.6309 13.5573C9.66641 13.7109 9.77377 14.0305 9.83818 14.1412C9.83818 14.1412 9.55245 14.1779 9.34104 13.9244C9.13335 13.675 9.06234 13.4244 9.03013 13.1667C9.0068 12.9427 9.00998 12.7166 9.03963 12.4933ZM8.58915 12.5321C8.61795 12.5745 8.65537 12.6104 8.69898 12.6374L8.73697 12.6576L8.77743 12.6444C8.81294 12.6324 8.84556 12.6188 8.87653 12.6031C8.91741 12.722 8.93475 12.7794 8.94507 12.8806C8.9587 13.0144 8.98471 13.2258 8.93558 13.3984C8.87571 13.609 8.75348 13.737 8.68577 13.8187C8.68577 13.8187 8.49955 13.6073 8.44546 13.4327C8.38972 13.2501 8.36948 13.0375 8.43844 12.8203C8.47005 12.7156 8.52118 12.6178 8.58915 12.5321ZM7.94543 12.5519C8.10668 12.5316 8.25982 12.4696 8.38972 12.3719C8.41449 12.4413 8.45165 12.5346 8.42399 12.6663C8.39591 12.7984 8.30755 12.945 8.17914 13.0507C7.98631 13.2089 7.72825 13.3579 7.44376 13.3121C7.44376 13.3121 7.37852 13.0928 7.94543 12.5519ZM7.7299 12.1849C7.75302 12.3806 7.84386 12.5032 7.85129 12.5127C7.7844 12.5945 7.54409 13.0193 7.04241 12.9475C7.04241 12.9475 6.90698 12.6589 7.24061 12.4289C7.46729 12.2732 7.57464 12.2414 7.7299 12.1849ZM7.77366 11.8223C7.6024 11.8648 7.42322 11.8635 7.25258 11.8186L7.19519 11.805L7.17826 11.7472C6.92061 11.9635 6.61465 11.999 6.50977 12.1939C6.50977 12.1939 6.63818 12.4392 6.97181 12.3979C7.12185 12.3818 7.26702 12.3352 7.39838 12.2609C7.52975 12.1866 7.64453 12.0863 7.73568 11.966C7.74311 11.9305 7.75756 11.8665 7.77366 11.8223ZM7.19519 11.5184C7.24308 11.4462 7.2757 11.3339 7.37563 11.2203C7.15085 11.1785 6.92004 11.1815 6.6964 11.229C6.38837 11.2893 6.07374 11.3636 5.91643 11.8454C5.91643 11.8454 6.11421 12.0185 6.47384 11.9433C6.77774 11.8793 7.04365 11.7443 7.19519 11.5184ZM7.06471 10.9953C6.9788 10.9192 6.91059 10.8252 6.86487 10.7199L6.83844 10.66C6.57212 10.5481 6.2934 10.4903 6.0213 10.5948C5.74961 10.6996 5.67694 10.8206 5.6084 10.9247C5.6084 10.9247 5.90982 11.1844 6.25707 11.1943C6.60474 11.2054 6.92515 11.1026 7.06471 10.9953ZM7.14522 10.4321C7.19106 10.4139 7.24309 10.3974 7.3013 10.3854C7.18321 10.2785 7.06677 10.1158 7.01021 9.87136C6.88675 9.90109 6.59483 9.90109 6.46724 9.85071C6.33924 9.80034 6.08696 9.79704 5.89041 9.93164C5.89041 9.93164 5.95648 10.2855 6.40159 10.4069C6.81945 10.5204 6.97552 10.4911 7.14522 10.4321ZM6.98502 9.74047L7.04407 9.70207C7.05191 9.6967 7.15142 9.63394 7.32154 9.62073C7.17826 9.51048 6.83761 9.21649 6.59482 9.07569C6.33139 8.92333 5.8933 8.72184 5.67075 8.69169C5.67075 8.69169 5.87968 9.25613 6.12329 9.48323C6.37516 9.719 6.55189 9.80653 6.98502 9.74047ZM7.43508 9.48117C7.32856 9.3383 7.24474 9.14217 7.1828 8.91012C7.13201 8.72142 7.01764 8.25319 6.9491 8.1318C6.88055 8.0104 6.63446 7.58553 6.15302 7.45422C6.15302 7.45422 6.02461 8.00669 6.26698 8.44478C6.47508 8.82217 6.90368 9.22021 7.43508 9.48117ZM10.1041 12.0527C10.1644 12.1138 10.2098 12.1485 10.3176 12.2038C10.3176 12.2038 10.4707 12.5049 10.2854 12.8686C10.1288 13.1746 9.98905 13.4889 9.86667 13.81C9.86667 13.81 9.76675 13.7956 9.65609 13.2254C9.58053 12.8389 9.48597 12.7431 9.38688 12.611C9.49464 12.6671 9.5826 12.6845 9.5892 12.6857L9.66435 12.6989L9.69821 12.6304C9.76976 12.4889 9.79765 12.3294 9.77831 12.1721C9.95091 12.1762 10.0434 12.0866 10.0781 12.0403C10.0814 12.0362 10.0847 12.0325 10.0867 12.0288L10.1041 12.0527Z" clip-rule="evenodd"/><path fill="#0055A6" fill-rule="evenodd" d="M6.02127 7.68619C6.01932 7.74412 6.01904 7.80209 6.02044 7.86003L6.02994 7.99587C5.74669 7.62343 5.40646 7.17337 5.0815 6.75964C4.85895 6.47556 4.6719 6.30379 4.46256 6.16547C4.63887 6.69151 4.95309 7.11102 5.17688 7.32036C5.39985 7.52929 5.72233 7.88315 6.03696 8.09868L6.06751 8.20521C6.09188 8.30307 6.12863 8.40299 6.18106 8.49755C6.25456 8.63009 6.35118 8.76139 6.46514 8.88733C6.36567 8.83747 6.26503 8.78997 6.16331 8.74488L6.06586 8.70317C5.20001 8.23081 4.34075 7.25306 3.99309 6.57135C3.64542 5.89089 3.78994 5.10101 3.88243 4.67737C4.2751 5.02008 4.84119 5.69517 5.08811 6.06225C5.39118 6.51272 5.77972 7.15107 6.02044 7.67009V7.68619H6.02127ZM18.1652 10.5897C18.1036 10.5527 18.0387 10.5214 17.9715 10.496C18.4992 10.3317 19.2251 10.0695 20.3156 9.99556C21.1158 9.94147 21.693 9.98854 21.9924 10.0682C21.9924 10.0682 21.264 10.5963 20.4304 10.783C19.5975 10.9696 18.9212 10.8511 18.4261 10.8552C18.3935 10.8053 18.3572 10.7491 18.2989 10.6925C18.8766 10.6963 19.8395 10.5422 20.1834 10.4246C20.1838 10.425 19.3448 10.2445 18.1652 10.5897ZM18.1676 9.95138C18.1652 9.96624 18.1036 10.2726 17.7585 10.4423C18.4996 10.1083 19.9609 9.91587 20.7454 9.58059C21.807 9.12722 22.0002 8.56114 22.0002 8.56114C21.0823 8.53636 20.3391 8.76717 19.7672 8.9472C19.0971 9.15861 18.0764 9.55004 17.7196 9.71355C17.8534 9.71933 18 9.75855 18.1235 9.84361C18.6231 9.64666 18.8547 9.56408 19.3077 9.4336C19.6644 9.33079 19.9295 9.31055 20.1521 9.28826C20.1521 9.28826 19.8374 9.50214 19.3196 9.67308C18.8064 9.84114 18.5851 9.86921 18.1676 9.95138ZM18.2238 9.11814C18.1941 9.17265 18.1065 9.30188 18.0723 9.35308C19.2453 9.15117 20.5344 8.23907 20.9333 7.67422C21.3317 7.10896 21.2178 6.26457 21.2178 6.26457C20.8309 6.34508 19.991 7.09037 19.7738 7.31375C19.5562 7.53755 18.8981 8.1953 18.4439 8.5632L18.301 8.98725C18.6904 8.66519 19.1537 8.30472 19.4423 8.08175C19.664 7.90957 19.9956 7.66637 20.3267 7.54994C20.3267 7.54994 20.0224 7.95747 19.7771 8.15566C19.4931 8.38606 19.2057 8.58591 18.9683 8.7201C18.7585 8.83861 18.6499 8.90632 18.2238 9.11814ZM17.9397 7.68619C17.9405 7.73863 17.9422 7.79809 17.9405 7.86003L17.9302 7.99587C18.2143 7.62343 18.5545 7.17337 18.8795 6.75964C19.102 6.47556 19.2891 6.30379 19.498 6.16547C19.3221 6.69151 19.0075 7.11102 18.7841 7.32036C18.5611 7.52929 18.2391 7.88315 17.924 8.09868L17.8935 8.20521C17.8685 8.3072 17.8304 8.40548 17.7799 8.49755C17.7001 8.63766 17.6048 8.7684 17.4959 8.88733C17.5875 8.8415 17.6928 8.79112 17.7977 8.74488L17.8951 8.70317C18.7606 8.23081 19.6202 7.25306 19.9679 6.57135C20.3147 5.89089 20.1711 5.10101 20.0786 4.67737C19.6855 5.02008 19.1198 5.69517 18.8725 6.06225C18.569 6.51272 18.1813 7.15107 17.9405 7.67009V7.68619H17.9397ZM7.12826 13.0626C6.77151 13.4301 6.01879 14.253 6.08981 15.1469C6.08981 15.1469 6.78844 14.9219 7.07624 14.3946C7.36403 13.8682 7.54199 13.5379 7.66339 13.4189C7.58651 13.4298 7.50846 13.4292 7.43175 13.4173L7.36899 13.4066C7.19144 13.7385 6.84005 14.2827 6.52377 14.4723C6.52377 14.4723 6.44325 14.0321 7.37311 13.139C7.38591 13.1022 7.40491 13.0614 7.43133 13.0151C7.34586 13.0457 7.24924 13.0647 7.13982 13.0618L7.12826 13.0626ZM16.7084 8.11644C16.5301 8.52067 16.2381 8.9344 15.4445 9.49264C15.267 9.61775 15.0709 9.87788 15.2203 10.2433C15.3702 10.6091 15.651 11.129 15.4817 11.3305C15.3137 11.5332 14.7149 11.6389 14.2281 11.4366C14.2281 11.4366 14.1257 11.7541 13.9474 11.956C13.9474 11.956 14.0316 12.1294 14.3124 12.0431C14.3124 12.0431 14.2096 12.3029 14.3499 12.582C14.3499 12.582 14.6774 12.5246 14.8178 12.2157C14.8178 12.2157 14.9486 12.4569 15.2108 12.5428C15.2108 12.5428 15.426 12.428 15.3793 11.9849C15.3793 11.9849 15.5387 12.3797 16.0247 12.4466C16.0247 12.4466 16.3059 12.0811 15.9409 11.5898C15.9409 11.5898 16.2026 11.8309 16.68 11.7157C16.68 11.7157 16.7551 11.4655 16.3244 11.1182C16.3244 11.1182 16.8108 11.0997 16.9987 10.676C16.9987 10.676 16.7923 10.4163 16.2873 10.4741C16.2873 10.4741 16.7551 10.368 16.8579 9.79035C16.8579 9.79035 16.5214 9.56903 15.9883 9.92495C15.9883 9.92495 16.0817 9.74245 16.3063 9.55954C16.5301 9.37703 16.8018 8.86668 16.7084 8.11644ZM14.7496 13.9214C14.8207 13.8252 14.8735 13.7286 14.9127 13.6349C14.8297 14.3356 14.7992 14.8079 14.4313 15.2609C14.4313 15.2609 14.2096 14.9574 14.3532 14.22C14.4148 14.2018 14.4837 14.1721 14.551 14.1254C14.551 14.1254 14.4668 14.4248 14.5192 14.7266C14.5188 14.7262 14.6518 14.6267 14.7496 13.9214ZM15.3855 13.8488C15.4498 13.7654 15.5078 13.6774 15.5589 13.5853C15.5891 13.9916 15.6931 15.0623 15.345 15.3972C15.345 15.3972 15.1056 15.2175 15.0221 13.6568C15.0721 13.7439 15.1609 13.8368 15.2034 13.8876C15.2034 13.8876 15.1456 14.3831 15.3186 14.7324C15.319 14.7324 15.492 14.597 15.3855 13.8488ZM16.2167 14.6667C15.9231 14.3059 15.8356 13.2249 15.8356 13.2249C15.7756 13.1839 15.7186 13.1386 15.665 13.0894C15.6654 13.1291 15.6638 13.1695 15.6597 13.2104C15.7026 13.8607 15.7526 14.5313 15.9499 14.8653C16.1436 15.1928 16.4987 15.3621 16.4987 15.3621C16.8327 14.7522 16.4289 13.9326 16.0928 13.3636C16.0493 13.3467 16.007 13.3269 15.966 13.3046C16.0845 13.7435 16.3088 14.2646 16.2167 14.6667ZM17.0433 12.7901C17.0458 12.8603 17.033 12.9164 17.0235 12.9466C17.0202 12.9577 17.0161 12.9738 17.0082 12.9899C17.2873 13.2728 17.495 13.5416 17.9092 14.1337C18.3237 14.7262 18.9802 14.7493 18.9802 14.7493C18.9166 14.2703 18.7899 13.8909 18.4389 13.4829C18.0875 13.0742 17.6383 12.7013 17.3084 12.4536C17.2229 12.4945 17.1123 12.5196 16.9731 12.5027C16.9621 12.5016 16.951 12.5001 16.9401 12.4982C16.9843 12.5572 17.0111 12.6167 17.0264 12.6724C17.2762 12.8198 18.0021 13.1985 18.2956 13.8079C18.2956 13.8079 17.8361 13.6605 17.0433 12.7901ZM17.564 12.193L17.5367 12.1427C17.5281 12.1265 17.5184 12.1109 17.5078 12.096C17.7766 12.2042 18.7383 12.577 19.0492 12.7422C19.3601 12.9086 19.8098 13.2852 20.0546 14.0499C20.0546 14.0499 19.4064 14.1101 18.8708 13.6547C18.3353 13.1985 17.7118 12.5626 17.4455 12.3598C17.468 12.3381 17.4889 12.3146 17.5078 12.2897C17.5078 12.2897 18.2321 12.9499 18.9972 13.2344C18.9972 13.2344 18.8337 12.9288 18.531 12.7067C18.1623 12.4375 17.8869 12.3466 17.564 12.193ZM18.1136 11.743C18.1034 11.7173 18.0925 11.692 18.0809 11.667C18.3985 11.7339 19.1912 11.8309 19.5455 11.9424C19.8998 12.0539 20.5398 12.321 20.9196 13.0659C20.9196 13.0659 20.3622 13.2435 19.3093 12.7335C18.2568 12.2244 17.9277 12.1191 17.7263 12.0646C17.8869 12.0522 18 11.9965 18.0595 11.9597C18.4798 12.1513 19.0405 12.3797 19.5979 12.3941C19.5979 12.3941 19.3225 12.1943 19.0339 12.0696C18.7352 11.9391 18.4277 11.83 18.1136 11.743ZM18.0875 11.2062C17.9843 11.2562 17.905 11.2813 17.7704 11.2958C17.8439 11.3441 17.9137 11.4065 17.9761 11.4894C18.3468 11.5993 18.979 11.7194 20.022 11.7971C21.065 11.8747 21.6212 11.6769 21.6212 11.6769C21.2582 11.4486 20.6781 11.2165 20.2867 11.1389C19.8948 11.0613 18.8655 11.0691 18.4141 11.0063C18.3674 11.0453 18.3179 11.0808 18.2659 11.1125C18.6458 11.1476 19.4538 11.1868 19.8713 11.4036C19.8709 11.4036 19.1012 11.5097 18.0875 11.2062Z" clip-rule="evenodd"/><path fill="#0055A6" fill-rule="evenodd" d="M14.9141 12.4933C14.8814 12.4646 14.8506 12.4337 14.8221 12.4008C14.7671 12.471 14.5875 12.7043 14.4987 12.9355C14.4302 13.1333 14.3584 13.4025 14.3229 13.5573C14.2869 13.7109 14.18 14.0305 14.1156 14.1412C14.1156 14.1412 14.4013 14.1779 14.6123 13.9244C14.82 13.675 14.8914 13.4244 14.9228 13.1667C14.9462 12.9427 14.9433 12.7167 14.9141 12.4933ZM15.3638 12.5321C15.3352 12.5743 15.2983 12.6102 15.2552 12.6374L15.2172 12.6576L15.1759 12.6444C15.1422 12.6331 15.1093 12.6193 15.0776 12.6031C15.0368 12.722 15.0194 12.7794 15.0091 12.8806C14.9955 13.0144 14.969 13.2258 15.0186 13.3984C15.0785 13.609 15.1999 13.737 15.268 13.8187C15.268 13.8187 15.455 13.6073 15.5083 13.4327C15.5645 13.2501 15.5851 13.0375 15.5157 12.8203C15.4839 12.7154 15.4323 12.6176 15.3638 12.5321ZM16.0083 12.5519C15.8468 12.5316 15.6934 12.4696 15.5632 12.3719C15.5388 12.4413 15.5021 12.5346 15.5302 12.6663C15.5574 12.7984 15.6462 12.945 15.7746 13.0507C15.9666 13.2089 16.2255 13.3579 16.51 13.3121C16.51 13.3121 16.5752 13.0928 16.0083 12.5519ZM16.2239 12.1849C16.2011 12.3806 16.1099 12.5032 16.1029 12.5127C16.1694 12.5945 16.4097 13.0193 16.9113 12.9475C16.9113 12.9475 17.0468 12.6589 16.7136 12.4289C16.4861 12.2732 16.3795 12.2414 16.2239 12.1849ZM16.1801 11.8223C16.3139 11.857 16.4877 11.8706 16.7008 11.8186L16.7577 11.805L16.7755 11.7472C17.0327 11.9635 17.3383 11.999 17.4436 12.1939C17.4436 12.1939 17.3152 12.4392 16.9819 12.3979C16.8318 12.3818 16.6866 12.3352 16.5552 12.2609C16.4237 12.1867 16.3089 12.0863 16.2177 11.966C16.2085 11.9173 16.196 11.8693 16.1801 11.8223ZM16.759 11.5184C16.7107 11.4462 16.678 11.3339 16.5781 11.2203C16.803 11.1785 17.034 11.1815 17.2578 11.229C17.5658 11.2893 17.8804 11.3636 18.0373 11.8454C18.0373 11.8454 17.8395 12.0185 17.4803 11.9433C17.1756 11.8793 16.9101 11.7443 16.759 11.5184ZM16.889 10.9953C16.9667 10.9263 17.0369 10.8367 17.0885 10.7199L17.1145 10.66C17.382 10.5481 17.6599 10.4903 17.9316 10.5948C18.2041 10.6996 18.276 10.8206 18.3454 10.9247C18.3454 10.9247 18.0439 11.1844 17.6963 11.1943C17.3486 11.2054 17.0282 11.1026 16.889 10.9953ZM16.8077 10.4321C16.7576 10.4119 16.7058 10.3963 16.6529 10.3854C16.771 10.2785 16.8866 10.1158 16.9431 9.87136C17.0674 9.90109 17.3593 9.90109 17.4869 9.85071C17.6149 9.80034 17.8672 9.79704 18.0633 9.93164C18.0633 9.93164 17.9989 10.2855 17.5522 10.4069C17.1335 10.5204 16.9786 10.4911 16.8077 10.4321ZM16.9687 9.74047L16.9101 9.70207C16.9018 9.6967 16.8019 9.63394 16.6318 9.62073C16.7759 9.51048 17.1166 9.21649 17.3593 9.07569C17.6224 8.92333 18.06 8.72184 18.2834 8.69169C18.2834 8.69169 18.0745 9.25613 17.8309 9.48323C17.5786 9.719 17.4019 9.80653 16.9687 9.74047ZM16.5183 9.48117C16.6248 9.3383 16.7094 9.14217 16.7714 8.91012C16.8217 8.72142 16.9365 8.25319 17.0051 8.1318C17.074 8.0104 17.3197 7.58553 17.8011 7.45422C17.8011 7.45422 17.9291 8.00669 17.6868 8.44478C17.4774 8.82217 17.0505 9.22021 16.5183 9.48117ZM13.8501 12.0527C13.7887 12.1156 13.7163 12.1668 13.6366 12.2038C13.6366 12.2038 13.4834 12.5049 13.6688 12.8686C13.8542 13.2328 14.0123 13.6044 14.0871 13.81C14.0871 13.81 14.187 13.7956 14.2981 13.2254C14.3732 12.8389 14.4682 12.7431 14.5669 12.611C14.503 12.645 14.4348 12.6702 14.3641 12.6857L14.2898 12.6989L14.2551 12.6304C14.184 12.4888 14.1563 12.3293 14.1754 12.1721C14.0029 12.1762 13.9108 12.0866 13.8753 12.0403L13.867 12.0288L13.8501 12.0527Z" clip-rule="evenodd"/><path fill="#0055A6" fill-rule="evenodd" d="M16.8338 13.0626C17.1906 13.4301 17.9433 14.253 17.8723 15.147C17.8723 15.147 17.1732 14.9219 16.8854 14.3946C16.5981 13.8682 16.4197 13.5379 16.2987 13.419C16.3763 13.4297 16.4535 13.4293 16.5303 13.4173L16.5931 13.4066C16.7706 13.7385 17.1216 14.2827 17.4383 14.4723C17.4383 14.4723 17.5184 14.0321 16.589 13.139C16.573 13.0962 16.5536 13.0547 16.5307 13.0151C16.6154 13.0457 16.7124 13.0647 16.8218 13.0618L16.8338 13.0626ZM11.4351 5.93756C11.4351 5.87191 11.68 5.81823 11.9806 5.81823C12.282 5.81823 12.5264 5.87191 12.5264 5.93756C12.5264 6.00363 12.282 6.05689 11.9806 6.05689C11.68 6.05689 11.4351 6.00404 11.4351 5.93756ZM9.58242 6.58376C9.58242 6.54742 9.73974 6.51852 9.93504 6.51852C10.1287 6.51852 10.286 6.54742 10.286 6.58376C10.286 6.61968 10.1287 6.64899 9.93504 6.64899C9.73974 6.64899 9.58242 6.61968 9.58242 6.58376ZM12.0879 6.20099C12.0882 6.2153 12.0856 6.22953 12.0804 6.24284C12.0751 6.25615 12.0672 6.26828 12.0573 6.27853C12.0473 6.28879 12.0354 6.29696 12.0222 6.30257C12.009 6.30819 11.9949 6.31113 11.9806 6.31124C11.9663 6.31108 11.9521 6.3081 11.939 6.30246C11.9259 6.29683 11.914 6.28866 11.904 6.27841C11.894 6.26817 11.8862 6.25606 11.8809 6.24277C11.8756 6.22949 11.873 6.21529 11.8732 6.20099C11.8732 6.1403 11.9211 6.09075 11.9806 6.09075C12.0404 6.09075 12.0879 6.1403 12.0879 6.20099ZM11.3959 5.82154C11.2142 5.3756 11.0932 5.04776 11.0978 4.93751C11.1011 4.87021 11.1779 4.82107 11.2501 4.79836C11.3224 4.77524 11.3868 4.77111 11.4351 4.80868C11.5297 4.88342 11.6176 5.48419 11.6502 5.73441C11.561 5.74818 11.4749 5.77768 11.3959 5.82154ZM11.7275 5.7245C11.7733 5.71955 11.8212 5.71625 11.8687 5.71501C11.8398 5.47635 11.7597 5.07831 11.7122 4.92141C11.6651 4.76492 11.6044 4.65178 11.5049 4.62329C11.5049 4.62329 11.5825 4.84172 11.6246 5.06799C11.6668 5.29426 11.7002 5.51021 11.7275 5.7245ZM11.1527 6.52182C11.3525 6.47268 11.5577 6.25261 11.5577 6.25261C11.2349 6.30092 11.1527 6.52182 11.1527 6.52182ZM11.4525 6.50159C11.1737 6.66923 10.8604 6.6428 10.8604 6.6428C10.9206 6.52967 10.9776 6.42438 11.1523 6.29596C11.3273 6.16714 11.6118 6.13493 11.7241 6.15103C11.6994 6.23733 11.585 6.4219 11.4525 6.50159ZM10.4107 6.97436V6.95083C10.1357 6.98675 9.81158 6.97147 9.81158 6.97147C9.82892 7.07676 9.87145 7.15645 9.94371 7.20559C9.96147 6.97684 10.4107 6.97436 10.4107 6.97436ZM9.49943 6.67088C9.49943 6.67088 9.84626 6.80425 10.1939 6.78649C10.5408 6.76832 11.1804 6.76089 11.3876 6.65808C11.3876 6.65808 11.3529 6.79145 11.1882 6.86907C11.1882 6.86907 11.2757 6.86907 11.3608 6.94628C11.3608 6.94628 11.3108 7.05653 11.1634 7.11557C11.1634 7.11557 11.4281 7.398 11.7101 7.37777C11.7101 7.37777 11.58 7.54458 11.2902 7.48017C11.0012 7.41617 10.9083 7.24936 10.8583 7.18494C10.8583 7.18494 10.8954 7.34391 10.8777 7.40874C10.8777 7.40874 10.7505 7.40089 10.651 7.27207C10.651 7.27207 10.7237 7.40089 10.7381 7.50866C10.7381 7.50866 10.6584 7.51898 10.5156 7.43145C10.5156 7.43145 10.5453 7.51072 10.5511 7.60321C10.5511 7.60321 10.2158 7.49256 10.0535 7.33648C10.0535 7.33648 10.0511 7.44383 10.0593 7.50618C10.0589 7.50618 9.53906 7.45209 9.49943 6.67088ZM9.41974 6.72538C9.43171 6.89467 9.47465 7.0619 9.53163 7.17999C9.53163 7.17999 9.32683 7.02102 9.27687 6.88765C9.22691 6.75305 9.21494 6.66097 9.41974 6.72538ZM9.0089 7.36703C9.02021 7.36698 9.0314 7.36469 9.04183 7.3603C9.05225 7.35591 9.06171 7.3495 9.06965 7.34144C9.0776 7.33338 9.08387 7.32384 9.08811 7.31335C9.09235 7.30286 9.09448 7.29164 9.09437 7.28032C9.09459 7.2574 9.08572 7.23532 9.0697 7.21891C9.05369 7.20251 9.03182 7.19311 9.0089 7.19279C8.98612 7.19333 8.96447 7.20282 8.94863 7.2192C8.93279 7.23558 8.92403 7.25754 8.92425 7.28032C8.92425 7.32863 8.96265 7.36703 9.0089 7.36703ZM9.50975 7.26463C9.64683 7.32863 9.76864 7.48017 9.76864 7.48017C9.56136 7.5293 9.46846 7.59083 9.46846 7.59083C9.36571 7.50842 9.23782 7.46372 9.10611 7.46417C8.9744 7.46462 8.84682 7.5102 8.74464 7.5933C8.52952 7.46737 8.4874 7.16182 8.59517 6.99996C8.70252 6.8381 8.9449 6.86659 9.05968 6.89426C9.13235 7.13127 9.3867 7.20765 9.50975 7.26463ZM9.81406 7.53426C9.81406 7.53426 9.9594 7.73204 10.0639 7.81916C10.0639 7.81916 9.52916 7.81421 9.39455 8.28987C9.39455 8.28987 9.20957 7.99919 9.34459 7.80925C9.48993 7.60404 9.62412 7.57844 9.81406 7.53426Z" clip-rule="evenodd"/><path fill="#0055A6" fill-rule="evenodd" d="M10.3974 7.65228C10.3974 7.65228 10.57 7.70389 10.627 7.71917C10.627 7.71917 10.6299 7.61635 10.6249 7.56763C10.6773 7.58002 10.7418 7.5986 10.7971 7.60314C10.7971 7.60314 10.9693 7.9987 11.1039 8.15808C11.1039 8.15808 11.1117 8.24562 11.037 8.37899C11.037 8.37899 10.9395 8.14528 10.7645 7.95824C10.665 7.85212 10.6022 7.79886 10.3974 7.65228ZM9.94238 7.56805C9.99812 7.58332 10.2731 7.6721 10.4069 7.77078C10.5745 7.89383 10.6893 8.03504 10.6716 8.27865C10.6716 8.27865 10.537 8.08665 10.3875 7.99912C10.269 7.93016 10.0551 7.73734 9.94238 7.56805ZM9.94651 5.77894C9.9973 5.77894 10.096 5.80371 10.096 5.88753C10.096 5.97217 9.96798 6.17574 9.93329 6.26657H9.93082C9.89613 6.17574 9.76772 5.97217 9.76772 5.88753C9.76772 5.80371 9.86682 5.77894 9.91761 5.77894H9.94651ZM9.83461 6.43586C9.81025 6.31695 9.76483 6.00892 9.6934 5.94079C9.62568 5.87597 9.52617 5.86977 9.47704 5.87308C9.46273 5.87439 9.4489 5.87893 9.43659 5.88634C9.42427 5.89375 9.4138 5.90385 9.40593 5.91588C9.39807 5.92791 9.39303 5.94156 9.39119 5.95581C9.38934 5.97007 9.39074 5.98455 9.39528 5.99819C9.41593 6.06755 9.63724 6.40903 9.66573 6.45197C9.71735 6.4433 9.70744 6.44619 9.83461 6.43586ZM10.0303 6.43586C10.0555 6.31695 10.1005 6.00892 10.1715 5.94079C10.2388 5.87597 10.3392 5.86977 10.3879 5.87308C10.4022 5.87432 10.4161 5.8788 10.4285 5.88619C10.4408 5.89359 10.4513 5.90369 10.4592 5.91574C10.4671 5.92779 10.4721 5.94148 10.4739 5.95576C10.4757 5.97004 10.4743 5.98455 10.4697 5.99819C10.4494 6.06755 10.2277 6.40903 10.1988 6.45197C10.1472 6.4433 10.1575 6.44619 10.0303 6.43586ZM10.1732 5.36479H10.0006V5.16866H9.86104V5.36479H9.68762V5.48825H9.86104V5.71948H10.0006V5.48825H10.1732V5.36479ZM8.08143 6.62993C8.08184 6.59235 8.08432 6.55437 8.08927 6.51721C8.10247 6.43636 8.10386 6.35402 8.0934 6.27277C7.96994 6.32149 7.8853 6.35246 7.71436 6.63612C7.71394 6.63612 7.98687 6.46312 8.08143 6.62993ZM8.31967 7.07999C8.32339 7.00939 8.36798 6.78724 8.42496 6.62993C8.49474 6.43793 8.4551 6.15798 8.37128 5.98869C8.28994 5.82518 8.24535 5.67075 8.2598 5.50105C8.2598 5.50105 8.09753 5.55679 8.00504 5.61543C7.98976 5.81238 8.10124 6.00892 8.15492 6.12123C8.21768 6.25336 8.20488 6.42554 8.19085 6.53124C8.16731 6.71003 8.20282 6.90121 8.31967 7.07999ZM8.33825 5.57537C8.33158 5.53923 8.33356 5.50201 8.34403 5.46678C8.34403 5.46678 8.59797 5.21202 8.81226 5.16866C8.85751 5.15812 8.90465 5.15882 8.94956 5.17069C8.99448 5.18257 9.0358 5.20526 9.06992 5.23679C9.06992 5.23679 8.99477 5.22771 8.88122 5.32268C8.76767 5.41806 8.62563 5.53326 8.51828 5.56216C8.41216 5.59065 8.38904 5.58198 8.33825 5.57537ZM9.09056 5.25579C9.18636 5.35447 9.26728 5.45811 9.26563 5.54812C9.26398 5.64185 9.15828 5.87555 9.10295 5.96557C9.04762 6.05558 8.96669 6.17161 8.97577 6.31406C8.98073 6.38508 9.02863 6.45816 9.08561 6.51803C9.08561 6.51803 8.77428 6.44206 8.73629 6.24428C8.70243 6.06755 8.77593 5.94327 8.82589 5.84541C8.87255 5.75375 9.01624 5.53863 9.05257 5.44944C9.08561 5.3681 9.10295 5.30038 9.09056 5.25579ZM10.9106 7.48381C10.973 7.70967 11.0787 7.92232 11.1827 8.08954C11.2765 8.24108 11.3359 8.48923 11.3273 8.57305C11.3273 8.57305 11.4685 8.25388 11.3958 8.02802C11.3401 7.85419 11.1889 7.59406 10.9106 7.48381ZM11.2608 7.55855C11.2608 7.55855 11.4738 7.56144 11.5742 7.62915C11.703 7.71669 11.8244 7.90663 11.8715 8.13537C11.8715 8.13537 11.6559 8.09697 11.5494 7.98755C11.4429 7.87731 11.3112 7.71339 11.2608 7.55855ZM10.1554 7.95494C10.0865 7.96541 10.0183 7.98059 9.95146 8.00035C9.95146 8.00035 10.1336 8.05486 10.224 8.13207C10.3016 8.19772 10.3685 8.2993 10.3999 8.47024C10.4436 8.7089 10.5807 8.96655 10.6216 9.04376L10.6381 9.04046C10.6125 8.87612 10.7129 8.53506 10.7376 8.48634C10.7376 8.48634 10.5939 8.39303 10.5279 8.29599C10.4796 8.22497 10.3933 8.10647 10.1554 7.95494ZM11.1018 8.46735C11.1547 8.59287 11.2959 8.81501 11.2298 9.04706C11.1637 9.27912 11.0172 9.37904 10.9259 9.57517C10.9259 9.57517 10.8537 9.2209 10.8702 8.94714C10.885 8.67339 10.9825 8.56727 11.1018 8.46735ZM11.5118 8.47685C11.5118 8.47685 11.7241 8.90007 11.7625 9.06647C11.7996 9.23039 11.7653 9.34023 11.6931 9.43973C11.6208 9.53924 11.4986 9.64619 11.3867 9.85553C11.3867 9.85553 11.2554 9.67839 11.2389 9.58466C11.2232 9.49135 11.2484 9.26879 11.2773 9.17548C11.305 9.08257 11.4173 8.78281 11.5118 8.47685ZM11.6208 9.82869C11.5738 9.8803 11.3256 10.1871 11.2922 10.2767C11.2591 10.3663 11.2017 10.5352 11.2785 10.6524C11.3562 10.7697 11.5325 10.9576 11.6873 11.0373C11.6873 11.0373 11.5197 10.768 11.5366 10.5471C11.5477 10.4063 11.6534 10.2804 11.6737 10.1941C11.6939 10.1078 11.6811 9.96288 11.6208 9.82869ZM11.1353 9.65899C11.1732 9.71349 11.2397 9.84521 11.2484 9.97444C11.2571 10.1008 11.2377 10.2028 11.1704 10.3886C11.0905 10.598 10.9978 10.8024 10.8929 11.0005C10.8929 11.0005 10.776 10.8292 10.712 10.6764C10.712 10.6764 10.8941 10.42 10.9717 10.2383C11.0618 10.0248 11.0997 9.82704 11.1353 9.65899ZM11.0502 9.55989C11.0502 9.55989 10.9722 10.1623 10.6274 10.6103C10.3945 10.9134 10.2042 11.0187 10.0791 11.0187C9.88953 11.0187 9.69918 10.8564 9.63518 10.6706C9.57118 10.4848 9.59141 10.1966 9.71363 10.0942C9.71363 10.0942 9.82759 10.4559 10.07 10.4691C10.3441 10.4848 10.6972 10.1693 11.0502 9.55989Z" clip-rule="evenodd"/><path fill="#0055A6" fill-rule="evenodd" d="M10.7688 9.30808C10.7977 9.41584 10.8068 9.58142 10.7688 9.7375C10.7399 9.85559 10.6697 10.0113 10.5351 10.0975C10.4191 10.1723 10.1441 10.1905 10.0392 9.9233C10.0388 9.9233 10.5405 9.96211 10.7688 9.30808ZM11.5901 11.7388C11.659 11.9197 11.9047 12.1493 11.9035 12.2905C11.8985 12.6658 11.74 12.8954 11.702 13.0192C11.702 13.0192 11.4101 12.7806 11.358 12.5068C11.3316 12.3669 11.3626 11.9461 11.5901 11.7388ZM11.2635 12.0035C11.2978 11.9065 11.4051 11.6418 11.5294 11.5489C11.5294 11.5489 11.6892 11.0675 11.1776 10.7722C11.1776 10.7722 10.9674 11.0592 10.9117 11.3284C10.856 11.5976 11.1351 11.7607 11.2635 12.0035ZM10.6243 10.79C10.5421 10.8911 10.4265 11.0324 10.3365 11.0765C10.3365 11.0765 10.3064 11.2917 10.3233 11.4341C10.3493 11.6459 10.4819 11.8627 10.5384 12.0213C10.5384 12.0213 10.7618 11.7211 10.7878 11.5444C10.8134 11.3676 10.8089 11.2223 10.8175 11.1385C10.8171 11.1385 10.6929 10.9308 10.6243 10.79ZM10.0359 11.8194C9.97275 11.7207 9.76754 11.3561 9.76465 11.0918C9.76465 11.0918 10.0169 11.2293 10.2279 11.1286C10.2279 11.1286 10.256 11.4725 10.2151 11.589C10.1817 11.6835 10.1383 11.7401 10.0359 11.8194ZM10.0937 11.8933C10.135 11.8569 10.2354 11.7615 10.2762 11.7112C10.2762 11.7112 10.443 12.0262 10.472 12.1183C10.472 12.1183 10.3881 12.1402 10.2965 12.0716C10.223 12.0192 10.1551 11.9594 10.0937 11.8933ZM10.8679 11.7083C10.8477 11.788 10.5772 12.174 10.531 12.2215C10.531 12.2215 10.5521 12.3615 10.652 12.5626C10.7519 12.7637 10.8915 12.904 10.9658 12.9755C10.9658 12.9755 11.1322 12.6761 11.1817 12.5444C11.2383 12.3937 11.2317 12.2451 11.2073 12.1901C11.1512 12.0601 10.955 11.8722 10.8679 11.7083ZM11.2746 12.7191C11.3337 12.8438 11.5141 13.0469 11.5422 13.2084C11.5641 13.3351 11.5443 13.4383 11.5112 13.5259C11.4778 13.613 11.3696 13.7827 11.2969 13.9128C11.2969 13.9128 11.0504 13.6733 10.9959 13.5023C10.9546 13.3735 10.9703 13.1902 11.0298 13.0766C11.0888 12.9623 11.2181 12.8376 11.2746 12.7191ZM10.5748 12.6844C10.6392 12.8277 10.7911 12.9709 10.8266 13.0969C10.8679 13.2451 10.8807 13.3401 10.8114 13.5123C10.7494 13.6646 10.6743 13.753 10.6487 13.8455C10.6487 13.8455 10.4484 13.5791 10.4154 13.4681C10.3815 13.3566 10.3712 13.1737 10.4121 13.0576C10.4538 12.9412 10.526 12.7897 10.5748 12.6844ZM11.5624 13.7001C11.5624 13.7001 11.2172 14.1287 11.2255 14.3558C11.2358 14.6395 11.4183 14.8274 11.4443 15.0016C11.4443 15.0016 11.6248 14.791 11.6937 14.6498C11.7709 14.4908 11.83 14.3558 11.8098 14.1762C11.7891 13.9966 11.742 13.8806 11.5624 13.7001ZM10.927 13.658C10.9815 13.7398 11.1359 14.0201 11.0917 14.1869C11.0484 14.3533 10.8782 14.5887 10.8221 14.6894C10.8221 14.6894 10.685 14.4008 10.6545 14.2687C10.6239 14.1366 10.652 13.9227 10.927 13.658ZM14.3768 6.58374C14.3768 6.54741 14.2195 6.5185 14.025 6.5185C13.8309 6.5185 13.6736 6.54741 13.6736 6.58374C13.6736 6.61966 13.8309 6.64898 14.025 6.64898C14.2195 6.64898 14.3768 6.61966 14.3768 6.58374ZM11.9819 5.47386C12.0051 5.312 12.1876 4.96764 12.1876 4.81652C12.1882 4.76037 12.1666 4.70625 12.1275 4.666C12.0883 4.62576 12.0348 4.60268 11.9786 4.60181C11.9225 4.60268 11.869 4.62576 11.8298 4.666C11.7907 4.70625 11.769 4.76037 11.7697 4.81652C11.7697 4.96764 11.9526 5.312 11.9749 5.47386H11.9819ZM12.5641 5.82152C12.7462 5.37559 12.8668 5.04774 12.8622 4.9375C12.8585 4.87019 12.7826 4.82106 12.7099 4.79835C12.6368 4.77523 12.5724 4.7711 12.5253 4.80867C12.4308 4.88341 12.3428 5.48418 12.3102 5.7344C12.4019 5.75298 12.4576 5.76454 12.5641 5.82152ZM12.2326 5.72449C12.1856 5.71943 12.1385 5.71627 12.0914 5.71499C12.1198 5.47634 12.2 5.0783 12.2474 4.92139C12.2945 4.7649 12.3552 4.65177 12.4547 4.62328C12.4547 4.62328 12.3771 4.8417 12.335 5.06797C12.2945 5.28578 12.2603 5.50471 12.2326 5.72449ZM12.4027 6.25301C12.4027 6.25301 12.6067 6.47308 12.8073 6.52222C12.8077 6.52181 12.7243 6.3009 12.4027 6.25301ZM12.235 6.15102C12.3469 6.13492 12.6327 6.16712 12.8077 6.29595C12.9824 6.42477 13.0394 6.52965 13.0997 6.64279C13.0997 6.64279 12.7859 6.66921 12.5067 6.50157C12.3754 6.42188 12.2606 6.23732 12.235 6.15102ZM14.0159 7.20557C14.0886 7.15644 14.1307 7.07675 14.1476 6.97146C14.1476 6.97146 13.8235 6.98673 13.5489 6.95081V6.97435C13.5489 6.97435 13.9986 6.97683 14.0159 7.20557ZM13.9011 7.50617C13.9094 7.44423 13.9065 7.33646 13.9065 7.33646C13.7438 7.49295 13.4093 7.6032 13.4093 7.6032C13.4143 7.51071 13.444 7.43143 13.444 7.43143C13.302 7.51855 13.2215 7.50864 13.2215 7.50864C13.2368 7.40046 13.3094 7.27205 13.3094 7.27205C13.2826 7.3089 13.2486 7.33998 13.2095 7.36345C13.1704 7.38693 13.127 7.40232 13.0819 7.40872C13.0646 7.34431 13.1021 7.18493 13.1021 7.18493C13.0522 7.24934 12.9593 7.41615 12.6698 7.48015C12.3796 7.54457 12.2499 7.37775 12.2499 7.37775C12.5328 7.39799 12.797 7.11556 12.797 7.11556C12.7129 7.08466 12.6427 7.02458 12.5992 6.94627C12.6847 6.86906 12.7718 6.86906 12.7718 6.86906C12.6067 6.79143 12.572 6.65806 12.572 6.65806C12.7797 6.76088 13.4188 6.76831 13.7665 6.78648C14.1133 6.80423 14.461 6.67086 14.461 6.67086C14.4205 7.45208 13.9011 7.50617 13.9011 7.50617ZM14.5407 6.72537C14.5279 6.89466 14.4858 7.06188 14.4284 7.17997C14.4284 7.17997 14.6328 7.02101 14.6827 6.88764C14.7331 6.75303 14.7455 6.66095 14.5407 6.72537ZM15.0349 7.28031C15.0351 7.26898 15.033 7.25772 15.0289 7.24719C15.0247 7.23666 15.0184 7.22705 15.0105 7.21892C15.0026 7.21079 14.9932 7.2043 14.9828 7.19981C14.9724 7.19533 14.9612 7.19293 14.9499 7.19277C14.927 7.19321 14.9053 7.20265 14.8893 7.21904C14.8734 7.23543 14.8646 7.25745 14.8648 7.28031C14.8648 7.32862 14.9036 7.36702 14.9499 7.36702C14.9612 7.36696 14.9724 7.36467 14.9828 7.36028C14.9932 7.35588 15.0026 7.34946 15.0105 7.3414C15.0184 7.33334 15.0246 7.32379 15.0288 7.3133C15.033 7.30282 15.0351 7.2916 15.0349 7.28031ZM14.8999 6.89466C15.0151 6.86699 15.2575 6.8385 15.3644 7.00036C15.4722 7.16222 15.4297 7.46777 15.2154 7.5937C15.2154 7.5937 14.8875 7.30343 14.4907 7.59122C14.4907 7.59122 14.3978 7.5297 14.1906 7.48057C14.1906 7.48057 14.3132 7.32903 14.4503 7.26503C14.5729 7.20764 14.8273 7.13125 14.8999 6.89466ZM14.1464 7.53424C14.1464 7.53424 14.001 7.73202 13.8966 7.81915C13.8966 7.81915 14.4313 7.81419 14.5659 8.28986C14.5659 8.28986 14.7505 7.99917 14.6154 7.80924C14.4701 7.60402 14.3359 7.57842 14.1464 7.53424Z" clip-rule="evenodd"/><path fill="#0055A6" fill-rule="evenodd" d="M13.5581 7.65224C13.5581 7.65224 13.3855 7.70385 13.3281 7.71913C13.3281 7.71913 13.3252 7.61631 13.3306 7.56759C13.2782 7.57998 13.2129 7.59856 13.158 7.6031C13.158 7.6031 12.9858 7.99866 12.8512 8.15804C12.8512 8.15804 12.8434 8.24558 12.9185 8.37895C12.9185 8.37895 13.0156 8.14524 13.1906 7.9582C13.2893 7.85208 13.3533 7.79882 13.5581 7.65224ZM14.0127 7.568C13.957 7.58328 13.6812 7.67206 13.5478 7.77074C13.3806 7.89378 13.265 8.035 13.2827 8.27861C13.2827 8.27861 13.4181 8.08661 13.5672 7.99907C13.6861 7.93012 13.9 7.73729 14.0127 7.568ZM14.009 5.77889C13.9578 5.77889 13.8591 5.80367 13.8591 5.88749C13.8591 5.97213 13.9875 6.17569 14.0214 6.26653H14.0247C14.0586 6.17569 14.187 5.97213 14.187 5.88749C14.187 5.80367 14.0883 5.77889 14.0371 5.77889H14.009ZM14.1201 6.43582C14.1444 6.31691 14.1899 6.00888 14.2613 5.94075C14.329 5.87593 14.4281 5.86973 14.4781 5.87304C14.4923 5.87443 14.5061 5.87901 14.5184 5.88644C14.5307 5.89387 14.5411 5.90397 14.549 5.91598C14.5568 5.92799 14.5619 5.9416 14.5637 5.95583C14.5656 5.97005 14.5643 5.98451 14.5598 5.99815C14.5392 6.06751 14.3174 6.40898 14.2885 6.45193C14.2369 6.44326 14.2477 6.44615 14.1201 6.43582ZM13.9244 6.43582C13.9 6.31691 13.855 6.00888 13.7831 5.94075C13.7154 5.87593 13.6163 5.86973 13.5664 5.87304C13.5521 5.87449 13.5384 5.87911 13.5262 5.88656C13.514 5.89402 13.5036 5.90412 13.4958 5.91612C13.488 5.92812 13.4829 5.94172 13.4811 5.95592C13.4792 5.97011 13.4806 5.98454 13.485 5.99815C13.5061 6.06751 13.727 6.40898 13.7559 6.45193C13.8075 6.44326 13.7972 6.44615 13.9244 6.43582ZM13.7823 5.36475H13.9545V5.16862H14.0937V5.36475H14.2671V5.48821H14.0937V5.71944H13.9545V5.48821H13.7823V5.36475ZM11.71 4.20367H11.8821V4.00671H12.0217V4.20367H12.1947V4.32713H12.0217V4.55794H11.8821V4.32713H11.71V4.20367ZM15.8733 6.62989C15.8733 6.59231 15.8704 6.55433 15.865 6.51717C15.8526 6.43624 15.8513 6.35402 15.8609 6.27273C15.9852 6.32145 16.069 6.35242 16.2399 6.63608C16.2403 6.63608 15.9682 6.46307 15.8733 6.62989Z" clip-rule="evenodd"/><path fill="#0055A6" fill-rule="evenodd" d="M15.6304 7.08009C15.6271 7.00948 15.5821 6.78734 15.5255 6.63003C15.4561 6.43803 15.4958 6.15808 15.5796 5.98879C15.6601 5.82528 15.7055 5.67085 15.6907 5.50115C15.6907 5.50115 15.8525 5.55689 15.945 5.61552C15.9603 5.81248 15.8488 6.00902 15.796 6.12133C15.7324 6.25346 15.7456 6.42564 15.7596 6.53134C15.7836 6.71013 15.7472 6.9013 15.6304 7.08009ZM15.6126 5.57547C15.6196 5.53932 15.6174 5.50201 15.6064 5.46688C15.6064 5.46688 15.3525 5.21212 15.1386 5.16876C15.0933 5.15826 15.0461 5.15897 15.0011 5.17084C14.9562 5.18272 14.9148 5.20539 14.8806 5.23689C14.8806 5.23689 14.9557 5.22781 15.0693 5.32277C15.1832 5.41816 15.3244 5.53336 15.4322 5.56226C15.5383 5.59075 15.5619 5.58208 15.6126 5.57547ZM14.8595 5.25588C14.7637 5.35457 14.6832 5.45821 14.6848 5.54822C14.6869 5.64195 14.7918 5.87565 14.8475 5.96567C14.9033 6.05568 14.9842 6.1717 14.9743 6.31416C14.9689 6.38517 14.9219 6.45826 14.8653 6.51813C14.8653 6.51813 15.1766 6.44216 15.2146 6.24437C15.248 6.06765 15.175 5.94337 15.125 5.84551C15.0779 5.75385 14.9347 5.53872 14.8983 5.44954C14.8657 5.36819 14.8484 5.30048 14.8595 5.25588ZM13.0411 7.48391C12.9787 7.69745 12.887 7.9013 12.7686 8.08964C12.674 8.24117 12.6146 8.48933 12.624 8.57315C12.624 8.57315 12.4828 8.25397 12.5555 8.02812C12.6112 7.85428 12.7611 7.59416 13.0411 7.48391ZM12.6893 7.55865C12.6893 7.55865 12.4762 7.56154 12.3763 7.62925C12.2479 7.71679 12.1257 7.90672 12.0786 8.13547C12.0786 8.13547 12.2946 8.09707 12.4011 7.98765C12.508 7.87741 12.6397 7.71348 12.6893 7.55865ZM13.7959 7.95503C13.8363 7.95875 13.9458 7.98435 13.999 8.00045C13.999 8.00045 13.8173 8.05496 13.7269 8.13217C13.6493 8.19782 13.5828 8.29939 13.5514 8.47034C13.5072 8.70899 13.3706 8.96665 13.3293 9.04386L13.3128 9.04056C13.3384 8.87622 13.2376 8.53516 13.2128 8.48644C13.2128 8.48644 13.3574 8.39312 13.4234 8.29609C13.4713 8.22507 13.558 8.10657 13.7959 7.95503ZM12.8495 8.46745C12.7962 8.59297 12.6554 8.81511 12.7207 9.04716C12.7863 9.27921 12.9341 9.37914 13.0246 9.57526C13.0246 9.57526 13.0972 9.22099 13.0811 8.94724C13.0654 8.67348 12.9684 8.56737 12.8495 8.46745ZM11.9766 9.11653C11.9853 8.98151 12.2921 8.65408 12.2768 8.47694C12.2607 8.29981 12.0315 8.17428 11.9754 8.14868H11.9725C11.9159 8.17428 11.6872 8.29981 11.6715 8.47694C11.6558 8.65408 11.9618 8.98151 11.9713 9.11653H11.9766ZM12.4391 8.47694C12.4391 8.47694 12.2264 8.90017 12.1884 9.06657C12.1517 9.23049 12.1855 9.34032 12.2582 9.43983C12.3301 9.53975 12.4519 9.64628 12.565 9.85563C12.565 9.85563 12.6959 9.67849 12.712 9.58476C12.7273 9.49145 12.7025 9.26889 12.674 9.17557C12.6459 9.08267 12.5328 8.7829 12.4391 8.47694ZM11.9758 10.1149C12.0732 10.0286 12.1591 9.90105 12.1864 9.82507C12.2128 9.7491 12.2211 9.63803 12.1566 9.55338C12.079 9.45181 11.9824 9.33867 11.9758 9.24659H11.9708C11.9634 9.33908 11.8676 9.45181 11.7904 9.55338C11.7264 9.63803 11.7334 9.7491 11.7611 9.82507C11.7875 9.90105 11.8746 10.0286 11.9721 10.1149H11.9758ZM12.3305 9.82879C12.3767 9.8804 12.6249 10.1872 12.6583 10.2768C12.6918 10.3664 12.7487 10.5353 12.6711 10.6525C12.5943 10.7698 12.4184 10.9577 12.2636 11.0374C12.2636 11.0374 12.4308 10.7681 12.4143 10.5472C12.4031 10.4064 12.2966 10.2805 12.2764 10.1942C12.2562 10.1079 12.2698 9.96298 12.3305 9.82879ZM12.816 9.65908C12.7532 9.7535 12.7143 9.86175 12.7025 9.97454C12.6938 10.1009 12.7136 10.2029 12.7814 10.3887C12.866 10.6228 12.9965 10.8838 13.0584 11.0006C13.0584 11.0006 13.1749 10.8293 13.2389 10.6765C13.2389 10.6765 13.0568 10.4201 12.9796 10.2384C12.8887 10.0249 12.8511 9.82714 12.816 9.65908ZM12.9007 9.55999C12.9007 9.55999 12.9787 10.1624 13.3235 10.6104C13.5568 10.9135 13.7463 11.0188 13.8723 11.0188C14.0618 11.0188 14.2513 10.8565 14.3157 10.6707C14.3793 10.4849 14.3591 10.1967 14.2368 10.0943C14.2368 10.0943 14.1233 10.456 13.8809 10.4692C13.6063 10.4849 13.2529 10.1694 12.9007 9.55999Z" clip-rule="evenodd"/><path fill="#0055A6" fill-rule="evenodd" d="M13.189 9.30817C13.1553 9.44932 13.1553 9.59643 13.189 9.73759C13.2175 9.85568 13.2881 10.0113 13.4218 10.0976C13.5387 10.1724 13.8129 10.1905 13.9177 9.92339C13.9182 9.92339 13.4165 9.96221 13.189 9.30817ZM12.1922 10.9086C12.2562 10.8078 12.3169 10.6216 12.2822 10.4895C12.2397 10.326 12.1534 10.2599 12.1018 10.1579C12.0589 10.1984 12.0328 10.2298 11.9812 10.2611H11.9783C11.9263 10.2298 11.8991 10.1984 11.8561 10.1579C11.8045 10.2599 11.7182 10.326 11.6753 10.4895C11.6418 10.6216 11.7017 10.8078 11.7661 10.9086C11.8474 11.0366 11.9077 11.063 11.9787 11.0977C12.0502 11.063 12.1101 11.0366 12.1922 10.9086ZM11.9787 12.1138C12.0134 11.9549 12.338 11.646 12.3078 11.478C12.2637 11.2265 12.1055 11.2798 11.9812 11.1733H11.9787C11.8536 11.2794 11.6947 11.2261 11.6501 11.478C11.6208 11.6456 11.9424 11.9545 11.9775 12.1138H11.9787ZM12.3681 11.7389C12.2987 11.9198 12.0527 12.1494 12.0543 12.2906C12.0584 12.6659 12.2174 12.8955 12.2558 13.0193C12.2558 13.0193 12.5477 12.7807 12.5989 12.5069C12.6254 12.367 12.5952 11.9462 12.3681 11.7389ZM12.6939 12.0036C12.6592 11.9066 12.5519 11.6419 12.4276 11.549C12.4276 11.549 12.2686 11.0675 12.7798 10.7723C12.7798 10.7723 12.9899 11.0593 13.0465 11.3285C13.1018 11.5977 12.8235 11.7608 12.6939 12.0036ZM13.3335 10.7901C13.4148 10.8912 13.5313 11.0325 13.6213 11.0766C13.6213 11.0766 13.651 11.2918 13.6341 11.4342C13.6081 11.646 13.4751 11.8628 13.4194 12.0214C13.4194 12.0214 13.1956 11.7212 13.1696 11.5445C13.144 11.3677 13.1485 11.2224 13.1398 11.1386C13.1398 11.1386 13.2645 10.9309 13.3335 10.7901ZM13.9223 11.8194C13.985 11.7208 14.1907 11.3562 14.1931 11.0919C14.1931 11.0919 13.9409 11.2294 13.7299 11.1287C13.7299 11.1287 13.7022 11.4726 13.7431 11.589C13.7761 11.6836 13.8199 11.7402 13.9223 11.8194ZM13.8641 11.8934C13.7994 11.8364 13.7383 11.7756 13.6811 11.7113C13.6811 11.7113 13.5143 12.0263 13.4854 12.1184C13.4854 12.1184 13.5692 12.1403 13.6609 12.0717C13.7526 12.0028 13.7736 11.9854 13.8641 11.8934ZM13.0899 11.7084C13.1101 11.7881 13.3806 12.1741 13.426 12.2216C13.426 12.2216 13.4057 12.3616 13.305 12.5627C13.2252 12.7174 13.1192 12.8571 12.9916 12.9756C12.9916 12.9756 12.8252 12.6762 12.7752 12.5445C12.7191 12.3938 12.7261 12.2451 12.75 12.1902C12.8066 12.0602 13.0019 11.8723 13.0899 11.7084ZM12.2281 13.5792C12.2665 13.4698 12.2649 13.3426 12.2228 13.2559C12.1741 13.1552 11.999 12.907 11.9783 12.8352C11.9565 12.907 11.7834 13.1548 11.7343 13.2559C11.6918 13.3426 11.6905 13.4702 11.7294 13.5792C11.7942 13.7622 11.9498 13.8877 11.9759 13.9938H11.9808C12.0068 13.8877 12.1625 13.7622 12.2281 13.5792ZM12.6836 12.7192C12.6237 12.8439 12.4441 13.047 12.416 13.2085C12.3937 13.3352 12.4135 13.4384 12.4466 13.526C12.4796 13.6131 12.5886 13.7828 12.6605 13.9129C12.6605 13.9129 12.9074 13.6734 12.9615 13.5024C13.0027 13.3736 12.9875 13.1903 12.9284 13.0767C12.8681 12.9624 12.7397 12.8377 12.6836 12.7192ZM13.383 12.6845C13.3182 12.8278 13.1658 12.971 13.1307 13.097C13.0899 13.2452 13.0767 13.3402 13.1464 13.5123C13.2075 13.6647 13.2827 13.7531 13.3087 13.8456C13.3087 13.8456 13.5086 13.5792 13.5424 13.4682C13.5763 13.3571 13.5862 13.1738 13.5457 13.0577C13.5036 12.9413 13.4318 12.7898 13.383 12.6845ZM11.9787 16.0414C11.9915 15.9109 12.2542 15.5071 12.2665 15.0785C12.2731 14.8638 12.0865 14.5285 11.9812 14.4009H11.9759C11.8697 14.5285 11.6852 14.8638 11.691 15.0785C11.7038 15.5071 11.9651 15.9105 11.9787 16.0414ZM12.3954 13.7002C12.3954 13.7002 12.7406 14.1288 12.7323 14.3559C12.7224 14.6396 12.5391 14.8274 12.5135 15.0017C12.5135 15.0017 12.3326 14.7911 12.2641 14.6499C12.1869 14.4909 12.1278 14.3559 12.1493 14.1763C12.1691 13.9967 12.2149 13.8807 12.3954 13.7002ZM13.0304 13.6581C12.9763 13.7399 12.8223 14.0202 12.8661 14.187C12.9094 14.3534 13.08 14.5888 13.1361 14.6895C13.1361 14.6895 13.2724 14.4009 13.3033 14.2688C13.3339 14.1367 13.3054 13.9228 13.0304 13.6581Z" clip-rule="evenodd"/><path fill="#0055A6" fill-rule="evenodd" d="M12.2113 16.7289C12.2323 16.3956 12.4161 16.1962 12.4474 16.0228C12.4838 15.8324 12.4718 15.6504 12.3273 15.4303C12.2401 15.745 12.1247 16.0512 11.9825 16.3453L11.9747 16.3622L11.9676 16.3453C11.8251 16.0513 11.7096 15.7451 11.6225 15.4303C11.4788 15.6499 11.466 15.8324 11.5019 16.0228C11.5345 16.1962 11.7178 16.3956 11.7381 16.7289C11.7591 17.0625 11.3937 17.1897 11.3937 17.1897C11.5172 17.2347 11.6576 17.2549 11.8801 17.0381C11.921 16.9985 11.952 16.9555 11.9747 16.9097C11.9982 16.9551 12.0288 16.9985 12.0696 17.0381C12.2922 17.2549 12.4322 17.2351 12.5552 17.1897C12.5556 17.1897 12.1906 17.0621 12.2113 16.7289ZM11.0621 14.5128C11.101 14.6375 11.2145 14.8671 11.229 14.9377C11.2562 15.0698 11.2195 15.2296 10.9853 15.3997C10.9853 15.3997 10.8334 15.2907 10.7731 15.1474C10.7174 15.0128 10.7496 14.9183 10.8086 14.8489C10.8668 14.7791 11.0039 14.6177 11.0621 14.5128ZM11.5547 15.0062C11.5547 15.0731 11.5064 15.4501 11.4024 15.6371C11.2562 15.9002 11.0407 16.0959 10.8528 16.0959C10.6781 16.0959 10.6414 15.9889 10.5547 15.9452C10.5547 15.9452 10.5989 15.7168 10.7946 15.657C11.0357 15.5835 11.4053 15.2862 11.5547 15.0062Z" clip-rule="evenodd"/><path fill="#0055A6" fill-rule="evenodd" d="M10.9294 15.4867C10.8889 15.4549 10.8534 15.4327 10.8051 15.3748C10.8051 15.3748 10.6189 15.4459 10.4665 15.5516C10.3134 15.6573 10.1635 15.8369 10.0825 15.9314C10.0825 15.9314 10.3117 15.9925 10.4566 15.9244C10.4566 15.9244 10.5099 15.6994 10.6726 15.5991C10.7089 15.5772 10.8233 15.5429 10.9294 15.4867ZM10.7382 15.2935C10.7031 15.2369 10.6305 15.1321 10.6462 14.9685C10.6462 14.9685 10.3245 15.1775 10.2275 15.258C10.1304 15.3385 9.92977 15.552 9.88517 15.6222C9.88517 15.6222 10.1284 15.5677 10.3154 15.5037C10.521 15.4331 10.6631 15.3385 10.7382 15.2935ZM10.1928 15.6523C10.0198 15.7151 9.62917 15.7807 9.46608 15.8303C9.30257 15.8798 9.18447 15.9669 9.02798 16.1424C9.02798 16.1424 9.26747 16.2106 9.39588 16.2531C9.39588 16.2531 9.59986 16.1098 9.82282 16.0219C9.96817 15.9645 10.0388 15.8072 10.1928 15.6523ZM9.83067 16.8353C9.86824 16.7932 9.9149 16.744 9.87857 16.6445C9.85297 16.5714 9.71175 16.4917 9.62628 16.4488C9.48672 16.3807 9.09859 16.2737 8.97224 16.2353C8.97224 16.2353 8.90948 16.3117 8.87562 16.3918C8.86076 16.4228 8.88058 16.4546 8.93549 16.4649C9.04326 16.4835 9.30339 16.4339 9.36657 16.4761C9.43511 16.5215 9.41116 16.5834 9.41116 16.6441C9.41116 16.6441 9.52966 16.5698 9.60399 16.5863C9.70804 16.6107 9.7708 16.6602 9.83067 16.8353ZM9.48507 16.2808C9.51315 16.2903 9.66427 16.3381 9.81168 16.4339C9.81168 16.4339 9.87733 16.4083 9.90912 16.346C9.9405 16.2865 10.0735 16.085 10.1949 16.0582C10.1949 16.0582 10.0912 16.0479 10.0322 16.0289C10.0322 16.0289 9.90541 16.0623 9.81622 16.0995C9.72703 16.1367 9.61513 16.1936 9.48507 16.2808ZM10.4859 16.026C10.462 16.0371 10.4232 16.0561 10.3323 16.0603C10.3323 16.0603 9.99046 16.3039 9.95082 16.5463C9.91655 16.7544 10.0231 16.8535 10.0743 16.8799C10.1259 16.9063 10.3641 17.0075 10.5194 16.6792C10.5194 16.6792 10.2547 16.7684 10.1833 16.6371C10.1114 16.5066 10.2275 16.3163 10.2997 16.2613C10.3939 16.1891 10.564 16.14 10.6664 16.1589C10.6664 16.1589 10.5842 16.0776 10.4859 16.026Z" clip-rule="evenodd"/><path fill="#0055A6" fill-rule="evenodd" d="M8.2519 18.8124C8.29361 18.634 8.33944 18.4457 8.41872 18.2727C8.57273 17.9374 8.95136 17.0427 9.74 16.8849C9.81474 16.8705 9.65495 16.6818 9.58393 16.6909C9.51373 16.7 9.37252 16.7933 9.31058 16.8358C9.31058 16.8358 9.31059 16.645 9.30852 16.6112C9.30646 16.5769 9.27755 16.5641 9.24658 16.5658C9.21686 16.5662 9.02527 16.5641 8.9654 16.636C8.78537 16.8498 8.48189 17.4254 8.31053 17.8544C8.13794 18.2826 8.02026 18.4135 7.83859 18.3474C7.65732 18.2826 7.54914 18.0683 7.23203 18.1335C7.12302 18.1554 7.00122 18.2314 6.90625 18.3433C6.93226 18.3953 6.96612 18.4589 7.11435 18.4589C7.26176 18.4589 7.54377 18.5229 7.7015 18.6365C7.85923 18.7488 8.02481 18.7868 8.2519 18.8124ZM11.4011 16.0397C11.4189 16.1776 11.4837 16.3077 11.556 16.4423C11.556 16.4423 11.3156 17.5823 10.4469 17.6707C10.4469 17.6707 10.4647 17.4345 10.7219 17.2541C10.9791 17.074 11.364 16.7953 11.3355 16.3713C11.3355 16.3713 11.2669 16.3857 11.1435 16.5447C11.02 16.7037 10.7491 17.1624 10.3305 17.1657C10.3305 17.1657 10.3916 16.9506 10.5774 16.8267C10.7632 16.7037 10.9998 16.5447 11.1063 16.3535C11.2124 16.1632 11.3264 16.0752 11.4011 16.0397ZM10.9915 20.1902L11.5196 20.9508L11.9201 20.2179L11.7781 19.9565C11.6736 20.1502 11.5617 20.3583 11.4977 20.471L11.1414 19.9565L10.9915 20.1902Z" clip-rule="evenodd"/><path fill="#0055A6" fill-rule="evenodd" d="M10.853 19.5459C10.3385 18.8048 9.70221 17.8861 9.6378 17.7936L9.83765 17.6462L9.20714 17.3984L9.21912 18.1033L9.43218 17.9459L10.7043 19.7796L10.853 19.5459ZM6.50799 15.3806C6.66407 15.2063 6.92792 15.3562 7.19341 15.6089C7.46015 15.86 7.6282 16.1176 7.47253 16.2923C7.32884 16.4533 7.05303 16.3162 6.7867 16.0643C6.52038 15.8129 6.35233 15.5548 6.50799 15.3806Z" clip-rule="evenodd"/><path fill="#0055A6" fill-rule="evenodd" d="M6.94091 18.4779C6.93221 18.4708 6.92381 18.4634 6.91573 18.4556C6.77452 18.328 6.694 18.1323 6.694 17.918C6.694 17.5059 7.01978 17.1707 7.4203 17.1707C7.82081 17.1707 8.14618 17.5059 8.14618 17.918C8.14618 17.9742 8.13586 18.0646 8.13586 18.0646C8.1693 18.0006 8.28822 17.7157 8.31299 17.6641C8.2044 17.2615 7.84517 16.9659 7.42071 16.9659C7.05529 16.9659 6.73901 17.1847 6.5883 17.5018C6.64569 17.1252 6.82737 16.7862 6.95743 16.6607C7.11144 16.5108 7.37446 16.4629 7.37446 16.4629C7.2027 16.4914 6.97519 16.3824 6.72084 16.1425C6.47929 15.9142 6.35501 15.7156 6.34799 15.5488C6.36326 15.7841 6.35624 15.9158 6.29142 16.107C6.20306 16.3676 5.96316 16.8474 6.04863 17.3891C6.09612 17.6868 6.30587 18.1294 6.65684 18.4915C6.73116 18.5729 6.76006 18.693 6.76832 18.7562C6.76832 18.7562 7.28652 18.7562 7.40915 18.7669C7.40915 18.7669 7.53219 18.7562 7.53013 18.6765C7.52806 18.5981 7.45952 18.5778 7.39841 18.5778C7.3373 18.5778 7.07882 18.5836 6.94091 18.4779ZM9.80192 18.6588C9.46953 18.7831 9.13756 18.8479 8.82251 18.8974C8.62506 18.9293 8.42483 18.9407 8.22504 18.9313C8.23091 18.9681 8.22544 19.0058 8.20935 19.0395C8.20935 19.0395 8.24817 19.0853 8.24817 19.1369C8.44347 19.1452 8.64662 19.1328 8.8539 19.1002C9.19743 19.0457 9.55996 18.9738 9.92414 18.8326L9.80192 18.6588ZM10.3482 18.6328C10.7892 18.3842 11.2207 18.0023 11.6088 17.3912L11.679 17.271C11.5729 17.3193 11.4362 17.2863 11.4362 17.2863C11.43 17.2962 11.4127 17.3234 11.404 17.3387C11.0415 17.8891 10.6405 18.2364 10.2301 18.4631L10.3482 18.6328ZM7.43681 18.8276C7.37653 18.8177 7.18288 18.8227 7.06602 18.8413C6.93926 18.8619 6.79433 18.8888 6.77947 18.9606C6.76461 19.0291 6.81126 19.1022 6.87485 19.2059C6.91532 19.2699 7.00904 19.2331 7.06189 19.2133C7.11475 19.1935 7.41286 19.0287 7.46117 18.9746C7.50948 18.9197 7.52889 18.8437 7.43681 18.8276ZM7.74153 19.0304C7.71328 19.0128 7.68139 19.0018 7.64827 18.9983C7.61516 18.9948 7.58168 18.9988 7.55036 19.0101C7.46985 19.0415 7.17544 19.2203 7.15604 19.3037C7.13622 19.3867 7.17627 19.4297 7.2221 19.4482C7.26711 19.4668 7.32285 19.4842 7.36332 19.4883C7.39834 19.4895 7.43316 19.4824 7.46494 19.4676C7.49672 19.4529 7.52457 19.4308 7.54623 19.4032C7.58422 19.3557 7.7213 19.1844 7.74153 19.1456C7.76094 19.1072 7.77209 19.051 7.74153 19.0304ZM7.77704 19.2183C7.71594 19.2901 7.65741 19.364 7.60156 19.44C7.58752 19.4648 7.60858 19.5023 7.64615 19.4986C7.6829 19.4949 7.88481 19.4734 8.00166 19.3913C8.11769 19.3099 8.19573 19.1526 8.11521 19.0952C8.03593 19.037 7.91248 19.063 7.77704 19.2183ZM7.84228 18.7645C7.80388 18.755 7.65111 18.7145 7.61766 18.7669C7.57596 18.8314 7.6061 18.9011 7.72461 18.9602C7.84311 19.0188 8.06731 19.0655 8.11191 19.0027C8.15609 18.9387 8.09498 18.8314 7.84228 18.7645ZM12.8917 14.5128C12.8533 14.6375 12.7401 14.8671 12.7257 14.9377C12.6984 15.0698 12.7348 15.2296 12.9693 15.3997C12.9693 15.3997 13.1208 15.2907 13.1815 15.1474C13.2377 15.0128 13.2042 14.9183 13.146 14.8489C13.087 14.7791 12.9503 14.6177 12.8917 14.5128ZM12.3987 15.0062C12.3987 15.0731 12.4474 15.4501 12.5519 15.6371C12.698 15.9002 12.9127 16.0959 13.101 16.0959C13.2761 16.0959 13.3124 15.9889 13.3991 15.9452C13.3991 15.9452 13.3554 15.7168 13.1584 15.657C12.9185 15.5835 12.549 15.2862 12.3987 15.0062ZM13.0279 15.4868C13.0684 15.455 13.1031 15.4328 13.1522 15.3749C13.1522 15.3749 13.338 15.446 13.4904 15.5517C13.6432 15.6574 13.793 15.837 13.8744 15.9315C13.8744 15.9315 13.6456 15.9926 13.4999 15.9245C13.4999 15.9245 13.4466 15.6995 13.2839 15.5992C13.248 15.5773 13.1336 15.543 13.0279 15.4868ZM13.2187 15.2936C13.2542 15.237 13.3269 15.1322 13.3112 14.9686C13.3112 14.9686 13.6328 15.1776 13.7299 15.2581C13.8269 15.3386 14.0276 15.5521 14.0726 15.6223C14.0726 15.6223 13.8286 15.5678 13.6419 15.5038C13.4359 15.4332 13.2947 15.3386 13.2187 15.2936ZM13.7637 15.6524C13.9367 15.7152 14.3269 15.7808 14.4904 15.8304C14.6539 15.8799 14.7724 15.967 14.9289 16.1425C14.9289 16.1425 14.689 16.2107 14.561 16.2532C14.561 16.2532 14.3571 16.1099 14.1341 16.022C13.9883 15.9646 13.9182 15.8073 13.7637 15.6524ZM14.1263 16.8354C14.0891 16.7933 14.0424 16.7441 14.0784 16.6446C14.104 16.5715 14.2456 16.4919 14.3311 16.4489C14.471 16.3808 14.8592 16.2738 14.9851 16.2354C14.9851 16.2354 15.0479 16.3118 15.0813 16.3919C15.0962 16.4229 15.0768 16.4547 15.0218 16.465C14.9137 16.4836 14.6531 16.434 14.5904 16.4762C14.5222 16.5216 14.5462 16.5835 14.5462 16.6442C14.5462 16.6442 14.4277 16.5699 14.3525 16.5864C14.2489 16.6108 14.1857 16.6603 14.1263 16.8354ZM14.4723 16.2809C14.4442 16.2904 14.2931 16.3382 14.1448 16.434C14.1448 16.434 14.08 16.4084 14.0482 16.3461C14.0168 16.2866 13.8839 16.0851 13.7629 16.0583C13.7629 16.0583 13.8653 16.048 13.9252 16.029C13.9252 16.029 14.0519 16.0624 14.1411 16.0996C14.2303 16.1368 14.3418 16.1937 14.4723 16.2809ZM13.4714 16.0261C13.4949 16.0372 13.5333 16.0562 13.6238 16.0604C13.6238 16.0604 13.9656 16.304 14.0061 16.5464C14.0408 16.7545 13.9343 16.8536 13.8826 16.88C13.8302 16.9064 13.5928 17.0076 13.4375 16.6793C13.4375 16.6793 13.7014 16.7685 13.7736 16.6372C13.8455 16.5067 13.7295 16.3164 13.6572 16.2614C13.5631 16.1892 13.3934 16.1401 13.2893 16.159C13.2897 16.159 13.3731 16.0777 13.4714 16.0261Z" clip-rule="evenodd"/><path fill="#0055A6" fill-rule="evenodd" d="M15.7062 18.8124C15.6645 18.634 15.6187 18.4457 15.539 18.2727C15.3858 17.9374 15.0072 17.0427 14.219 16.8849C14.1438 16.8705 14.3036 16.6818 14.3738 16.6909C14.4456 16.7 14.586 16.7933 14.648 16.8358C14.648 16.8358 14.648 16.645 14.6496 16.6112C14.6521 16.5769 14.681 16.5641 14.7116 16.5658C14.7417 16.5662 14.9333 16.5641 14.9932 16.636C15.1732 16.8498 15.4763 17.4254 15.648 17.8544C15.8206 18.2826 15.9383 18.4135 16.1191 18.3474C16.3008 18.2826 16.4094 18.0683 16.7265 18.1336C16.8355 18.1554 16.9565 18.2314 17.0523 18.3433C17.0263 18.3953 16.9924 18.4589 16.8446 18.4589C16.6964 18.4589 16.4144 18.5229 16.2571 18.6365C16.0989 18.7488 15.9342 18.7868 15.7062 18.8124ZM12.5566 16.0397C12.5405 16.1776 12.4744 16.3077 12.4026 16.4423C12.4026 16.4423 12.6429 17.5823 13.5112 17.6707C13.5112 17.6707 13.4939 17.4345 13.2371 17.2541C12.9794 17.074 12.595 16.7953 12.6223 16.3713C12.6223 16.3713 12.6908 16.3857 12.8151 16.5447C12.9386 16.7037 13.209 17.1624 13.6281 17.1657C13.6281 17.1657 13.5662 16.9506 13.3812 16.8267C13.1958 16.7037 12.9588 16.5447 12.8523 16.3535C12.7453 16.1632 12.6326 16.0752 12.5566 16.0397ZM11.981 17.1442C12.031 17.2962 12.3601 17.7727 12.5042 17.9089C12.6483 18.0452 12.9984 18.4048 13.1851 18.5857C13.1851 18.5857 12.652 18.4494 12.3526 18.1695C12.3526 18.1695 12.1383 18.2979 11.9831 18.2979H11.9744C11.8192 18.2979 11.6053 18.1695 11.6053 18.1695C11.3055 18.4494 10.7725 18.5857 10.7725 18.5857C10.9595 18.4048 11.3096 18.0448 11.4533 17.9089C11.5979 17.7731 11.9265 17.2966 11.9773 17.1442H11.981Z" clip-rule="evenodd"/><path fill="#0055A6" fill-rule="evenodd" d="M11.9815 18.4093C12.0992 18.4093 12.2115 18.361 12.2734 18.333C12.2115 18.4692 12.0921 18.681 11.979 18.7694H11.9765C11.8638 18.681 11.7449 18.4692 11.6821 18.333C11.7449 18.3606 11.8555 18.4093 11.9736 18.4093H11.9815Z" clip-rule="evenodd"/><path fill="#0055A6" fill-rule="evenodd" d="M12.4393 20.9507L14.5248 17.946L14.7379 18.1033L14.7499 17.3985L14.1194 17.6462L14.3184 17.7936C14.2168 17.9415 12.6577 20.1889 12.4612 20.4709L11.5168 18.7115L11.4008 18.894L10.5601 20.1996L10.35 20.0551L10.3467 20.7504L10.9842 20.4899L10.7707 20.3441C10.8859 20.1637 11.3426 19.456 11.495 19.219L12.4393 20.9507Z" clip-rule="evenodd"/><path fill="#0055A6" fill-rule="evenodd" d="M12.817 19.7702C12.6758 19.5526 12.5342 19.3325 12.4624 19.2198C12.4099 19.3205 12.3017 19.5187 12.1828 19.7371L12.0342 19.463L12.4397 18.7119L12.5565 18.8944L12.9744 19.5435L12.817 19.7702ZM13.246 19.9659L13.3968 20.1996L13.6069 20.0551L13.6106 20.7504L12.9727 20.4898L13.1858 20.3441L13.0891 20.1926L13.246 19.9659ZM17.4453 15.3806C17.2888 15.2063 17.0254 15.3562 16.759 15.6089C16.4923 15.86 16.3251 16.1176 16.4799 16.2923C16.6244 16.4533 16.9002 16.3162 17.1666 16.0643C17.4329 15.8129 17.6005 15.5548 17.4453 15.3806Z" clip-rule="evenodd"/><path fill="#0055A6" fill-rule="evenodd" d="M17.0154 18.4779C17.0239 18.4709 17.0321 18.4634 17.0398 18.4556C17.1818 18.328 17.2623 18.1323 17.2623 17.918C17.2623 17.5059 16.9365 17.1706 16.5356 17.1706C16.1355 17.1706 15.8101 17.5059 15.8101 17.918C15.8101 17.9741 15.8205 18.0646 15.8205 18.0646C15.7878 18.0006 15.6681 17.7157 15.6437 17.664C15.7519 17.2615 16.1103 16.9658 16.5352 16.9658C16.9014 16.9658 17.2177 17.1847 17.368 17.5018C17.3106 17.1252 17.1281 16.7862 16.9989 16.6607C16.8449 16.5108 16.581 16.4629 16.581 16.4629C16.7536 16.4914 16.9811 16.3824 17.2351 16.1425C17.4766 15.9142 17.6013 15.7156 17.6083 15.5487C17.5931 15.7841 17.6001 15.9158 17.6649 16.107C17.7529 16.3675 17.9928 16.8473 17.9073 17.389C17.8602 17.6868 17.6505 18.1294 17.2999 18.4915C17.2243 18.5728 17.1963 18.693 17.188 18.7562C17.188 18.7562 16.6706 18.7562 16.5476 18.7669C16.5476 18.7669 16.4245 18.7562 16.4266 18.6765C16.4291 18.598 16.4972 18.5778 16.5579 18.5778C16.6203 18.5774 16.8775 18.5836 17.0154 18.4779ZM13.6069 18.6323C13.1663 18.3833 12.7357 18.0018 12.3467 17.3911L12.2773 17.271C12.383 17.3193 12.5201 17.2862 12.5201 17.2862C12.5267 17.2961 12.5433 17.3234 12.5523 17.3387C12.914 17.8882 13.3154 18.2355 13.7254 18.4622L13.6069 18.6323ZM14.1519 18.6583C14.4856 18.7834 14.8175 18.8482 15.133 18.8978C15.3378 18.9304 15.5385 18.9412 15.7305 18.9317C15.7249 18.9685 15.7305 19.0062 15.7466 19.0398C15.7466 19.0398 15.7077 19.0857 15.7077 19.1373C15.5116 19.1455 15.3093 19.1332 15.102 19.1005C14.7585 19.046 14.3955 18.9742 14.0318 18.833L14.1519 18.6583ZM16.5195 18.8276C16.5802 18.8177 16.7739 18.8226 16.8899 18.8412C17.0171 18.8619 17.162 18.8887 17.1773 18.9606C17.1917 19.0291 17.1459 19.1022 17.0806 19.2058C17.0406 19.2698 16.9469 19.2331 16.8936 19.2133C16.8416 19.193 16.5435 19.0287 16.4947 18.9746C16.4468 18.9197 16.427 18.8437 16.5195 18.8276ZM16.2136 19.0303C16.242 19.0128 16.274 19.0018 16.3072 18.9983C16.3405 18.9948 16.3741 18.9988 16.4056 19.0101C16.4852 19.0415 16.7801 19.2203 16.7999 19.3037C16.8193 19.3867 16.7796 19.4296 16.7338 19.4482C16.6886 19.4675 16.6412 19.4809 16.5926 19.4882C16.5576 19.4894 16.5227 19.4824 16.491 19.4676C16.4592 19.4528 16.4313 19.4307 16.4097 19.4032C16.3721 19.3557 16.2342 19.1844 16.2136 19.1455C16.1946 19.1071 16.1838 19.051 16.2136 19.0303ZM16.1785 19.2182C16.221 19.2669 16.3403 19.416 16.3544 19.4399C16.3676 19.4647 16.3473 19.5023 16.3106 19.4986C16.2726 19.4949 16.0703 19.4734 15.9547 19.3912C15.8382 19.3099 15.7602 19.1526 15.8407 19.0952C15.92 19.0369 16.0443 19.063 16.1785 19.2182ZM16.1132 18.7644C16.1516 18.7549 16.3048 18.7145 16.3382 18.7669C16.38 18.8313 16.3498 18.9011 16.2313 18.9601C16.1128 19.0188 15.8886 19.0654 15.844 19.0027C15.8002 18.9387 15.8622 18.8313 16.1132 18.7644Z" clip-rule="evenodd"/></svg>